<?xml version="1.0" encoding="utf-8"?>
<!-- Generator: Adobe Illustrator 24.0.1, SVG Export Plug-In . SVG Version: 6.00 Build 0)  -->
<svg version="1.1" id="Livello_1" xmlns="http://www.w3.org/2000/svg" xmlns:xlink="http://www.w3.org/1999/xlink" x="0px" y="0px"
	 viewBox="0 0 890.8 500.9" style="enable-background:new 0 0 890.8 500.9;" xml:space="preserve">
<style type="text/css">
	.st0{fill:#41AE69;}
	.st1{fill:#FFE400;}
</style>
<rect class="st0" width="890.8" height="500.9"/>
<g>
	<g>
		<g>
			<g>
				<path class="st1" d="M251.4,227.7c2.3,23.3,23,40.3,46.3,38l1.1,11.4c0.1,1.5-1,2.8-2.5,2.9c-29.9,1.5-56-20.7-59-50.8
					s18.3-57,47.9-61.4c1.5-0.2,2.8,0.9,3,2.3l1.1,11.4C266,183.7,249.1,204.4,251.4,227.7z"/>
				<path class="st1" d="M289.9,187.1l7.2,72.7c-20.1,2-37.9-12.7-39.9-32.7C255.2,207,269.8,189.1,289.9,187.1z"/>
			</g>
			<path class="st1" d="M340.9,278.2H329c-1.4,0-2.5-1-2.7-2.4l-11-103.8c-0.2-1.6,1.1-2.9,2.7-2.9h34c1.6,0,2.8,1.4,2.7,2.9
				l-11,103.8C343.4,277.1,342.3,278.2,340.9,278.2z"/>
			<path class="st1" d="M493.6,169.1h11.9c1.4,0,2.5,1,2.7,2.4l11,103.8c0.2,1.6-1.1,2.9-2.7,2.9h-34c-1.6,0-2.8-1.4-2.7-2.9
				l11-103.8C491.1,170.1,492.3,169.1,493.6,169.1z"/>
			<g>
				<path class="st1" d="M591.5,167.9c-30.8,0-55.7,25-55.7,55.7s25,55.7,55.7,55.7c30.8,0,55.7-25,55.7-55.7
					S622.3,167.9,591.5,167.9z M591.5,265.4c-23.1,0-41.8-18.7-41.8-41.8c0-23.1,18.7-41.8,41.8-41.8c23.1,0,41.8,18.7,41.8,41.8
					C633.3,246.7,614.5,265.4,591.5,265.4z"/>
				<path class="st1" d="M627.9,223.6c0,20.1-16.3,36.4-36.4,36.4c-20.1,0-36.4-16.3-36.4-36.4c0-20.1,16.3-36.4,36.4-36.4
					C611.6,187.2,627.9,203.5,627.9,223.6z"/>
			</g>
			<g>
				<g>
					<path class="st1" d="M397.1,203.4l20.8-3.2c0.4-0.1,0.7-0.3,0.7-0.6l0-1c0-0.9-0.1-1.9-0.4-2.8c-1.4-4.9-6-8.5-11.3-8.5
						c-0.2,0-0.4,0-0.6,0c-6.4,0.3-11.4,6-11.1,12.5l0.1,1.8C395.2,202.8,396.1,203.5,397.1,203.4z"/>
					<path class="st1" d="M441.1,211.4L441.1,211.4c0,0,2.3-5.4,1-14.2c0,0,0,0,0,0c-2.5-16.9-17.1-29.8-34.7-29.8
						c-19.3,0-35,15.7-35,35c0,0.8,0,1.6,0.1,2.4l1.5,42.3c0,0.2,0,0.4,0,0.5c0,1.2,0.1,2.3,0.1,3.4l0,0.2l0,0
						c1.9,22.2,20.5,39.7,43.2,39.7c24,0,43.4-19.4,43.4-43.4C460.7,232.5,452.9,219.2,441.1,211.4z M389.3,200.2
						c-0.4-9.7,7-18.1,16.6-18.6c9.3-0.5,17.3,6.4,18.4,15.4l0.1,2.5c0,0,0,0,0,0.1c-0.1,3.2-2.5,5.8-5.6,6.3l-25.8,4
						c-1.7,0.3-3.3-1-3.4-2.8L389.3,200.2z M419.8,274.7c-15,0.8-27.8-10.8-28.6-25.8l-1-20.4c-0.1-2.3,1.5-4.3,3.8-4.7l18.9-3
						c1.4-0.3,2.8-0.5,4.2-0.5c15-0.8,27.8,10.8,28.6,25.8C446.3,261.2,434.8,274,419.8,274.7z"/>
					<path class="st1" d="M418.4,226.2c-0.4,0-0.7,0-1.1,0c-1.1,0.1-2.2,0.2-3.3,0.4l-0.1,0l-15.3,2.4c-1.5,0.2-2.5,1.5-2.4,3
						l0.9,16.6c0.6,11.4,10,20.3,21.3,20.3c0,0,0,0,0,0c0.4,0,0.7,0,1.1,0c6.6-0.3,12.7-3.7,16.5-9.2c2.2-3.2,3.5-7,3.7-10.9
						C440.4,236.3,430.6,226.2,418.4,226.2z"/>
				</g>
			</g>
		</g>
		<g>
			<path class="st1" d="M261.4,310.3c-2.2-2.4-4.3-3-6.4-3c-6.3,0-10.5,4.8-10.5,10.9c0,6.5,4.2,11.3,10.5,11.3
				c2.5,0,4.8-1.1,6.9-3.7l4.5,3.2c-2.8,3.8-6.9,5.4-11.4,5.4c-9.4,0-16.1-6.4-16.1-15.9c0-9.8,6.7-16.2,16.1-16.2
				c4.1,0,7.7,1.3,10.7,4.8L261.4,310.3z"/>
			<path class="st1" d="M272.1,302.8c1.9,0,3.4,1.3,3.4,3.1c0,1.8-1.5,3.1-3.4,3.1c-1.9,0-3.3-1.5-3.3-3.1
				C268.8,304.3,270.2,302.8,272.1,302.8z M269.6,312.9h5.2v20.7h-5.2V312.9z"/>
			<path class="st1" d="M280.7,301h5.2v14.5h0.1c1.1-1.3,3.1-3.1,7-3.1c5.9,0,10,4.7,10,10.9s-3.8,10.9-10.2,10.9
				c-2.9,0-5.6-1.1-7.1-3.6h-0.1v3.1h-4.9V301z M291.8,317.1c-3.8,0-6.1,3-6.1,6.2c0,3.2,2.3,6.2,6.1,6.2c3.8,0,6.1-3,6.1-6.2
				C297.8,320.1,295.6,317.1,291.8,317.1z"/>
			<path class="st1" d="M318.1,312.4c6.3,0,11.3,4.4,11.3,10.9s-5,10.9-11.3,10.9s-11.3-4.4-11.3-10.9S311.8,312.4,318.1,312.4z
				 M318.1,329.5c3.8,0,6.1-3,6.1-6.2c0-3.2-2.3-6.2-6.1-6.2s-6.1,3-6.1,6.2C312,326.5,314.3,329.5,318.1,329.5z"/>
			<path class="st1" d="M346.9,301h5.2v14.5h0.1c1.1-1.3,3.1-3.1,7-3.1c5.9,0,10,4.7,10,10.9s-3.8,10.9-10.2,10.9
				c-2.9,0-5.6-1.1-7.1-3.6h-0.1v3.1h-4.9V301z M358,317.1c-3.8,0-6.1,3-6.1,6.2c0,3.2,2.3,6.2,6.1,6.2c3.8,0,6.1-3,6.1-6.2
				C364.1,320.1,361.8,317.1,358,317.1z"/>
			<path class="st1" d="M376.7,302.8c1.9,0,3.4,1.3,3.4,3.1c0,1.8-1.5,3.1-3.4,3.1c-1.9,0-3.3-1.5-3.3-3.1
				C373.4,304.3,374.8,302.8,376.7,302.8z M374.2,312.9h5.2v20.7h-5.2V312.9z"/>
			<path class="st1" d="M395.5,312.4c6.3,0,11.3,4.4,11.3,10.9s-5,10.9-11.3,10.9s-11.3-4.4-11.3-10.9S389.2,312.4,395.5,312.4z
				 M395.5,329.5c3.8,0,6.1-3,6.1-6.2c0-3.2-2.3-6.2-6.1-6.2s-6.1,3-6.1,6.2C389.4,326.5,391.7,329.5,395.5,329.5z"/>
			<path class="st1" d="M413.3,327.7h5.3l-3.7,11.4h-4.6L413.3,327.7z"/>
			<path class="st1" d="M451.2,319.2c-1.2-1.3-2.5-2.1-3.9-2.1c-3.8,0-6.1,3-6.1,6.2c0,3.2,2.3,6.2,6.1,6.2c1.6,0,3.1-0.7,4-1.9
				l3.4,3.7c-2.1,2.1-5.6,2.9-7.5,2.9c-6.3,0-11.3-4.4-11.3-10.9s5-10.9,11.3-10.9c2.6,0,5.5,0.9,7.5,3.1L451.2,319.2z"/>
			<path class="st1" d="M468.1,312.4c6.3,0,11.3,4.4,11.3,10.9s-5,10.9-11.3,10.9s-11.3-4.4-11.3-10.9S461.8,312.4,468.1,312.4z
				 M468.1,329.5c3.8,0,6.1-3,6.1-6.2c0-3.2-2.3-6.2-6.1-6.2s-6.1,3-6.1,6.2C462,326.5,464.3,329.5,468.1,329.5z"/>
			<path class="st1" d="M484.2,312.9h4.9v3.3h0.1c0.9-2.1,2.9-3.8,6.3-3.8c5.6,0,7.5,3.9,7.5,8.1v13.1h-5.2v-10.5
				c0-2.3-0.2-6.1-3.8-6.1c-3.4,0-4.7,2.5-4.7,5.3v11.3h-5.2V312.9z"/>
			<path class="st1" d="M534.2,331L534.2,331c-1.5,2.2-4.1,3.1-6.7,3.1c-3.9,0-7.5-2.2-7.5-6.5c0-7.2,8.8-7.4,14.2-7.4
				c0-2.3-1.9-3.8-4.1-3.8c-2.1,0-3.9,0.9-5.3,2.5l-3.4-3.5c2.4-2.2,5.8-3.4,9.2-3.4c7.5,0,9.6,3.8,9.6,10.8v10.6h-5.9V331z
				 M532.6,324.5c-2,0-6.4,0.2-6.4,3c0,1.6,1.6,2.3,3.1,2.3c2.5,0,4.9-1.3,4.9-3.9v-1.4H532.6z"/>
			<path class="st1" d="M544.2,312.7h6.2v2.8h0.1c0.9-1.6,3-3.4,6.1-3.4c2.9,0,5.3,1.2,6.5,3.8c1.5-2.7,3.5-3.8,6.6-3.8
				c5.7,0,7.4,4,7.4,9.1v12.4h-6.5v-12.2c0-1.9-0.7-3.6-2.8-3.6c-3,0-3.9,2.1-3.9,4.7v11.1h-6.5v-11.1c0-1.6,0.1-4.7-2.9-4.7
				c-3.4,0-3.9,2.6-3.9,5.3v10.4h-6.5V312.7z"/>
			<path class="st1" d="M592.5,312.2c6.5,0,11.6,4.3,11.6,11s-5.2,11-11.6,11s-11.6-4.3-11.6-11S586.1,312.2,592.5,312.2z
				 M592.5,328.5c3.2,0,5.2-2.2,5.2-5.3s-1.9-5.3-5.2-5.3c-3.2,0-5.2,2.2-5.2,5.3S589.3,328.5,592.5,328.5z"/>
			<path class="st1" d="M608,312.7h6.5v3.4h0.1c1.4-2.5,3.2-3.9,6-3.9c0.7,0,1.6,0,2.2,0.2v5.9c-0.9-0.3-1.8-0.4-2.8-0.4
				c-4.9,0-5.5,2.8-5.5,7v8.8H608V312.7z"/>
			<path class="st1" d="M644.6,330c-2.1,2.6-5.5,4.1-8.8,4.1c-6.5,0-11.6-4.3-11.6-11s5.2-11,11.6-11c6,0,9.8,4.3,9.8,11v2h-15
				c0.5,2.5,2.4,4.1,4.9,4.1c2.1,0,3.5-1.1,4.6-2.5L644.6,330z M639.1,320.8c0-2.2-1.6-4-4-4c-2.8,0-4.4,1.9-4.6,4H639.1z"/>
		</g>
	</g>
</g>
</svg>
