<?xml version="1.0" encoding="utf-8"?>
<!-- Generator: Adobe Illustrator 24.0.1, SVG Export Plug-In . SVG Version: 6.00 Build 0)  -->
<svg version="1.1" id="Livello_1" xmlns="http://www.w3.org/2000/svg" xmlns:xlink="http://www.w3.org/1999/xlink" x="0px" y="0px"
	 viewBox="0 0 501.8 500.9" style="enable-background:new 0 0 501.8 500.9;" xml:space="preserve">
<style type="text/css">
	.st0{fill:#41AE69;}
	.st1{fill:#FFE400;}
</style>
<rect class="st0" width="501.8" height="501.8"/>
<g>
	<g>
		<path class="st1" d="M97.5,167.7h4.5l17.4,40.9h-5.6l-4.2-10.1H89.1l-4.3,10.1h-5.5L97.5,167.7z M99.6,174h-0.1L91,194.1h16.7
			L99.6,174z"/>
		<path class="st1" d="M135.3,208.6h-5l-11-27.1h5.3l8.4,21.2h0.1l8-21.2h4.9L135.3,208.6z"/>
		<path class="st1" d="M175,203.7c-3.2,4.1-7,5.6-12,5.6c-8.5,0-13.7-6.4-13.7-14.3c0-8.4,5.9-14.3,13.8-14.3
			c7.6,0,12.8,5.2,12.8,14.2v1.6h-21.9c0.3,4.7,4,8.6,8.9,8.6c3.9,0,6.5-1.4,8.6-4.1L175,203.7z M171.2,192.7
			c-0.2-4.6-3.2-7.6-8.1-7.6c-5,0-8.2,3-8.9,7.6H171.2z"/>
		<path class="st1" d="M182.9,188c0-2.5-0.2-4.6-0.2-6.5h4.3c0,1.5,0.1,2.9,0.1,4.5h0.1c1.2-2.7,4.6-5.1,9.1-5.1
			c7.1,0,10.3,4.5,10.3,11v16.7h-4.5v-16.2c0-4.5-2-7.4-6.1-7.4c-5.8,0-8.4,4.3-8.4,10.4v13.2H183L182.9,188L182.9,188z"/>
		<path class="st1" d="M217.8,167.7c1.9,0,3.3,1.5,3.3,3.3c0,1.9-1.4,3.3-3.3,3.3s-3.3-1.4-3.3-3.3
			C214.5,169.3,216,167.7,217.8,167.7z M215.5,181.6h4.5v27.1h-4.5V181.6z"/>
		<path class="st1" d="M229,188c0-2.5-0.2-4.6-0.2-6.5h4.3c0,1.5,0.1,2.9,0.1,4.5h0.1c1.2-2.7,4.6-5.1,9.1-5.1
			c0.6,0,1.2,0.1,1.9,0.3l-0.3,4.6c-0.7-0.2-1.7-0.3-2.4-0.3c-5.5,0-7.9,3.9-7.9,10.1v13.2H229V188z"/>
		<path class="st1" d="M266.2,167.7h4.9v36.4h18.7v4.5h-23.6V167.7z"/>
		<path class="st1" d="M317.3,172.2h-13.5v36.4h-4.9v-36.4h-13.5v-4.5h32V172.2z"/>
		<path class="st1" d="M358.5,175c-1.7-2.6-4.5-3.7-7.5-3.7c-4.3,0-8.7,2-8.7,6.9c0,3.7,2.1,5.4,8.6,7.5c6.4,2,12.3,4.1,12.3,12.2
			c0,8.1-7,12-14.4,12c-4.8,0-9.8-1.6-12.6-5.6l4.2-3.4c1.8,3,5.2,4.6,8.7,4.6c4.2,0,9-2.4,9-7.1c0-5-3.4-5.9-10.7-8.3
			c-5.8-1.9-10.2-4.5-10.2-11.2c0-7.9,6.8-11.8,14-11.8c4.6,0,8.4,1.2,11.5,4.8L358.5,175z"/>
		<path class="st1" d="M385.3,185.4h-8V199c0,3.4,0.1,6.2,4.1,6.2c1.4,0,2.8-0.3,4-0.9l0.2,4.1c-1.6,0.7-3.5,0.9-5.3,0.9
			c-6.5,0-7.5-3.4-7.5-9.1v-14.8h-5.9v-3.9h5.9v-7.7h4.5v7.7h8v3.9H385.3z"/>
		<path class="st1" d="M413.3,203.8h-0.1c-1.7,3-5.5,5.5-10.4,5.5c-7.6,0-13.5-6.1-13.5-14.3c0-8.2,5.7-14.3,14.3-14.3
			c4,0,7.2,1.8,9.7,4.6h0.1v-20.5h4.5v43.7h-4.5V203.8z M403.7,185.1c-5.8,0-9.6,4.4-9.6,10.1c0,5.6,3.7,10.1,9.6,10.1
			c5.8,0,9.6-4.4,9.6-10.1C413.3,189.5,409.5,185.1,403.7,185.1z"/>
	</g>
	<g>
		<path class="st1" d="M81.7,258.3h1.9v18.3H93v1.7H81.7V258.3z"/>
		<path class="st1" d="M96.6,258.8c0.7,0,1.2,0.5,1.2,1.2c0,0.7-0.5,1.2-1.2,1.2s-1.2-0.5-1.2-1.2C95.3,259.5,95.9,258.8,96.6,258.8
			z M95.8,265.3h1.7v13.1h-1.7V265.3z"/>
		<path class="st1" d="M115.4,277.6c0,6.6-4.3,7.6-7,7.6c-2.6,0-5.2-1-6.5-2.7l1.4-1.2c1.1,1.7,3.1,2.5,5.2,2.5c5.2,0,5.3-4.6,5.3-6
			v-1.8h-0.1c-1,1.6-2.7,2.5-5,2.5c-3.9,0-7-3-7-6.7s3.1-6.7,7-6.7c2.2,0,4,1,5,2.5h0.1v-2.2h1.7L115.4,277.6L115.4,277.6z
			 M108.6,266.5c-2.8,0-5.2,2.3-5.2,5.2c0,2.8,2.3,5.2,5.2,5.2c2.8,0,5.2-2.3,5.2-5.2S111.4,266.5,108.6,266.5z"/>
		<path class="st1" d="M119.5,257h1.7v10.6h0.1c0.7-1.5,2.4-2.6,4.5-2.6c4.1,0,5,2.8,5,5.6v7.8h-1.7v-7.7c0-2.1-0.6-4.2-3.3-4.2
			c-2.5,0-4.6,1.8-4.6,5.3v6.6h-1.7C119.5,278.4,119.5,257,119.5,257z"/>
		<path class="st1" d="M141.7,266.8H138v8.5c0,1.1,0.7,1.9,1.8,1.9c0.6,0,1.4-0.2,1.9-0.4l0.1,1.6c-0.6,0.2-1.6,0.4-2.2,0.4
			c-2.4,0-3.3-1.5-3.3-3.3v-8.5h-2.8v-1.6h2.9v-3.7h1.7v3.7h3.7C141.7,265.4,141.7,266.8,141.7,266.8z"/>
	</g>
	<g>
		<path class="st1" d="M81.5,299.1h5.1c3.9,0,8,0.5,8,5.5c0,2.9-1.9,4.8-5,5.3l5.7,9.3h-2.9l-5.4-9.1h-3.1v9.1h-2.4V299.1z
			 M83.9,308H86c2.6,0,6,0,6-3.3c0-2.9-2.5-3.3-4.9-3.3h-3.2V308z"/>
		<path class="st1" d="M104.7,305.6c4.1,0,7.1,2.8,7.1,7s-3,7-7.1,7c-4.1,0-7.1-2.8-7.1-7C97.7,308.5,100.7,305.6,104.7,305.6z
			 M104.7,317.6c2.8,0,4.7-2.2,4.7-4.9c0-2.7-1.9-4.9-4.7-4.9s-4.7,2.2-4.7,4.9C100.1,315.4,101.9,317.6,104.7,317.6z"/>
		<path class="st1" d="M115.3,309.1c0-1.2-0.1-2.3-0.1-3.1h2.1c0,0.7,0.1,1.5,0.1,2.2h0.1c0.6-1.4,2.2-2.5,4.4-2.5
			c2.8,0,3.7,1.7,4.2,2.5c0.9-1.6,2.2-2.5,4.2-2.5c3.7,0,5,2.1,5,5.5v8H133v-7.9c0-1.9-0.6-3.6-3.2-3.6c-1.9,0-3.4,1.6-3.4,4v7.6
			h-2.2v-7.5c0-2.9-0.7-4.1-2.5-4.1c-2.8,0-4.1,2.1-4.1,5.1v6.5h-2.2v-10.1H115.3L115.3,309.1z"/>
		<path class="st1" d="M139.2,307.7c1.4-1.4,3.3-2.1,5.3-2.1c4,0,5.5,1.9,5.5,5.6v5.7c0,0.7,0.1,1.7,0.2,2.3h-2.1
			c-0.1-0.6-0.1-1.5-0.1-2H148c-0.8,1.4-2.4,2.3-4.4,2.3c-2.7,0-4.9-1.4-4.9-4c0-4.4,5.1-4.7,8.3-4.7h0.8v-0.4
			c0-1.9-1.2-2.9-3.3-2.9c-1.5,0-2.9,0.5-4,1.5L139.2,307.7z M145.7,312.9c-2.8,0-4.6,0.7-4.6,2.5c0,1.7,1.2,2.3,2.9,2.3
			c2.5,0,3.9-1.9,4-4v-0.8L145.7,312.9L145.7,312.9z"/>
		<path class="st1" d="M154.1,309.1c0-1.2-0.1-2.3-0.1-3.1h2.1c0,0.7,0.1,1.5,0.1,2.2h0.1c0.6-1.4,2.2-2.5,4.4-2.5
			c3.4,0,5,2.2,5,5.4v8.2h-2.2v-7.9c0-2.2-0.9-3.6-3-3.6c-2.8,0-4.1,2.1-4.1,5.1v6.5h-2.2L154.1,309.1L154.1,309.1z"/>
	</g>
	<g>
		<path class="st1" d="M81.2,340h3.5v8h9.4v-8h3.6V360h-3.5v-8.9h-9.4v8.9h-3.6V340z"/>
		<path class="st1" d="M104.6,354.4c0.2,2,1.8,3.2,3.6,3.2c1.7,0,2.8-0.8,3.6-1.9l2.4,1.9c-1.6,2-3.6,2.7-5.7,2.7
			c-4.1,0-7.4-2.8-7.4-7.2c0-4.3,3.3-7.2,7.4-7.2c3.7,0,6.4,2.7,6.4,7.4v0.9L104.6,354.4L104.6,354.4z M111.6,351.8
			c0-2-1.4-3.2-3.4-3.2c-2,0-3.2,1.2-3.5,3.2H111.6z"/>
		<path class="st1" d="M126.7,358.2L126.7,358.2c-1,1.6-2.6,2.2-4.5,2.2c-2.5,0-5-1.4-5-4.1c0-4.4,5.2-4.7,8.5-4.7h0.8v-0.4
			c0-1.7-1.4-2.5-3.1-2.5c-1.5,0-2.7,0.5-3.6,1.5l-1.8-1.8c1.5-1.6,3.6-2.2,5.7-2.2c5.8,0,5.8,4.2,5.8,6.1v7.8h-3v-2L126.7,358.2
			L126.7,358.2z M126.5,353.9h-0.7c-1.9,0-5.1,0.1-5.1,2.1c0,1.2,1.2,1.8,2.4,1.8c2.3,0,3.4-1.2,3.4-3.1
			C126.5,354.6,126.5,353.9,126.5,353.9z"/>
		<path class="st1" d="M131.6,346.4h3.6l3.6,9.5h0.1l3.6-9.5h3.4l-5.3,13.6h-3.6L131.6,346.4z"/>
		<path class="st1" d="M146.3,346.4h3.7l3.7,9.5h0.1l3.4-9.5h3.5l-6.5,16.6c-1,2.5-2.2,3.9-5.2,3.9c-0.8,0-1.8-0.1-2.6-0.3l0.4-3
			c0.5,0.2,1.1,0.3,1.8,0.3c1.7,0,2.1-0.6,2.7-2l0.6-1.7L146.3,346.4z"/>
	</g>
	<g>
		<path class="st1" d="M81.1,380.8h7.5c3.5,0,7.3,0.7,7.3,5.1c0,2.2-1.4,3.7-3.4,4.4v0.1c2.6,0.3,4.4,2.3,4.4,4.9
			c0,4.2-4,5.6-7.5,5.6h-8.2V380.8z M85.5,388.8h3.2c1.4,0,2.8-0.5,2.8-2.2s-1.6-2.1-3-2.1h-3V388.8z M85.5,397.1h4
			c1.4,0,2.9-0.6,2.9-2.4c0-1.9-2.1-2.2-3.5-2.2h-3.3V397.1z"/>
		<path class="st1" d="M98.9,379.4h4.3v21.5h-4.3V379.4z"/>
		<path class="st1" d="M114.8,399.1L114.8,399.1c-1,1.5-2.7,2.1-4.4,2.1c-2.6,0-4.9-1.5-4.9-4.3c0-4.8,5.7-4.9,9.4-4.9
			c0-1.5-1.2-2.5-2.7-2.5c-1.4,0-2.5,0.6-3.4,1.7l-2.3-2.3c1.6-1.5,3.9-2.2,6-2.2c5,0,6.2,2.5,6.2,7.1v7h-4V399.1z M113.8,394.8
			c-1.4,0-4.2,0.1-4.2,2c0,1,1,1.5,2,1.5c1.7,0,3.2-0.8,3.2-2.6v-0.9h-1V394.8z"/>
		<path class="st1" d="M130.8,391.5c-0.4-0.6-1.2-1-2.1-1c-2.1,0-3.4,1.5-3.4,3.4c0,2,1.2,3.4,3.4,3.4c0.9,0,1.7-0.5,2.1-1l2.8,2.9
			c-1.4,1.4-3.3,1.9-4.9,1.9c-4.3,0-7.6-2.8-7.6-7.2c0-4.4,3.4-7.2,7.6-7.2c1.7,0,3.5,0.5,4.9,1.9L130.8,391.5z"/>
		<path class="st1" d="M135.1,379.4h4.3v13.1l4.7-5.4h5.2l-5.5,6.2l5.6,7.6h-5.3l-4.7-7l0,0v7h-4.3V379.4z"/>
	</g>
	<g>
		<path class="st1" d="M226.4,258.3h1.9l-2.6,18.3h9.4l-0.2,1.7h-11.2L226.4,258.3z"/>
		<path class="st1" d="M239.3,265.3h1.7l-1.9,13.1h-1.7L239.3,265.3z M241,258.8c0.7,0,1.1,0.5,1.1,1.2c-0.1,0.7-0.7,1.2-1.5,1.2
			s-1.1-0.5-1-1.2C239.7,259.5,240.3,258.8,241,258.8z"/>
		<path class="st1" d="M257.2,277.6c-0.9,6.6-5.4,7.6-8,7.6s-5-1-6-2.7l1.5-1.2c0.9,1.7,2.8,2.5,4.8,2.5c5.2,0,5.9-4.6,6.1-6
			l0.2-1.8h-0.1c-1.2,1.6-3.1,2.5-5.3,2.5c-3.9,0-6.6-3-6-6.7c0.5-3.6,4.1-6.7,7.9-6.7c2.2,0,3.9,1,4.6,2.5h0.1l0.3-2.2h1.7
			L257.2,277.6z M252,266.5c-2.8,0-5.5,2.3-5.9,5.2c-0.4,2.8,1.7,5.2,4.5,5.2c2.8,0,5.5-2.3,5.9-5.2
			C256.9,268.8,254.8,266.5,252,266.5z"/>
		<path class="st1" d="M264.3,257h1.7l-1.5,10.6h0.1c0.8-1.5,2.7-2.6,4.9-2.6c4.1,0,4.6,2.8,4.2,5.6l-1.1,7.8h-1.7l1-7.7
			c0.3-2.1,0-4.2-2.7-4.2c-2.5,0-4.8,1.8-5.3,5.3l-0.9,6.6h-1.7L264.3,257z"/>
		<path class="st1" d="M285.1,266.8h-3.7l-1.1,8.5c-0.2,1.1,0.4,1.9,1.6,1.9c0.6,0,1.4-0.2,2-0.4l-0.1,1.6c-0.7,0.2-1.7,0.4-2.3,0.4
			c-2.4,0-3.1-1.5-2.9-3.3l1.1-8.5h-2.8l0.2-1.6h2.8l0.5-3.7h1.7l-0.5,3.7h3.7L285.1,266.8z"/>
		<path class="st1" d="M306.2,257.9c6.1,0,9.8,4.4,8.9,10.5c-0.8,6.1-5.7,10.5-11.9,10.5c-6.1,0-9.8-4.4-8.9-10.5
			C295.3,262.3,300.2,257.9,306.2,257.9z M303.5,277.3c5.2,0,9.1-3.9,9.8-8.9c0.7-5-2-8.9-7.3-8.9s-9.1,3.9-9.8,8.9
			C295.6,273.4,298.3,277.3,303.5,277.3z"/>
		<path class="st1" d="M320.1,257h1.7l-1.5,10.6h0.1c1.4-1.8,3.6-2.6,5.6-2.6c4.1,0,6.5,2.9,5.9,6.9c-0.5,4-3.9,6.9-7.8,6.9
			c-2,0-4.1-0.8-4.9-2.6h-0.1l-0.3,2.3h-1.7L320.1,257z M324.2,277.3c3.2,0,5.5-2.4,5.9-5.3c0.4-2.9-1.2-5.3-4.4-5.3
			c-3.1,0-5.8,2.4-6.2,5.3C319.1,274.9,321.1,277.3,324.2,277.3z"/>
		<path class="st1" d="M338.1,257h1.7l-3,21.5h-1.7L338.1,257z"/>
		<path class="st1" d="M343.7,265.3h1.7l-1.9,13.1h-1.7L343.7,265.3z M345.5,258.8c0.7,0,1.1,0.5,1.1,1.2c-0.1,0.7-0.7,1.2-1.5,1.2
			c-0.7,0-1.1-0.5-1-1.2C344.1,259.5,344.8,258.8,345.5,258.8z"/>
		<path class="st1" d="M360.2,276.1L360.2,276.1c-1.4,1.8-3.7,2.6-5.6,2.6c-4.1,0-6.5-2.9-5.9-6.9s3.9-6.9,7.9-6.9
			c2,0,4.1,0.8,4.9,2.6h0.1l0.3-2.3h1.7l-2.7,19.6h-1.7L360.2,276.1z M356.2,266.5c-3.2,0-5.5,2.4-5.9,5.3c-0.4,2.9,1.2,5.3,4.5,5.3
			c3.1,0,5.8-2.4,6.2-5.3C361.3,268.9,359.2,266.5,356.2,266.5z"/>
		<path class="st1" d="M377.3,274.8c-0.1,0.9-0.3,3-0.4,3.6h-1.7c0.1-0.9,0.2-2.1,0.2-2.3h-0.1c-0.8,1.5-2.7,2.6-4.9,2.6
			c-4.1,0-4.6-2.8-4.2-5.6l1.1-7.8h1.7l-1,7.7c-0.3,2.1,0,4.2,2.7,4.2c2.5,0,4.8-1.8,5.3-5.3l0.9-6.6h1.7L377.3,274.8z"/>
		<path class="st1" d="M393.3,275.9c-1.7,2-3.7,2.8-6,2.8c-4,0-6.2-2.8-5.6-6.9c0.5-4,3.6-6.9,7.5-6.9c4.1,0,5.7,3.1,5.3,6.1
			l-0.2,1.1h-11c-0.2,1.5,0.3,4.9,4.3,4.9c1.8,0,3.6-0.9,4.7-2.3L393.3,275.9z M392.8,270.8c0.3-2.3-1.5-4.3-4-4.3
			c-3.7,0-5.3,3.5-5.3,4.3H392.8z"/>
	</g>
	<g>
		<path class="st1" d="M226.1,299.1h5.1c3.9,0,7.9,0.5,7.2,5.5c-0.4,2.9-2.6,4.8-5.7,5.3l4.4,9.3h-2.9l-4.2-9.1h-3l-1.2,9.1h-2.4
			L226.1,299.1z M227.2,308h2.1c2.6,0,6,0,6.6-3.3c0.4-2.9-2.1-3.3-4.4-3.3h-3.3L227.2,308z"/>
		<path class="st1" d="M248.3,305.6c4.1,0,6.7,2.8,6.1,7c-0.6,4.2-4,7-8.1,7c-4.2,0-6.7-2.8-6-7
			C240.8,308.5,244.3,305.6,248.3,305.6z M246.7,317.6c2.8,0,5-2.2,5.4-4.9c0.4-2.8-1.1-4.9-4.1-4.9c-2.8,0-5,2.2-5.4,4.9
			C242.3,315.4,243.9,317.6,246.7,317.6z"/>
		<path class="st1" d="M258.4,309.1c0.2-1.2,0.2-2.3,0.3-3.1h2.1c-0.1,0.7-0.1,1.5-0.2,2.2h0.1c0.7-1.4,2.6-2.5,4.8-2.5
			c2.8,0,3.5,1.7,3.9,2.5c1.1-1.6,2.5-2.5,4.6-2.5c3.7,0,4.8,2.1,4.3,5.5l-1.4,8h-2.2l1.1-7.9c0.2-1.9-0.1-3.6-2.7-3.6
			c-1.9,0-3.6,1.6-4,4l-1,7.6h-2.2l1-7.5c0.4-2.9-0.2-4.1-2-4.1c-2.8,0-4.4,2.1-4.8,5.1l-1,6.5H257L258.4,309.1z"/>
		<path class="st1" d="M282.6,307.7c1.6-1.4,3.6-2.1,5.5-2.1c4,0,5.3,1.9,4.8,5.6l-0.8,5.7c-0.1,0.7-0.1,1.7-0.1,2.3h-2.1
			c-0.1-0.6,0.1-1.5,0.1-2h-0.1c-1,1.4-2.7,2.3-4.7,2.3c-2.7,0-4.7-1.4-4.4-4c0.6-4.4,5.7-4.7,9.1-4.7h0.8l0.1-0.4
			c0.2-1.9-0.8-2.9-2.9-2.9c-1.5,0-2.9,0.5-4.2,1.5L282.6,307.7z M288.2,312.9c-2.8,0-4.7,0.7-5,2.5c-0.2,1.7,0.9,2.3,2.6,2.3
			c2.5,0,4.1-1.9,4.5-4l0.1-0.8L288.2,312.9L288.2,312.9z"/>
		<path class="st1" d="M297.3,309.1c0.2-1.2,0.2-2.3,0.3-3.1h2.1c-0.1,0.7-0.1,1.5-0.2,2.2h0.1c0.7-1.4,2.6-2.5,4.8-2.5
			c3.4,0,4.8,2.2,4.3,5.4l-1.1,8.2h-2.2l1.1-7.9c0.3-2.2-0.4-3.6-2.5-3.6c-2.8,0-4.4,2.1-4.8,5.1l-0.9,6.5H296L297.3,309.1z"/>
		<path class="st1" d="M320.1,309.2c0.8-6,5.8-10.5,12-10.5c6,0,9.9,4.5,9.1,10.5c-0.8,6-5.9,10.5-12,10.5
			C323,319.7,319.3,315.3,320.1,309.2z M338.5,309.2c0.6-4.6-2.1-8.3-6.8-8.3s-8.4,3.7-9.1,8.3c-0.6,4.6,2.1,8.3,6.8,8.3
			S337.9,313.8,338.5,309.2z"/>
		<path class="st1" d="M346,297.8h2.2l-1.5,10.1h0.1c1.5-1.5,3.1-2.3,5.1-2.3c4.2,0,6.6,2.9,6,7c-0.5,4-4,7-7.6,7
			c-2.4,0-4.1-1.1-4.7-2.7h-0.1l-0.3,2.4h-2.2L346,297.8z M350.1,317.6c2.8,0,5-2.2,5.4-4.9c0.4-2.8-1.1-4.9-4.1-4.9
			c-2.8,0-5,2.2-5.4,4.9C345.7,315.4,347.3,317.6,350.1,317.6z"/>
		<path class="st1" d="M363.6,297.8h2.2l-3,21.5h-2.2L363.6,297.8z"/>
		<path class="st1" d="M369.2,306h2.2l-1.9,13.2h-2.2L369.2,306z M371.3,299.1c0.9,0,1.5,0.7,1.4,1.7c-0.1,0.9-0.9,1.7-1.9,1.7
			c-0.9,0-1.5-0.7-1.4-1.7C369.5,299.9,370.4,299.1,371.3,299.1z"/>
		<path class="st1" d="M386.3,325.7h-2.2l1.1-8.4h-0.1c-1.5,1.5-3.1,2.3-5.1,2.3c-4.2,0-6.6-2.9-5.9-7c0.5-4,3.9-7,7.6-7
			c2.4,0,4.2,1.1,4.7,2.7h0.1l0.3-2.4h2.2L386.3,325.7z M381.9,307.7c-2.8,0-5,2.2-5.4,4.9c-0.4,2.8,1.1,4.9,4,4.9
			c2.8,0,5-2.2,5.4-4.9C386.3,309.9,384.7,307.7,381.9,307.7z"/>
		<path class="st1" d="M403.3,316.1c-0.2,1.2-0.2,2.3-0.3,3.1h-2.1c0.1-0.7,0.1-1.5,0.2-2.2H401c-0.8,1.4-2.6,2.5-4.8,2.5
			c-3.4,0-4.7-2.2-4.3-5.4l1.1-8.2h2.2l-1.1,7.9c-0.3,2.2,0.4,3.6,2.5,3.6c2.8,0,4.4-2.1,4.9-5.1l0.9-6.5h2.2L403.3,316.1z"/>
		<path class="st1" d="M419.2,316.8c-1.9,2-3.9,2.7-6.2,2.7c-4.2,0-6.2-3.1-5.7-7c0.5-4.1,3.9-7,7.8-7c3.7,0,5.9,2.5,5.3,7l-0.1,0.7
			h-10.7c-0.2,2.3,1.4,4.3,3.7,4.3c1.9,0,3.3-0.7,4.5-2L419.2,316.8z M418.1,311.4c0.2-2.2-1-3.7-3.4-3.7s-4.3,1.5-4.9,3.7H418.1z"
			/>
	</g>
	<g>
		<path class="st1" d="M89.6,116.3c0.8,0.5,1.5,1.1,1.9,2.1c0.4,0.9,0.7,2,0.7,3.2c0,1.2-0.2,2.3-0.7,3.1c-0.4,0.9-1.1,1.6-1.9,2.1
			c-0.8,0.5-1.8,0.7-2.8,0.7c-1.1,0-2.2-0.3-3-0.9c-0.8-0.6-1.4-1.5-1.7-2.4v8.6h-1.5v-17.2h1.5v3.2c0.3-1,0.8-1.8,1.7-2.4
			c0.8-0.6,1.9-0.9,3-0.9C87.9,115.5,88.8,115.8,89.6,116.3z M84.2,117.4c-0.6,0.4-1.1,0.9-1.6,1.7s-0.5,1.5-0.5,2.4
			c0,0.9,0.2,1.8,0.5,2.4s0.8,1.2,1.6,1.7c0.6,0.4,1.4,0.6,2.2,0.6c1.4,0,2.4-0.4,3.1-1.2s1.1-2,1.1-3.4c0-1.5-0.4-2.6-1.1-3.4
			c-0.7-0.8-1.9-1.2-3.1-1.2C85.6,116.9,84.9,117,84.2,117.4z"/>
		<path class="st1" d="M102.9,116.5c0.8,0.6,1.4,1.5,1.7,2.4v-3.2h1.5v11.6h-1.5V124c-0.3,1-0.8,1.8-1.7,2.4c-0.8,0.6-1.9,0.9-3,0.9
			c-1,0-2-0.2-2.8-0.7c-0.8-0.5-1.5-1.1-2-2.1c-0.4-0.9-0.7-2-0.7-3.1c0-1.2,0.2-2.3,0.7-3.2c0.4-0.9,1.1-1.6,1.9-2.1
			c0.8-0.5,1.8-0.7,2.8-0.7C101,115.5,102,115.9,102.9,116.5z M97,118.1c-0.8,0.8-1.1,2-1.1,3.4s0.4,2.6,1.1,3.4
			c0.8,0.8,1.9,1.2,3.1,1.2c0.8,0,1.6-0.2,2.2-0.6c0.6-0.4,1.1-0.9,1.6-1.7c0.4-0.7,0.5-1.6,0.5-2.4c0-0.9-0.2-1.8-0.5-2.4
			c-0.4-0.7-0.9-1.2-1.6-1.7c-0.6-0.4-1.4-0.6-2.2-0.6C98.9,116.9,97.9,117.3,97,118.1z"/>
		<path class="st1" d="M109.5,115.6l4.1,9.7l3.7-9.7h1.7l-6.9,17.1h-1.7l2.3-5.6l-4.9-11.5C107.9,115.6,109.5,115.6,109.5,115.6z"/>
		<path class="st1" d="M129.1,116.3c0.8,0.5,1.6,1.1,2.1,2.1c0.5,0.9,0.7,2,0.7,3.2c0,1.2-0.2,2.3-0.7,3.1c-0.5,0.9-1.1,1.6-2.1,2.1
			c-0.8,0.5-1.9,0.7-2.9,0.7c-1.1,0-2.1-0.2-3-0.7c-0.8-0.5-1.6-1.1-2.1-2.1c-0.5-0.9-0.7-2-0.7-3.1c0-1.2,0.2-2.3,0.7-3.2
			c0.5-0.9,1.1-1.6,2.1-2.1c0.8-0.5,1.9-0.7,3-0.7C127.2,115.5,128.3,115.8,129.1,116.3z M124,117.3c-0.6,0.3-1.1,0.8-1.6,1.6
			s-0.6,1.6-0.6,2.6c0,1,0.2,1.9,0.6,2.6c0.4,0.7,0.9,1.2,1.6,1.6s1.4,0.5,2.1,0.5s1.5-0.2,2.1-0.5c0.6-0.3,1.1-0.8,1.6-1.6
			c0.4-0.7,0.6-1.6,0.6-2.6c0-1-0.2-1.9-0.6-2.6c-0.4-0.7-0.9-1.2-1.6-1.6c-0.6-0.3-1.4-0.5-2.1-0.5S124.6,117,124,117.3z"/>
		<path class="st1" d="M137.2,113.1c-0.4,0.4-0.6,1-0.6,2.1v0.4h2.9v1.4h-2.9v10.3h-1.5V117h-1.8v-1.4h1.8V115c0-1.4,0.3-2.3,1-2.9
			c0.7-0.6,1.8-0.9,3.3-0.9v1.4C138.4,112.6,137.6,112.8,137.2,113.1z"/>
		<path class="st1" d="M144.3,113.1c-0.4,0.4-0.6,1-0.6,2.1v0.4h2.9v1.4h-2.9v10.3h-1.5V117h-1.8v-1.4h1.8V115c0-1.4,0.3-2.3,1-2.9
			c0.7-0.6,1.8-0.9,3.3-0.9v1.4C145.6,112.6,144.7,112.8,144.3,113.1z"/>
	</g>
	<g>
		<rect x="79.3" y="99.7" class="st1" width="111.9" height="0.5"/>
	</g>
</g>
</svg>
