<?xml version="1.0" encoding="utf-8"?>
<!-- Generator: Adobe Illustrator 24.0.1, SVG Export Plug-In . SVG Version: 6.00 Build 0)  -->
<svg version="1.1" id="Livello_1" xmlns="http://www.w3.org/2000/svg" xmlns:xlink="http://www.w3.org/1999/xlink" x="0px" y="0px"
	 viewBox="0 0 501.8 500.9" style="enable-background:new 0 0 501.8 500.9;" xml:space="preserve">
<style type="text/css">
	.st0{fill:#FFFFFF;}
	.st1{fill:#E53B5B;}
	.st2{fill:#ED8035;}
	.st3{fill:#8061A4;}
	.st4{fill:#FFE400;}
	.st5{opacity:0.5;fill:#FFE400;enable-background:new    ;}
	.st6{opacity:0.5;fill:#ED8035;enable-background:new    ;}
	.st7{opacity:0.5;fill:#E53B5B;enable-background:new    ;}
	.st8{opacity:0.5;fill:#8061A4;enable-background:new    ;}
	.st9{opacity:0.5;fill:#41AC69;enable-background:new    ;}
	.st10{fill:#41AC69;}
</style>
<rect class="st0" width="501.8" height="501.8"/>
<rect x="251" y="167.3" class="st1" width="250.8" height="126.1"/>
<rect x="251" class="st2" width="250.8" height="126.3"/>
<rect x="251" y="334.7" class="st3" width="250.8" height="125.7"/>
<rect class="st4" width="250.8" height="191"/>
<rect y="191" class="st5" width="250.8" height="59.9"/>
<rect x="251" y="126.3" class="st6" width="250.8" height="41.3"/>
<rect x="251" y="293.4" class="st7" width="250.8" height="41.3"/>
<rect x="251" y="460.5" class="st8" width="250.8" height="41.3"/>
<rect y="442.5" class="st9" width="250.8" height="59.3"/>
<rect y="251" class="st10" width="250.8" height="191.6"/>
<g>
	<path class="st10" d="M38.7,35.6h3.4v0.7h-4.4v-9.4h1V35.6z"/>
	<path class="st10" d="M48.3,35.2c0.4-0.3,0.7-0.7,0.9-1.4h1c-0.1,0.7-0.5,1.4-1.1,1.9c-0.6,0.5-1.4,0.7-2.4,0.7
		c-0.7,0-1.3-0.1-1.8-0.4c-0.5-0.3-1-0.7-1.3-1.3c-0.3-0.5-0.4-1.3-0.4-2s0.1-1.4,0.4-2c0.3-0.5,0.7-1,1.3-1.3
		c0.5-0.3,1.2-0.4,1.8-0.4c0.7,0,1.3,0.1,1.8,0.4s1,0.7,1.2,1.2c0.3,0.5,0.4,1.1,0.4,1.6c0,0.2,0,0.4,0,0.6H44
		c0,0.6,0.1,1.2,0.4,1.5c0.2,0.4,0.5,0.7,1,1c0.4,0.2,0.9,0.3,1.3,0.3C47.3,35.6,47.8,35.5,48.3,35.2z M45.4,29.9
		c-0.4,0.2-0.7,0.5-1,0.9c-0.2,0.4-0.4,1-0.4,1.5h5.1c0-0.6-0.1-1.1-0.3-1.5c-0.2-0.4-0.5-0.7-1-1c-0.4-0.2-0.9-0.3-1.3-0.3
		C46.2,29.7,45.8,29.7,45.4,29.9z"/>
	<path class="st10" d="M62.7,29.7c0.5,0.5,0.7,1.3,0.7,2.4v4.3h-1v-4.2c0-0.7-0.2-1.4-0.5-1.8c-0.4-0.4-0.9-0.6-1.6-0.6
		c-0.7,0-1.3,0.2-1.7,0.7c-0.4,0.4-0.6,1.2-0.6,2v3.9h-1v-4.2c0-0.7-0.2-1.4-0.5-1.8c-0.4-0.4-0.9-0.6-1.6-0.6
		c-0.7,0-1.3,0.2-1.7,0.7c-0.4,0.4-0.6,1.2-0.6,2v3.9h-1v-7.3h1v1.7c0.2-0.6,0.5-1.1,1-1.4c0.4-0.3,1-0.4,1.6-0.4
		c0.6,0,1.2,0.2,1.7,0.5c0.4,0.3,0.7,0.9,1,1.5c0.2-0.6,0.5-1.2,1.1-1.5s1.1-0.5,1.7-0.5C61.5,28.9,62.2,29.2,62.7,29.7z"/>
	<path class="st10" d="M70.6,29.4c0.5,0.3,1,0.7,1.3,1.3c0.3,0.5,0.4,1.3,0.4,2s-0.1,1.4-0.4,2c-0.3,0.5-0.7,1-1.3,1.3
		c-0.5,0.3-1.2,0.4-1.8,0.4c-0.7,0-1.3-0.1-1.9-0.4c-0.5-0.3-1-0.7-1.3-1.3c-0.3-0.5-0.4-1.2-0.4-2c0-0.7,0.1-1.4,0.4-2
		c0.3-0.5,0.7-1,1.3-1.3c0.5-0.3,1.2-0.4,1.9-0.4C69.5,28.9,70.1,29.1,70.6,29.4z M67.4,30c-0.4,0.2-0.7,0.5-1,1
		c-0.2,0.4-0.4,1-0.4,1.6c0,0.6,0.1,1.2,0.4,1.6c0.2,0.4,0.5,0.7,1,1c0.4,0.2,0.9,0.3,1.4,0.3c0.4,0,1-0.1,1.3-0.3
		c0.4-0.2,0.7-0.5,1-1c0.2-0.4,0.4-1,0.4-1.6c0-0.6-0.1-1.2-0.4-1.6c-0.2-0.4-0.5-0.7-1-1c-0.4-0.2-0.9-0.3-1.3-0.3
		C68.3,29.7,67.8,29.8,67.4,30z"/>
	<path class="st10" d="M79.8,29.7c0.5,0.5,0.7,1.3,0.7,2.4v4.3h-1v-4.2c0-0.7-0.2-1.4-0.6-1.8c-0.4-0.4-1-0.6-1.6-0.6
		c-0.7,0-1.3,0.2-1.7,0.7c-0.4,0.4-0.6,1.2-0.6,2v3.9h-1v-7.3h1v1.8c0.2-0.6,0.5-1.1,1.1-1.4s1.1-0.5,1.7-0.5
		C78.7,28.9,79.3,29.2,79.8,29.7z"/>
	<path class="st10" d="M90.4,26.8V34c0,0.7-0.2,1.3-0.6,1.7c-0.4,0.4-1,0.6-1.7,0.6c-0.9,0-1.5-0.2-1.9-0.7c-0.4-0.5-0.6-1.2-0.6-2
		h1c0,0.5,0.1,1.1,0.4,1.4c0.2,0.3,0.6,0.5,1.2,0.5s0.9-0.1,1.2-0.4c0.2-0.3,0.3-0.6,0.3-1.1v-7.2C89.6,26.8,90.4,26.8,90.4,26.8z"
		/>
	<path class="st10" d="M98.7,29v7.3h-1v-1.8c-0.2,0.6-0.5,1.1-1.1,1.5c-0.5,0.3-1.1,0.5-1.7,0.5c-0.9,0-1.5-0.3-2-0.9
		c-0.5-0.5-0.7-1.3-0.7-2.4V29h1v4.2c0,0.9,0.2,1.4,0.6,1.8c0.4,0.4,1,0.6,1.6,0.6c0.7,0,1.3-0.2,1.7-0.7s0.6-1.2,0.6-2V29H98.7z"/>
	<path class="st10" d="M100.9,29l2.6,6.1l2.4-6.1h1.1l-4.3,10.8h-1.1l1.5-3.5L100,29C100,29,100.9,29,100.9,29z"/>
	<path class="st10" d="M113.7,29.6c0.6,0.5,1,1.2,1.1,1.9h-1c-0.1-0.5-0.3-1.1-0.9-1.4c-0.4-0.3-1-0.5-1.6-0.5
		c-0.4,0-0.9,0.1-1.3,0.3c-0.4,0.2-0.7,0.5-1,1c-0.2,0.4-0.3,1-0.3,1.6c0,0.6,0.1,1.2,0.3,1.6c0.2,0.4,0.5,0.7,1,1
		c0.4,0.2,0.9,0.3,1.3,0.3c0.6,0,1.2-0.2,1.6-0.5s0.7-0.7,0.9-1.4h1c-0.1,0.9-0.5,1.5-1.1,1.9c-0.6,0.5-1.4,0.7-2.4,0.7
		c-0.7,0-1.3-0.1-1.8-0.4c-0.5-0.3-1-0.7-1.3-1.3c-0.3-0.5-0.4-1.3-0.4-2s0.1-1.4,0.4-2c0.3-0.5,0.7-1,1.3-1.3
		c0.5-0.3,1.2-0.4,1.8-0.4C112.3,28.9,113,29.2,113.7,29.6z"/>
	<path class="st10" d="M121.2,35.2c0.4-0.3,0.7-0.7,0.9-1.4h1c-0.1,0.7-0.5,1.4-1.1,1.9c-0.6,0.5-1.4,0.7-2.4,0.7
		c-0.7,0-1.3-0.1-1.8-0.4c-0.5-0.3-1-0.7-1.3-1.3c-0.3-0.5-0.4-1.3-0.4-2s0.1-1.4,0.4-2c0.3-0.5,0.7-1,1.3-1.3
		c0.5-0.3,1.2-0.4,1.8-0.4c0.7,0,1.3,0.1,1.8,0.4c0.5,0.3,1,0.7,1.2,1.2c0.3,0.5,0.4,1.1,0.4,1.6c0,0.2,0,0.4,0,0.6H117
		c0,0.6,0.1,1.2,0.4,1.5c0.2,0.4,0.5,0.7,1,1c0.4,0.2,0.9,0.3,1.3,0.3C120.3,35.6,120.8,35.5,121.2,35.2z M118.4,29.9
		c-0.4,0.2-0.7,0.5-1,0.9c-0.2,0.4-0.4,1-0.4,1.5h5.1c0-0.6-0.1-1.1-0.3-1.5c-0.2-0.4-0.5-0.7-1-1c-0.4-0.2-0.9-0.3-1.3-0.3
		C119.2,29.7,118.7,29.7,118.4,29.9z"/>
	<path class="st10" d="M44.7,59.8c0.7,0.5,1.3,1.3,1.6,2.2h-1c-0.2-0.6-0.6-1.2-1.3-1.6c-0.5-0.4-1.3-0.6-2.1-0.6
		c-0.6,0-1.3,0.2-1.8,0.5c-0.5,0.3-1,0.7-1.3,1.4c-0.3,0.6-0.4,1.3-0.4,2.1c0,0.7,0.1,1.5,0.4,2c0.3,0.5,0.7,1.1,1.3,1.4
		c0.5,0.3,1.1,0.5,1.8,0.5c0.9,0,1.6-0.2,2.1-0.6c0.5-0.4,1-1,1.3-1.6h1c-0.3,1-0.9,1.7-1.6,2.2C44,68.3,43,68.7,42,68.7
		c-0.9,0-1.6-0.2-2.4-0.6c-0.6-0.4-1.2-1-1.6-1.7s-0.5-1.6-0.5-2.5c0-1,0.2-1.8,0.5-2.5c0.4-0.7,0.9-1.3,1.6-1.7
		c0.6-0.4,1.5-0.6,2.4-0.6C43,58.9,44,59.2,44.7,59.8z"/>
	<path class="st10" d="M57.1,59.2v9.2h-1v-7.7L53,68.4h-0.9l-3.2-7.7v7.7h-1v-9.2H49l3.5,8l3.4-8C56,59.2,57.1,59.2,57.1,59.2z"/>
	<path class="st10" d="M65.6,59l-3,5.8v3.6h-1v-3.6L58.5,59h1.1l2.5,4.7l2.5-4.7H65.6z"/>
	<path class="st10" d="M68.7,63.7l4.5,4.7H72l-4.2-4.4v4.4h-1V59h1v4.4L72,59h1.2L68.7,63.7z"/>
	<path class="st10" d="M82.4,59.1c0.4,0.2,0.7,0.5,1,0.9c0.2,0.3,0.3,0.7,0.3,1.3c0,0.6-0.2,1.1-0.5,1.5c-0.3,0.4-0.9,0.6-1.6,0.7
		v0.1c0.7,0.2,1.3,0.4,1.7,0.9c0.4,0.4,0.6,0.9,0.6,1.6c0,0.7-0.2,1.4-0.7,1.9c-0.5,0.5-1.3,0.7-2.2,0.7c-1,0-1.7-0.2-2.4-0.7
		s-1-1.2-1.1-2.1h1c0.1,0.6,0.3,1.2,0.7,1.5c0.4,0.4,1,0.5,1.6,0.5s1.2-0.2,1.5-0.5c0.3-0.3,0.5-0.7,0.5-1.3c0-0.6-0.2-1.2-0.7-1.5
		c-0.5-0.3-1.2-0.5-2.1-0.5h-0.3v-0.7h0.3c1.8,0,2.7-0.6,2.7-1.8c0-0.5-0.2-1-0.5-1.3c-0.3-0.3-0.9-0.4-1.4-0.4
		c-0.6,0-1.1,0.2-1.5,0.5c-0.4,0.3-0.6,0.9-0.7,1.5h-1c0.1-0.9,0.4-1.6,1-2c0.5-0.5,1.3-0.7,2.2-0.7C81.4,58.8,82,58.9,82.4,59.1z"
		/>
	<path class="st10" d="M95.1,59.8h-5v3.5c0.2-0.3,0.5-0.5,1.1-0.7c0.4-0.2,1-0.3,1.5-0.3c1,0,1.7,0.3,2.2,0.9
		c0.5,0.5,0.7,1.3,0.7,2.1c0,1-0.3,1.7-0.9,2.4c-0.5,0.6-1.3,1-2.4,1c-1,0-1.7-0.2-2.2-0.7c-0.5-0.5-1-1.2-1-2h1
		c0.1,0.6,0.4,1.1,0.7,1.5c0.4,0.3,0.9,0.5,1.5,0.5c0.7,0,1.4-0.2,1.7-0.6c0.4-0.4,0.5-1.1,0.5-1.8s-0.2-1.3-0.6-1.7
		c-0.4-0.4-1-0.6-1.7-0.6c-0.5,0-1,0.1-1.4,0.3c-0.4,0.2-0.6,0.5-0.9,0.9h-1v-5.2H95L95.1,59.8L95.1,59.8z"/>
	<path class="st10" d="M102.4,67.3c0.3,0.3,0.9,0.5,1.4,0.5c0.9,0,1.5-0.3,1.9-1c0.4-0.6,0.6-1.6,0.6-3c0-0.2,0-0.4,0-0.5
		c-0.1,0.5-0.4,1.1-1,1.4c-0.5,0.3-1.1,0.5-1.8,0.5c-1,0-1.7-0.3-2.2-0.9c-0.5-0.5-0.9-1.4-0.9-2.4c0-0.5,0.1-1.1,0.3-1.6
		c0.2-0.4,0.5-0.9,1.1-1.2c0.4-0.3,1.1-0.4,1.7-0.4c1.4,0,2.2,0.4,2.8,1.3c0.5,0.9,0.7,1.9,0.7,3.4c0,1.6-0.2,2.9-0.7,3.7
		c-0.5,0.9-1.4,1.3-2.6,1.3c-0.9,0-1.6-0.2-2-0.7c-0.5-0.5-0.7-1.2-0.9-1.9h0.9C101.9,66.5,102.1,67,102.4,67.3z M105.5,60.4
		c-0.4-0.5-1.1-0.7-1.9-0.7c-0.6,0-1.3,0.2-1.6,0.6c-0.4,0.4-0.6,1-0.6,1.7s0.2,1.4,0.6,1.8c0.4,0.4,1,0.6,1.7,0.6
		c0.4,0,0.9-0.1,1.2-0.2c0.4-0.2,0.6-0.4,1-0.7c0.2-0.3,0.3-0.7,0.3-1.3C106.2,61.5,105.9,60.9,105.5,60.4z"/>
	<path class="st10" d="M112.4,64.6c1-1.1,1.4-2,1.4-3c0-0.5-0.1-1.1-0.4-1.4c-0.3-0.3-0.7-0.5-1.5-0.5s-1.2,0.2-1.6,0.6
		c-0.3,0.4-0.5,1.1-0.6,1.7h-1c0.1-1.1,0.4-1.8,1-2.4c0.5-0.5,1.3-0.9,2.2-0.9c0.9,0,1.5,0.2,2,0.6c0.5,0.4,0.7,1.1,0.7,2
		c0,0.7-0.2,1.5-0.7,2.2s-1.1,1.5-1.8,2.1c-0.7,0.6-1.5,1.2-2.2,1.7h5v0.7h-6.4v-0.6C110.1,66.7,111.4,65.7,112.4,64.6z"/>
	<path class="st10" d="M119.9,63.7c0-1.5,0.2-2.7,0.7-3.5c0.4-0.9,1.3-1.3,2.6-1.3c1.2,0,2,0.4,2.6,1.3c0.5,0.9,0.7,2,0.7,3.5
		s-0.2,2.7-0.7,3.5c-0.5,0.9-1.3,1.3-2.6,1.3c-1.2,0-2-0.4-2.6-1.3C120.1,66.4,119.9,65.2,119.9,63.7z M125.4,63.7
		c0-0.9-0.1-1.5-0.2-2c-0.1-0.5-0.3-1-0.6-1.4c-0.3-0.3-0.9-0.5-1.5-0.5c-0.6,0-1.1,0.2-1.5,0.5c-0.3,0.3-0.5,0.7-0.6,1.4
		c-0.1,0.5-0.2,1.3-0.2,2c0,0.9,0.1,1.5,0.2,2.1c0.1,0.5,0.3,1,0.6,1.4c0.3,0.3,0.9,0.5,1.5,0.5c0.6,0,1.1-0.2,1.5-0.5
		c0.3-0.3,0.5-0.7,0.6-1.4C125.4,65.2,125.4,64.5,125.4,63.7z"/>
	<path class="st10" d="M42.8,84.5l-2.6-4h-1.5v4h-1v-9.4h2.9c1.1,0,1.8,0.2,2.4,0.7c0.5,0.5,0.7,1.2,0.7,2c0,0.7-0.2,1.4-0.6,1.9
		c-0.4,0.4-1.1,0.7-1.9,0.9l2.7,4L42.8,84.5L42.8,84.5z M38.7,79.9h1.9c1.5,0,2.2-0.6,2.2-1.9c0-1.4-0.7-2-2.2-2h-1.9V79.9z"/>
	<path class="st10" d="M52.4,75.8c0.7,0.5,1.3,1.3,1.5,2.1h-1c-0.2-0.6-0.6-1.2-1.2-1.5c-0.5-0.4-1.3-0.6-2-0.6
		c-0.6,0-1.3,0.2-1.8,0.5c-0.5,0.3-1,0.7-1.3,1.4c-0.3,0.6-0.4,1.3-0.4,2.1c0,0.9,0.1,1.5,0.4,2.1s0.7,1.1,1.3,1.4
		c0.5,0.3,1.2,0.5,1.9,0.5c0.6,0,1.2-0.1,1.7-0.4c0.5-0.3,1-0.6,1.3-1.2c0.3-0.5,0.5-1.2,0.5-1.9h-4v-0.7h4.7v0.9
		c-0.1,0.9-0.3,1.5-0.6,2.1c-0.4,0.6-1,1.2-1.6,1.5s-1.4,0.5-2.2,0.5c-0.9,0-1.7-0.2-2.4-0.6c-0.7-0.4-1.3-1-1.6-1.7
		c-0.4-0.7-0.5-1.6-0.5-2.5c0-0.9,0.2-1.7,0.5-2.5c0.4-0.7,1-1.3,1.6-1.7c0.6-0.4,1.5-0.6,2.4-0.6C50.7,75,51.7,75.3,52.4,75.8z"/>
	<path class="st10" d="M61.6,80.4c0.3,0.4,0.5,1,0.5,1.5c0,0.7-0.2,1.4-0.7,1.8c-0.5,0.4-1.3,0.7-2.2,0.7h-3.3v-9.4h3.2
		c1,0,1.7,0.2,2.1,0.6c0.4,0.4,0.7,1,0.7,1.7c0,0.6-0.2,1.1-0.5,1.5c-0.3,0.3-0.7,0.6-1.3,0.7C60.8,79.8,61.3,80,61.6,80.4z
		 M56.8,79.4H59c0.6,0,1.2-0.1,1.5-0.4s0.5-0.7,0.5-1.3c0-0.5-0.2-1-0.5-1.3c-0.3-0.3-0.9-0.4-1.6-0.4h-2.1v3.4H56.8z M60.7,83.2
		c0.4-0.3,0.6-0.7,0.6-1.4c0-0.5-0.2-1.1-0.6-1.4c-0.4-0.3-1-0.5-1.7-0.5h-2.1v3.7H59C59.7,83.8,60.3,83.5,60.7,83.2z"/>
	<path class="st10" d="M70.6,80.6c1-1.1,1.4-2,1.4-3c0-0.5-0.1-1.1-0.4-1.4s-0.7-0.5-1.5-0.5c-0.7,0-1.2,0.2-1.6,0.6
		c-0.3,0.4-0.5,1.1-0.6,1.7h-1c0.1-1.1,0.4-1.8,1-2.4c0.5-0.5,1.3-0.9,2.2-0.9c0.9,0,1.5,0.2,2,0.6s0.7,1.1,0.7,2
		c0,0.7-0.2,1.5-0.7,2.2c-0.5,0.7-1.1,1.5-1.8,2.1s-1.5,1.2-2.2,1.7h5v0.7h-6.4v-0.6C68.5,82.8,69.7,81.7,70.6,80.6z"/>
	<path class="st10" d="M80.9,75.8h-5v3.5c0.2-0.3,0.5-0.5,1.1-0.7c0.5-0.2,1-0.3,1.5-0.3c1,0,1.7,0.3,2.2,0.9
		c0.5,0.5,0.7,1.3,0.7,2.1c0,1-0.3,1.7-0.9,2.4s-1.3,1-2.4,1c-1,0-1.7-0.2-2.2-0.7c-0.5-0.5-1-1.2-1-2h1c0.1,0.6,0.4,1.1,0.7,1.5
		c0.4,0.3,0.9,0.5,1.5,0.5c0.7,0,1.4-0.2,1.7-0.6c0.4-0.4,0.5-1.1,0.5-1.8c0-0.7-0.2-1.3-0.6-1.7s-1-0.6-1.7-0.6
		c-0.5,0-1,0.1-1.4,0.3c-0.4,0.2-0.6,0.5-0.9,0.9H75V75h5.9V75.8z"/>
	<path class="st10" d="M89,75.8h-5v3.5c0.2-0.3,0.5-0.5,1.1-0.7c0.5-0.2,1-0.3,1.5-0.3c1,0,1.7,0.3,2.2,0.9c0.5,0.5,0.7,1.3,0.7,2.1
		c0,1-0.3,1.7-0.9,2.4c-0.5,0.6-1.3,1-2.4,1c-1,0-1.7-0.2-2.2-0.7c-0.5-0.5-1-1.2-1-2h1c0.1,0.6,0.4,1.1,0.7,1.5
		c0.4,0.3,0.9,0.5,1.5,0.5c0.7,0,1.4-0.2,1.7-0.6c0.4-0.4,0.5-1.1,0.5-1.8c0-0.7-0.2-1.3-0.6-1.7c-0.4-0.4-1-0.6-1.7-0.6
		c-0.5,0-1,0.1-1.4,0.3c-0.4,0.2-0.6,0.5-0.9,0.9h-1V75h5.9L89,75.8L89,75.8z"/>
	<path class="st10" d="M98,80.6c1-1.1,1.4-2,1.4-3c0-0.5-0.1-1.1-0.4-1.4c-0.3-0.3-0.7-0.5-1.5-0.5s-1.2,0.2-1.6,0.6
		c-0.3,0.4-0.5,1.1-0.6,1.7h-1c0.1-1.1,0.4-1.8,1-2.4c0.5-0.5,1.3-0.9,2.2-0.9c0.9,0,1.5,0.2,2,0.6c0.5,0.4,0.7,1.1,0.7,2
		c0,0.7-0.2,1.5-0.7,2.2c-0.5,0.7-1.1,1.5-1.8,2.1s-1.5,1.2-2.2,1.7h5v0.7h-6.4v-0.6C95.9,82.8,97.1,81.7,98,80.6z"/>
	<path class="st10" d="M105.6,80.6c1-1.1,1.4-2,1.4-3c0-0.5-0.1-1.1-0.4-1.4c-0.3-0.3-0.7-0.5-1.5-0.5s-1.2,0.2-1.6,0.6
		c-0.3,0.4-0.5,1.1-0.6,1.7h-1c0.1-1.1,0.4-1.8,1-2.4c0.5-0.5,1.3-0.9,2.2-0.9c0.9,0,1.5,0.2,2,0.6c0.5,0.4,0.7,1.1,0.7,2
		c0,0.7-0.2,1.5-0.7,2.2c-0.5,0.7-1.1,1.5-1.8,2.1c-0.7,0.6-1.5,1.2-2.2,1.7h5v0.7h-6.4v-0.6C103.5,82.8,104.7,81.7,105.6,80.6z"/>
	<path class="st10" d="M110.2,76c0.2-0.4,0.6-0.6,1.1-0.9c0.5-0.2,1.1-0.3,1.7-0.3s1.3,0.1,1.7,0.3c0.4,0.2,0.9,0.5,1.1,0.9
		c0.2,0.4,0.4,0.7,0.4,1.3c0,0.5-0.1,1-0.4,1.4c-0.3,0.4-0.7,0.6-1.4,0.9c0.6,0.1,1.2,0.4,1.5,0.9c0.3,0.4,0.5,1,0.5,1.6
		c0,0.9-0.3,1.6-1,2s-1.5,0.7-2.5,0.7c-1.1,0-1.9-0.2-2.5-0.7c-0.6-0.5-1-1.2-1-2c0-0.6,0.2-1.2,0.5-1.6c0.3-0.4,0.9-0.7,1.5-0.9
		c-0.6-0.2-1.1-0.4-1.4-0.9s-0.4-0.9-0.4-1.4C109.8,76.9,109.9,76.5,110.2,76z M111.2,83.5c0.4,0.3,1.1,0.5,1.8,0.5s1.4-0.2,1.8-0.5
		s0.6-0.9,0.6-1.5s-0.2-1.2-0.7-1.5s-1.1-0.5-1.8-0.5s-1.3,0.2-1.8,0.5c-0.4,0.3-0.7,0.9-0.7,1.5C110.4,82.6,110.8,83.1,111.2,83.5z
		 M111.4,78.8c0.4,0.3,1,0.4,1.6,0.4c0.7,0,1.3-0.1,1.6-0.4c0.4-0.3,0.6-0.7,0.6-1.4c0-0.5-0.2-1.1-0.6-1.4c-0.4-0.3-1-0.4-1.6-0.4
		s-1.2,0.1-1.6,0.4s-0.6,0.7-0.6,1.4S111,78.5,111.4,78.8z"/>
	<path class="st10" d="M121.5,79.8c0-1.5,0.2-2.7,0.7-3.5c0.4-0.9,1.3-1.3,2.6-1.3c1.2,0,2,0.4,2.6,1.3c0.5,0.9,0.7,2,0.7,3.5
		c0,1.5-0.2,2.7-0.7,3.5c-0.5,0.9-1.3,1.3-2.6,1.3c-1.2,0-2-0.4-2.6-1.3C121.7,82.5,121.5,81.3,121.5,79.8z M127,79.8
		c0-0.9-0.1-1.5-0.2-2c-0.1-0.5-0.3-1-0.6-1.4c-0.3-0.3-0.9-0.5-1.5-0.5c-0.6,0-1.1,0.2-1.5,0.5c-0.3,0.3-0.5,0.7-0.6,1.4
		c-0.1,0.5-0.2,1.3-0.2,2c0,0.9,0.1,1.5,0.2,2.1c0.1,0.5,0.3,1,0.6,1.4c0.3,0.3,0.9,0.5,1.5,0.5c0.6,0,1.1-0.2,1.5-0.5
		c0.3-0.3,0.5-0.7,0.6-1.4C126.9,81.3,127,80.6,127,79.8z"/>
	<path class="st10" d="M44.8,91.1v9.4h-1v-4.5h-5.1v4.5h-1v-9.4h1v4.2h5.1v-4.2H44.8z"/>
	<path class="st10" d="M47.8,91.9v3.5h3.6v0.7h-3.6v3.6h4.1v0.7h-5v-9.4h5v0.7C51.9,91.9,47.8,91.9,47.8,91.9z"/>
	<path class="st10" d="M58.6,100.7l-2.5-4l-2.2,4h-1.1l2.9-4.8l-2.9-4.6h1.1l2.5,3.9l2.2-3.9h1.1L56.8,96l2.9,4.7H58.6z"/>
	<path class="st10" d="M71.6,94.6l-0.5,2.4H73v0.9h-2.1l-0.6,2.9h-0.9l0.6-2.9h-3l-0.6,2.9h-0.9l0.6-2.9H64v-0.9h2.2l0.5-2.4h-2
		v-0.9H67l0.6-3h0.9l-0.6,3h3l0.6-3h0.9l-0.6,3h1.9v0.9H71.6z M70.6,94.6h-3l-0.5,2.4h3L70.6,94.6z"/>
	<path class="st10" d="M80.3,91.1v0.7h-4.2v3.6h3.6v0.7h-3.6v4.4h-1v-9.4L80.3,91.1L80.3,91.1z"/>
	<path class="st10" d="M86.9,91.1v0.7h-4.2v3.6h3.6v0.7h-3.6v4.4h-1v-9.4L86.9,91.1L86.9,91.1z"/>
	<path class="st10" d="M89.4,91.9v3.5H93v0.7h-3.6v3.6h4.1v0.7h-5v-9.4h5v0.7C93.4,91.9,89.4,91.9,89.4,91.9z"/>
	<path class="st10" d="M94.5,98.3v-0.7l5-6.4h1v6.4h1.5v0.9h-1.5v2.2h-1v-2.2h-5V98.3z M99.6,92.3l-4.1,5.2h4.1V92.3z"/>
	<path class="st10" d="M103.1,95.8c0-1.5,0.2-2.7,0.7-3.5c0.4-0.9,1.3-1.3,2.6-1.3c1.2,0,2,0.4,2.6,1.3c0.5,0.9,0.7,2,0.7,3.5
		s-0.2,2.7-0.7,3.5c-0.5,0.9-1.3,1.3-2.6,1.3c-1.2,0-2-0.4-2.6-1.3C103.3,98.5,103.1,97.3,103.1,95.8z M108.6,95.8
		c0-0.9-0.1-1.5-0.2-2c-0.1-0.5-0.3-1-0.6-1.4c-0.3-0.3-0.9-0.5-1.5-0.5c-0.6,0-1.1,0.2-1.5,0.5c-0.3,0.3-0.5,0.7-0.6,1.4
		c-0.1,0.5-0.2,1.3-0.2,2c0,0.9,0.1,1.5,0.2,2.1c0.1,0.5,0.3,1,0.6,1.4c0.3,0.3,0.9,0.5,1.5,0.5c0.6,0,1.1-0.2,1.5-0.5
		c0.3-0.3,0.5-0.7,0.6-1.4C108.6,97.3,108.6,96.7,108.6,95.8z"/>
	<path class="st10" d="M111.2,95.8c0-1.5,0.2-2.7,0.7-3.5c0.4-0.9,1.3-1.3,2.6-1.3c1.2,0,2,0.4,2.6,1.3c0.5,0.9,0.7,2,0.7,3.5
		s-0.2,2.7-0.7,3.5c-0.5,0.9-1.3,1.3-2.6,1.3c-1.2,0-2-0.4-2.6-1.3C111.4,98.5,111.2,97.3,111.2,95.8z M116.8,95.8
		c0-0.9-0.1-1.5-0.2-2c-0.1-0.5-0.3-1-0.6-1.4c-0.3-0.3-0.9-0.5-1.5-0.5c-0.6,0-1.1,0.2-1.5,0.5c-0.3,0.3-0.5,0.7-0.6,1.4
		c-0.1,0.5-0.2,1.3-0.2,2c0,0.9,0.1,1.5,0.2,2.1c0.1,0.5,0.3,1,0.6,1.4c0.3,0.3,0.9,0.5,1.5,0.5c0.6,0,1.1-0.2,1.5-0.5
		c0.3-0.3,0.5-0.7,0.6-1.4C116.8,97.3,116.8,96.7,116.8,95.8z"/>
</g>
<g>
	<path class="st4" d="M295.8,27.6c0.7,0.5,1.3,1.3,1.6,2.2h-1c-0.2-0.6-0.6-1.2-1.3-1.6c-0.5-0.4-1.3-0.6-2.1-0.6
		c-0.6,0-1.3,0.2-1.8,0.5s-1,0.7-1.3,1.4s-0.4,1.3-0.4,2.1c0,0.9,0.1,1.5,0.4,2c0.3,0.6,0.7,1.1,1.3,1.4s1.1,0.5,1.8,0.5
		c0.9,0,1.6-0.2,2.1-0.6c0.5-0.4,1-1,1.3-1.6h1c-0.3,1-0.9,1.7-1.6,2.2c-0.7,0.5-1.7,0.9-2.8,0.9c-0.9,0-1.6-0.2-2.4-0.6
		c-0.6-0.4-1.2-1-1.6-1.7c-0.4-0.7-0.5-1.6-0.5-2.5c0-1,0.2-1.8,0.5-2.5c0.4-0.7,0.9-1.3,1.6-1.7c0.6-0.4,1.5-0.6,2.4-0.6
		C294.2,26.8,295,27,295.8,27.6z"/>
	<path class="st4" d="M304,29.5c0.5,0.4,0.9,0.9,1.1,1.5v-2h1v7.3h-1v-2c-0.2,0.6-0.5,1.2-1.1,1.5c-0.5,0.4-1.2,0.5-1.9,0.5
		c-0.6,0-1.3-0.1-1.8-0.4s-1-0.7-1.2-1.3c-0.2-0.5-0.4-1.2-0.4-2c0-0.7,0.1-1.4,0.4-2c0.3-0.5,0.6-1,1.2-1.3
		c0.5-0.3,1.1-0.4,1.8-0.4C303,28.9,303.6,29.1,304,29.5z M300.4,30.6c-0.5,0.5-0.7,1.3-0.7,2.1c0,0.9,0.2,1.6,0.7,2.1
		c0.5,0.5,1.2,0.7,1.9,0.7c0.5,0,1-0.1,1.4-0.3c0.4-0.2,0.7-0.5,1-1.1c0.2-0.4,0.3-1,0.3-1.5s-0.1-1.1-0.3-1.5
		c-0.2-0.4-0.5-0.7-1-1.1c-0.4-0.2-0.9-0.3-1.4-0.3C301.6,29.7,300.9,30,300.4,30.6z"/>
	<path class="st4" d="M310.1,29.3c0.4-0.3,1.1-0.4,1.7-0.4v1.1h-0.3c-0.7,0-1.3,0.2-1.7,0.5c-0.4,0.4-0.7,1-0.7,1.8v4h-1V29h1v1.5
		C309.3,30,309.6,29.6,310.1,29.3z"/>
	<path class="st4" d="M315.1,29.3c0.4-0.3,1.1-0.4,1.7-0.4v1.1h-0.3c-0.7,0-1.3,0.2-1.7,0.5c-0.4,0.4-0.7,1-0.7,1.8v4h-1V29h1v1.5
		C314.2,30,314.6,29.6,315.1,29.3z"/>
	<path class="st4" d="M323.2,29.4c0.5,0.3,1,0.7,1.3,1.3c0.3,0.5,0.4,1.3,0.4,2s-0.1,1.4-0.4,2c-0.3,0.6-0.7,1-1.3,1.3
		s-1.2,0.4-1.8,0.4c-0.7,0-1.3-0.1-1.9-0.4c-0.5-0.3-1-0.7-1.3-1.3c-0.3-0.5-0.4-1.2-0.4-2c0-0.7,0.1-1.4,0.4-2
		c0.3-0.5,0.7-1,1.3-1.3c0.5-0.3,1.2-0.4,1.9-0.4C322,28.9,322.7,29.1,323.2,29.4z M320,30c-0.4,0.2-0.7,0.5-1,1
		c-0.2,0.4-0.3,1-0.3,1.6c0,0.6,0.1,1.2,0.3,1.6c0.2,0.4,0.5,0.7,1,1c0.4,0.2,0.9,0.3,1.4,0.3c0.4,0,1-0.1,1.3-0.3
		c0.4-0.2,0.7-0.5,1-1c0.2-0.4,0.4-1,0.4-1.6c0-0.6-0.1-1.2-0.4-1.6c-0.2-0.4-0.5-0.7-1-1c-0.4-0.2-0.9-0.3-1.3-0.3
		C320.8,29.7,320.4,29.8,320,30z"/>
	<path class="st4" d="M329.9,35.5v0.9h-0.9c-0.7,0-1.3-0.2-1.6-0.5c-0.3-0.3-0.5-0.9-0.5-1.7v-4.3h-1.1V29h1.1v-1.8h1V29h2v0.9h-2
		v4.3c0,0.5,0.1,0.9,0.3,1.1s0.5,0.3,1,0.3C329.2,35.5,329.9,35.5,329.9,35.5z"/>
	<path class="st4" d="M340.7,32.3c0.3,0.4,0.5,1,0.5,1.5c0,0.7-0.2,1.4-0.7,1.8c-0.5,0.4-1.3,0.7-2.2,0.7H335v-9.4h3.2
		c1,0,1.7,0.2,2.1,0.6c0.4,0.4,0.7,1,0.7,1.7c0,0.6-0.2,1.1-0.5,1.5c-0.3,0.3-0.7,0.6-1.3,0.7C339.9,31.5,340.4,31.8,340.7,32.3z
		 M335.9,31.1h2.1c0.6,0,1.2-0.1,1.5-0.4c0.3-0.3,0.5-0.7,0.5-1.3s-0.2-1-0.5-1.3c-0.3-0.3-0.9-0.4-1.6-0.4h-2.1L335.9,31.1
		L335.9,31.1z M339.8,35.1c0.4-0.3,0.6-0.7,0.6-1.4c0-0.5-0.2-1.1-0.6-1.4c-0.4-0.3-1-0.5-1.7-0.5h-2.1v3.7h2.1
		C338.8,35.5,339.3,35.4,339.8,35.1z"/>
	<path class="st4" d="M349.2,29v7.3h-1v-1.8c-0.2,0.6-0.5,1.1-1.1,1.5c-0.5,0.4-1.1,0.5-1.7,0.5c-0.9,0-1.5-0.3-2-0.9
		c-0.5-0.5-0.7-1.3-0.7-2.4V29h1v4.2c0,0.9,0.2,1.4,0.6,1.8c0.4,0.4,1,0.6,1.6,0.6c0.7,0,1.3-0.2,1.7-0.7c0.4-0.5,0.6-1.2,0.6-2V29
		H349.2z"/>
	<path class="st4" d="M357,29.7c0.5,0.5,0.7,1.3,0.7,2.4v4.3h-1v-4.2c0-0.7-0.2-1.4-0.6-1.8c-0.4-0.4-1-0.6-1.6-0.6
		c-0.7,0-1.3,0.2-1.7,0.7c-0.4,0.4-0.6,1.2-0.6,2v3.9h-1v-7.3h1v1.8c0.2-0.6,0.5-1.1,1.1-1.4c0.5-0.3,1.1-0.5,1.7-0.5
		C355.8,28.9,356.5,29.2,357,29.7z"/>
	<path class="st4" d="M365.5,29.7c0.5,0.5,0.7,1.3,0.7,2.4v4.3h-1v-4.2c0-0.7-0.2-1.4-0.6-1.8c-0.4-0.4-1-0.6-1.6-0.6
		c-0.7,0-1.3,0.2-1.7,0.7c-0.4,0.4-0.6,1.2-0.6,2v3.9h-1v-7.3h1v1.8c0.2-0.6,0.5-1.1,1.1-1.4c0.5-0.3,1.1-0.5,1.7-0.5
		C364.3,28.9,364.9,29.2,365.5,29.7z"/>
	<path class="st4" d="M368.5,29l2.6,6.1l2.4-6.1h1.1l-4.3,10.8h-1.1l1.5-3.5l-3.1-7.3C367.5,29,368.5,29,368.5,29z"/>
	<path class="st4" d="M295.8,59.8c0.7,0.5,1.3,1.3,1.6,2.2h-1c-0.2-0.6-0.6-1.2-1.3-1.6c-0.5-0.4-1.3-0.6-2.1-0.6
		c-0.6,0-1.3,0.2-1.8,0.5c-0.5,0.3-1,0.7-1.3,1.4s-0.4,1.3-0.4,2.1c0,0.7,0.1,1.5,0.4,2c0.3,0.6,0.7,1.1,1.3,1.4
		c0.5,0.3,1.1,0.5,1.8,0.5c0.9,0,1.6-0.2,2.1-0.6c0.5-0.4,1-1,1.3-1.6h1c-0.3,1-0.9,1.7-1.6,2.2c-0.7,0.5-1.7,0.9-2.8,0.9
		c-0.9,0-1.6-0.2-2.4-0.6c-0.6-0.4-1.2-1-1.6-1.7s-0.5-1.6-0.5-2.5c0-1,0.2-1.8,0.5-2.5s0.9-1.3,1.6-1.7c0.6-0.4,1.5-0.6,2.4-0.6
		C294.2,58.9,295,59.2,295.8,59.8z"/>
	<path class="st4" d="M308.2,59.2v9.2h-1v-7.7l-3.2,7.7h-0.9l-3.2-7.7v7.7h-1v-9.2h1.1l3.5,8l3.4-8C307,59.2,308.2,59.2,308.2,59.2z
		"/>
	<path class="st4" d="M316.7,59l-3,5.8v3.6h-1.1v-3.6l-3.1-5.8h1.1l2.5,4.7l2.5-4.7H316.7z"/>
	<path class="st4" d="M319.8,63.7l4.5,4.7h-1.2l-4.2-4.4v4.4h-1V59h1v4.4l4.2-4.4h1.2L319.8,63.7z"/>
	<path class="st4" d="M332.3,64.6c1-1.1,1.4-2,1.4-3c0-0.5-0.1-1.1-0.4-1.4c-0.3-0.3-0.7-0.5-1.5-0.5c-0.7,0-1.2,0.2-1.6,0.6
		c-0.3,0.4-0.5,1.1-0.6,1.7h-0.9c0.1-1.1,0.4-1.8,1-2.4c0.5-0.5,1.3-0.9,2.2-0.9c0.9,0,1.5,0.2,2,0.6c0.5,0.4,0.7,1.1,0.7,2
		c0,0.7-0.2,1.5-0.7,2.2c-0.5,0.7-1.1,1.5-1.8,2.1s-1.5,1.2-2.2,1.7h5v0.7h-6.4v-0.6C330,66.7,331.3,65.7,332.3,64.6z"/>
	<path class="st4" d="M344.7,60.1c-0.3-0.3-0.9-0.5-1.4-0.5c-0.9,0-1.5,0.3-1.9,1c-0.4,0.6-0.6,1.6-0.6,3c0,0.2,0,0.4,0,0.6
		c0.1-0.6,0.4-1.1,1-1.4c0.5-0.3,1.1-0.5,1.8-0.5c1,0,1.7,0.3,2.2,0.9c0.5,0.5,0.9,1.4,0.9,2.4c0,0.5-0.1,1.1-0.3,1.6
		c-0.2,0.4-0.5,0.9-1.1,1.2c-0.4,0.3-1.1,0.4-1.8,0.4c-1.4,0-2.2-0.4-2.8-1.3c-0.5-0.9-0.7-2-0.7-3.4c0-1.6,0.3-2.9,0.9-3.7
		c0.5-0.9,1.4-1.3,2.7-1.3c0.9,0,1.5,0.2,2,0.7c0.5,0.5,0.7,1.2,0.9,1.9h-0.9C345.2,60.9,345,60.4,344.7,60.1z M341.1,66.4
		c0.2,0.4,0.4,0.7,0.9,1c0.4,0.2,0.9,0.3,1.4,0.3c0.6,0,1.3-0.2,1.6-0.6c0.4-0.4,0.6-1,0.6-1.7s-0.2-1.4-0.6-1.8
		c-0.4-0.4-1-0.6-1.7-0.6c-0.4,0-0.9,0.1-1.2,0.2c-0.4,0.2-0.6,0.4-1,0.7c-0.2,0.3-0.3,0.7-0.3,1.3C340.8,65.7,341,66.1,341.1,66.4z
		"/>
	<path class="st4" d="M348.1,63.7c0-1.5,0.2-2.7,0.7-3.5c0.4-0.9,1.3-1.3,2.6-1.3c1.2,0,2,0.4,2.6,1.3c0.5,0.9,0.7,2,0.7,3.5
		s-0.2,2.7-0.7,3.5c-0.5,0.9-1.3,1.3-2.6,1.3c-1.2,0-2-0.4-2.6-1.3C348.3,66.4,348.1,65.2,348.1,63.7z M353.7,63.7
		c0-0.9-0.1-1.5-0.2-2c-0.1-0.5-0.3-1-0.6-1.4c-0.3-0.3-0.9-0.5-1.5-0.5c-0.6,0-1.1,0.2-1.5,0.5c-0.3,0.3-0.5,0.7-0.6,1.4
		c-0.1,0.5-0.2,1.3-0.2,2c0,0.9,0.1,1.5,0.2,2.1c0.1,0.5,0.3,1,0.6,1.4c0.3,0.3,0.9,0.5,1.5,0.5c0.6,0,1.1-0.2,1.5-0.5
		c0.3-0.3,0.5-0.7,0.6-1.4S353.7,64.5,353.7,63.7z"/>
	<path class="st4" d="M360.2,60c0.2-0.4,0.6-0.6,1.1-0.9c0.5-0.2,1.1-0.3,1.7-0.3c0.6,0,1.3,0.1,1.7,0.3c0.4,0.2,0.9,0.5,1.1,0.9
		c0.2,0.4,0.4,0.7,0.4,1.3c0,0.5-0.1,1-0.4,1.4c-0.3,0.4-0.7,0.6-1.4,0.9c0.6,0.1,1.2,0.4,1.5,0.9c0.3,0.4,0.5,1,0.5,1.6
		c0,0.9-0.3,1.6-1,2c-0.6,0.5-1.5,0.7-2.5,0.7c-1.1,0-1.9-0.2-2.5-0.7c-0.6-0.5-1-1.2-1-2c0-0.6,0.2-1.2,0.5-1.6
		c0.3-0.4,0.9-0.7,1.5-0.9c-0.6-0.2-1.1-0.4-1.4-0.9c-0.3-0.4-0.4-0.9-0.4-1.4C359.9,60.7,360,60.3,360.2,60z M361.2,67.4
		c0.4,0.3,1.1,0.5,1.8,0.5c0.7,0,1.4-0.2,1.8-0.5c0.4-0.3,0.6-0.9,0.6-1.5s-0.2-1.2-0.7-1.5c-0.4-0.3-1.1-0.5-1.8-0.5
		c-0.7,0-1.3,0.2-1.8,0.5c-0.4,0.3-0.7,0.9-0.7,1.5C360.5,66.5,360.8,67.1,361.2,67.4z M361.4,62.8c0.4,0.3,1,0.4,1.6,0.4
		c0.7,0,1.3-0.1,1.6-0.4c0.4-0.3,0.6-0.7,0.6-1.4c0-0.5-0.2-1.1-0.6-1.4c-0.4-0.3-1-0.4-1.6-0.4c-0.6,0-1.2,0.1-1.6,0.4
		c-0.4,0.3-0.6,0.7-0.6,1.4C360.8,61.9,361,62.5,361.4,62.8z"/>
	<path class="st4" d="M367.6,66.2v-0.7l5-6.4h1v6.4h1.5v0.9h-1.5v2.2h-1v-2.2L367.6,66.2L367.6,66.2z M372.6,60.1l-4.1,5.2h4.1V60.1
		z"/>
	<path class="st4" d="M379.6,63.7c0-1.5,0.2-2.7,0.7-3.5c0.4-0.9,1.3-1.3,2.6-1.3c1.2,0,2,0.4,2.6,1.3c0.5,0.9,0.7,2,0.7,3.5
		s-0.2,2.7-0.7,3.5c-0.5,0.9-1.3,1.3-2.6,1.3c-1.2,0-2-0.4-2.6-1.3C379.8,66.4,379.6,65.2,379.6,63.7z M385.2,63.7
		c0-0.9-0.1-1.5-0.2-2c-0.1-0.5-0.3-1-0.6-1.4c-0.3-0.3-0.9-0.5-1.5-0.5c-0.6,0-1.1,0.2-1.5,0.5c-0.3,0.3-0.5,0.7-0.6,1.4
		c-0.1,0.5-0.2,1.3-0.2,2c0,0.9,0.1,1.5,0.2,2.1c0.1,0.5,0.3,1,0.6,1.4c0.3,0.3,0.9,0.5,1.5,0.5c0.6,0,1.1-0.2,1.5-0.5
		c0.3-0.3,0.5-0.7,0.6-1.4C385.2,65.2,385.2,64.5,385.2,63.7z"/>
	<path class="st4" d="M293.9,84.5l-2.6-4h-1.5v4h-1v-9.4h2.9c1.1,0,1.8,0.2,2.4,0.7c0.5,0.5,0.7,1.2,0.7,2c0,0.7-0.2,1.4-0.6,1.9
		c-0.4,0.4-1.1,0.7-1.9,0.9l2.7,4L293.9,84.5L293.9,84.5z M289.8,79.9h1.9c1.5,0,2.2-0.6,2.2-1.9c0-1.4-0.7-2-2.2-2h-1.9V79.9z"/>
	<path class="st4" d="M303.5,75.8c0.7,0.5,1.3,1.3,1.5,2.1h-1c-0.2-0.6-0.6-1.2-1.2-1.5c-0.5-0.4-1.3-0.6-2-0.6
		c-0.6,0-1.3,0.2-1.8,0.5s-1,0.7-1.3,1.4c-0.3,0.6-0.4,1.3-0.4,2.1c0,0.9,0.1,1.5,0.4,2.1c0.3,0.6,0.7,1.1,1.3,1.4s1.2,0.5,1.9,0.5
		c0.6,0,1.2-0.1,1.7-0.4s1-0.6,1.3-1.2c0.3-0.5,0.5-1.2,0.5-1.9h-4v-0.7h4.7v0.9c-0.1,0.9-0.3,1.5-0.6,2.1c-0.4,0.6-1,1.2-1.6,1.5
		c-0.6,0.3-1.4,0.5-2.2,0.5c-0.9,0-1.7-0.2-2.4-0.6c-0.7-0.4-1.3-1-1.6-1.7c-0.4-0.7-0.5-1.6-0.5-2.5c0-0.9,0.2-1.7,0.5-2.5
		c0.4-0.7,1-1.3,1.6-1.7c0.6-0.4,1.5-0.6,2.4-0.6C301.8,75,302.7,75.3,303.5,75.8z"/>
	<path class="st4" d="M312.7,80.4c0.3,0.4,0.5,1,0.5,1.5c0,0.7-0.2,1.4-0.7,1.8c-0.5,0.4-1.3,0.7-2.2,0.7h-3.3v-9.4h3.2
		c1,0,1.7,0.2,2.1,0.6c0.4,0.4,0.7,1,0.7,1.7c0,0.6-0.2,1.1-0.5,1.5c-0.3,0.3-0.7,0.6-1.3,0.7C311.8,79.8,312.4,80,312.7,80.4z
		 M307.9,79.4h2.1c0.6,0,1.2-0.1,1.5-0.4c0.3-0.3,0.5-0.7,0.5-1.3c0-0.5-0.2-1-0.5-1.3c-0.3-0.3-0.9-0.4-1.6-0.4h-2.1L307.9,79.4
		L307.9,79.4z M311.7,83.2c0.4-0.3,0.6-0.7,0.6-1.4c0-0.5-0.2-1.1-0.6-1.4c-0.4-0.3-1-0.5-1.7-0.5h-2.1v3.7h2.1
		C310.8,83.8,311.3,83.5,311.7,83.2z"/>
	<path class="st4" d="M321.7,80.6c1-1.1,1.4-2,1.4-3c0-0.5-0.1-1.1-0.4-1.4c-0.3-0.3-0.7-0.5-1.5-0.5c-0.7,0-1.2,0.2-1.6,0.6
		c-0.3,0.4-0.5,1.1-0.6,1.7h-1c0.1-1.1,0.4-1.8,1-2.4c0.5-0.5,1.3-0.9,2.2-0.9c0.9,0,1.5,0.2,2,0.6s0.7,1.1,0.7,2
		c0,0.7-0.2,1.5-0.7,2.2c-0.5,0.7-1.1,1.5-1.8,2.1c-0.7,0.6-1.5,1.2-2.2,1.7h5v0.7h-6.4v-0.6C319.6,82.8,320.7,81.7,321.7,80.6z"/>
	<path class="st4" d="M330.5,75.2c0.4,0.2,0.7,0.5,1,0.9c0.2,0.3,0.3,0.7,0.3,1.3c0,0.6-0.2,1.1-0.5,1.5c-0.3,0.4-0.9,0.6-1.6,0.7
		v0.1c0.7,0.2,1.3,0.4,1.7,0.9c0.4,0.4,0.6,0.9,0.6,1.6s-0.2,1.4-0.7,1.9c-0.5,0.5-1.3,0.7-2.2,0.7c-1,0-1.7-0.2-2.4-0.7
		c-0.6-0.5-1-1.2-1.1-2.1h1c0.1,0.6,0.3,1.2,0.7,1.5c0.4,0.4,1,0.5,1.6,0.5c0.6,0,1.2-0.2,1.5-0.5c0.3-0.3,0.5-0.7,0.5-1.3
		c0-0.6-0.2-1.2-0.7-1.5c-0.5-0.3-1.2-0.5-2.1-0.5h-0.3v-0.7h0.3c1.8,0,2.7-0.6,2.7-1.8c0-0.5-0.2-1-0.5-1.3
		c-0.3-0.3-0.9-0.4-1.4-0.4c-0.6,0-1.1,0.2-1.5,0.5s-0.6,0.9-0.7,1.5h-1c0.1-0.9,0.4-1.6,1-2c0.5-0.5,1.3-0.7,2.2-0.7
		C329.5,74.9,330,75,330.5,75.2z"/>
	<path class="st4" d="M339.1,75.8l-3.6,8.8h-1l3.6-8.7h-5.2v-0.9h6.1L339.1,75.8L339.1,75.8z"/>
	<path class="st4" d="M343.2,75.9v-0.9h2.4v9.4h-1v-8.6H343.2z"/>
	<path class="st4" d="M351,80.6c1-1.1,1.4-2,1.4-3c0-0.5-0.1-1.1-0.4-1.4c-0.3-0.3-0.7-0.5-1.5-0.5c-0.7,0-1.2,0.2-1.6,0.6
		c-0.3,0.4-0.5,1.1-0.6,1.7h-1c0.1-1.1,0.4-1.8,1-2.4c0.5-0.5,1.3-0.9,2.2-0.9c0.9,0,1.5,0.2,2,0.6c0.5,0.4,0.7,1.1,0.7,2
		c0,0.7-0.2,1.5-0.7,2.2c-0.5,0.7-1.1,1.5-1.8,2.1c-0.7,0.6-1.5,1.2-2.2,1.7h5v0.7h-6.4v-0.6C348.8,82.8,350.1,81.7,351,80.6z"/>
	<path class="st4" d="M355.5,76c0.2-0.4,0.6-0.6,1.1-0.9c0.5-0.2,1.1-0.3,1.7-0.3c0.6,0,1.3,0.1,1.7,0.3c0.4,0.2,0.9,0.5,1.1,0.9
		c0.2,0.4,0.4,0.7,0.4,1.3c0,0.5-0.1,1-0.4,1.4c-0.3,0.4-0.7,0.6-1.4,0.9c0.6,0.1,1.2,0.4,1.5,0.9c0.3,0.4,0.5,1,0.5,1.6
		c0,0.9-0.3,1.6-1,2c-0.6,0.4-1.5,0.7-2.5,0.7c-1.1,0-1.9-0.2-2.5-0.7c-0.6-0.5-1-1.2-1-2c0-0.6,0.2-1.2,0.5-1.6
		c0.3-0.4,0.9-0.7,1.5-0.9c-0.6-0.2-1.1-0.4-1.4-0.9c-0.3-0.4-0.4-0.9-0.4-1.4C355.2,76.9,355.3,76.5,355.5,76z M356.6,83.5
		c0.4,0.3,1.1,0.5,1.8,0.5c0.7,0,1.4-0.2,1.8-0.5s0.6-0.9,0.6-1.5s-0.2-1.2-0.7-1.5c-0.5-0.3-1.1-0.5-1.8-0.5
		c-0.7,0-1.3,0.2-1.8,0.5c-0.4,0.3-0.7,0.9-0.7,1.5C355.8,82.6,356,83.1,356.6,83.5z M356.7,78.8c0.4,0.3,1,0.4,1.6,0.4
		c0.7,0,1.3-0.1,1.6-0.4c0.4-0.3,0.6-0.7,0.6-1.4c0-0.5-0.2-1.1-0.6-1.4c-0.4-0.3-1-0.4-1.6-0.4c-0.6,0-1.2,0.1-1.6,0.4
		c-0.4,0.3-0.6,0.7-0.6,1.4C356.2,78.1,356.4,78.5,356.7,78.8z"/>
	<path class="st4" d="M373.1,75.8h-5v3.5c0.2-0.3,0.5-0.5,1.1-0.7c0.5-0.2,1-0.3,1.5-0.3c1,0,1.7,0.3,2.2,0.9
		c0.5,0.5,0.7,1.3,0.7,2.1c0,1-0.3,1.7-0.9,2.4s-1.3,1-2.4,1c-1,0-1.7-0.2-2.2-0.7c-0.5-0.5-1-1.2-1-2h1c0.1,0.6,0.4,1.1,0.7,1.5
		c0.4,0.3,0.9,0.5,1.5,0.5c0.7,0,1.4-0.2,1.7-0.6c0.4-0.4,0.5-1.1,0.5-1.8c0-0.7-0.2-1.3-0.6-1.7c-0.4-0.4-1-0.6-1.7-0.6
		c-0.5,0-1,0.1-1.4,0.3c-0.4,0.2-0.6,0.5-0.9,0.9h-0.9V75h5.9V75.8z"/>
	<path class="st4" d="M379.7,75.2c0.4,0.2,0.7,0.5,1,0.9s0.3,0.7,0.3,1.3c0,0.6-0.2,1.1-0.5,1.5c-0.3,0.4-0.9,0.6-1.6,0.7v0.1
		c0.7,0.2,1.3,0.4,1.7,0.9c0.4,0.4,0.6,0.9,0.6,1.6s-0.2,1.4-0.7,1.9c-0.5,0.5-1.3,0.7-2.2,0.7c-1,0-1.7-0.2-2.4-0.7
		c-0.6-0.5-1-1.2-1.1-2.1h1c0.1,0.6,0.3,1.2,0.7,1.5c0.4,0.4,1,0.5,1.6,0.5c0.6,0,1.2-0.2,1.5-0.5c0.3-0.3,0.5-0.7,0.5-1.3
		c0-0.6-0.2-1.2-0.7-1.5c-0.5-0.3-1.2-0.5-2.1-0.5h-0.3v-0.7h0.3c1.8,0,2.7-0.6,2.7-1.8c0-0.5-0.2-1-0.5-1.3
		c-0.3-0.3-0.9-0.4-1.4-0.4c-0.6,0-1.1,0.2-1.5,0.5s-0.6,0.9-0.7,1.5h-1c0.1-0.9,0.4-1.6,1-2c0.5-0.5,1.3-0.7,2.2-0.7
		C378.7,74.9,379.3,75,379.7,75.2z"/>
	<path class="st4" d="M295.9,91.1v9.4h-1v-4.5h-5.1v4.5h-1v-9.4h1v4.2h5.1v-4.2H295.9z"/>
	<path class="st4" d="M298.9,91.9v3.5h3.6v0.7h-3.6v3.6h4.1v0.7h-5v-9.4h5v0.7C303,91.9,298.9,91.9,298.9,91.9z"/>
	<path class="st4" d="M309.7,100.7l-2.5-4l-2.2,4h-1.1l2.9-4.8l-2.9-4.6h1.1l2.5,3.9l2.2-3.9h1.1l-2.9,4.7l2.9,4.7H309.7z"/>
	<path class="st4" d="M322.7,94.6l-0.5,2.4h1.9v0.9h-2.1l-0.6,2.9h-0.9l0.6-2.9h-3l-0.6,2.9h-0.9l0.6-2.9h-2.1v-0.9h2.2l0.5-2.4h-2
		v-0.9h2.2l0.6-3h0.9l-0.6,3h3l0.6-3h0.9l-0.6,3h1.9v0.9H322.7z M321.7,94.6h-3l-0.5,2.4h3L321.7,94.6z"/>
	<path class="st4" d="M327.1,91.9v3.5h3.6v0.7h-3.6v3.6h4.1v0.7h-5v-9.4h5v0.7C331.2,91.9,327.1,91.9,327.1,91.9z"/>
	<path class="st4" d="M340.2,98.4c-0.4,0.7-1,1.3-1.7,1.6c-0.7,0.4-1.6,0.5-2.7,0.5h-2.9v-9.4h2.9c1.6,0,2.8,0.4,3.6,1.3
		c0.9,0.9,1.3,2,1.3,3.4C340.7,96.8,340.5,97.7,340.2,98.4z M338.7,98.7c0.7-0.6,1.1-1.6,1.1-2.9c0-1.2-0.3-2.1-1.1-2.9
		c-0.7-0.6-1.7-1.1-3-1.1h-1.8v7.8h1.8C337,99.8,338.1,99.4,338.7,98.7z"/>
	<path class="st4" d="M342.8,92.1c0.2-0.4,0.6-0.6,1.1-0.9c0.5-0.2,1.1-0.3,1.7-0.3c0.6,0,1.3,0.1,1.7,0.3c0.4,0.2,0.9,0.5,1.1,0.9
		c0.2,0.4,0.4,0.7,0.4,1.3c0,0.5-0.1,1-0.4,1.4c-0.3,0.4-0.7,0.6-1.4,0.9c0.6,0.1,1.2,0.4,1.5,0.9c0.3,0.4,0.5,1,0.5,1.6
		c0,0.9-0.3,1.6-1,2c-0.6,0.5-1.5,0.7-2.5,0.7c-1.1,0-1.9-0.2-2.5-0.7c-0.6-0.5-1-1.2-1-2c0-0.6,0.2-1.2,0.5-1.6
		c0.3-0.4,0.9-0.7,1.5-0.9c-0.6-0.2-1.1-0.4-1.4-0.9c-0.3-0.4-0.4-0.9-0.4-1.4C342.3,93,342.6,92.5,342.8,92.1z M343.7,99.6
		c0.4,0.3,1.1,0.5,1.8,0.5c0.7,0,1.4-0.2,1.8-0.5s0.6-0.9,0.6-1.5s-0.2-1.2-0.7-1.5c-0.4-0.3-1.1-0.5-1.8-0.5
		c-0.7,0-1.3,0.2-1.8,0.5c-0.5,0.3-0.7,0.9-0.7,1.5C343.1,98.7,343.3,99.2,343.7,99.6z M344,94.9c0.4,0.3,1,0.4,1.6,0.4
		c0.7,0,1.3-0.1,1.6-0.4c0.4-0.3,0.6-0.7,0.6-1.4c0-0.5-0.2-1.1-0.6-1.4c-0.4-0.3-1-0.4-1.6-0.4c-0.6,0-1.2,0.1-1.6,0.4
		c-0.4,0.3-0.6,0.7-0.6,1.4S343.5,94.6,344,94.9z"/>
	<path class="st4" d="M350.6,95.8c0-1.5,0.2-2.7,0.7-3.5c0.4-0.9,1.3-1.3,2.6-1.3c1.2,0,2,0.4,2.6,1.3c0.5,0.9,0.7,2,0.7,3.5
		s-0.2,2.7-0.7,3.5s-1.3,1.3-2.6,1.3c-1.2,0-2-0.4-2.6-1.3C350.8,98.5,350.6,97.3,350.6,95.8z M356.2,95.8c0-0.9-0.1-1.5-0.2-2
		c-0.1-0.5-0.3-1-0.6-1.4c-0.3-0.3-0.9-0.5-1.5-0.5c-0.6,0-1.1,0.2-1.5,0.5c-0.3,0.3-0.5,0.7-0.6,1.4c-0.1,0.5-0.2,1.3-0.2,2
		c0,0.9,0.1,1.5,0.2,2.1c0.1,0.5,0.3,1,0.6,1.4c0.3,0.3,0.9,0.5,1.5,0.5c0.6,0,1.1-0.2,1.5-0.5c0.3-0.3,0.5-0.7,0.6-1.4
		C356,97.3,356.2,96.7,356.2,95.8z"/>
	<path class="st4" d="M363.4,91.2c0.4,0.2,0.7,0.5,1,0.9s0.3,0.7,0.3,1.3c0,0.6-0.2,1.1-0.5,1.5s-0.9,0.6-1.6,0.7v0.1
		c0.7,0.2,1.3,0.4,1.7,0.9c0.4,0.4,0.6,0.9,0.6,1.6c0,0.7-0.2,1.4-0.7,1.9c-0.5,0.5-1.3,0.7-2.2,0.7c-1,0-1.7-0.2-2.4-0.7
		c-0.6-0.5-1-1.2-1.1-2.1h1c0.1,0.6,0.3,1.2,0.7,1.5c0.4,0.4,1,0.5,1.6,0.5c0.6,0,1.2-0.2,1.5-0.5c0.3-0.3,0.5-0.7,0.5-1.3
		c0-0.6-0.2-1.2-0.7-1.5c-0.5-0.3-1.2-0.5-2.1-0.5h-0.2v-0.7h0.3c1.8,0,2.7-0.6,2.7-1.8c0-0.5-0.2-1-0.5-1.3
		c-0.3-0.3-0.9-0.4-1.4-0.4c-0.6,0-1.1,0.2-1.5,0.5c-0.4,0.3-0.6,0.9-0.7,1.5h-1c0.1-0.9,0.4-1.6,1-2c0.5-0.5,1.3-0.7,2.2-0.7
		C362.5,90.9,363,91,363.4,91.2z"/>
	<path class="st4" d="M372.7,91.9h-5v3.5c0.2-0.3,0.5-0.5,1.1-0.7c0.4-0.2,1-0.3,1.5-0.3c1,0,1.7,0.3,2.2,0.9
		c0.5,0.5,0.7,1.3,0.7,2.1c0,1-0.3,1.7-0.9,2.4c-0.5,0.6-1.3,1-2.4,1c-1,0-1.7-0.2-2.2-0.7c-0.5-0.5-1-1.2-1-2h1
		c0.1,0.6,0.4,1.1,0.7,1.5c0.4,0.3,0.9,0.5,1.5,0.5c0.7,0,1.4-0.2,1.7-0.6c0.4-0.4,0.5-1.1,0.5-1.8s-0.2-1.3-0.6-1.7
		c-0.4-0.4-1-0.6-1.7-0.6c-0.5,0-1,0.1-1.4,0.3c-0.4,0.2-0.6,0.5-0.9,0.9h-1V91h5.9L372.7,91.9L372.7,91.9z"/>
</g>
<g>
	<path class="st4" d="M294,192.9v0.7h-4.2v3.6h3.6v0.7h-3.6v4.4h-1V193L294,192.9L294,192.9z"/>
	<path class="st4" d="M296.4,192.5v10h-1v-10H296.4z"/>
	<path class="st4" d="M303.5,195.5c0.5,0.4,0.9,0.9,1.1,1.5v-2h1v7.3h-1v-2c-0.2,0.6-0.5,1.2-1.1,1.5c-0.5,0.4-1.2,0.5-1.9,0.5
		c-0.6,0-1.3-0.1-1.8-0.4c-0.5-0.3-1-0.7-1.2-1.3c-0.3-0.5-0.4-1.2-0.4-2c0-0.7,0.1-1.4,0.4-2c0.3-0.5,0.6-1,1.2-1.3
		c0.5-0.3,1.1-0.4,1.8-0.4C302.3,195,303,195.2,303.5,195.5z M299.9,196.6c-0.5,0.5-0.7,1.3-0.7,2.1s0.2,1.6,0.7,2.1
		c0.5,0.5,1.2,0.7,1.9,0.7c0.5,0,1-0.1,1.4-0.3c0.4-0.2,0.7-0.5,1-1.1c0.2-0.4,0.3-1,0.3-1.5s-0.1-1.1-0.3-1.5
		c-0.2-0.4-0.5-0.7-1-1.1c-0.4-0.2-0.9-0.3-1.4-0.3C300.9,195.8,300.3,196,299.9,196.6z"/>
	<path class="st4" d="M310.2,201.3l2.5-6.2h1.1l-3,7.3h-1.1l-3-7.3h1.1L310.2,201.3z"/>
	<path class="st4" d="M320.1,195.4c0.5,0.3,1,0.7,1.3,1.3c0.3,0.5,0.4,1.3,0.4,2s-0.1,1.4-0.4,2c-0.3,0.5-0.7,1-1.3,1.3
		c-0.5,0.3-1.2,0.4-1.8,0.4c-0.7,0-1.3-0.1-1.9-0.4c-0.5-0.3-1-0.7-1.3-1.3c-0.3-0.5-0.4-1.2-0.4-2c0-0.7,0.1-1.4,0.4-2
		c0.3-0.5,0.7-1,1.3-1.3c0.5-0.3,1.2-0.4,1.9-0.4C318.9,195,319.6,195.1,320.1,195.4z M316.9,196.1c-0.4,0.2-0.7,0.5-1,1
		c-0.2,0.4-0.4,1-0.4,1.6s0.1,1.2,0.4,1.6c0.2,0.4,0.5,0.7,1,1s0.9,0.3,1.4,0.3c0.4,0,1-0.1,1.3-0.3c0.4-0.2,0.7-0.5,1-1
		c0.2-0.4,0.4-1,0.4-1.6s-0.1-1.2-0.4-1.6c-0.2-0.4-0.5-0.7-1-1s-0.9-0.3-1.3-0.3C317.7,195.8,317.3,195.9,316.9,196.1z"/>
	<path class="st4" d="M329.8,195.1v7.3h-1v-1.8c-0.2,0.6-0.5,1.1-1.1,1.5c-0.5,0.4-1.1,0.5-1.7,0.5c-0.9,0-1.5-0.3-2-0.9
		c-0.5-0.5-0.7-1.3-0.7-2.4v-4.3h1v4.2c0,0.9,0.2,1.4,0.6,1.8c0.4,0.4,1,0.6,1.6,0.6c0.7,0,1.3-0.2,1.7-0.7c0.4-0.4,0.6-1.2,0.6-2
		v-3.9H329.8z"/>
	<path class="st4" d="M333.9,195.4c0.4-0.3,1.1-0.4,1.7-0.4v1.1h-0.3c-0.7,0-1.3,0.2-1.7,0.5c-0.4,0.4-0.7,1-0.7,1.8v4h-1v-7.3h1
		v1.5C333,196,333.5,195.6,333.9,195.4z"/>
	<path class="st4" d="M347.3,193.7c0.7,0.5,1.3,1.3,1.6,2.2h-1c-0.2-0.6-0.6-1.2-1.3-1.6c-0.5-0.4-1.3-0.6-2.1-0.6
		c-0.6,0-1.3,0.2-1.8,0.5c-0.5,0.3-1,0.7-1.3,1.4c-0.3,0.6-0.4,1.3-0.4,2.1c0,0.9,0.1,1.5,0.4,2c0.3,0.6,0.7,1.1,1.3,1.4
		c0.5,0.3,1.1,0.5,1.8,0.5c0.9,0,1.6-0.2,2.1-0.6c0.5-0.4,1-1,1.3-1.6h1c-0.3,1-0.9,1.7-1.6,2.2c-0.7,0.5-1.7,0.9-2.8,0.9
		c-0.9,0-1.6-0.2-2.4-0.6c-0.6-0.4-1.2-1-1.6-1.7c-0.4-0.7-0.5-1.6-0.5-2.5c0-1,0.2-1.8,0.5-2.5c0.4-0.7,0.9-1.3,1.6-1.7
		c0.6-0.4,1.5-0.6,2.4-0.6C345.7,192.8,346.5,193.1,347.3,193.7z"/>
	<path class="st4" d="M356.4,195.7c0.5,0.5,0.7,1.3,0.7,2.4v4.3h-1v-4.2c0-0.7-0.2-1.4-0.6-1.8c-0.4-0.4-1-0.6-1.6-0.6
		c-0.7,0-1.3,0.2-1.7,0.7c-0.4,0.4-0.6,1.2-0.6,2v3.9h-1v-10h1v4.4c0.2-0.6,0.5-1.1,1.1-1.4c0.5-0.3,1.1-0.5,1.7-0.5
		C355.1,195,355.8,195.2,356.4,195.7z"/>
	<path class="st4" d="M364,201.2c0.4-0.3,0.7-0.7,0.9-1.4h1c-0.1,0.7-0.5,1.4-1.1,1.9c-0.6,0.5-1.4,0.7-2.4,0.7
		c-0.7,0-1.3-0.1-1.8-0.4c-0.5-0.3-1-0.7-1.3-1.3c-0.3-0.5-0.4-1.3-0.4-2s0.1-1.4,0.4-2c0.3-0.5,0.7-1,1.3-1.3
		c0.5-0.3,1.2-0.4,1.8-0.4c0.7,0,1.3,0.1,1.8,0.4c0.5,0.3,1,0.7,1.2,1.2c0.3,0.5,0.4,1.1,0.4,1.6c0,0.2,0,0.4,0,0.6h-6.1
		c0,0.6,0.1,1.2,0.4,1.5c0.2,0.4,0.5,0.7,1,1c0.4,0.2,0.9,0.3,1.3,0.3C363,201.7,363.5,201.5,364,201.2z M361.1,196
		c-0.4,0.2-0.7,0.5-1,0.9c-0.2,0.4-0.4,1-0.4,1.5h5.1c0-0.6-0.1-1.1-0.3-1.5c-0.2-0.4-0.5-0.7-1-1c-0.4-0.2-0.9-0.3-1.3-0.3
		C361.8,195.7,361.4,195.8,361.1,196z"/>
	<path class="st4" d="M369.4,195.4c0.4-0.3,1.1-0.4,1.7-0.4v1.1h-0.3c-0.7,0-1.3,0.2-1.7,0.5c-0.4,0.4-0.7,1-0.7,1.8v4h-1v-7.3h1
		v1.5C368.7,196,369,195.6,369.4,195.4z"/>
	<path class="st4" d="M374.5,195.4c0.4-0.3,1.1-0.4,1.7-0.4v1.1h-0.3c-0.7,0-1.3,0.2-1.7,0.5c-0.4,0.4-0.7,1-0.7,1.8v4h-1v-7.3h1
		v1.5C373.6,196,373.9,195.6,374.5,195.4z"/>
	<path class="st4" d="M377.6,195.1l2.6,6.1l2.4-6.1h1.1l-4.3,10.8h-1.1l1.5-3.5l-3.1-7.3H377.6z"/>
	<path class="st4" d="M295.8,225.8c0.7,0.5,1.3,1.3,1.6,2.2h-1c-0.2-0.6-0.6-1.2-1.3-1.6c-0.5-0.4-1.3-0.6-2.1-0.6
		c-0.6,0-1.3,0.2-1.8,0.5c-0.5,0.3-1,0.7-1.3,1.4s-0.4,1.3-0.4,2.1s0.1,1.5,0.4,2c0.3,0.6,0.7,1.1,1.3,1.4c0.5,0.3,1.1,0.5,1.8,0.5
		c0.9,0,1.6-0.2,2.1-0.6c0.5-0.4,1-1,1.3-1.6h1c-0.3,1-0.9,1.7-1.6,2.2c-0.7,0.5-1.7,0.9-2.8,0.9c-0.9,0-1.6-0.2-2.4-0.6
		c-0.6-0.4-1.2-1-1.6-1.7c-0.4-0.7-0.5-1.6-0.5-2.5c0-1,0.2-1.8,0.5-2.5c0.4-0.7,0.9-1.3,1.6-1.7c0.6-0.4,1.5-0.6,2.4-0.6
		C294.2,225,295,225.2,295.8,225.8z"/>
	<path class="st4" d="M308.2,225.2v9.2h-1v-7.7l-3.2,7.7h-0.9l-3.2-7.7v7.7h-1v-9.2h1.1l3.5,8l3.4-8H308.2z"/>
	<path class="st4" d="M316.7,225l-3,5.8v3.6h-1.1v-3.6l-3.1-5.8h1.1l2.5,4.7l2.5-4.7H316.7z"/>
	<path class="st4" d="M319.8,229.7l4.5,4.7h-1.2l-4.2-4.4v4.4h-1V225h1v4.4l4.2-4.4h1.2L319.8,229.7z"/>
	<path class="st4" d="M332.3,230.7c1-1.1,1.4-2,1.4-3c0-0.5-0.1-1.1-0.4-1.4c-0.3-0.3-0.7-0.5-1.5-0.5c-0.7,0-1.2,0.2-1.6,0.6
		c-0.3,0.4-0.5,1.1-0.6,1.7h-0.9c0.1-1.1,0.4-1.8,1-2.4c0.5-0.5,1.3-0.9,2.2-0.9c0.9,0,1.5,0.2,2,0.6c0.5,0.4,0.7,1.1,0.7,2
		c0,0.7-0.2,1.5-0.7,2.2c-0.5,0.7-1.1,1.5-1.8,2.1s-1.5,1.2-2.2,1.7h5v0.7h-6.4v-0.6C330,232.7,331.3,231.7,332.3,230.7z"/>
	<path class="st4" d="M340.3,226.1c0.2-0.4,0.6-0.6,1.1-0.9c0.5-0.2,1.1-0.3,1.7-0.3c0.6,0,1.3,0.1,1.7,0.3c0.4,0.2,0.9,0.5,1.1,0.9
		c0.2,0.4,0.4,0.7,0.4,1.3s-0.1,1-0.4,1.4c-0.3,0.4-0.7,0.6-1.4,0.9c0.6,0.1,1.2,0.4,1.5,0.9s0.5,1,0.5,1.6c0,0.9-0.3,1.6-1,2
		c-0.6,0.5-1.5,0.7-2.5,0.7c-1.1,0-1.9-0.2-2.5-0.7c-0.6-0.5-1-1.2-1-2c0-0.6,0.2-1.2,0.5-1.6c0.3-0.4,0.9-0.7,1.5-0.9
		c-0.6-0.2-1.1-0.4-1.4-0.9c-0.3-0.4-0.4-0.9-0.4-1.4C340,226.8,340.1,226.4,340.3,226.1z M341.3,233.5c0.4,0.3,1.1,0.5,1.8,0.5
		c0.7,0,1.4-0.2,1.8-0.5c0.4-0.3,0.6-0.9,0.6-1.5c0-0.6-0.2-1.2-0.7-1.5c-0.4-0.3-1.1-0.5-1.8-0.5c-0.7,0-1.3,0.2-1.8,0.5
		c-0.5,0.3-0.7,0.9-0.7,1.5C340.6,232.6,340.8,233.2,341.3,233.5z M341.5,228.8c0.4,0.3,1,0.4,1.6,0.4c0.7,0,1.3-0.1,1.6-0.4
		c0.4-0.3,0.6-0.7,0.6-1.4c0-0.5-0.2-1.1-0.6-1.4c-0.4-0.3-1-0.4-1.6-0.4c-0.6,0-1.2,0.1-1.6,0.4c-0.4,0.3-0.6,0.7-0.6,1.4
		S341.1,228.4,341.5,228.8z"/>
	<path class="st4" d="M348.7,226.1c0.2-0.4,0.6-0.6,1.1-0.9c0.5-0.2,1.1-0.3,1.7-0.3c0.6,0,1.3,0.1,1.7,0.3c0.4,0.2,0.9,0.5,1.1,0.9
		c0.2,0.4,0.4,0.7,0.4,1.3s-0.1,1-0.4,1.4c-0.3,0.4-0.7,0.6-1.4,0.9c0.6,0.1,1.2,0.4,1.5,0.9c0.3,0.4,0.5,1,0.5,1.6
		c0,0.9-0.3,1.6-1,2c-0.6,0.5-1.5,0.7-2.5,0.7c-1.1,0-1.9-0.2-2.5-0.7c-0.6-0.5-1-1.2-1-2c0-0.6,0.2-1.2,0.5-1.6s0.9-0.7,1.5-0.9
		c-0.6-0.2-1.1-0.4-1.4-0.9s-0.4-0.9-0.4-1.4S348.3,226.4,348.7,226.1z M349.6,233.5c0.4,0.3,1.1,0.5,1.8,0.5c0.7,0,1.4-0.2,1.8-0.5
		c0.4-0.3,0.6-0.9,0.6-1.5c0-0.6-0.2-1.2-0.7-1.5c-0.4-0.3-1.1-0.5-1.8-0.5c-0.7,0-1.3,0.2-1.8,0.5c-0.5,0.3-0.7,0.9-0.7,1.5
		C348.9,232.6,349.2,233.2,349.6,233.5z M349.8,228.8c0.4,0.3,1,0.4,1.6,0.4c0.7,0,1.3-0.1,1.6-0.4c0.4-0.3,0.6-0.7,0.6-1.4
		c0-0.5-0.2-1.1-0.6-1.4c-0.4-0.3-1-0.4-1.6-0.4c-0.6,0-1.2,0.1-1.6,0.4c-0.4,0.3-0.6,0.7-0.6,1.4S349.4,228.4,349.8,228.8z"/>
	<path class="st4" d="M366.1,225.8h-5v3.5c0.2-0.3,0.5-0.5,1.1-0.7c0.5-0.2,1-0.3,1.5-0.3c1,0,1.7,0.3,2.2,0.9
		c0.5,0.5,0.7,1.3,0.7,2.1c0,1-0.3,1.7-0.9,2.4c-0.5,0.6-1.3,1-2.4,1c-1,0-1.7-0.2-2.2-0.7c-0.5-0.5-1-1.2-1-2h1
		c0.1,0.6,0.4,1.1,0.7,1.5c0.4,0.3,0.9,0.5,1.5,0.5c0.7,0,1.4-0.2,1.7-0.6c0.4-0.4,0.5-1.1,0.5-1.8c0-0.7-0.2-1.3-0.6-1.7
		c-0.4-0.4-1-0.6-1.7-0.6c-0.5,0-1,0.1-1.4,0.3c-0.4,0.2-0.6,0.5-0.9,0.9h-1v-5.2h5.9L366.1,225.8L366.1,225.8z"/>
	<path class="st4" d="M368,229.7c0-1.5,0.2-2.7,0.7-3.5c0.4-0.9,1.3-1.3,2.6-1.3c1.2,0,2,0.4,2.6,1.3c0.5,0.9,0.7,2,0.7,3.5
		s-0.2,2.7-0.7,3.5c-0.5,0.9-1.3,1.3-2.6,1.3c-1.2,0-2-0.4-2.6-1.3C368.2,232.4,368,231.2,368,229.7z M373.6,229.7
		c0-0.9-0.1-1.5-0.2-2c-0.1-0.5-0.3-1-0.6-1.4c-0.3-0.3-0.9-0.5-1.5-0.5c-0.6,0-1.1,0.2-1.5,0.5c-0.3,0.3-0.5,0.7-0.6,1.4
		c-0.1,0.5-0.2,1.3-0.2,2c0,0.9,0.1,1.5,0.2,2.1c0.1,0.5,0.3,1,0.6,1.4c0.3,0.3,0.9,0.5,1.5,0.5c0.6,0,1.1-0.2,1.5-0.5
		c0.3-0.3,0.5-0.7,0.6-1.4C373.6,231.2,373.6,230.6,373.6,229.7z"/>
	<path class="st4" d="M379.7,229.7c0-1.5,0.2-2.7,0.7-3.5c0.4-0.9,1.3-1.3,2.6-1.3c1.2,0,2,0.4,2.6,1.3c0.5,0.9,0.7,2,0.7,3.5
		s-0.2,2.7-0.7,3.5c-0.5,0.9-1.3,1.3-2.6,1.3c-1.2,0-2-0.4-2.6-1.3C379.9,232.4,379.7,231.2,379.7,229.7z M385.3,229.7
		c0-0.9-0.1-1.5-0.2-2c-0.1-0.5-0.3-1-0.6-1.4c-0.3-0.3-0.9-0.5-1.5-0.5c-0.6,0-1.1,0.2-1.5,0.5c-0.3,0.3-0.5,0.7-0.6,1.4
		c-0.1,0.5-0.2,1.3-0.2,2c0,0.9,0.1,1.5,0.2,2.1c0.1,0.5,0.3,1,0.6,1.4c0.3,0.3,0.9,0.5,1.5,0.5c0.6,0,1.1-0.2,1.5-0.5
		c0.3-0.3,0.5-0.7,0.6-1.4C385.2,231.2,385.3,230.6,385.3,229.7z"/>
	<path class="st4" d="M293.9,250.6l-2.6-4h-1.5v4h-1v-9.4h2.9c1.1,0,1.8,0.2,2.4,0.7c0.5,0.5,0.7,1.2,0.7,2c0,0.7-0.2,1.4-0.6,1.9
		c-0.4,0.4-1.1,0.7-1.9,0.9l2.7,4L293.9,250.6L293.9,250.6z M289.8,245.9h1.9c1.5,0,2.2-0.6,2.2-1.9c0-1.4-0.7-2-2.2-2h-1.9V245.9z"
		/>
	<path class="st4" d="M303.5,241.8c0.7,0.5,1.3,1.3,1.5,2.1h-1c-0.2-0.6-0.6-1.2-1.2-1.5c-0.5-0.4-1.3-0.6-2-0.6
		c-0.6,0-1.3,0.2-1.8,0.5c-0.5,0.3-1,0.7-1.3,1.4s-0.4,1.3-0.4,2.1c0,0.9,0.1,1.5,0.4,2.1c0.3,0.6,0.7,1.1,1.3,1.4
		c0.5,0.3,1.2,0.5,1.9,0.5c0.6,0,1.2-0.1,1.7-0.4s1-0.6,1.3-1.2s0.5-1.2,0.5-1.9h-4v-0.7h4.7v0.9c-0.1,0.9-0.3,1.5-0.6,2.1
		c-0.4,0.6-1,1.2-1.6,1.5c-0.6,0.3-1.4,0.5-2.2,0.5c-0.9,0-1.7-0.2-2.4-0.6c-0.7-0.4-1.3-1-1.6-1.7c-0.4-0.7-0.5-1.6-0.5-2.5
		c0-0.9,0.2-1.7,0.5-2.5c0.4-0.7,1-1.3,1.6-1.7c0.6-0.4,1.5-0.6,2.4-0.6C301.8,241.1,302.7,241.3,303.5,241.8z"/>
	<path class="st4" d="M312.7,246.5c0.3,0.4,0.5,1,0.5,1.5c0,0.7-0.2,1.4-0.7,1.8c-0.5,0.4-1.3,0.7-2.2,0.7h-3.3v-9.4h3.2
		c1,0,1.7,0.2,2.1,0.6c0.4,0.4,0.7,1,0.7,1.7c0,0.6-0.2,1.1-0.5,1.5c-0.3,0.3-0.7,0.6-1.3,0.7C311.8,245.8,312.4,246.1,312.7,246.5z
		 M307.9,245.4h2.1c0.6,0,1.2-0.1,1.5-0.4c0.3-0.3,0.5-0.7,0.5-1.3c0-0.5-0.2-1-0.5-1.3c-0.3-0.3-0.9-0.4-1.6-0.4h-2.1L307.9,245.4
		L307.9,245.4z M311.7,249.3c0.4-0.3,0.6-0.7,0.6-1.4c0-0.5-0.2-1.1-0.6-1.4c-0.4-0.3-1-0.5-1.7-0.5h-2.1v3.7h2.1
		C310.8,249.7,311.3,249.6,311.7,249.3z"/>
	<path class="st4" d="M321.7,246.7c1-1.1,1.4-2,1.4-3c0-0.5-0.1-1.1-0.4-1.4c-0.3-0.3-0.7-0.5-1.5-0.5c-0.7,0-1.2,0.2-1.6,0.6
		c-0.3,0.4-0.5,1.1-0.6,1.7h-1c0.1-1.1,0.4-1.8,1-2.4c0.5-0.5,1.3-0.9,2.2-0.9c0.9,0,1.5,0.2,2,0.6c0.5,0.4,0.7,1.1,0.7,2
		c0,0.7-0.2,1.5-0.7,2.2c-0.5,0.7-1.1,1.5-1.8,2.1c-0.7,0.6-1.5,1.2-2.2,1.7h5v0.7h-6.4v-0.6C319.6,248.9,320.7,247.8,321.7,246.7z"
		/>
	<path class="st4" d="M329.3,246.7c1-1.1,1.4-2,1.4-3c0-0.5-0.1-1.1-0.4-1.4c-0.3-0.3-0.7-0.5-1.5-0.5c-0.7,0-1.2,0.2-1.6,0.6
		c-0.3,0.4-0.5,1.1-0.6,1.7h-1c0.1-1.1,0.4-1.8,1-2.4c0.5-0.5,1.3-0.9,2.2-0.9c0.9,0,1.5,0.2,2,0.6c0.5,0.4,0.7,1.1,0.7,2
		c0,0.7-0.2,1.5-0.7,2.2c-0.5,0.7-1.1,1.5-1.8,2.1c-0.7,0.6-1.5,1.2-2.2,1.7h5v0.7h-6.4v-0.6C327.1,248.9,328.3,247.8,329.3,246.7z"
		/>
	<path class="st4" d="M335.1,249.4c0.3,0.3,0.9,0.5,1.4,0.5c0.9,0,1.5-0.3,1.9-1c0.4-0.6,0.6-1.6,0.6-3c0-0.2,0-0.4,0-0.5
		c-0.1,0.5-0.4,1.1-1,1.4c-0.5,0.3-1.1,0.5-1.8,0.5c-1,0-1.7-0.3-2.2-0.9c-0.5-0.5-0.9-1.4-0.9-2.4c0-0.5,0.1-1.1,0.3-1.6
		c0.2-0.4,0.5-0.9,1.1-1.2c0.4-0.3,1.1-0.4,1.7-0.4c1.4,0,2.2,0.4,2.8,1.3c0.5,0.9,0.7,1.9,0.7,3.4c0,1.6-0.2,2.9-0.7,3.7
		c-0.5,0.9-1.4,1.3-2.6,1.3c-0.9,0-1.6-0.2-2-0.7c-0.5-0.5-0.7-1.2-0.9-1.9h0.9C334.5,248.6,334.7,249.1,335.1,249.4z M338.3,242.5
		c-0.4-0.5-1.1-0.7-1.9-0.7c-0.6,0-1.3,0.2-1.6,0.6c-0.4,0.4-0.6,1-0.6,1.7c0,0.7,0.2,1.4,0.6,1.8c0.4,0.4,1,0.6,1.7,0.6
		c0.4,0,0.9-0.1,1.2-0.2c0.4-0.2,0.6-0.4,1-0.7c0.2-0.3,0.3-0.7,0.3-1.3C338.9,243.6,338.7,243,338.3,242.5z"/>
	<path class="st4" d="M351.2,241.9h-5v3.5c0.2-0.3,0.5-0.5,1.1-0.7c0.5-0.2,1-0.3,1.5-0.3c1,0,1.7,0.3,2.2,0.9s0.7,1.3,0.7,2.1
		c0,1-0.3,1.7-0.9,2.4c-0.5,0.6-1.3,1-2.4,1c-1,0-1.7-0.2-2.2-0.7c-0.5-0.5-1-1.2-1-2h1c0.1,0.6,0.4,1.1,0.7,1.5
		c0.4,0.3,0.9,0.5,1.5,0.5c0.7,0,1.4-0.2,1.7-0.6c0.4-0.4,0.5-1.1,0.5-1.8s-0.2-1.3-0.6-1.7c-0.4-0.4-1-0.6-1.7-0.6
		c-0.5,0-1,0.1-1.4,0.3c-0.4,0.2-0.6,0.5-0.9,0.9h-1v-5.2h5.9L351.2,241.9L351.2,241.9z"/>
	<path class="st4" d="M355,249.4c0.3,0.3,0.9,0.5,1.4,0.5c0.9,0,1.5-0.3,1.9-1c0.4-0.6,0.6-1.6,0.6-3c0-0.2,0-0.4,0-0.5
		c-0.1,0.5-0.4,1.1-1,1.4c-0.5,0.3-1.1,0.5-1.8,0.5c-1,0-1.7-0.3-2.2-0.9c-0.5-0.5-0.9-1.4-0.9-2.4c0-0.5,0.1-1.1,0.3-1.6
		c0.2-0.4,0.5-0.9,1.1-1.2c0.4-0.3,1.1-0.4,1.7-0.4c1.4,0,2.2,0.4,2.8,1.3c0.5,0.9,0.7,1.9,0.7,3.4c0,1.6-0.2,2.9-0.7,3.7
		c-0.5,0.9-1.4,1.3-2.6,1.3c-0.9,0-1.6-0.2-2-0.7c-0.5-0.5-0.7-1.2-0.9-1.9h0.9C354.3,248.6,354.5,249.1,355,249.4z M358.1,242.5
		c-0.4-0.5-1.1-0.7-1.9-0.7c-0.6,0-1.3,0.2-1.6,0.6c-0.4,0.4-0.6,1-0.6,1.7c0,0.7,0.2,1.4,0.6,1.8c0.4,0.4,1,0.6,1.7,0.6
		c0.4,0,0.9-0.1,1.2-0.2c0.4-0.2,0.6-0.4,1-0.7c0.2-0.3,0.3-0.7,0.3-1.3C358.7,243.6,358.5,243,358.1,242.5z"/>
	<path class="st4" d="M366.5,249.4c0.3,0.3,0.9,0.5,1.4,0.5c0.9,0,1.5-0.3,1.9-1c0.4-0.6,0.6-1.6,0.6-3c0-0.2,0-0.4,0-0.5
		c-0.1,0.5-0.4,1.1-1,1.4c-0.5,0.3-1.1,0.5-1.8,0.5c-1,0-1.7-0.3-2.2-0.9c-0.5-0.5-0.9-1.4-0.9-2.4c0-0.5,0.1-1.1,0.3-1.6
		c0.2-0.4,0.5-0.9,1.1-1.2c0.4-0.3,1.1-0.4,1.7-0.4c1.4,0,2.2,0.4,2.8,1.3c0.5,0.9,0.7,1.9,0.7,3.4c0,1.6-0.2,2.9-0.7,3.7
		c-0.5,0.9-1.4,1.3-2.6,1.3c-0.9,0-1.6-0.2-2-0.7c-0.5-0.5-0.7-1.2-0.9-1.9h0.9C366,248.6,366.2,249.1,366.5,249.4z M369.7,242.5
		c-0.4-0.5-1.1-0.7-1.9-0.7c-0.6,0-1.3,0.2-1.6,0.6c-0.4,0.4-0.6,1-0.6,1.7c0,0.7,0.2,1.4,0.6,1.8c0.4,0.4,1,0.6,1.7,0.6
		c0.4,0,0.9-0.1,1.2-0.2c0.4-0.2,0.6-0.4,1-0.7c0.2-0.3,0.3-0.7,0.3-1.3C370.4,243.6,370.2,243,369.7,242.5z"/>
	<path class="st4" d="M372.3,242v-0.9h2.4v9.4h-1V242H372.3z"/>
	<path class="st4" d="M295.9,257.2v9.4h-1v-4.5h-5.1v4.5h-1v-9.4h1v4.2h5.1v-4.2H295.9z"/>
	<path class="st4" d="M298.9,258v3.5h3.6v0.7h-3.6v3.6h4.1v0.7h-5v-9.4h5v0.7H298.9L298.9,258z"/>
	<path class="st4" d="M309.7,266.7l-2.5-4l-2.2,4h-1.1l2.9-4.8l-2.9-4.6h1.1l2.5,3.9l2.2-3.9h1.1l-2.9,4.7l2.9,4.7L309.7,266.7
		L309.7,266.7z"/>
	<path class="st4" d="M322.7,260.6l-0.5,2.4h1.9v0.9h-2.1l-0.6,2.9h-0.9l0.6-2.9h-3l-0.6,2.9h-0.9l0.6-2.9h-2.1v-0.9h2.2l0.5-2.4h-2
		v-0.9h2.2l0.6-3h0.9l-0.6,3h3l0.6-3h0.9l-0.6,3h1.9v0.9H322.7z M321.7,260.6h-3l-0.5,2.4h3L321.7,260.6z"/>
	<path class="st4" d="M327.1,258v3.5h3.6v0.7h-3.6v3.6h4.1v0.7h-5v-9.4h5v0.7H327.1L327.1,258z"/>
	<path class="st4" d="M338.9,258h-5v3.5c0.2-0.3,0.5-0.5,1.1-0.7c0.4-0.2,1-0.3,1.5-0.3c1,0,1.7,0.3,2.2,0.9
		c0.5,0.5,0.7,1.3,0.7,2.1c0,1-0.3,1.7-0.9,2.4c-0.5,0.6-1.3,1-2.4,1c-1,0-1.7-0.2-2.2-0.7c-0.5-0.5-1-1.2-1-2h1
		c0.1,0.6,0.4,1.1,0.7,1.5c0.4,0.3,0.9,0.5,1.5,0.5c0.7,0,1.4-0.2,1.7-0.6c0.4-0.4,0.5-1.1,0.5-1.8c0-0.7-0.2-1.3-0.6-1.7
		c-0.4-0.4-1-0.6-1.7-0.6c-0.5,0-1,0.1-1.4,0.3c-0.4,0.2-0.6,0.5-0.9,0.9h-1v-5.2h5.9L338.9,258L338.9,258z"/>
	<path class="st4" d="M345.6,257.3c0.4,0.2,0.7,0.5,1,0.9c0.2,0.3,0.3,0.7,0.3,1.3c0,0.6-0.2,1.1-0.5,1.5s-0.9,0.6-1.6,0.7v0.1
		c0.7,0.2,1.3,0.4,1.7,0.9c0.4,0.4,0.6,0.9,0.6,1.6c0,0.7-0.2,1.4-0.7,1.9c-0.5,0.5-1.3,0.7-2.2,0.7c-1,0-1.7-0.2-2.4-0.7
		c-0.6-0.5-1-1.2-1.1-2.1h1c0.1,0.6,0.3,1.2,0.7,1.5c0.4,0.4,1,0.5,1.6,0.5c0.6,0,1.2-0.2,1.5-0.5c0.3-0.3,0.5-0.7,0.5-1.3
		c0-0.6-0.2-1.2-0.7-1.5c-0.5-0.3-1.2-0.5-2.1-0.5h-0.3v-0.7h0.3c1.8,0,2.7-0.6,2.7-1.8c0-0.5-0.2-1-0.5-1.3
		c-0.3-0.3-0.9-0.4-1.4-0.4c-0.6,0-1.1,0.2-1.5,0.5c-0.4,0.3-0.6,0.9-0.7,1.5h-1c0.1-0.9,0.4-1.6,1-2c0.5-0.5,1.3-0.7,2.2-0.7
		C344.7,257,345.1,257.1,345.6,257.3z"/>
	<path class="st4" d="M354.7,262.6c0.3,0.4,0.5,1,0.5,1.5c0,0.7-0.2,1.4-0.7,1.8c-0.5,0.4-1.3,0.7-2.2,0.7h-3.3v-9.4h3.2
		c1,0,1.7,0.2,2.1,0.6c0.4,0.4,0.7,1,0.7,1.7c0,0.6-0.2,1.1-0.5,1.5c-0.3,0.3-0.7,0.6-1.3,0.7C353.8,261.9,354.3,262.2,354.7,262.6z
		 M349.8,261.4h2.1c0.6,0,1.2-0.1,1.5-0.4c0.3-0.3,0.5-0.7,0.5-1.3s-0.2-1-0.5-1.3c-0.3-0.3-0.9-0.4-1.6-0.4h-2.1L349.8,261.4
		L349.8,261.4z M353.7,265.4c0.4-0.3,0.6-0.7,0.6-1.4c0-0.5-0.2-1.1-0.6-1.4c-0.4-0.3-1-0.5-1.7-0.5h-2.1v3.7h2.1
		C352.7,265.9,353.3,265.7,353.7,265.4z"/>
	<path class="st4" d="M362.8,258h-5v3.5c0.2-0.3,0.5-0.5,1.1-0.7c0.4-0.2,1-0.3,1.5-0.3c1,0,1.7,0.3,2.2,0.9
		c0.5,0.5,0.7,1.3,0.7,2.1c0,1-0.3,1.7-0.9,2.4c-0.5,0.6-1.3,1-2.4,1c-1,0-1.7-0.2-2.2-0.7c-0.5-0.5-1-1.2-1-2h1
		c0.1,0.6,0.4,1.1,0.7,1.5c0.4,0.3,0.9,0.5,1.5,0.5c0.7,0,1.4-0.2,1.7-0.6c0.4-0.4,0.5-1.1,0.5-1.8c0-0.7-0.2-1.3-0.6-1.7
		c-0.4-0.4-1-0.6-1.7-0.6c-0.5,0-1,0.1-1.4,0.3c-0.4,0.2-0.6,0.5-0.9,0.9h-1v-5.2h5.9L362.8,258L362.8,258z"/>
	<path class="st4" d="M370.7,262.6c0.3,0.4,0.5,1,0.5,1.5c0,0.7-0.2,1.4-0.7,1.8c-0.5,0.4-1.3,0.7-2.2,0.7H365v-9.4h3.2
		c1,0,1.7,0.2,2.1,0.6s0.7,1,0.7,1.7c0,0.6-0.2,1.1-0.5,1.5c-0.3,0.3-0.7,0.6-1.3,0.7C369.8,261.9,370.4,262.2,370.7,262.6z
		 M365.9,261.4h2.1c0.6,0,1.2-0.1,1.5-0.4c0.3-0.3,0.5-0.7,0.5-1.3s-0.2-1-0.5-1.3c-0.3-0.3-0.9-0.4-1.6-0.4h-2.1L365.9,261.4
		L365.9,261.4z M369.7,265.4c0.4-0.3,0.6-0.7,0.6-1.4c0-0.5-0.2-1.1-0.6-1.4c-0.4-0.3-1-0.5-1.7-0.5h-2.1v3.7h2.1
		C368.8,265.9,369.3,265.7,369.7,265.4z"/>
</g>
<g>
	<path class="st4" d="M294.3,367.3c-0.2,0.4-0.5,0.6-1,1c-0.4,0.2-1,0.3-1.6,0.3c-0.6,0-1.2-0.1-1.6-0.3c-0.4-0.2-0.9-0.5-1.2-1
		c-0.3-0.4-0.4-0.9-0.5-1.3h1c0,0.3,0.1,0.5,0.3,0.9c0.2,0.3,0.4,0.5,0.7,0.6c0.3,0.2,0.7,0.3,1.2,0.3c0.6,0,1.1-0.2,1.4-0.5
		c0.3-0.3,0.4-0.7,0.4-1.2c0-0.4-0.1-0.7-0.3-1.1c-0.2-0.2-0.4-0.4-0.7-0.6c-0.3-0.1-0.7-0.3-1.3-0.4c-0.6-0.2-1.1-0.3-1.4-0.5
		c-0.3-0.2-0.6-0.4-1-0.7c-0.2-0.3-0.4-0.7-0.4-1.4c0-0.7,0.2-1.3,0.7-1.7c0.5-0.4,1.2-0.6,2-0.6c0.9,0,1.6,0.2,2.1,0.6
		c0.5,0.4,0.9,1,1,1.6h-1c-0.1-0.4-0.3-0.7-0.6-1.1s-0.9-0.4-1.4-0.4c-0.5,0-1,0.1-1.3,0.4c-0.3,0.3-0.5,0.6-0.5,1.2
		c0,0.4,0.1,0.7,0.3,1c0.2,0.2,0.4,0.4,0.7,0.5s0.7,0.3,1.2,0.4c0.6,0.2,1.1,0.3,1.5,0.5c0.3,0.2,0.6,0.4,1,0.9
		c0.2,0.3,0.4,0.9,0.4,1.4C294.6,366.4,294.5,366.8,294.3,367.3z"/>
	<path class="st4" d="M306.2,361.1l-2.1,7.3h-1l-2.2-6.1l-2.2,6.2h-1l-2.1-7.3h1l1.7,6.3l2.2-6.3h1l2.2,6.3l1.7-6.3h0.9L306.2,361.1
		L306.2,361.1z"/>
	<path class="st4" d="M312.3,367.3c0.4-0.3,0.7-0.7,0.9-1.4h1c-0.1,0.7-0.5,1.4-1.1,1.9c-0.6,0.5-1.4,0.7-2.4,0.7
		c-0.7,0-1.3-0.1-1.8-0.4c-0.5-0.3-1-0.7-1.3-1.3c-0.3-0.5-0.4-1.3-0.4-2c0-0.7,0.1-1.4,0.4-2c0.3-0.5,0.7-1,1.3-1.3
		c0.5-0.3,1.2-0.4,1.8-0.4c0.7,0,1.3,0.1,1.8,0.4c0.5,0.3,1,0.7,1.2,1.2c0.3,0.5,0.4,1.1,0.4,1.6c0,0.2,0,0.4,0,0.6H308
		c0,0.6,0.1,1.2,0.4,1.5c0.2,0.4,0.5,0.7,1,1s0.9,0.3,1.3,0.3C311.3,367.7,311.8,367.6,312.3,367.3z M309.4,362
		c-0.4,0.2-0.7,0.5-1,0.9c-0.2,0.4-0.4,1-0.4,1.5h5.1c0-0.6-0.1-1.1-0.3-1.5s-0.5-0.7-1-1c-0.4-0.2-0.9-0.3-1.3-0.3
		C310.1,361.8,309.7,361.9,309.4,362z"/>
	<path class="st4" d="M320.6,367.3c0.4-0.3,0.7-0.7,0.9-1.4h1c-0.1,0.7-0.5,1.4-1.1,1.9c-0.6,0.5-1.4,0.7-2.4,0.7
		c-0.7,0-1.3-0.1-1.8-0.4c-0.5-0.3-1-0.7-1.3-1.3c-0.3-0.5-0.4-1.3-0.4-2c0-0.7,0.1-1.4,0.4-2c0.3-0.5,0.7-1,1.3-1.3
		c0.5-0.3,1.2-0.4,1.8-0.4c0.7,0,1.3,0.1,1.8,0.4c0.5,0.3,1,0.7,1.2,1.2c0.3,0.5,0.4,1.1,0.4,1.6c0,0.2,0,0.4,0,0.6h-6.1
		c0,0.6,0.1,1.2,0.4,1.5c0.2,0.4,0.5,0.7,1,1c0.4,0.2,0.9,0.3,1.3,0.3C319.7,367.7,320.2,367.6,320.6,367.3z M317.7,362
		c-0.4,0.2-0.7,0.5-1,0.9c-0.2,0.4-0.4,1-0.4,1.5h5.1c0-0.6-0.1-1.1-0.3-1.5c-0.2-0.4-0.5-0.7-1-1c-0.4-0.2-0.9-0.3-1.3-0.3
		C318.6,361.8,318.2,361.9,317.7,362z"/>
	<path class="st4" d="M327.5,367.6v0.9h-0.9c-0.7,0-1.3-0.2-1.6-0.5c-0.3-0.3-0.5-0.9-0.5-1.7v-4.3h-1.1v-0.9h1.1v-1.8h1v1.8h2v0.9
		h-2v4.3c0,0.5,0.1,0.9,0.3,1.1c0.2,0.2,0.5,0.3,1,0.3L327.5,367.6L327.5,367.6z"/>
	<path class="st4" d="M339.1,359.4c0.7,0.4,1.3,1,1.6,1.7c0.4,0.7,0.6,1.6,0.6,2.5c0,0.9-0.2,1.7-0.6,2.5c-0.4,0.7-1,1.3-1.6,1.7
		c-0.7,0.4-1.5,0.6-2.4,0.6c-0.9,0-1.7-0.2-2.4-0.6c-0.7-0.4-1.3-1-1.6-1.7c-0.4-0.7-0.6-1.6-0.6-2.5c0-0.9,0.2-1.7,0.6-2.5
		c0.4-0.7,1-1.3,1.6-1.7c0.7-0.4,1.5-0.6,2.4-0.6C337.6,358.9,338.5,359,339.1,359.4z M335,360.2c-0.5,0.3-1,0.7-1.3,1.4
		c-0.3,0.6-0.4,1.3-0.4,2.1c0,0.9,0.1,1.5,0.4,2.1c0.3,0.6,0.7,1.1,1.3,1.4c0.5,0.3,1.2,0.5,1.8,0.5c0.6,0,1.3-0.2,1.8-0.5
		c0.5-0.3,1-0.7,1.3-1.4c0.3-0.6,0.4-1.3,0.4-2.1c0-0.9-0.1-1.5-0.4-2.1c-0.3-0.6-0.7-1.1-1.3-1.4s-1.2-0.5-1.8-0.5
		C336.1,359.8,335.5,359.9,335,360.2z"/>
	<path class="st4" d="M348.9,361.8c0.5,0.5,0.7,1.3,0.7,2.4v4.3h-1v-4.2c0-0.7-0.2-1.4-0.6-1.8c-0.4-0.4-1-0.6-1.6-0.6
		c-0.7,0-1.3,0.2-1.7,0.7c-0.4,0.4-0.6,1.2-0.6,2v3.9h-1v-7.3h1v1.8c0.2-0.6,0.5-1.1,1.1-1.4s1.1-0.5,1.7-0.5
		C347.6,360.9,348.3,361.3,348.9,361.8z"/>
	<path class="st4" d="M351.5,358.5c0.1-0.1,0.3-0.2,0.5-0.2s0.3,0.1,0.5,0.2c0.1,0.1,0.2,0.3,0.2,0.4c0,0.2-0.1,0.3-0.2,0.4
		c-0.1,0.1-0.3,0.2-0.5,0.2s-0.3-0.1-0.5-0.2c-0.1-0.1-0.2-0.3-0.2-0.4C351.4,358.7,351.4,358.6,351.5,358.5z M352.5,361.1v7.3h-1
		v-7.3H352.5z"/>
	<path class="st4" d="M359.8,361.5c0.5,0.3,1,0.7,1.3,1.3c0.3,0.5,0.4,1.3,0.4,2s-0.1,1.4-0.4,2c-0.3,0.5-0.7,1-1.3,1.3
		c-0.5,0.3-1.2,0.4-1.8,0.4c-0.7,0-1.3-0.1-1.9-0.4c-0.5-0.3-1-0.7-1.3-1.3c-0.3-0.5-0.4-1.2-0.4-2c0-0.7,0.1-1.4,0.4-2
		c0.3-0.5,0.7-1,1.3-1.3c0.5-0.3,1.2-0.4,1.9-0.4C358.6,361.1,359.3,361.2,359.8,361.5z M356.6,362.1c-0.4,0.2-0.7,0.5-1,1
		c-0.2,0.4-0.3,1-0.3,1.6c0,0.6,0.1,1.2,0.3,1.6c0.2,0.4,0.5,0.7,1,1c0.4,0.2,0.9,0.3,1.4,0.3c0.4,0,1-0.1,1.3-0.3
		c0.4-0.2,0.7-0.5,1-1c0.2-0.4,0.4-1,0.4-1.6c0-0.6-0.1-1.2-0.4-1.6c-0.2-0.4-0.5-0.7-1-1c-0.4-0.2-0.9-0.3-1.3-0.3
		C357.4,361.8,357,361.9,356.6,362.1z"/>
	<path class="st4" d="M369,361.8c0.5,0.5,0.7,1.3,0.7,2.4v4.3h-1v-4.2c0-0.7-0.2-1.4-0.6-1.8c-0.4-0.4-1-0.6-1.6-0.6
		c-0.7,0-1.3,0.2-1.7,0.7c-0.4,0.4-0.6,1.2-0.6,2v3.9h-1v-7.3h1v1.8c0.2-0.6,0.5-1.1,1.1-1.4c0.5-0.3,1.1-0.5,1.7-0.5
		C367.7,360.9,368.5,361.3,369,361.8z"/>
	<path class="st4" d="M295.8,391.9c0.7,0.5,1.3,1.3,1.6,2.2h-1c-0.2-0.6-0.6-1.2-1.3-1.6c-0.5-0.4-1.3-0.6-2.1-0.6
		c-0.6,0-1.3,0.2-1.8,0.5s-1,0.7-1.3,1.4s-0.4,1.3-0.4,2.1s0.1,1.5,0.4,2c0.3,0.6,0.7,1.1,1.3,1.4c0.5,0.3,1.1,0.5,1.8,0.5
		c0.9,0,1.6-0.2,2.1-0.6c0.5-0.4,1-1,1.3-1.6h1c-0.3,1-0.9,1.7-1.6,2.2c-0.7,0.5-1.7,0.9-2.8,0.9c-0.9,0-1.6-0.2-2.4-0.6
		c-0.6-0.4-1.2-1-1.6-1.7s-0.5-1.6-0.5-2.5c0-1,0.2-1.8,0.5-2.5c0.4-0.7,0.9-1.3,1.6-1.7c0.6-0.4,1.5-0.6,2.4-0.6
		C294.2,391,295,391.3,295.8,391.9z"/>
	<path class="st4" d="M308.2,391.3v9.2h-1v-7.7l-3.2,7.7h-0.9l-3.2-7.7v7.7h-1v-9.2h1.1l3.5,8l3.4-8H308.2z"/>
	<path class="st4" d="M316.7,391.1l-3,5.8v3.6h-1.1v-3.6l-3.1-5.8h1.1l2.5,4.7l2.5-4.7H316.7z"/>
	<path class="st4" d="M319.8,395.8l4.5,4.7h-1.2l-4.2-4.4v4.4h-1v-9.4h1v4.4l4.2-4.4h1.2L319.8,395.8z"/>
	<path class="st4" d="M333.6,392.2c-0.3-0.3-0.9-0.5-1.4-0.5c-0.9,0-1.5,0.3-1.9,1c-0.4,0.6-0.6,1.6-0.6,3c0,0.2,0,0.4,0,0.6
		c0.1-0.6,0.4-1.1,1-1.4c0.5-0.3,1.1-0.5,1.8-0.5c1,0,1.7,0.3,2.2,0.9c0.5,0.5,0.9,1.4,0.9,2.4c0,0.5-0.1,1.1-0.3,1.6
		c-0.2,0.4-0.5,0.9-1.1,1.2c-0.4,0.3-1.1,0.4-1.8,0.4c-1.4,0-2.2-0.4-2.8-1.3c-0.5-0.9-0.7-2-0.7-3.4c0-1.6,0.3-2.9,0.9-3.7
		s1.4-1.3,2.7-1.3c0.9,0,1.5,0.2,2,0.7c0.5,0.5,0.7,1.2,0.9,1.9h-0.9C334.1,393.1,333.9,392.5,333.6,392.2z M330,398.5
		c0.2,0.4,0.4,0.7,0.9,1c0.4,0.2,0.9,0.3,1.4,0.3c0.6,0,1.3-0.2,1.6-0.6c0.4-0.4,0.6-1,0.6-1.7c0-0.7-0.2-1.4-0.6-1.8
		c-0.4-0.4-1-0.6-1.7-0.6c-0.4,0-0.9,0.1-1.2,0.2c-0.4,0.2-0.6,0.4-1,0.7c-0.2,0.3-0.3,0.7-0.3,1.3
		C329.7,397.8,329.8,398.2,330,398.5z"/>
	<path class="st4" d="M337,395.8c0-1.5,0.2-2.7,0.7-3.5c0.4-0.9,1.3-1.3,2.6-1.3c1.2,0,2,0.4,2.6,1.3c0.5,0.9,0.7,2,0.7,3.5
		s-0.2,2.7-0.7,3.5c-0.5,0.9-1.3,1.3-2.6,1.3c-1.2,0-2-0.4-2.6-1.3C337.2,398.5,337,397.3,337,395.8z M342.6,395.8
		c0-0.9-0.1-1.5-0.2-2c-0.1-0.5-0.3-1-0.6-1.4c-0.3-0.3-0.9-0.5-1.5-0.5c-0.6,0-1.1,0.2-1.5,0.5c-0.3,0.3-0.5,0.7-0.6,1.4
		c-0.1,0.5-0.2,1.3-0.2,2c0,0.9,0.1,1.5,0.2,2.1c0.1,0.5,0.3,1,0.6,1.4c0.3,0.3,0.9,0.5,1.5,0.5c0.6,0,1.1-0.2,1.5-0.5
		c0.3-0.3,0.5-0.7,0.6-1.4C342.6,397.3,342.6,396.6,342.6,395.8z"/>
	<path class="st4" d="M353.5,392.2c-0.3-0.3-0.9-0.5-1.4-0.5c-0.9,0-1.5,0.3-1.9,1c-0.4,0.6-0.6,1.6-0.6,3c0,0.2,0,0.4,0,0.6
		c0.1-0.6,0.4-1.1,1-1.4c0.5-0.3,1.1-0.5,1.8-0.5c1,0,1.7,0.3,2.2,0.9c0.5,0.5,0.9,1.4,0.9,2.4c0,0.5-0.1,1.1-0.3,1.6
		c-0.2,0.4-0.5,0.9-1.1,1.2c-0.4,0.3-1.1,0.4-1.8,0.4c-1.4,0-2.2-0.4-2.8-1.3c-0.5-0.9-0.7-2-0.7-3.4c0-1.6,0.3-2.9,0.9-3.7
		c0.5-0.9,1.4-1.3,2.7-1.3c0.9,0,1.5,0.2,2,0.7c0.5,0.5,0.7,1.2,0.9,1.9h-0.9C354,393.1,353.8,392.5,353.5,392.2z M349.9,398.5
		c0.2,0.4,0.4,0.7,0.9,1c0.4,0.2,0.9,0.3,1.4,0.3c0.6,0,1.3-0.2,1.6-0.6c0.4-0.4,0.6-1,0.6-1.7c0-0.7-0.2-1.4-0.6-1.8
		c-0.4-0.4-1-0.6-1.7-0.6c-0.4,0-0.9,0.1-1.2,0.2c-0.4,0.2-0.6,0.4-1,0.7c-0.2,0.3-0.3,0.7-0.3,1.3
		C349.6,397.8,349.7,398.2,349.9,398.5z"/>
	<path class="st4" d="M362.5,391.9l-3.6,8.8h-1l3.6-8.7h-5.2v-0.9h6.1v0.7H362.5z"/>
	<path class="st4" d="M370.7,396.7c1-1.1,1.4-2,1.4-3c0-0.5-0.1-1.1-0.4-1.4c-0.3-0.3-0.7-0.5-1.5-0.5c-0.7,0-1.2,0.2-1.6,0.6
		c-0.3,0.4-0.5,1.1-0.6,1.7h-1c0.1-1.1,0.4-1.8,1-2.4c0.5-0.5,1.3-0.9,2.2-0.9c0.9,0,1.5,0.2,2,0.6c0.5,0.4,0.7,1.1,0.7,2
		c0,0.7-0.2,1.5-0.7,2.2c-0.5,0.7-1.1,1.5-1.8,2.1c-0.7,0.6-1.5,1.2-2.2,1.7h5v0.7h-6.4v-0.6C368.6,398.8,369.7,397.8,370.7,396.7z"
		/>
	<path class="st4" d="M378.2,395.8c0-1.5,0.2-2.7,0.7-3.5c0.4-0.9,1.3-1.3,2.6-1.3c1.2,0,2,0.4,2.6,1.3c0.5,0.9,0.7,2,0.7,3.5
		s-0.2,2.7-0.7,3.5c-0.5,0.9-1.3,1.3-2.6,1.3c-1.2,0-2-0.4-2.6-1.3C378.5,398.5,378.2,397.3,378.2,395.8z M383.9,395.8
		c0-0.9-0.1-1.5-0.2-2c-0.1-0.5-0.3-1-0.6-1.4c-0.3-0.3-0.9-0.5-1.5-0.5c-0.6,0-1.1,0.2-1.5,0.5c-0.3,0.3-0.5,0.7-0.6,1.4
		c-0.1,0.5-0.2,1.3-0.2,2c0,0.9,0.1,1.5,0.2,2.1c0.1,0.5,0.3,1,0.6,1.4c0.3,0.3,0.9,0.5,1.5,0.5c0.6,0,1.1-0.2,1.5-0.5
		c0.3-0.3,0.5-0.7,0.6-1.4C383.8,397.3,383.9,396.6,383.9,395.8z"/>
	<path class="st4" d="M293.9,416.6l-2.6-4h-1.5v4h-1v-9.4h2.9c1.1,0,1.8,0.2,2.4,0.7c0.5,0.5,0.7,1.2,0.7,2c0,0.7-0.2,1.4-0.6,1.9
		c-0.4,0.4-1.1,0.7-1.9,0.9l2.7,4h-1.1V416.6z M289.8,412h1.9c1.5,0,2.2-0.6,2.2-1.9c0-1.4-0.7-2-2.2-2h-1.9V412z"/>
	<path class="st4" d="M303.5,407.9c0.7,0.5,1.3,1.3,1.5,2.1h-1c-0.2-0.6-0.6-1.2-1.2-1.5c-0.5-0.4-1.3-0.6-2-0.6
		c-0.6,0-1.3,0.2-1.8,0.5c-0.5,0.3-1,0.7-1.3,1.4c-0.3,0.6-0.4,1.3-0.4,2.1c0,0.9,0.1,1.5,0.4,2.1c0.3,0.6,0.7,1.1,1.3,1.4
		c0.5,0.3,1.2,0.5,1.9,0.5c0.6,0,1.2-0.1,1.7-0.4c0.5-0.3,1-0.6,1.3-1.2c0.3-0.5,0.5-1.2,0.5-1.9h-4v-0.7h4.7v0.9
		c-0.1,0.9-0.3,1.5-0.6,2.1c-0.4,0.6-1,1.2-1.6,1.5c-0.6,0.3-1.4,0.5-2.2,0.5c-0.9,0-1.7-0.2-2.4-0.6c-0.7-0.4-1.3-1-1.6-1.7
		c-0.4-0.7-0.5-1.6-0.5-2.5c0-0.9,0.2-1.7,0.5-2.5c0.4-0.7,1-1.3,1.6-1.7c0.6-0.4,1.5-0.6,2.4-0.6
		C301.8,407.1,302.7,407.4,303.5,407.9z"/>
	<path class="st4" d="M312.7,412.5c0.3,0.4,0.5,1,0.5,1.5c0,0.7-0.2,1.4-0.7,1.8c-0.5,0.4-1.3,0.7-2.2,0.7h-3.3v-9.4h3.2
		c1,0,1.7,0.2,2.1,0.6c0.4,0.4,0.7,1,0.7,1.7c0,0.6-0.2,1.1-0.5,1.5c-0.3,0.3-0.7,0.6-1.3,0.7C311.8,411.9,312.4,412.1,312.7,412.5z
		 M307.9,411.5h2.1c0.6,0,1.2-0.1,1.5-0.4c0.3-0.3,0.5-0.7,0.5-1.3c0-0.5-0.2-1-0.5-1.3c-0.3-0.3-0.9-0.4-1.6-0.4h-2.1L307.9,411.5
		L307.9,411.5z M311.7,415.3c0.4-0.3,0.6-0.7,0.6-1.4c0-0.5-0.2-1.1-0.6-1.4c-0.4-0.3-1-0.5-1.7-0.5h-2.1v3.7h2.1
		C310.8,415.8,311.3,415.6,311.7,415.3z"/>
	<path class="st4" d="M317.5,408v-0.9h2.4v9.4h-1V408H317.5z"/>
	<path class="st4" d="M325.3,412.7c1-1.1,1.4-2,1.4-3c0-0.5-0.1-1.1-0.4-1.4c-0.3-0.3-0.7-0.5-1.5-0.5c-0.7,0-1.2,0.2-1.6,0.6
		c-0.3,0.4-0.5,1.1-0.6,1.7h-1c0.1-1.1,0.4-1.8,1-2.4c0.5-0.5,1.3-0.9,2.2-0.9c0.9,0,1.5,0.2,2,0.6c0.5,0.4,0.7,1.1,0.7,2
		c0,0.7-0.2,1.5-0.7,2.2c-0.5,0.7-1.1,1.5-1.8,2.1c-0.7,0.6-1.5,1.2-2.2,1.7h5v0.7h-6.4v-0.6C323.1,414.9,324.4,413.8,325.3,412.7z"
		/>
	<path class="st4" d="M329.8,408.1c0.2-0.4,0.6-0.6,1.1-0.9c0.5-0.2,1.1-0.3,1.7-0.3c0.6,0,1.3,0.1,1.7,0.3c0.4,0.2,0.9,0.5,1.1,0.9
		c0.2,0.4,0.4,0.7,0.4,1.3c0,0.5-0.1,1-0.4,1.4c-0.3,0.4-0.7,0.6-1.4,0.9c0.6,0.1,1.2,0.4,1.5,0.9c0.3,0.4,0.5,1,0.5,1.6
		c0,0.9-0.3,1.6-1,2c-0.6,0.5-1.5,0.7-2.5,0.7c-1.1,0-1.9-0.2-2.5-0.7c-0.6-0.5-1-1.2-1-2c0-0.6,0.2-1.2,0.5-1.6
		c0.3-0.4,0.9-0.7,1.5-0.9c-0.6-0.2-1.1-0.4-1.4-0.9c-0.3-0.4-0.4-0.9-0.4-1.4C329.5,409,329.6,408.6,329.8,408.1z M330.9,415.6
		c0.4,0.3,1.1,0.5,1.8,0.5c0.7,0,1.4-0.2,1.8-0.5c0.4-0.3,0.6-0.9,0.6-1.5c0-0.6-0.2-1.2-0.7-1.5c-0.4-0.3-1.1-0.5-1.8-0.5
		c-0.7,0-1.3,0.2-1.8,0.5c-0.5,0.3-0.7,0.9-0.7,1.5C330.1,414.8,330.4,415.2,330.9,415.6z M331,410.9c0.4,0.3,1,0.4,1.6,0.4
		c0.7,0,1.3-0.1,1.6-0.4c0.4-0.3,0.6-0.7,0.6-1.4c0-0.5-0.2-1.1-0.6-1.4c-0.4-0.3-1-0.4-1.6-0.4c-0.6,0-1.2,0.1-1.6,0.4
		c-0.4,0.3-0.6,0.7-0.6,1.4C330.5,410.2,330.7,410.6,331,410.9z"/>
	<path class="st4" d="M342.9,415.5c0.3,0.3,0.9,0.5,1.4,0.5c0.9,0,1.5-0.3,1.9-1c0.4-0.6,0.6-1.6,0.6-3c0-0.2,0-0.4,0-0.5
		c-0.1,0.5-0.4,1.1-1,1.4c-0.5,0.3-1.1,0.5-1.8,0.5c-1,0-1.7-0.3-2.2-0.9c-0.5-0.5-0.9-1.4-0.9-2.4c0-0.5,0.1-1.1,0.3-1.6
		c0.2-0.4,0.5-0.9,1.1-1.2c0.4-0.3,1.1-0.4,1.7-0.4c1.4,0,2.2,0.4,2.8,1.3c0.5,0.9,0.7,1.9,0.7,3.4c0,1.6-0.2,2.9-0.7,3.7
		c-0.5,0.9-1.4,1.3-2.6,1.3c-0.9,0-1.6-0.2-2-0.7c-0.5-0.5-0.7-1.2-0.9-1.9h0.9C342.3,414.7,342.6,415.1,342.9,415.5z M346.1,408.6
		c-0.4-0.5-1.1-0.7-1.9-0.7c-0.6,0-1.3,0.2-1.6,0.6c-0.4,0.4-0.6,1-0.6,1.7c0,0.7,0.2,1.4,0.6,1.8c0.4,0.4,1,0.6,1.7,0.6
		c0.4,0,0.9-0.1,1.2-0.2c0.4-0.2,0.6-0.4,1-0.7c0.2-0.3,0.3-0.7,0.3-1.3C346.7,409.6,346.5,409.1,346.1,408.6z"/>
	<path class="st4" d="M354.9,407.9l-3.6,8.8h-1l3.6-8.7h-5.2v-0.9h6.1v0.7H354.9z"/>
	<path class="st4" d="M358.9,408v-0.9h2.4v9.4h-1V408H358.9z"/>
	<path class="st4" d="M368,408.2c-0.3-0.3-0.9-0.5-1.4-0.5c-0.9,0-1.5,0.3-1.9,1c-0.4,0.6-0.6,1.6-0.6,3c0,0.2,0,0.4,0,0.6
		c0.1-0.6,0.4-1.1,1-1.4c0.5-0.3,1.1-0.5,1.8-0.5c1,0,1.7,0.3,2.2,0.9s0.9,1.4,0.9,2.4c0,0.5-0.1,1.1-0.3,1.6
		c-0.2,0.4-0.5,0.9-1.1,1.2c-0.4,0.3-1.1,0.4-1.8,0.4c-1.4,0-2.2-0.4-2.8-1.3c-0.5-0.9-0.7-2-0.7-3.4c0-1.6,0.3-2.9,0.9-3.7
		c0.5-0.9,1.4-1.3,2.7-1.3c0.9,0,1.5,0.2,2,0.7c0.5,0.5,0.7,1.2,0.9,1.9h-0.9C368.6,409.1,368.4,408.6,368,408.2z M364.5,414.7
		c0.2,0.4,0.4,0.7,0.9,1c0.4,0.2,0.9,0.3,1.4,0.3c0.6,0,1.3-0.2,1.6-0.6c0.4-0.4,0.6-1,0.6-1.7c0-0.7-0.2-1.4-0.6-1.8
		c-0.4-0.4-1-0.6-1.7-0.6c-0.4,0-0.9,0.1-1.2,0.2c-0.4,0.2-0.6,0.4-1,0.7c-0.2,0.3-0.3,0.7-0.3,1.3
		C364.2,413.8,364.3,414.2,364.5,414.7z"/>
	<path class="st4" d="M371,414.3v-0.7l5-6.4h1v6.4h1.5v0.9H377v2.2h-1v-2.2L371,414.3L371,414.3z M376.2,408.4l-4.1,5.2h4.1V408.4z"
		/>
	<path class="st4" d="M295.9,423.2v9.4h-1v-4.5h-5.1v4.5h-1v-9.4h1v4.2h5.1v-4.2H295.9z"/>
	<path class="st4" d="M298.9,424.1v3.5h3.6v0.7h-3.6v3.6h4.1v0.7h-5v-9.5h5v0.7L298.9,424.1L298.9,424.1z"/>
	<path class="st4" d="M309.7,432.8l-2.5-4l-2.2,4h-1.1l2.9-4.8l-2.9-4.6h1.1l2.5,3.9l2.2-3.9h1.1l-2.9,4.7l2.9,4.7H309.7z"/>
	<path class="st4" d="M322.7,426.7l-0.5,2.4h1.9v0.9h-2.1l-0.6,2.9h-0.9l0.6-2.9h-3l-0.6,2.9h-0.9l0.6-2.9h-2.1V429h2.2l0.5-2.4h-2
		v-0.9h2.2l0.6-3h0.9l-0.6,3h3l0.6-3h0.9l-0.6,3h1.9v0.9H322.7z M321.7,426.7h-3l-0.5,2.4h3L321.7,426.7z"/>
	<path class="st4" d="M326.5,424.3c0.2-0.4,0.6-0.6,1.1-0.9c0.5-0.2,1.1-0.3,1.7-0.3c0.6,0,1.3,0.1,1.7,0.3c0.4,0.2,0.9,0.5,1.1,0.9
		c0.2,0.4,0.4,0.7,0.4,1.3c0,0.5-0.1,1-0.4,1.4c-0.3,0.4-0.7,0.6-1.4,0.9c0.6,0.1,1.2,0.4,1.5,0.9c0.3,0.4,0.5,1,0.5,1.6
		c0,0.9-0.3,1.6-1,2c-0.6,0.5-1.5,0.7-2.5,0.7c-1.1,0-1.9-0.2-2.5-0.7c-0.6-0.5-1-1.2-1-2c0-0.6,0.2-1.2,0.5-1.6
		c0.3-0.4,0.9-0.7,1.5-0.9c-0.6-0.2-1.1-0.4-1.4-0.9c-0.3-0.4-0.4-0.9-0.4-1.4C326.2,425,326.3,424.6,326.5,424.3z M327.6,431.7
		c0.4,0.3,1.1,0.5,1.8,0.5c0.7,0,1.4-0.2,1.8-0.5c0.4-0.3,0.6-0.9,0.6-1.5c0-0.6-0.2-1.2-0.7-1.5c-0.4-0.3-1.1-0.5-1.8-0.5
		c-0.7,0-1.3,0.2-1.8,0.5c-0.4,0.3-0.7,0.9-0.7,1.5C326.8,430.8,327,431.4,327.6,431.7z M327.7,427c0.4,0.3,1,0.4,1.6,0.4
		c0.7,0,1.3-0.1,1.6-0.4c0.4-0.3,0.6-0.7,0.6-1.4c0-0.5-0.2-1.1-0.6-1.4c-0.4-0.3-1-0.4-1.6-0.4c-0.6,0-1.2,0.1-1.6,0.4
		c-0.4,0.3-0.6,0.7-0.6,1.4C327.1,426.2,327.4,426.7,327.7,427z"/>
	<path class="st4" d="M334.3,427.9c0-1.5,0.2-2.7,0.7-3.5c0.4-0.9,1.3-1.3,2.6-1.3c1.2,0,2,0.4,2.6,1.3c0.5,0.9,0.7,2,0.7,3.5
		s-0.2,2.7-0.7,3.5c-0.5,0.9-1.3,1.3-2.6,1.3c-1.2,0-2-0.4-2.6-1.3C334.5,430.6,334.3,429.4,334.3,427.9z M339.9,427.9
		c0-0.9-0.1-1.5-0.2-2c-0.1-0.5-0.3-1-0.6-1.4c-0.3-0.3-0.9-0.5-1.5-0.5c-0.6,0-1.1,0.2-1.5,0.5c-0.3,0.3-0.5,0.7-0.6,1.4
		c-0.1,0.5-0.2,1.3-0.2,2c0,0.9,0.1,1.5,0.2,2.1c0.1,0.5,0.3,1,0.6,1.4c0.3,0.3,0.9,0.5,1.5,0.5c0.6,0,1.1-0.2,1.5-0.5
		c0.3-0.3,0.5-0.7,0.6-1.4C339.9,429.4,339.9,428.8,339.9,427.9z"/>
	<path class="st4" d="M347.4,424.4c-0.3-0.3-0.9-0.5-1.4-0.5c-0.9,0-1.5,0.3-1.9,1c-0.4,0.6-0.6,1.6-0.6,3c0,0.2,0,0.4,0,0.6
		c0.1-0.6,0.4-1.1,1-1.4c0.5-0.3,1.1-0.5,1.8-0.5c1,0,1.7,0.3,2.2,0.9c0.5,0.5,0.9,1.4,0.9,2.4c0,0.5-0.1,1.1-0.3,1.6
		c-0.2,0.4-0.5,0.9-1.1,1.2c-0.4,0.3-1.1,0.4-1.8,0.4c-1.4,0-2.2-0.4-2.8-1.3c-0.5-0.9-0.7-2-0.7-3.4c0-1.6,0.3-2.9,0.9-3.7
		c0.5-0.9,1.4-1.3,2.7-1.3c0.9,0,1.5,0.2,2,0.7c0.5,0.5,0.7,1.2,0.9,1.9h-1.1C347.9,425.2,347.7,424.7,347.4,424.4z M343.7,430.7
		c0.2,0.4,0.4,0.7,0.9,1c0.4,0.2,0.9,0.3,1.4,0.3c0.6,0,1.3-0.2,1.6-0.6c0.4-0.4,0.6-1,0.6-1.7c0-0.7-0.2-1.4-0.6-1.8
		c-0.4-0.4-1-0.6-1.7-0.6c-0.4,0-0.9,0.1-1.2,0.2s-0.6,0.4-1,0.7c-0.2,0.3-0.3,0.7-0.3,1.3C343.5,429.9,343.6,430.3,343.7,430.7z"/>
	<path class="st4" d="M350.2,424.2v-1h2.4v9.4h-1v-8.6h-1.4V424.2z"/>
	<path class="st4" d="M360,430.4h-4.3l-0.9,2.4h-1l3.5-9.2h1.1l3.5,9.2H361L360,430.4z M359.8,429.7l-1.8-5.1l-1.9,5.1H359.8z"/>
	<path class="st4" d="M362.6,430.4v-0.7l5-6.4h1v6.4h1.5v0.9h-1.5v2.2h-1v-2.2L362.6,430.4L362.6,430.4z M367.7,424.4l-4.1,5.2h4.1
		V424.4z"/>
</g>
<g>
	<path class="st4" d="M44.7,278.1c0.7,0.5,1.3,1.3,1.6,2.2h-1c-0.2-0.6-0.6-1.2-1.3-1.6c-0.5-0.4-1.3-0.6-2.1-0.6
		c-0.6,0-1.3,0.2-1.8,0.5c-0.5,0.3-1,0.7-1.3,1.4c-0.3,0.6-0.4,1.3-0.4,2.1c0,0.7,0.1,1.5,0.4,2c0.3,0.5,0.7,1.1,1.3,1.4
		c0.5,0.3,1.1,0.5,1.8,0.5c0.9,0,1.6-0.2,2.1-0.6s1-1,1.3-1.6h1c-0.3,1-0.9,1.7-1.6,2.2C44,286.7,43,287,42,287
		c-0.9,0-1.6-0.2-2.4-0.6c-0.6-0.4-1.2-1-1.6-1.7c-0.4-0.7-0.5-1.6-0.5-2.5c0-1,0.2-1.8,0.5-2.5c0.4-0.7,0.9-1.3,1.6-1.7
		c0.6-0.4,1.5-0.6,2.4-0.6C43,277.2,44,277.6,44.7,278.1z"/>
	<path class="st4" d="M50,279.8c0.4-0.3,1.1-0.4,1.7-0.4v1.1h-0.2c-0.7,0-1.3,0.2-1.7,0.5c-0.4,0.4-0.7,1-0.7,1.8v4h-1v-7.3h1v1.5
		C49.2,280.4,49.5,280.1,50,279.8z"/>
	<path class="st4" d="M59.3,279.5v7.3h-1v-1.7c-0.2,0.6-0.5,1.1-1.1,1.5s-1.1,0.5-1.7,0.5c-0.9,0-1.5-0.3-2-0.9
		c-0.5-0.5-0.7-1.3-0.7-2.4v-4.3h1v4.2c0,0.9,0.2,1.4,0.6,1.8c0.4,0.4,1,0.6,1.6,0.6c0.7,0,1.3-0.2,1.7-0.7c0.4-0.4,0.6-1.2,0.6-2
		v-3.9L59.3,279.5L59.3,279.5z"/>
	<path class="st4" d="M67.1,280.1c0.5,0.5,0.7,1.3,0.7,2.4v4.3h-1v-4.2c0-0.7-0.2-1.4-0.6-1.8c-0.4-0.4-1-0.6-1.6-0.6
		c-0.7,0-1.3,0.2-1.7,0.7c-0.4,0.4-0.6,1.2-0.6,2v3.9h-1v-7.3h1v1.8c0.2-0.6,0.5-1.1,1.1-1.4c0.5-0.3,1.1-0.5,1.7-0.5
		C65.8,279.4,66.6,279.6,67.1,280.1z"/>
	<path class="st4" d="M75.4,280.1c0.6,0.5,1,1.2,1.1,1.9h-1c-0.1-0.5-0.3-1.1-0.9-1.4c-0.4-0.3-1-0.5-1.6-0.5
		c-0.4,0-0.9,0.1-1.3,0.3c-0.4,0.2-0.7,0.5-1,1c-0.2,0.4-0.3,1-0.3,1.6c0,0.6,0.1,1.2,0.3,1.6c0.2,0.4,0.5,0.7,1,1
		c0.4,0.2,0.9,0.3,1.3,0.3c0.6,0,1.2-0.2,1.6-0.5c0.4-0.3,0.7-0.7,0.9-1.4h1c-0.1,0.9-0.5,1.5-1.1,1.9c-0.6,0.5-1.4,0.7-2.4,0.7
		c-0.7,0-1.3-0.1-1.8-0.4c-0.5-0.3-1-0.7-1.3-1.3c-0.3-0.5-0.4-1.3-0.4-2s0.1-1.4,0.4-2c0.3-0.5,0.7-1,1.3-1.3
		c0.5-0.3,1.2-0.4,1.8-0.4C74.1,279.4,74.8,279.7,75.4,280.1z"/>
	<path class="st4" d="M83.9,280.1c0.5,0.5,0.7,1.3,0.7,2.4v4.3h-1v-4.2c0-0.7-0.2-1.4-0.6-1.8c-0.4-0.4-1-0.6-1.6-0.6
		c-0.7,0-1.3,0.2-1.7,0.7c-0.4,0.4-0.6,1.2-0.6,2v3.9h-0.9v-10h1v4.4c0.2-0.6,0.5-1.1,1.1-1.4c0.5-0.3,1.1-0.5,1.7-0.5
		C82.7,279.4,83.4,279.6,83.9,280.1z"/>
	<path class="st4" d="M86.9,279.5l2.6,6.1l2.4-6.1h1.1l-4.3,10.8h-1.1l1.5-3.5l-3.1-7.3H86.9z"/>
	<path class="st4" d="M104.4,278.1c0.7,0.5,1.3,1.3,1.6,2.2h-1c-0.2-0.6-0.6-1.2-1.3-1.6c-0.5-0.4-1.3-0.6-2.1-0.6
		c-0.6,0-1.3,0.2-1.8,0.5c-0.5,0.3-1,0.7-1.3,1.4c-0.3,0.6-0.4,1.3-0.4,2.1c0,0.7,0.1,1.5,0.4,2c0.3,0.6,0.7,1.1,1.3,1.4
		c0.5,0.3,1.1,0.5,1.8,0.5c0.9,0,1.6-0.2,2.1-0.6c0.5-0.4,1-1,1.3-1.6h1c-0.3,1-0.9,1.7-1.6,2.2c-0.7,0.5-1.7,0.9-2.8,0.9
		c-0.9,0-1.6-0.2-2.4-0.6c-0.6-0.4-1.2-1-1.6-1.7c-0.4-0.7-0.5-1.6-0.5-2.5c0-1,0.2-1.8,0.5-2.5c0.4-0.7,0.9-1.3,1.6-1.7
		c0.6-0.4,1.5-0.6,2.4-0.6C102.8,277.2,103.7,277.6,104.4,278.1z"/>
	<path class="st4" d="M112.6,285.6c0.4-0.3,0.7-0.7,0.9-1.4h1c-0.1,0.7-0.5,1.4-1.1,1.9c-0.6,0.5-1.4,0.7-2.4,0.7
		c-0.7,0-1.3-0.1-1.8-0.4c-0.5-0.3-1-0.7-1.3-1.3c-0.3-0.5-0.4-1.3-0.4-2s0.1-1.4,0.4-2c0.3-0.5,0.7-1,1.3-1.3
		c0.5-0.3,1.2-0.4,1.8-0.4c0.7,0,1.3,0.1,1.8,0.4c0.5,0.3,1,0.7,1.2,1.2c0.3,0.5,0.4,1.1,0.4,1.6c0,0.2,0,0.4,0,0.6h-6.1
		c0,0.6,0.1,1.2,0.4,1.5c0.2,0.4,0.5,0.7,1,1c0.4,0.2,0.9,0.3,1.3,0.3C111.6,286.1,112.2,286,112.6,285.6z M109.7,280.4
		c-0.4,0.2-0.7,0.5-1,0.9c-0.2,0.4-0.4,1-0.4,1.5h5.1c0-0.6-0.1-1.1-0.3-1.5c-0.2-0.4-0.5-0.7-1-1s-0.9-0.3-1.3-0.3
		C110.5,280.1,110.1,280.2,109.7,280.4z"/>
	<path class="st4" d="M117.1,276.9v10h-1v-10H117.1z"/>
	<path class="st4" d="M123.9,285.6c0.4-0.3,0.7-0.7,0.9-1.4h1c-0.1,0.7-0.5,1.4-1.1,1.9c-0.6,0.5-1.4,0.7-2.4,0.7
		c-0.7,0-1.3-0.1-1.8-0.4c-0.5-0.3-1-0.7-1.3-1.3c-0.3-0.5-0.4-1.3-0.4-2s0.1-1.4,0.4-2c0.3-0.5,0.7-1,1.3-1.3
		c0.5-0.3,1.2-0.4,1.8-0.4c0.7,0,1.3,0.1,1.8,0.4s1,0.7,1.2,1.2c0.3,0.5,0.4,1.1,0.4,1.6c0,0.2,0,0.4,0,0.6h-6.1
		c0,0.6,0.1,1.2,0.4,1.5c0.2,0.4,0.5,0.7,1,1c0.4,0.2,0.9,0.3,1.3,0.3C123,286.1,123.5,286,123.9,285.6z M121,280.4
		c-0.4,0.2-0.7,0.5-1,0.9c-0.2,0.4-0.4,1-0.4,1.5h5.1c0-0.6-0.1-1.1-0.3-1.5c-0.2-0.4-0.5-0.7-1-1s-0.9-0.3-1.3-0.3
		C121.9,280.1,121.5,280.2,121,280.4z"/>
	<path class="st4" d="M129.5,279.8c0.4-0.3,1.1-0.4,1.7-0.4v1.1h-0.3c-0.7,0-1.3,0.2-1.7,0.5c-0.4,0.4-0.7,1-0.7,1.8v4h-1v-7.3h1
		v1.5C128.6,280.4,129.1,280.1,129.5,279.8z"/>
	<path class="st4" d="M132.7,279.5l2.6,6.1l2.4-6.1h1.1l-4.3,10.8h-1.1l1.5-3.5l-3.1-7.3H132.7z"/>
	<path class="st4" d="M44.7,310.2c0.7,0.5,1.3,1.3,1.6,2.2h-1c-0.2-0.6-0.6-1.2-1.3-1.6c-0.5-0.4-1.3-0.6-2.1-0.6
		c-0.6,0-1.3,0.2-1.8,0.5c-0.5,0.3-1,0.7-1.3,1.4c-0.3,0.6-0.4,1.3-0.4,2.1c0,0.9,0.1,1.5,0.4,2c0.3,0.5,0.7,1.1,1.3,1.4
		c0.5,0.3,1.1,0.5,1.8,0.5c0.9,0,1.6-0.2,2.1-0.6c0.5-0.4,1-1,1.3-1.6h1c-0.3,1-0.9,1.7-1.6,2.2c-0.7,0.5-1.7,0.9-2.8,0.9
		c-0.9,0-1.6-0.2-2.4-0.6c-0.6-0.4-1.2-1-1.6-1.7c-0.4-0.7-0.5-1.6-0.5-2.5c0-1,0.2-1.8,0.5-2.5c0.4-0.7,0.9-1.3,1.6-1.7
		c0.6-0.4,1.5-0.6,2.4-0.6C43,309.5,44,309.7,44.7,310.2z"/>
	<path class="st4" d="M57.1,309.8v9.2h-1v-7.7L53,319h-0.9l-3.2-7.7v7.7h-1v-9.2H49l3.5,8l3.4-8H57.1z"/>
	<path class="st4" d="M65.6,309.6l-3,5.8v3.6h-1v-3.6l-3.1-5.8h1.1l2.5,4.7l2.5-4.7H65.6z"/>
	<path class="st4" d="M68.7,314.3l4.5,4.7H72l-4.2-4.4v4.4h-1v-9.4h1v4.4l4.2-4.4h1.2L68.7,314.3z"/>
	<path class="st4" d="M83.2,310.2l-3.6,8.8h-1l3.6-8.7h-5.2v-0.9H83L83.2,310.2L83.2,310.2z"/>
	<path class="st4" d="M89.1,309.7c0.4,0.2,0.7,0.5,1,0.9c0.2,0.3,0.3,0.7,0.3,1.3c0,0.6-0.2,1.1-0.5,1.5c-0.3,0.4-0.9,0.6-1.6,0.7
		v0.1c0.7,0.2,1.3,0.4,1.7,0.9c0.4,0.4,0.6,0.9,0.6,1.6c0,0.7-0.2,1.4-0.7,1.9c-0.5,0.5-1.3,0.7-2.2,0.7s-1.7-0.2-2.4-0.7
		s-1-1.2-1.1-2.1h1c0.1,0.6,0.3,1.2,0.7,1.5c0.4,0.4,1,0.5,1.6,0.5s1.2-0.2,1.5-0.5c0.3-0.3,0.5-0.7,0.5-1.3c0-0.6-0.2-1.2-0.7-1.5
		c-0.5-0.3-1.2-0.5-2.1-0.5h-0.3v-0.7h0.3c1.8,0,2.7-0.6,2.7-1.8c0-0.5-0.2-1-0.5-1.3c-0.3-0.3-0.9-0.4-1.4-0.4
		c-0.6,0-1.1,0.2-1.5,0.5c-0.4,0.3-0.6,0.9-0.7,1.5h-1c0.1-0.9,0.4-1.6,1-2c0.5-0.5,1.3-0.7,2.2-0.7
		C88.2,309.3,88.7,309.5,89.1,309.7z"/>
	<path class="st4" d="M99.3,315.1c1-1.1,1.4-2,1.4-3c0-0.5-0.1-1.1-0.4-1.4c-0.3-0.3-0.7-0.5-1.5-0.5s-1.2,0.2-1.6,0.6
		c-0.3,0.4-0.5,1.1-0.6,1.7h-1c0.1-1.1,0.4-1.8,1-2.4c0.5-0.5,1.3-0.9,2.2-0.9c0.9,0,1.5,0.2,2,0.6c0.5,0.4,0.7,1.1,0.7,2
		c0,0.7-0.2,1.5-0.7,2.2c-0.5,0.7-1.1,1.5-1.8,2.1c-0.7,0.6-1.5,1.2-2.2,1.7h5v0.7h-6.4v-0.6C97.1,317.3,98.3,316.2,99.3,315.1z"/>
	<path class="st4" d="M112.4,310.2l-3.6,8.8h-1l3.6-8.7h-5.2v-0.9h6.1v0.7L112.4,310.2L112.4,310.2z"/>
	<path class="st4" d="M118.3,309.7c0.4,0.2,0.7,0.5,1,0.9c0.2,0.3,0.3,0.7,0.3,1.3c0,0.6-0.2,1.1-0.5,1.5s-0.9,0.6-1.6,0.7v0.1
		c0.7,0.2,1.3,0.4,1.7,0.9c0.4,0.4,0.6,0.9,0.6,1.6c0,0.7-0.2,1.4-0.7,1.9c-0.5,0.5-1.3,0.7-2.2,0.7c-1,0-1.7-0.2-2.4-0.7
		c-0.6-0.5-1-1.2-1.1-2.1h1c0.1,0.6,0.3,1.2,0.7,1.5c0.4,0.4,1,0.5,1.6,0.5c0.6,0,1.2-0.2,1.5-0.5c0.3-0.3,0.5-0.7,0.5-1.3
		c0-0.6-0.2-1.2-0.7-1.5c-0.5-0.3-1.2-0.5-2.1-0.5h-0.1v-0.7h0.3c1.8,0,2.7-0.6,2.7-1.8c0-0.5-0.2-1-0.5-1.3
		c-0.3-0.3-0.9-0.4-1.4-0.4c-0.6,0-1.1,0.2-1.5,0.5c-0.4,0.3-0.6,0.9-0.7,1.5h-1c0.1-0.9,0.4-1.6,1-2c0.5-0.5,1.3-0.7,2.2-0.7
		C117.4,309.3,117.8,309.5,118.3,309.7z"/>
	<path class="st4" d="M124.9,314.2c0-1.5,0.2-2.7,0.7-3.5c0.4-0.9,1.3-1.3,2.6-1.3c1.2,0,2,0.4,2.6,1.3c0.5,0.9,0.7,2,0.7,3.5
		c0,1.5-0.2,2.7-0.7,3.5c-0.5,0.9-1.3,1.3-2.6,1.3c-1.2,0-2-0.4-2.6-1.3C125.1,316.9,124.9,315.8,124.9,314.2z M130.5,314.2
		c0-0.9-0.1-1.5-0.2-2c-0.1-0.5-0.3-1-0.6-1.4c-0.3-0.3-0.9-0.5-1.5-0.5c-0.6,0-1.1,0.2-1.5,0.5c-0.3,0.3-0.5,0.7-0.6,1.4
		c-0.1,0.5-0.2,1.3-0.2,2c0,0.9,0.1,1.5,0.2,2.1c0.1,0.5,0.3,1,0.6,1.4c0.3,0.3,0.9,0.5,1.5,0.5c0.6,0,1.1-0.2,1.5-0.5
		c0.3-0.3,0.5-0.7,0.6-1.4C130.5,315.8,130.5,315,130.5,314.2z"/>
	<path class="st4" d="M42.8,335l-2.6-4h-1.5v4h-1v-9.4h2.9c1.1,0,1.8,0.2,2.4,0.7c0.5,0.5,0.7,1.2,0.7,2c0,0.7-0.2,1.4-0.6,1.9
		c-0.4,0.4-1.1,0.7-1.9,0.9l2.7,4h-1.1L42.8,335L42.8,335z M38.7,330.4h1.9c1.5,0,2.2-0.6,2.2-1.9c0-1.4-0.7-2-2.2-2h-1.9V330.4z"/>
	<path class="st4" d="M52.4,326.4c0.7,0.5,1.3,1.3,1.5,2.1h-1c-0.2-0.6-0.6-1.2-1.2-1.5c-0.5-0.4-1.3-0.6-2-0.6
		c-0.6,0-1.3,0.2-1.8,0.5c-0.5,0.3-1,0.7-1.3,1.4c-0.3,0.6-0.4,1.3-0.4,2.1c0,0.9,0.1,1.5,0.4,2.1c0.3,0.6,0.7,1.1,1.3,1.4
		c0.5,0.3,1.2,0.5,1.9,0.5c0.6,0,1.2-0.1,1.7-0.4c0.5-0.3,1-0.6,1.3-1.2c0.3-0.5,0.5-1.2,0.5-1.9h-4v-0.7h4.7v0.9
		c-0.1,0.9-0.3,1.5-0.6,2.1c-0.3,0.6-1,1.2-1.6,1.5s-1.4,0.5-2.2,0.5c-0.9,0-1.7-0.2-2.4-0.6c-0.7-0.4-1.3-1-1.6-1.7
		c-0.4-0.7-0.5-1.6-0.5-2.5c0-0.9,0.2-1.7,0.5-2.5c0.4-0.7,1-1.3,1.6-1.7c0.6-0.4,1.5-0.6,2.4-0.6C50.7,325.5,51.7,325.8,52.4,326.4
		z"/>
	<path class="st4" d="M61.6,331c0.3,0.4,0.5,1,0.5,1.5c0,0.7-0.2,1.4-0.7,1.8c-0.5,0.4-1.3,0.7-2.2,0.7h-3.3v-9.4h3.2
		c1,0,1.7,0.2,2.1,0.6s0.7,1,0.7,1.7c0,0.6-0.2,1.1-0.5,1.5c-0.3,0.3-0.7,0.6-1.3,0.7C60.8,330.3,61.3,330.5,61.6,331z M56.8,329.8
		H59c0.6,0,1.2-0.1,1.5-0.4c0.3-0.3,0.5-0.7,0.5-1.3c0-0.5-0.2-1-0.5-1.3c-0.3-0.3-0.9-0.4-1.6-0.4h-2.1v3.4H56.8z M60.7,333.7
		c0.4-0.3,0.6-0.7,0.6-1.4c0-0.5-0.2-1.1-0.6-1.4c-0.4-0.3-1-0.5-1.7-0.5h-2.1v3.7H59C59.7,334.3,60.3,334.1,60.7,333.7z"/>
	<path class="st4" d="M71.9,326.7c-0.3-0.3-0.9-0.5-1.4-0.5c-0.9,0-1.5,0.3-1.9,1c-0.4,0.6-0.6,1.6-0.6,3c0,0.2,0,0.4,0,0.6
		c0.1-0.6,0.4-1.1,1-1.4c0.5-0.3,1.1-0.5,1.8-0.5c1,0,1.7,0.3,2.2,0.9c0.5,0.5,0.9,1.4,0.9,2.4c0,0.5-0.1,1.1-0.3,1.6
		c-0.2,0.4-0.5,0.9-1.1,1.2c-0.4,0.3-1.1,0.4-1.8,0.4c-1.4,0-2.2-0.4-2.8-1.3c-0.5-0.9-0.7-2-0.7-3.4c0-1.6,0.3-2.9,0.9-3.7
		c0.5-0.9,1.4-1.3,2.7-1.3c0.9,0,1.5,0.2,2,0.7c0.5,0.5,0.7,1.2,0.9,1.9h-0.9C72.5,327.4,72.2,327,71.9,326.7z M68.4,333
		c0.2,0.4,0.4,0.7,0.9,1c0.4,0.2,0.9,0.3,1.4,0.3c0.6,0,1.3-0.2,1.6-0.6c0.4-0.4,0.6-1,0.6-1.7c0-0.7-0.2-1.4-0.6-1.8
		c-0.4-0.4-1-0.6-1.7-0.6c-0.4,0-0.9,0.1-1.2,0.2c-0.4,0.2-0.6,0.4-1,0.7c-0.2,0.3-0.3,0.7-0.3,1.3C68.1,332.2,68.2,332.7,68.4,333z
		"/>
	<path class="st4" d="M81.5,326.4h-5v3.5c0.2-0.3,0.5-0.5,1.1-0.7c0.4-0.2,1-0.3,1.5-0.3c1,0,1.7,0.3,2.2,0.9
		c0.5,0.5,0.7,1.3,0.7,2.1c0,1-0.3,1.7-0.9,2.4c-0.5,0.6-1.3,1-2.4,1c-1,0-1.7-0.2-2.2-0.7c-0.5-0.5-1-1.2-1-2h1
		c0.1,0.6,0.4,1.1,0.7,1.5c0.4,0.3,0.9,0.5,1.5,0.5c0.7,0,1.4-0.2,1.7-0.6c0.4-0.4,0.5-1.1,0.5-1.8c0-0.7-0.2-1.3-0.6-1.7
		c-0.4-0.4-1-0.6-1.7-0.6c-0.5,0-1,0.1-1.4,0.3c-0.4,0.2-0.6,0.5-0.9,0.9h-1v-5.2h5.9L81.5,326.4L81.5,326.4z"/>
	<path class="st4" d="M86.4,326.5v-0.9h2.4v9.4h-1v-8.6H86.4z"/>
	<path class="st4" d="M96.1,326.3l-3.6,8.8h-1l3.6-8.7H90v-0.9h6.1V326.3z"/>
	<path class="st4" d="M100.9,331.2c1-1.1,1.4-2,1.4-3c0-0.5-0.1-1.1-0.4-1.4c-0.3-0.3-0.7-0.5-1.5-0.5s-1.2,0.2-1.6,0.6
		c-0.3,0.4-0.5,1.1-0.6,1.7h-1c0.1-1.1,0.4-1.8,1-2.4c0.5-0.5,1.3-0.9,2.2-0.9c0.9,0,1.5,0.2,2,0.6c0.5,0.4,0.7,1.1,0.7,2
		c0,0.7-0.2,1.5-0.7,2.2c-0.5,0.7-1.1,1.5-1.8,2.1c-0.7,0.6-1.5,1.2-2.2,1.7h5v0.7H97v-0.6C98.8,333.3,100.1,332.2,100.9,331.2z"/>
	<path class="st4" d="M107.9,326.5v-0.9h2.4v9.4h-1v-8.6H107.9z"/>
	<path class="st4" d="M112,330.3c0-1.5,0.2-2.7,0.7-3.5c0.4-0.9,1.3-1.3,2.6-1.3c1.2,0,2,0.4,2.6,1.3c0.5,0.9,0.7,2,0.7,3.5
		c0,1.5-0.2,2.7-0.7,3.5c-0.5,0.9-1.3,1.3-2.6,1.3c-1.2,0-2-0.4-2.6-1.3C112.3,333,112,331.8,112,330.3z M117.6,330.3
		c0-0.9-0.1-1.5-0.2-2c-0.1-0.5-0.3-1-0.6-1.4c-0.3-0.3-0.9-0.5-1.5-0.5c-0.6,0-1.1,0.2-1.5,0.5c-0.3,0.3-0.5,0.7-0.6,1.4
		c-0.1,0.5-0.2,1.3-0.2,2c0,0.9,0.1,1.5,0.2,2.1c0.1,0.5,0.3,1,0.6,1.4c0.3,0.3,0.9,0.5,1.5,0.5c0.6,0,1.1-0.2,1.5-0.5
		c0.3-0.3,0.5-0.7,0.6-1.4C117.6,331.8,117.6,331.1,117.6,330.3z"/>
	<path class="st4" d="M126.4,326.4h-5v3.5c0.2-0.3,0.5-0.5,1.1-0.7c0.4-0.2,1-0.3,1.5-0.3c1,0,1.7,0.3,2.2,0.9
		c0.5,0.5,0.7,1.3,0.7,2.1c0,1-0.3,1.7-0.9,2.4c-0.5,0.6-1.3,1-2.4,1c-1,0-1.7-0.2-2.2-0.7c-0.5-0.5-1-1.2-1-2h1
		c0.1,0.6,0.4,1.1,0.7,1.5c0.4,0.3,0.9,0.5,1.5,0.5c0.7,0,1.4-0.2,1.7-0.6c0.4-0.4,0.5-1.1,0.5-1.8c0-0.7-0.2-1.3-0.6-1.7
		c-0.4-0.4-1-0.6-1.7-0.6c-0.5,0-1,0.1-1.4,0.3c-0.4,0.2-0.6,0.5-0.9,0.9h-1v-5.2h5.9L126.4,326.4L126.4,326.4z"/>
	<path class="st4" d="M44.8,341.7v9.4h-1v-4.5h-5.1v4.5h-1v-9.4h1v4.2h5.1v-4.2H44.8z"/>
	<path class="st4" d="M47.8,342.4v3.5h3.6v0.7h-3.6v3.6h4.1v0.7h-5v-9.4h5v0.7L47.8,342.4L47.8,342.4z"/>
	<path class="st4" d="M58.6,351.1l-2.5-4l-2.2,4h-1.1l2.9-4.8l-2.9-4.6h1.1l2.5,3.9l2.2-3.9h1.1l-2.9,4.7l2.9,4.7H58.6z"/>
	<path class="st4" d="M71.6,345.1l-0.5,2.4H73v0.9h-2.1l-0.6,2.9h-0.9l0.6-2.9h-3l-0.6,2.9h-0.9l0.6-2.9H64v-0.9h2.2l0.5-2.4h-2
		v-0.9H67l0.6-3h0.9l-0.6,3h3l0.6-3h0.9l-0.6,3h1.9v0.9H71.6z M70.6,345.1h-3l-0.5,2.4h3L70.6,345.1z"/>
	<path class="st4" d="M74.5,348.8v-0.7l5-6.4h1v6.4H82v0.9h-1.5v2.2h-1v-2.2L74.5,348.8L74.5,348.8z M79.6,342.8l-4.1,5.2h4.1V342.8
		z"/>
	<path class="st4" d="M82.5,342.5v-0.9h2.4v9.4h-1v-8.6H82.5z"/>
	<path class="st4" d="M92.4,348.8h-4.3l-0.9,2.4h-1l3.5-9.2h1.1l3.5,9.2h-1.1L92.4,348.8z M92,348.1l-1.8-5.1l-1.9,5.1H92z"/>
	<path class="st4" d="M102.5,342.4c0.7,0.5,1.3,1.3,1.6,2.2h-1c-0.2-0.6-0.6-1.2-1.3-1.6c-0.5-0.4-1.3-0.6-2.1-0.6
		c-0.6,0-1.3,0.2-1.8,0.5s-1,0.7-1.3,1.4s-0.4,1.3-0.4,2.1s0.1,1.5,0.4,2c0.3,0.6,0.7,1.1,1.3,1.4c0.5,0.3,1.1,0.5,1.8,0.5
		c0.9,0,1.6-0.2,2.1-0.6c0.5-0.4,1-1,1.3-1.6h1c-0.3,1-0.9,1.7-1.6,2.2c-0.7,0.5-1.7,0.9-2.8,0.9c-0.9,0-1.6-0.2-2.4-0.6
		c-0.6-0.4-1.2-1-1.6-1.7c-0.4-0.7-0.5-1.6-0.5-2.5c0-1,0.2-1.8,0.5-2.5c0.4-0.7,0.9-1.3,1.6-1.7c0.6-0.4,1.5-0.6,2.4-0.6
		C100.8,341.6,101.8,341.9,102.5,342.4z"/>
	<path class="st4" d="M110.4,342.7c-0.3-0.3-0.9-0.5-1.4-0.5c-0.9,0-1.5,0.3-1.9,1c-0.4,0.6-0.6,1.6-0.6,3c0,0.2,0,0.4,0,0.6
		c0.1-0.6,0.4-1.1,1-1.4c0.5-0.3,1.1-0.5,1.8-0.5c1,0,1.7,0.3,2.2,0.9c0.5,0.5,0.9,1.4,0.9,2.4c0,0.5-0.1,1.1-0.3,1.6
		c-0.2,0.4-0.5,0.9-1.1,1.2c-0.4,0.3-1.1,0.4-1.8,0.4c-1.4,0-2.2-0.4-2.8-1.3c-0.5-0.9-0.7-2-0.7-3.4c0-1.6,0.3-2.9,0.9-3.7
		c0.5-0.9,1.4-1.3,2.7-1.3c0.9,0,1.5,0.2,2,0.7c0.5,0.5,0.7,1.2,0.9,1.9h-0.9C111,343.6,110.8,343.1,110.4,342.7z M106.9,349.2
		c0.2,0.4,0.4,0.7,0.9,1c0.4,0.2,0.9,0.3,1.4,0.3c0.6,0,1.3-0.2,1.6-0.6c0.4-0.4,0.6-1,0.6-1.7c0-0.7-0.2-1.4-0.6-1.8
		c-0.4-0.4-1-0.6-1.7-0.6c-0.4,0-0.9,0.1-1.2,0.2c-0.4,0.2-0.6,0.4-1,0.7c-0.2,0.3-0.3,0.7-0.3,1.3
		C106.6,348.3,106.7,348.7,106.9,349.2z"/>
	<path class="st4" d="M115.7,349.9c0.3,0.3,0.9,0.5,1.4,0.5c0.9,0,1.5-0.3,1.9-1c0.4-0.6,0.6-1.6,0.6-3c0-0.2,0-0.4,0-0.5
		c-0.1,0.5-0.4,1.1-1,1.4c-0.5,0.3-1.1,0.5-1.8,0.5c-1,0-1.7-0.3-2.2-0.9c-0.5-0.5-0.9-1.4-0.9-2.4c0-0.5,0.1-1.1,0.3-1.6
		c0.2-0.4,0.5-0.9,1.1-1.2c0.4-0.3,1.1-0.4,1.7-0.4c1.4,0,2.2,0.4,2.8,1.3c0.5,0.9,0.7,1.9,0.7,3.4c0,1.6-0.2,2.9-0.7,3.7
		c-0.5,0.9-1.4,1.3-2.6,1.3c-0.9,0-1.6-0.2-2-0.7c-0.5-0.5-0.7-1.2-0.9-1.9h0.9C115,349.2,115.3,349.6,115.7,349.9z M118.8,343.1
		c-0.4-0.5-1.1-0.7-1.9-0.7c-0.6,0-1.3,0.2-1.6,0.6c-0.4,0.4-0.6,1-0.6,1.7c0,0.7,0.2,1.4,0.6,1.8c0.4,0.4,1,0.6,1.7,0.6
		c0.4,0,0.9-0.1,1.2-0.2c0.4-0.2,0.6-0.4,1-0.7c0.2-0.3,0.3-0.7,0.3-1.3C119.4,344.1,119.2,343.6,118.8,343.1z"/>
</g>
</svg>
