<?xml version="1.0" encoding="utf-8"?>
<!-- Generator: Adobe Illustrator 24.0.1, SVG Export Plug-In . SVG Version: 6.00 Build 0)  -->
<svg version="1.1" id="Livello_1" xmlns="http://www.w3.org/2000/svg" xmlns:xlink="http://www.w3.org/1999/xlink" x="0px" y="0px"
	 viewBox="0 0 500.9 500.9" style="enable-background:new 0 0 500.9 500.9;" xml:space="preserve">
<style type="text/css">
	.st0{fill:#FFE400;}
	.st1{fill:#41AE69;}
</style>
<rect x="-0.9" y="-0.4" class="st0" width="501.8" height="501.8"/>
<g>
	<path class="st1" d="M203.3,286.3c24.8,43,79.7,57.7,122.7,32.9l12.1,21c1.6,2.7,0.6,6.3-2.2,7.7c-56.5,29.1-126.4,8.9-158.5-46.7
		S162.8,175,216.2,140.7c2.7-1.7,6.2-0.8,7.8,1.9l12.1,21C193.2,188.4,178.5,243.3,203.3,286.3z"/>
	<path class="st1" d="M242.3,174.3l77.4,134.3c-37,21.4-84.4,8.7-105.8-28.4C192.6,243.1,205.3,195.6,242.3,174.3z"/>
</g>
</svg>
