<?xml version="1.0" encoding="utf-8"?>
<!-- Generator: Adobe Illustrator 24.0.1, SVG Export Plug-In . SVG Version: 6.00 Build 0)  -->
<svg version="1.1" id="Livello_1" xmlns="http://www.w3.org/2000/svg" xmlns:xlink="http://www.w3.org/1999/xlink" x="0px" y="0px"
	 viewBox="0 0 890.75 201.56" style="enable-background:new 0 0 890.75 201.56;" xml:space="preserve">
<style type="text/css">
	.st0{fill:#FF0000;}
	.st1{fill:#FF4040;}
	.st2{fill:#FF5959;}
	.st3{fill:#FF8080;}
	.st4{enable-background:new    ;}
	.st5{fill:#FFFFFF;}
</style>
<rect class="st0" width="491.63" height="201.56"/>
<rect x="491.63" class="st1" width="133.04" height="201.56"/>
<rect x="624.67" class="st2" width="133.04" height="201.56"/>
<rect x="757.71" class="st3" width="133.04" height="201.56"/>
<g>
	<g class="st4">
		<path class="st5" d="M61.73,49.78l-4.82-7.35h-2.85v7.35h-1.77V32.17h5.4c1.98,0,3.46,0.47,4.44,1.4
			c0.97,0.93,1.46,2.19,1.46,3.77c0,1.47-0.41,2.63-1.24,3.5s-2.02,1.38-3.59,1.55l4.97,7.4H61.73z M54.06,41.11h3.5
			c2.83,0,4.25-1.22,4.25-3.67c0-2.5-1.42-3.75-4.25-3.75h-3.5V41.11z"/>
		<path class="st5" d="M75.55,47.58c0.83-0.62,1.33-1.45,1.5-2.5h1.85c-0.25,1.45-0.94,2.62-2.07,3.52c-1.13,0.9-2.57,1.35-4.3,1.35
			c-1.3,0-2.45-0.28-3.46-0.84c-1.01-0.56-1.8-1.37-2.36-2.42c-0.57-1.06-0.85-2.3-0.85-3.74s0.28-2.68,0.85-3.74
			c0.57-1.06,1.35-1.87,2.36-2.42c1.01-0.56,2.16-0.84,3.46-0.84c1.33,0,2.49,0.28,3.46,0.84c0.97,0.56,1.72,1.3,2.22,2.24
			c0.51,0.93,0.76,1.95,0.76,3.05c0,0.47-0.03,0.89-0.1,1.27H67.58c0.02,1.15,0.25,2.11,0.71,2.89c0.46,0.78,1.05,1.35,1.79,1.71
			c0.73,0.37,1.52,0.55,2.37,0.55C73.69,48.51,74.72,48.2,75.55,47.58z M70.1,37.94c-0.73,0.37-1.33,0.93-1.79,1.69
			s-0.7,1.7-0.74,2.84h9.65c0.07-1.12-0.12-2.06-0.55-2.82c-0.43-0.77-1.02-1.33-1.75-1.7s-1.53-0.55-2.4-0.55
			C71.64,37.39,70.84,37.57,70.1,37.94z"/>
		<path class="st5" d="M91.41,37.04c0.97,0.72,1.64,1.67,1.99,2.85v-8.6h1.75v18.49h-1.75v-3.75c-0.35,1.18-1.01,2.13-1.99,2.85
			s-2.15,1.07-3.54,1.07c-1.23,0-2.34-0.28-3.31-0.85s-1.73-1.38-2.27-2.44c-0.54-1.06-0.81-2.29-0.81-3.71
			c0-1.43,0.27-2.68,0.81-3.74c0.54-1.06,1.29-1.87,2.26-2.42c0.97-0.56,2.07-0.84,3.32-0.84C89.25,35.96,90.43,36.32,91.41,37.04z
			 M84.63,38.97c-0.92,0.97-1.39,2.3-1.39,3.99s0.46,3.01,1.39,3.99c0.92,0.97,2.15,1.46,3.69,1.46c0.97,0,1.84-0.23,2.61-0.67
			c0.77-0.45,1.38-1.09,1.82-1.91c0.44-0.82,0.66-1.78,0.66-2.86s-0.22-2.04-0.66-2.86c-0.44-0.83-1.05-1.46-1.82-1.91
			c-0.77-0.45-1.65-0.67-2.61-0.67C86.79,37.51,85.56,38,84.63,38.97z"/>
		<path class="st5" d="M106.04,32.17l5.67,15.57l5.72-15.57h1.92l-6.55,17.62h-2.17l-6.52-17.62H106.04z"/>
		<path class="st5" d="M131.25,49.78l-4.82-7.35h-2.85v7.35h-1.77V32.17h5.4c1.98,0,3.46,0.47,4.44,1.4
			c0.97,0.93,1.46,2.19,1.46,3.77c0,1.47-0.41,2.63-1.24,3.5s-2.02,1.38-3.59,1.55l4.97,7.4H131.25z M123.58,41.11h3.5
			c2.83,0,4.25-1.22,4.25-3.67c0-2.5-1.42-3.75-4.25-3.75h-3.5V41.11z"/>
		<path class="st5" d="M147.79,36.14v13.64h-1.75v-3.37c-0.35,1.18-0.98,2.08-1.9,2.7c-0.92,0.62-1.97,0.92-3.15,0.92
			c-1.6,0-2.89-0.5-3.89-1.51s-1.49-2.49-1.49-4.44v-7.95h1.75v7.8c0,1.5,0.37,2.64,1.12,3.44c0.75,0.79,1.77,1.19,3.07,1.19
			c1.37,0,2.45-0.44,3.26-1.31c0.81-0.88,1.21-2.16,1.21-3.86v-7.25H147.79z"/>
		<path class="st5" d="M171.99,37.4c0.97,1.01,1.46,2.49,1.46,4.44v7.95h-1.75v-7.82c0-1.47-0.35-2.59-1.06-3.37
			c-0.71-0.78-1.68-1.17-2.91-1.17c-1.32,0-2.37,0.43-3.15,1.3c-0.78,0.87-1.17,2.14-1.17,3.82v7.25h-1.72v-7.82
			c0-1.47-0.35-2.59-1.06-3.37c-0.71-0.78-1.68-1.17-2.91-1.17c-1.32,0-2.37,0.43-3.15,1.3c-0.78,0.87-1.17,2.14-1.17,3.82v7.25
			h-1.77V36.14h1.77v3.25c0.33-1.15,0.94-2.02,1.81-2.61c0.87-0.59,1.89-0.89,3.04-0.89c1.2,0,2.23,0.32,3.1,0.95s1.47,1.57,1.8,2.8
			c0.37-1.22,1.01-2.15,1.92-2.79c0.92-0.64,1.96-0.96,3.12-0.96C169.75,35.89,171.02,36.39,171.99,37.4z"/>
		<path class="st5" d="M187.73,36.8c0.96,0.56,1.71,1.37,2.25,2.42c0.54,1.06,0.81,2.3,0.81,3.74c0,1.42-0.27,2.65-0.81,3.71
			c-0.54,1.06-1.3,1.87-2.26,2.44s-2.07,0.85-3.3,0.85c-1.4,0-2.58-0.36-3.55-1.07c-0.97-0.72-1.63-1.67-2-2.85v3.75h-1.75V31.29
			h1.75v8.6c0.37-1.18,1.03-2.13,2-2.85c0.97-0.72,2.15-1.07,3.55-1.07C185.67,35.96,186.77,36.24,187.73,36.8z M181.33,38.19
			c-0.77,0.45-1.38,1.09-1.81,1.91c-0.43,0.82-0.65,1.78-0.65,2.86s0.22,2.04,0.65,2.86c0.43,0.83,1.04,1.46,1.81,1.91
			c0.77,0.45,1.65,0.67,2.61,0.67c1.55,0,2.78-0.49,3.7-1.46c0.92-0.97,1.37-2.3,1.37-3.99s-0.46-3.01-1.37-3.99
			c-0.92-0.97-2.15-1.46-3.7-1.46C182.98,37.51,182.11,37.74,181.33,38.19z"/>
		<path class="st5" d="M195.72,31.29v18.49h-1.77V31.29H195.72z"/>
		<path class="st5" d="M208.56,47.58c0.83-0.62,1.33-1.45,1.5-2.5h1.85c-0.25,1.45-0.94,2.62-2.07,3.52
			c-1.13,0.9-2.57,1.35-4.3,1.35c-1.3,0-2.45-0.28-3.46-0.84c-1.01-0.56-1.8-1.37-2.36-2.42c-0.57-1.06-0.85-2.3-0.85-3.74
			s0.28-2.68,0.85-3.74c0.57-1.06,1.35-1.87,2.36-2.42c1.01-0.56,2.16-0.84,3.46-0.84c1.33,0,2.49,0.28,3.46,0.84
			c0.97,0.56,1.72,1.3,2.22,2.24c0.51,0.93,0.76,1.95,0.76,3.05c0,0.47-0.03,0.89-0.1,1.27h-11.29c0.02,1.15,0.25,2.11,0.71,2.89
			c0.46,0.78,1.05,1.35,1.79,1.71c0.73,0.37,1.52,0.55,2.37,0.55C206.69,48.51,207.73,48.2,208.56,47.58z M203.11,37.94
			c-0.73,0.37-1.33,0.93-1.79,1.69s-0.7,1.7-0.74,2.84h9.65c0.07-1.12-0.12-2.06-0.55-2.82c-0.43-0.77-1.02-1.33-1.75-1.7
			s-1.53-0.55-2.4-0.55C204.65,37.39,203.84,37.57,203.11,37.94z"/>
	</g>
	<g class="st4">
		<path class="st5" d="M65.28,93.5c1.38,1.02,2.36,2.44,2.92,4.24h-1.85c-0.47-1.27-1.24-2.27-2.32-3.02
			c-1.08-0.75-2.42-1.12-4.02-1.12c-1.22,0-2.32,0.3-3.31,0.9c-0.99,0.6-1.77,1.46-2.34,2.57c-0.57,1.12-0.85,2.42-0.85,3.9
			c0,1.48,0.28,2.78,0.85,3.89c0.57,1.11,1.34,1.96,2.34,2.56c0.99,0.6,2.09,0.9,3.31,0.9c1.6,0,2.94-0.38,4.02-1.13
			c1.08-0.75,1.86-1.76,2.32-3.02h1.85c-0.57,1.8-1.54,3.21-2.92,4.24c-1.38,1.03-3.13,1.54-5.25,1.54c-1.62,0-3.06-0.38-4.32-1.15
			c-1.27-0.77-2.25-1.83-2.95-3.19s-1.05-2.9-1.05-4.64c0-1.75,0.35-3.31,1.05-4.67c0.7-1.37,1.68-2.43,2.95-3.19
			s2.71-1.14,4.32-1.14C62.15,91.96,63.9,92.47,65.28,93.5z"/>
		<path class="st5" d="M88.47,92.51v17.24h-1.75V95.31l-5.97,14.44h-1.57l-6-14.39v14.39H71.4V92.51h2.07l6.5,15.07l6.45-15.07
			H88.47z"/>
		<path class="st5" d="M104.11,92.13l-5.67,10.74v6.87h-1.77v-6.87l-5.7-10.74h2.02l4.55,8.87l4.55-8.87H104.11z"/>
		<path class="st5" d="M109.88,100.91l8.32,8.85h-2.17l-7.7-8.27v8.27h-1.77V92.13h1.77v8.27l7.7-8.27h2.17L109.88,100.91z"/>
		<path class="st5" d="M126.65,100.86c0-2.83,0.45-5.03,1.34-6.6c0.89-1.57,2.47-2.35,4.73-2.35c2.25,0,3.82,0.78,4.72,2.35
			s1.35,3.76,1.35,6.6c0,2.85-0.45,5.06-1.35,6.63s-2.47,2.36-4.72,2.36c-2.27,0-3.84-0.79-4.73-2.36
			C127.1,105.92,126.65,103.7,126.65,100.86z M137.05,100.86c0-1.53-0.11-2.82-0.34-3.87c-0.23-1.05-0.65-1.88-1.29-2.5
			c-0.63-0.62-1.53-0.92-2.7-0.92c-1.18,0-2.09,0.31-2.72,0.92c-0.63,0.62-1.06,1.45-1.29,2.5c-0.23,1.05-0.34,2.34-0.34,3.87
			c0,1.55,0.11,2.85,0.34,3.91c0.22,1.06,0.65,1.9,1.29,2.51c0.63,0.62,1.54,0.92,2.72,0.92c1.17,0,2.07-0.31,2.7-0.92
			c0.63-0.62,1.06-1.45,1.29-2.51C136.93,103.71,137.05,102.4,137.05,100.86z"/>
		<path class="st5" d="M151.61,107.56c0.63,0.63,1.51,0.94,2.62,0.94c1.57,0,2.74-0.59,3.54-1.76c0.79-1.17,1.19-3.05,1.19-5.63
			c0-0.45-0.01-0.79-0.02-1.02c-0.23,1.08-0.83,1.95-1.79,2.6c-0.96,0.65-2.09,0.97-3.39,0.97c-1.77,0-3.15-0.53-4.15-1.6
			c-1-1.07-1.5-2.54-1.5-4.42c0-1.08,0.21-2.07,0.63-2.95c0.42-0.88,1.06-1.59,1.94-2.11c0.87-0.53,1.97-0.79,3.29-0.79
			c2.52,0,4.24,0.77,5.17,2.32c0.93,1.55,1.4,3.67,1.4,6.37c0,3.07-0.49,5.41-1.46,7.03c-0.97,1.62-2.59,2.44-4.83,2.44
			c-1.63,0-2.92-0.46-3.85-1.39c-0.93-0.92-1.47-2.15-1.62-3.66h1.65C150.58,106.05,150.98,106.94,151.61,107.56z M157.54,94.7
			c-0.78-0.92-1.96-1.39-3.52-1.39c-1.28,0-2.31,0.38-3.09,1.15c-0.77,0.77-1.16,1.83-1.16,3.2c0,1.48,0.39,2.62,1.16,3.41
			c0.77,0.79,1.84,1.19,3.19,1.19c0.77,0,1.5-0.15,2.21-0.46c0.71-0.31,1.28-0.78,1.72-1.41s0.66-1.41,0.66-2.32
			C158.71,96.74,158.32,95.62,157.54,94.7z"/>
		<path class="st5" d="M175.1,93.53h-9.35v6.52c0.45-0.6,1.09-1.08,1.92-1.45c0.83-0.37,1.73-0.55,2.7-0.55
			c1.88,0,3.29,0.54,4.21,1.62c0.92,1.08,1.39,2.44,1.39,4.07c0,1.78-0.5,3.25-1.5,4.4s-2.48,1.72-4.45,1.72
			c-1.72,0-3.12-0.47-4.21-1.4c-1.09-0.93-1.72-2.2-1.89-3.8h1.72c0.22,1.17,0.7,2.07,1.45,2.7c0.75,0.63,1.69,0.95,2.82,0.95
			c1.43,0,2.51-0.42,3.24-1.26c0.72-0.84,1.09-1.95,1.09-3.34c0-1.33-0.37-2.37-1.1-3.12c-0.73-0.75-1.78-1.12-3.15-1.12
			c-0.95,0-1.79,0.2-2.51,0.6c-0.72,0.4-1.28,0.95-1.66,1.65h-1.7v-9.75h10.97V93.53z"/>
		<path class="st5" d="M188.57,107.56c0.63,0.63,1.51,0.94,2.62,0.94c1.57,0,2.74-0.59,3.54-1.76c0.79-1.17,1.19-3.05,1.19-5.63
			c0-0.45-0.01-0.79-0.02-1.02c-0.23,1.08-0.83,1.95-1.79,2.6c-0.96,0.65-2.09,0.97-3.39,0.97c-1.77,0-3.15-0.53-4.15-1.6
			c-1-1.07-1.5-2.54-1.5-4.42c0-1.08,0.21-2.07,0.63-2.95c0.42-0.88,1.06-1.59,1.94-2.11c0.87-0.53,1.97-0.79,3.29-0.79
			c2.52,0,4.24,0.77,5.17,2.32c0.93,1.55,1.4,3.67,1.4,6.37c0,3.07-0.49,5.41-1.46,7.03c-0.97,1.62-2.59,2.44-4.83,2.44
			c-1.63,0-2.92-0.46-3.85-1.39c-0.93-0.92-1.47-2.15-1.62-3.66h1.65C187.54,106.05,187.94,106.94,188.57,107.56z M194.49,94.7
			c-0.78-0.92-1.96-1.39-3.52-1.39c-1.28,0-2.31,0.38-3.09,1.15c-0.77,0.77-1.16,1.83-1.16,3.2c0,1.48,0.39,2.62,1.16,3.41
			c0.77,0.79,1.84,1.19,3.19,1.19c0.77,0,1.5-0.15,2.21-0.46c0.71-0.31,1.28-0.78,1.72-1.41s0.66-1.41,0.66-2.32
			C195.67,96.74,195.27,95.62,194.49,94.7z"/>
		<path class="st5" d="M199.34,93.76v-1.62h4.47v17.62h-1.82V93.76H199.34z"/>
		<path class="st5" d="M213.73,100.86c0-2.83,0.45-5.03,1.34-6.6c0.89-1.57,2.47-2.35,4.73-2.35c2.25,0,3.82,0.78,4.72,2.35
			s1.35,3.76,1.35,6.6c0,2.85-0.45,5.06-1.35,6.63s-2.47,2.36-4.72,2.36c-2.27,0-3.84-0.79-4.73-2.36
			C214.18,105.92,213.73,103.7,213.73,100.86z M224.13,100.86c0-1.53-0.11-2.82-0.34-3.87c-0.23-1.05-0.65-1.88-1.29-2.5
			c-0.63-0.62-1.53-0.92-2.7-0.92c-1.18,0-2.09,0.31-2.72,0.92c-0.63,0.62-1.06,1.45-1.29,2.5c-0.23,1.05-0.34,2.34-0.34,3.87
			c0,1.55,0.11,2.85,0.34,3.91c0.22,1.06,0.65,1.9,1.29,2.51c0.63,0.62,1.54,0.92,2.72,0.92c1.17,0,2.07-0.31,2.7-0.92
			c0.63-0.62,1.06-1.45,1.29-2.51C224.01,103.71,224.13,102.4,224.13,100.86z"/>
	</g>
	<g class="st4">
		<path class="st5" d="M61.73,139.74l-4.82-7.35h-2.85v7.35h-1.77v-17.62h5.4c1.98,0,3.46,0.47,4.44,1.4
			c0.97,0.93,1.46,2.19,1.46,3.77c0,1.47-0.41,2.63-1.24,3.5s-2.02,1.38-3.59,1.55l4.97,7.4H61.73z M54.06,131.07h3.5
			c2.83,0,4.25-1.22,4.25-3.67c0-2.5-1.42-3.75-4.25-3.75h-3.5V131.07z"/>
		<path class="st5" d="M79.52,123.47c1.38,1,2.33,2.36,2.85,4.07h-1.82c-0.45-1.18-1.21-2.14-2.29-2.87
			c-1.07-0.73-2.34-1.1-3.81-1.1c-1.27,0-2.41,0.3-3.44,0.9c-1.02,0.6-1.83,1.46-2.41,2.57c-0.58,1.12-0.87,2.42-0.87,3.9
			c0,1.52,0.3,2.83,0.89,3.95c0.59,1.12,1.41,1.97,2.45,2.57c1.04,0.6,2.23,0.9,3.56,0.9c1.18,0,2.27-0.26,3.25-0.79
			c0.98-0.53,1.78-1.29,2.39-2.29c0.61-1,0.96-2.17,1.06-3.52H74v-1.33h8.85V132c-0.12,1.5-0.54,2.85-1.26,4.05s-1.7,2.15-2.92,2.84
			c-1.22,0.69-2.62,1.04-4.19,1.04c-1.67,0-3.15-0.38-4.45-1.14s-2.31-1.82-3.02-3.19c-0.72-1.37-1.07-2.91-1.07-4.65
			c0-1.73,0.36-3.28,1.07-4.65c0.72-1.37,1.72-2.43,3.01-3.19s2.77-1.14,4.44-1.14C76.45,121.97,78.14,122.47,79.52,123.47z"/>
		<path class="st5" d="M96.79,132.14c0.68,0.8,1.02,1.75,1.02,2.85c0,1.42-0.48,2.56-1.45,3.44c-0.97,0.87-2.37,1.31-4.2,1.31h-6.12
			v-17.62h6.05c1.77,0,3.09,0.4,3.99,1.19c0.89,0.79,1.34,1.85,1.34,3.19c0,1.15-0.31,2.07-0.92,2.76s-1.41,1.15-2.37,1.36
			C95.22,130.84,96.11,131.35,96.79,132.14z M87.82,130h4.05c1.23,0,2.17-0.29,2.81-0.86c0.64-0.57,0.96-1.36,0.96-2.36
			c0-0.98-0.32-1.76-0.95-2.32c-0.63-0.57-1.61-0.85-2.92-0.85h-3.95V130z M94.94,137.33c0.73-0.61,1.1-1.45,1.1-2.54
			c0-1.07-0.37-1.91-1.12-2.54c-0.75-0.63-1.78-0.94-3.1-0.94h-4v6.92h4.05C93.18,138.24,94.21,137.94,94.94,137.33z"/>
		<path class="st5" d="M113.59,132.54c1.76-1.97,2.64-3.81,2.64-5.52c0-1.08-0.28-1.96-0.85-2.64c-0.57-0.67-1.48-1.01-2.75-1.01
			c-1.3,0-2.29,0.4-2.96,1.21c-0.67,0.81-1.05,1.9-1.14,3.29h-1.72c0.12-1.92,0.71-3.39,1.77-4.44c1.07-1.04,2.46-1.56,4.17-1.56
			c1.57,0,2.83,0.42,3.8,1.27c0.97,0.85,1.45,2.09,1.45,3.72c0,1.38-0.46,2.79-1.37,4.24c-0.92,1.44-2.06,2.77-3.42,4
			c-1.37,1.22-2.76,2.26-4.17,3.11h9.47v1.45h-11.97v-1.25C109.48,136.47,111.84,134.51,113.59,132.54z"/>
		<path class="st5" d="M132.65,123.52h-9.35v6.52c0.45-0.6,1.09-1.08,1.92-1.45c0.83-0.37,1.73-0.55,2.7-0.55
			c1.88,0,3.29,0.54,4.21,1.62c0.92,1.08,1.39,2.44,1.39,4.07c0,1.78-0.5,3.25-1.5,4.4s-2.48,1.72-4.45,1.72
			c-1.72,0-3.12-0.47-4.21-1.4c-1.09-0.93-1.72-2.2-1.89-3.8h1.72c0.22,1.17,0.7,2.07,1.45,2.7c0.75,0.63,1.69,0.95,2.82,0.95
			c1.43,0,2.51-0.42,3.24-1.26c0.72-0.84,1.09-1.95,1.09-3.34c0-1.33-0.37-2.37-1.1-3.12c-0.73-0.75-1.78-1.12-3.15-1.12
			c-0.95,0-1.79,0.2-2.51,0.6c-0.72,0.4-1.28,0.95-1.66,1.65h-1.7v-9.75h10.97V123.52z"/>
		<path class="st5" d="M147.86,123.52h-9.35v6.52c0.45-0.6,1.09-1.08,1.92-1.45c0.83-0.37,1.73-0.55,2.7-0.55
			c1.88,0,3.29,0.54,4.21,1.62c0.92,1.08,1.39,2.44,1.39,4.07c0,1.78-0.5,3.25-1.5,4.4s-2.48,1.72-4.45,1.72
			c-1.72,0-3.12-0.47-4.21-1.4c-1.09-0.93-1.72-2.2-1.89-3.8h1.72c0.22,1.17,0.7,2.07,1.45,2.7c0.75,0.63,1.69,0.95,2.82,0.95
			c1.43,0,2.51-0.42,3.24-1.26c0.72-0.84,1.09-1.95,1.09-3.34c0-1.33-0.37-2.37-1.1-3.12c-0.73-0.75-1.78-1.12-3.15-1.12
			c-0.95,0-1.79,0.2-2.51,0.6c-0.72,0.4-1.28,0.95-1.66,1.65h-1.7v-9.75h10.97V123.52z"/>
		<path class="st5" d="M158.03,130.85c0-2.83,0.45-5.03,1.34-6.6c0.89-1.57,2.47-2.35,4.73-2.35c2.25,0,3.82,0.78,4.72,2.35
			s1.35,3.76,1.35,6.6c0,2.85-0.45,5.06-1.35,6.63s-2.47,2.36-4.72,2.36c-2.27,0-3.84-0.79-4.73-2.36
			C158.48,135.91,158.03,133.69,158.03,130.85z M168.43,130.85c0-1.53-0.11-2.82-0.34-3.87c-0.23-1.05-0.65-1.88-1.29-2.5
			c-0.63-0.62-1.53-0.92-2.7-0.92c-1.18,0-2.09,0.31-2.72,0.92c-0.63,0.62-1.06,1.45-1.29,2.5c-0.23,1.05-0.34,2.34-0.34,3.87
			c0,1.55,0.11,2.85,0.34,3.91c0.22,1.06,0.65,1.9,1.29,2.51c0.63,0.62,1.54,0.92,2.72,0.92c1.17,0,2.07-0.31,2.7-0.92
			c0.63-0.62,1.06-1.45,1.29-2.51C168.32,133.7,168.43,132.39,168.43,130.85z"/>
		<path class="st5" d="M179.7,130.85c0-2.83,0.45-5.03,1.34-6.6c0.89-1.57,2.47-2.35,4.73-2.35c2.25,0,3.82,0.78,4.72,2.35
			s1.35,3.76,1.35,6.6c0,2.85-0.45,5.06-1.35,6.63s-2.47,2.36-4.72,2.36c-2.27,0-3.84-0.79-4.73-2.36
			C180.14,135.91,179.7,133.69,179.7,130.85z M190.09,130.85c0-1.53-0.11-2.82-0.34-3.87c-0.23-1.05-0.65-1.88-1.29-2.5
			c-0.63-0.62-1.53-0.92-2.7-0.92c-1.18,0-2.09,0.31-2.72,0.92c-0.63,0.62-1.06,1.45-1.29,2.5c-0.23,1.05-0.34,2.34-0.34,3.87
			c0,1.55,0.11,2.85,0.34,3.91c0.22,1.06,0.65,1.9,1.29,2.51c0.63,0.62,1.54,0.92,2.72,0.92c1.17,0,2.07-0.31,2.7-0.92
			c0.63-0.62,1.06-1.45,1.29-2.51C189.98,133.7,190.09,132.39,190.09,130.85z"/>
	</g>
	<g class="st4">
		<path class="st5" d="M65.36,152.1v17.62h-1.75v-8.35h-9.54v8.35h-1.77V152.1h1.77v7.82h9.54v-7.82H65.36z"/>
		<path class="st5" d="M70.95,153.53v6.65h6.87v1.37h-6.87v6.72h7.62v1.45h-9.4V152.1h9.4v1.42H70.95z"/>
		<path class="st5" d="M91.24,169.72l-4.6-7.42l-4.27,7.42h-2.02l5.32-8.97l-5.37-8.65h2.07l4.52,7.27l4.27-7.27h2.02l-5.35,8.82
			l5.47,8.8H91.24z"/>
		<path class="st5" d="M115.28,158.38l-0.92,4.32h3.6v1.6h-3.95l-1.15,5.42h-1.67l1.15-5.42h-5.57l-1.15,5.42h-1.65l1.15-5.42h-3.92
			v-1.6h4.27l0.92-4.32h-3.85v-1.6h4.2l1.17-5.55h1.65l-1.17,5.55h5.57l1.17-5.55h1.67l-1.17,5.55h3.67v1.6H115.28z M113.61,158.38
			h-5.57l-0.92,4.32h5.57L113.61,158.38z"/>
		<path class="st5" d="M131.6,152.1v1.42h-7.8v6.72h6.75v1.38h-6.75v8.1h-1.77V152.1H131.6z"/>
		<path class="st5" d="M143.99,152.1v1.42h-7.8v6.72h6.75v1.38h-6.75v8.1h-1.77V152.1H143.99z"/>
		<path class="st5" d="M146.44,160.83c0-2.83,0.45-5.03,1.34-6.6c0.89-1.57,2.47-2.35,4.73-2.35c2.25,0,3.82,0.78,4.72,2.35
			s1.35,3.76,1.35,6.6c0,2.85-0.45,5.06-1.35,6.63s-2.47,2.36-4.72,2.36c-2.27,0-3.84-0.79-4.73-2.36
			C146.89,165.88,146.44,163.67,146.44,160.83z M156.83,160.83c0-1.53-0.11-2.82-0.34-3.87c-0.23-1.05-0.65-1.88-1.29-2.5
			c-0.63-0.62-1.53-0.92-2.7-0.92c-1.18,0-2.09,0.31-2.72,0.92c-0.63,0.62-1.06,1.45-1.29,2.5c-0.23,1.05-0.34,2.34-0.34,3.87
			c0,1.55,0.11,2.85,0.34,3.91c0.22,1.06,0.65,1.9,1.29,2.51c0.63,0.62,1.54,0.92,2.72,0.92c1.17,0,2.07-0.31,2.7-0.92
			c0.63-0.62,1.06-1.45,1.29-2.51C156.72,163.68,156.83,162.37,156.83,160.83z"/>
		<path class="st5" d="M161.61,160.83c0-2.83,0.45-5.03,1.34-6.6c0.89-1.57,2.47-2.35,4.73-2.35c2.25,0,3.82,0.78,4.72,2.35
			s1.35,3.76,1.35,6.6c0,2.85-0.45,5.06-1.35,6.63s-2.47,2.36-4.72,2.36c-2.27,0-3.84-0.79-4.73-2.36
			C162.05,165.88,161.61,163.67,161.61,160.83z M172,160.83c0-1.53-0.11-2.82-0.34-3.87c-0.23-1.05-0.65-1.88-1.29-2.5
			c-0.63-0.62-1.53-0.92-2.7-0.92c-1.18,0-2.09,0.31-2.72,0.92c-0.63,0.62-1.06,1.45-1.29,2.5c-0.23,1.05-0.34,2.34-0.34,3.87
			c0,1.55,0.11,2.85,0.34,3.91c0.22,1.06,0.65,1.9,1.29,2.51c0.63,0.62,1.54,0.92,2.72,0.92c1.17,0,2.07-0.31,2.7-0.92
			c0.63-0.62,1.06-1.45,1.29-2.51C171.89,163.68,172,162.37,172,160.83z"/>
		<path class="st5" d="M176.77,160.83c0-2.83,0.45-5.03,1.34-6.6c0.89-1.57,2.47-2.35,4.73-2.35c2.25,0,3.82,0.78,4.72,2.35
			s1.35,3.76,1.35,6.6c0,2.85-0.45,5.06-1.35,6.63s-2.47,2.36-4.72,2.36c-2.27,0-3.84-0.79-4.73-2.36
			C177.22,165.88,176.77,163.67,176.77,160.83z M187.17,160.83c0-1.53-0.11-2.82-0.34-3.87c-0.23-1.05-0.65-1.88-1.29-2.5
			c-0.63-0.62-1.53-0.92-2.7-0.92c-1.18,0-2.09,0.31-2.72,0.92c-0.63,0.62-1.06,1.45-1.29,2.5c-0.23,1.05-0.34,2.34-0.34,3.87
			c0,1.55,0.11,2.85,0.34,3.91c0.22,1.06,0.65,1.9,1.29,2.51c0.63,0.62,1.54,0.92,2.72,0.92c1.17,0,2.07-0.31,2.7-0.92
			c0.63-0.62,1.06-1.45,1.29-2.51C187.06,163.68,187.17,162.37,187.17,160.83z"/>
		<path class="st5" d="M191.94,160.83c0-2.83,0.45-5.03,1.34-6.6c0.89-1.57,2.47-2.35,4.73-2.35c2.25,0,3.82,0.78,4.72,2.35
			s1.35,3.76,1.35,6.6c0,2.85-0.45,5.06-1.35,6.63s-2.47,2.36-4.72,2.36c-2.27,0-3.84-0.79-4.73-2.36
			C192.39,165.88,191.94,163.67,191.94,160.83z M202.34,160.83c0-1.53-0.11-2.82-0.34-3.87c-0.23-1.05-0.65-1.88-1.29-2.5
			c-0.63-0.62-1.53-0.92-2.7-0.92c-1.18,0-2.09,0.31-2.72,0.92c-0.63,0.62-1.06,1.45-1.29,2.5c-0.23,1.05-0.34,2.34-0.34,3.87
			c0,1.55,0.11,2.85,0.34,3.91c0.22,1.06,0.65,1.9,1.29,2.51c0.63,0.62,1.54,0.92,2.72,0.92c1.17,0,2.07-0.31,2.7-0.92
			c0.63-0.62,1.06-1.45,1.29-2.51C202.22,163.68,202.34,162.37,202.34,160.83z"/>
	</g>
</g>
</svg>
