<?xml version="1.0" encoding="utf-8"?>
<!-- Generator: Adobe Illustrator 24.0.1, SVG Export Plug-In . SVG Version: 6.00 Build 0)  -->
<svg version="1.1" id="Livello_1" xmlns="http://www.w3.org/2000/svg" xmlns:xlink="http://www.w3.org/1999/xlink" x="0px" y="0px"
	 viewBox="0 0 890.75 201.56" style="enable-background:new 0 0 890.75 201.56;" xml:space="preserve">
<style type="text/css">
	.st0{fill:#353535;}
	.st1{fill:#5D5D5D;}
	.st2{fill:#727272;}
	.st3{fill:#9A9A9A;}
	.st4{enable-background:new    ;}
	.st5{fill:#FFFFFF;}
</style>
<rect class="st0" width="491.63" height="201.56"/>
<rect x="491.63" class="st1" width="133.04" height="201.56"/>
<rect x="624.67" class="st2" width="133.04" height="201.56"/>
<rect x="757.71" class="st3" width="133.04" height="201.56"/>
<g>
	<g class="st4">
		<path class="st5" d="M62.46,43.36h-8.02l-1.6,4.3h-1.87l6.5-17.22h1.97l6.5,17.22h-1.9L62.46,43.36z M61.93,41.96l-3.47-9.5
			l-3.52,9.5H61.93z"/>
		<path class="st5" d="M76.08,35.02c0.9,0.78,1.45,1.84,1.65,3.17h-1.67c-0.1-0.88-0.46-1.61-1.09-2.19
			c-0.63-0.57-1.46-0.86-2.51-0.86c-0.9,0-1.6,0.22-2.11,0.66c-0.51,0.44-0.76,1.03-0.76,1.76c0,0.55,0.16,0.99,0.49,1.32
			c0.32,0.33,0.73,0.59,1.21,0.76c0.48,0.17,1.13,0.35,1.95,0.54c1,0.23,1.8,0.47,2.41,0.71c0.61,0.24,1.13,0.62,1.56,1.14
			c0.43,0.52,0.65,1.22,0.65,2.1c0,1.08-0.4,1.97-1.21,2.66c-0.81,0.69-1.88,1.04-3.21,1.04c-1.57,0-2.85-0.39-3.85-1.16
			c-1-0.77-1.59-1.84-1.77-3.19h1.7c0.1,0.9,0.49,1.63,1.17,2.2s1.61,0.85,2.77,0.85c0.87,0,1.54-0.23,2.02-0.67
			c0.48-0.45,0.72-1.03,0.72-1.75c0-0.58-0.17-1.05-0.5-1.4c-0.33-0.35-0.75-0.61-1.24-0.79s-1.16-0.36-2.01-0.56
			c-0.98-0.23-1.77-0.47-2.36-0.7c-0.59-0.23-1.1-0.6-1.51-1.09c-0.42-0.49-0.63-1.16-0.63-2.01c0-1.12,0.41-2.02,1.22-2.7
			c0.82-0.68,1.92-1.02,3.32-1.02C73.99,33.84,75.18,34.23,76.08,35.02z"/>
		<path class="st5" d="M91.66,34.68c0.96,0.56,1.71,1.37,2.25,2.42c0.54,1.06,0.81,2.3,0.81,3.74c0,1.42-0.27,2.65-0.81,3.71
			c-0.54,1.06-1.3,1.87-2.26,2.44s-2.07,0.85-3.3,0.85c-1.4,0-2.58-0.36-3.55-1.07c-0.97-0.72-1.63-1.67-2-2.85v10.2h-1.75V34.02
			h1.75v3.75c0.37-1.18,1.03-2.13,2-2.85c0.97-0.72,2.15-1.07,3.55-1.07C89.59,33.84,90.7,34.12,91.66,34.68z M85.26,36.06
			c-0.77,0.45-1.38,1.09-1.81,1.91c-0.43,0.82-0.65,1.78-0.65,2.86s0.22,2.04,0.65,2.86c0.43,0.83,1.04,1.46,1.81,1.91
			c0.77,0.45,1.65,0.67,2.61,0.67c1.55,0,2.78-0.49,3.7-1.46c0.92-0.97,1.37-2.3,1.37-3.99s-0.46-3.01-1.37-3.99
			c-0.92-0.97-2.15-1.46-3.7-1.46C86.9,35.39,86.03,35.62,85.26,36.06z"/>
		<path class="st5" d="M108.55,35.28c0.99,1.01,1.49,2.49,1.49,4.44v7.95h-1.72v-7.82c0-1.48-0.37-2.62-1.12-3.41
			c-0.75-0.79-1.77-1.19-3.07-1.19c-1.37,0-2.45,0.44-3.26,1.31c-0.81,0.88-1.21,2.16-1.21,3.86v7.25h-1.77V29.17h1.77v8.2
			c0.35-1.17,0.98-2.06,1.9-2.67c0.92-0.62,1.97-0.92,3.15-0.92C106.27,33.77,107.56,34.27,108.55,35.28z"/>
		<path class="st5" d="M123.02,34.92c0.97,0.72,1.64,1.67,2.01,2.85v-3.75h1.72v13.64h-1.72v-3.75c-0.37,1.18-1.04,2.13-2.01,2.85
			s-2.15,1.07-3.54,1.07c-1.23,0-2.34-0.28-3.31-0.85s-1.73-1.38-2.27-2.44c-0.54-1.06-0.81-2.29-0.81-3.71
			c0-1.43,0.27-2.68,0.81-3.74c0.54-1.06,1.29-1.87,2.26-2.42c0.97-0.56,2.07-0.84,3.32-0.84C120.86,33.84,122.04,34.2,123.02,34.92
			z M116.24,36.85c-0.92,0.97-1.39,2.3-1.39,3.99s0.46,3.01,1.39,3.99c0.92,0.97,2.15,1.46,3.69,1.46c0.97,0,1.84-0.23,2.61-0.67
			c0.77-0.45,1.38-1.09,1.82-1.91c0.44-0.82,0.66-1.78,0.66-2.86s-0.22-2.04-0.66-2.86c-0.44-0.83-1.05-1.46-1.82-1.91
			c-0.77-0.45-1.65-0.67-2.61-0.67C118.4,35.39,117.17,35.88,116.24,36.85z"/>
		<path class="st5" d="M132.32,29.17v18.49h-1.77V29.17H132.32z"/>
		<path class="st5" d="M142.32,46.11v1.55h-1.62c-1.32,0-2.3-0.31-2.95-0.94c-0.65-0.62-0.97-1.68-0.97-3.16v-8.02h-2.07v-1.52h2.07
			v-3.45h1.77v3.45h3.75v1.52h-3.75v8.05c0,0.97,0.17,1.63,0.52,1.99c0.35,0.36,0.97,0.54,1.85,0.54H142.32z"/>
		<path class="st5" d="M162.43,40.06c0.68,0.8,1.02,1.75,1.02,2.85c0,1.42-0.48,2.56-1.45,3.44c-0.97,0.87-2.37,1.31-4.2,1.31h-6.12
			V30.04h6.05c1.77,0,3.09,0.4,3.99,1.19c0.89,0.79,1.34,1.85,1.34,3.19c0,1.15-0.31,2.07-0.92,2.76s-1.41,1.15-2.37,1.36
			C160.86,38.76,161.75,39.26,162.43,40.06z M153.46,37.91h4.05c1.23,0,2.17-0.29,2.81-0.86c0.64-0.57,0.96-1.36,0.96-2.36
			c0-0.98-0.32-1.76-0.95-2.32c-0.63-0.57-1.61-0.85-2.92-0.85h-3.95V37.91z M160.58,45.25c0.73-0.61,1.1-1.45,1.1-2.54
			c0-1.07-0.37-1.91-1.12-2.54c-0.75-0.63-1.78-0.94-3.1-0.94h-4v6.92h4.05C158.83,46.16,159.85,45.86,160.58,45.25z"/>
		<path class="st5" d="M168.23,29.17v18.49h-1.77V29.17H168.23z"/>
		<path class="st5" d="M181.31,34.92c0.97,0.72,1.64,1.67,2.01,2.85v-3.75h1.72v13.64h-1.72v-3.75c-0.37,1.18-1.04,2.13-2.01,2.85
			s-2.15,1.07-3.54,1.07c-1.23,0-2.34-0.28-3.31-0.85s-1.73-1.38-2.27-2.44c-0.54-1.06-0.81-2.29-0.81-3.71
			c0-1.43,0.27-2.68,0.81-3.74c0.54-1.06,1.29-1.87,2.26-2.42c0.97-0.56,2.07-0.84,3.32-0.84C179.16,33.84,180.34,34.2,181.31,34.92
			z M174.54,36.85c-0.92,0.97-1.39,2.3-1.39,3.99s0.46,3.01,1.39,3.99c0.92,0.97,2.15,1.46,3.69,1.46c0.97,0,1.84-0.23,2.61-0.67
			c0.77-0.45,1.38-1.09,1.82-1.91c0.44-0.82,0.66-1.78,0.66-2.86s-0.22-2.04-0.66-2.86c-0.44-0.83-1.05-1.46-1.82-1.91
			c-0.77-0.45-1.65-0.67-2.61-0.67C176.69,35.39,175.46,35.88,174.54,36.85z"/>
		<path class="st5" d="M199.18,35.22c1.14,0.92,1.84,2.13,2.09,3.65h-1.82c-0.18-1.08-0.69-1.94-1.52-2.56
			c-0.83-0.63-1.86-0.94-3.07-0.94c-0.88,0-1.7,0.2-2.44,0.6c-0.74,0.4-1.33,1.01-1.77,1.84c-0.44,0.82-0.66,1.84-0.66,3.04
			c0,1.2,0.22,2.21,0.66,3.04c0.44,0.82,1.03,1.44,1.77,1.84c0.74,0.4,1.55,0.6,2.44,0.6c1.22,0,2.24-0.31,3.07-0.94
			c0.83-0.63,1.34-1.48,1.52-2.56h1.82c-0.25,1.52-0.95,2.73-2.09,3.65s-2.58,1.37-4.31,1.37c-1.3,0-2.45-0.28-3.46-0.84
			c-1.01-0.56-1.8-1.37-2.36-2.42c-0.57-1.06-0.85-2.3-0.85-3.74s0.28-2.68,0.85-3.74c0.57-1.06,1.35-1.87,2.36-2.42
			c1.01-0.56,2.16-0.84,3.46-0.84C196.6,33.84,198.03,34.3,199.18,35.22z"/>
		<path class="st5" d="M211.71,47.66l-5.52-6.25v6.25h-1.77V29.17h1.77v10.84l5.42-6h2.17l-6.27,6.75l6.45,6.9H211.71z"/>
	</g>
	<g class="st4">
		<path class="st5" d="M65.28,91.37c1.38,1.02,2.36,2.44,2.92,4.24h-1.85c-0.47-1.27-1.24-2.27-2.32-3.02
			c-1.08-0.75-2.42-1.12-4.02-1.12c-1.22,0-2.32,0.3-3.31,0.9c-0.99,0.6-1.77,1.46-2.34,2.57c-0.57,1.12-0.85,2.42-0.85,3.9
			c0,1.48,0.28,2.78,0.85,3.89c0.57,1.11,1.34,1.96,2.34,2.56c0.99,0.6,2.09,0.9,3.31,0.9c1.6,0,2.94-0.38,4.02-1.13
			c1.08-0.75,1.86-1.76,2.32-3.02h1.85c-0.57,1.8-1.54,3.21-2.92,4.24c-1.38,1.03-3.13,1.54-5.25,1.54c-1.62,0-3.06-0.38-4.32-1.15
			c-1.27-0.77-2.25-1.83-2.95-3.19s-1.05-2.9-1.05-4.64c0-1.75,0.35-3.31,1.05-4.67c0.7-1.37,1.68-2.43,2.95-3.19
			s2.71-1.14,4.32-1.14C62.15,89.84,63.9,90.35,65.28,91.37z"/>
		<path class="st5" d="M88.47,90.39v17.24h-1.75V93.19l-5.97,14.44h-1.57l-6-14.39v14.39H71.4V90.39h2.07l6.5,15.07l6.45-15.07
			H88.47z"/>
		<path class="st5" d="M104.11,90.01l-5.67,10.74v6.87h-1.77v-6.87l-5.7-10.74h2.02l4.55,8.87l4.55-8.87H104.11z"/>
		<path class="st5" d="M109.89,98.78l8.32,8.85h-2.17l-7.7-8.27v8.27h-1.77V90.01h1.77v8.27l7.7-8.27h2.17L109.89,98.78z"/>
		<path class="st5" d="M136.92,91.31l-6.77,16.32h-1.85l6.85-16.14h-9.7v-1.52h11.47V91.31z"/>
		<path class="st5" d="M139.27,98.73c0-2.83,0.45-5.03,1.34-6.6c0.89-1.57,2.47-2.35,4.73-2.35c2.25,0,3.82,0.78,4.72,2.35
			s1.35,3.76,1.35,6.6c0,2.85-0.45,5.06-1.35,6.63s-2.47,2.36-4.72,2.36c-2.27,0-3.84-0.79-4.73-2.36
			C139.72,103.79,139.27,101.58,139.27,98.73z M149.66,98.73c0-1.53-0.11-2.82-0.34-3.87c-0.23-1.05-0.65-1.88-1.29-2.5
			c-0.63-0.62-1.53-0.92-2.7-0.92c-1.18,0-2.09,0.31-2.72,0.92c-0.63,0.62-1.06,1.45-1.29,2.5c-0.23,1.05-0.34,2.34-0.34,3.87
			c0,1.55,0.11,2.85,0.34,3.91c0.22,1.06,0.65,1.9,1.29,2.51c0.63,0.62,1.54,0.92,2.72,0.92c1.17,0,2.07-0.31,2.7-0.92
			c0.63-0.62,1.06-1.45,1.29-2.51C149.55,101.59,149.66,100.28,149.66,98.73z"/>
		<path class="st5" d="M169.98,92.02c-0.63-0.63-1.51-0.94-2.62-0.94c-1.53,0-2.7,0.58-3.51,1.75c-0.81,1.17-1.21,3.02-1.21,5.57
			c0,0.48,0.01,0.85,0.02,1.1c0.23-1.1,0.82-1.97,1.77-2.61c0.95-0.64,2.07-0.96,3.37-0.96c1.78,0,3.17,0.53,4.17,1.59
			s1.5,2.53,1.5,4.41c0,1.08-0.21,2.07-0.62,2.95c-0.42,0.88-1.07,1.59-1.95,2.12c-0.88,0.53-1.98,0.8-3.3,0.8
			c-2.52,0-4.24-0.79-5.16-2.36c-0.92-1.57-1.39-3.71-1.39-6.41c0-3.08,0.5-5.42,1.5-7.01s2.63-2.39,4.9-2.39
			c1.62,0,2.87,0.46,3.77,1.39c0.9,0.92,1.43,2.14,1.6,3.64h-1.67C171,93.53,170.61,92.65,169.98,92.02z M163.36,103.87
			c0.33,0.72,0.85,1.31,1.55,1.75c0.7,0.44,1.58,0.66,2.65,0.66c1.28,0,2.31-0.39,3.09-1.16c0.77-0.77,1.16-1.84,1.16-3.21
			c0-1.48-0.39-2.61-1.16-3.4s-1.84-1.17-3.19-1.17c-0.77,0-1.5,0.16-2.2,0.47s-1.27,0.79-1.72,1.41s-0.67,1.4-0.67,2.31
			C162.86,102.37,163.02,103.14,163.36,103.87z"/>
		<path class="st5" d="M176.4,98.73c0-2.83,0.45-5.03,1.34-6.6c0.89-1.57,2.47-2.35,4.73-2.35c2.25,0,3.82,0.78,4.72,2.35
			s1.35,3.76,1.35,6.6c0,2.85-0.45,5.06-1.35,6.63s-2.47,2.36-4.72,2.36c-2.27,0-3.84-0.79-4.73-2.36
			C176.85,103.79,176.4,101.58,176.4,98.73z M186.8,98.73c0-1.53-0.11-2.82-0.34-3.87c-0.23-1.05-0.65-1.88-1.29-2.5
			c-0.63-0.62-1.53-0.92-2.7-0.92c-1.18,0-2.09,0.31-2.72,0.92c-0.63,0.62-1.06,1.45-1.29,2.5c-0.23,1.05-0.34,2.34-0.34,3.87
			c0,1.55,0.11,2.85,0.34,3.91c0.22,1.06,0.65,1.9,1.29,2.51c0.63,0.62,1.54,0.92,2.72,0.92c1.17,0,2.07-0.31,2.7-0.92
			c0.63-0.62,1.06-1.45,1.29-2.51C186.68,101.59,186.8,100.28,186.8,98.73z"/>
		<path class="st5" d="M209.61,91.41h-9.35v6.52c0.45-0.6,1.09-1.08,1.92-1.45c0.83-0.37,1.73-0.55,2.7-0.55
			c1.88,0,3.29,0.54,4.21,1.62c0.92,1.08,1.39,2.44,1.39,4.07c0,1.78-0.5,3.25-1.5,4.4s-2.48,1.72-4.45,1.72
			c-1.72,0-3.12-0.47-4.21-1.4c-1.09-0.93-1.72-2.2-1.89-3.8h1.72c0.22,1.17,0.7,2.07,1.45,2.7c0.75,0.63,1.69,0.95,2.82,0.95
			c1.43,0,2.51-0.42,3.24-1.26c0.72-0.84,1.09-1.95,1.09-3.34c0-1.33-0.37-2.37-1.1-3.12c-0.73-0.75-1.78-1.12-3.15-1.12
			c-0.95,0-1.79,0.2-2.51,0.6c-0.72,0.4-1.28,0.95-1.66,1.65h-1.7v-9.75h10.97V91.41z"/>
		<path class="st5" d="M224.83,91.41h-9.35v6.52c0.45-0.6,1.09-1.08,1.92-1.45c0.83-0.37,1.73-0.55,2.7-0.55
			c1.88,0,3.29,0.54,4.21,1.62c0.92,1.08,1.39,2.44,1.39,4.07c0,1.78-0.5,3.25-1.5,4.4s-2.48,1.72-4.45,1.72
			c-1.72,0-3.12-0.47-4.21-1.4c-1.09-0.93-1.72-2.2-1.89-3.8h1.72c0.22,1.17,0.7,2.07,1.45,2.7c0.75,0.63,1.69,0.95,2.82,0.95
			c1.43,0,2.51-0.42,3.24-1.26c0.72-0.84,1.09-1.95,1.09-3.34c0-1.33-0.37-2.37-1.1-3.12c-0.73-0.75-1.78-1.12-3.15-1.12
			c-0.95,0-1.79,0.2-2.51,0.6c-0.72,0.4-1.28,0.95-1.66,1.65h-1.7v-9.75h10.97V91.41z"/>
		<path class="st5" d="M244.04,92.02c-0.63-0.63-1.51-0.94-2.62-0.94c-1.53,0-2.7,0.58-3.51,1.75c-0.81,1.17-1.21,3.02-1.21,5.57
			c0,0.48,0.01,0.85,0.02,1.1c0.23-1.1,0.82-1.97,1.77-2.61c0.95-0.64,2.07-0.96,3.37-0.96c1.78,0,3.17,0.53,4.17,1.59
			s1.5,2.53,1.5,4.41c0,1.08-0.21,2.07-0.62,2.95c-0.42,0.88-1.07,1.59-1.95,2.12c-0.88,0.53-1.98,0.8-3.3,0.8
			c-2.52,0-4.24-0.79-5.16-2.36c-0.92-1.57-1.39-3.71-1.39-6.41c0-3.08,0.5-5.42,1.5-7.01s2.63-2.39,4.9-2.39
			c1.62,0,2.87,0.46,3.77,1.39c0.9,0.92,1.43,2.14,1.6,3.64h-1.67C245.07,93.53,244.67,92.65,244.04,92.02z M237.42,103.87
			c0.33,0.72,0.85,1.31,1.55,1.75c0.7,0.44,1.58,0.66,2.65,0.66c1.28,0,2.31-0.39,3.09-1.16c0.77-0.77,1.16-1.84,1.16-3.21
			c0-1.48-0.39-2.61-1.16-3.4s-1.84-1.17-3.19-1.17c-0.77,0-1.5,0.16-2.2,0.47s-1.27,0.79-1.72,1.41s-0.67,1.4-0.67,2.31
			C236.92,102.37,237.09,103.14,237.42,103.87z"/>
		<path class="st5" d="M262.01,91.41h-9.35v6.52c0.45-0.6,1.09-1.08,1.92-1.45c0.83-0.37,1.73-0.55,2.7-0.55
			c1.88,0,3.29,0.54,4.21,1.62c0.92,1.08,1.39,2.44,1.39,4.07c0,1.78-0.5,3.25-1.5,4.4s-2.48,1.72-4.45,1.72
			c-1.72,0-3.12-0.47-4.21-1.4c-1.09-0.93-1.72-2.2-1.89-3.8h1.72c0.22,1.17,0.7,2.07,1.45,2.7c0.75,0.63,1.69,0.95,2.82,0.95
			c1.43,0,2.51-0.42,3.24-1.26c0.72-0.84,1.09-1.95,1.09-3.34c0-1.33-0.37-2.37-1.1-3.12c-0.73-0.75-1.78-1.12-3.15-1.12
			c-0.95,0-1.79,0.2-2.51,0.6c-0.72,0.4-1.28,0.95-1.66,1.65h-1.7v-9.75h10.97V91.41z"/>
	</g>
	<g class="st4">
		<path class="st5" d="M61.73,137.62l-4.82-7.35h-2.85v7.35h-1.77V120h5.4c1.98,0,3.46,0.47,4.44,1.4c0.97,0.93,1.46,2.19,1.46,3.77
			c0,1.47-0.41,2.63-1.24,3.5c-0.82,0.87-2.02,1.38-3.59,1.55l4.97,7.4H61.73z M54.06,128.95h3.5c2.83,0,4.25-1.22,4.25-3.67
			c0-2.5-1.42-3.75-4.25-3.75h-3.5V128.95z"/>
		<path class="st5" d="M79.52,121.35c1.38,1,2.33,2.36,2.85,4.07h-1.82c-0.45-1.18-1.21-2.14-2.29-2.87
			c-1.07-0.73-2.34-1.1-3.81-1.1c-1.27,0-2.41,0.3-3.44,0.9c-1.02,0.6-1.83,1.46-2.41,2.57c-0.58,1.12-0.87,2.42-0.87,3.9
			c0,1.52,0.3,2.83,0.89,3.95c0.59,1.12,1.41,1.97,2.45,2.57c1.04,0.6,2.23,0.9,3.56,0.9c1.18,0,2.27-0.26,3.25-0.79
			c0.98-0.53,1.78-1.29,2.39-2.29c0.61-1,0.96-2.17,1.06-3.52H74v-1.32h8.85v1.55c-0.12,1.5-0.54,2.85-1.26,4.05
			s-1.7,2.14-2.92,2.84c-1.22,0.69-2.62,1.04-4.19,1.04c-1.67,0-3.15-0.38-4.45-1.14s-2.31-1.82-3.02-3.19
			c-0.72-1.37-1.07-2.91-1.07-4.65s0.36-3.28,1.07-4.65c0.72-1.37,1.72-2.43,3.01-3.19s2.77-1.14,4.44-1.14
			C76.45,119.85,78.14,120.35,79.52,121.35z"/>
		<path class="st5" d="M96.79,130.02c0.68,0.8,1.02,1.75,1.02,2.85c0,1.42-0.48,2.56-1.45,3.44c-0.97,0.87-2.37,1.31-4.2,1.31h-6.12
			V120h6.05c1.77,0,3.09,0.39,3.99,1.19c0.89,0.79,1.34,1.85,1.34,3.19c0,1.15-0.31,2.07-0.92,2.76s-1.41,1.15-2.37,1.36
			C95.22,128.71,96.11,129.22,96.79,130.02z M87.82,127.88h4.05c1.23,0,2.17-0.29,2.81-0.86c0.64-0.57,0.96-1.36,0.96-2.36
			c0-0.98-0.32-1.76-0.95-2.32c-0.63-0.57-1.61-0.85-2.92-0.85h-3.95V127.88z M94.94,135.21c0.73-0.61,1.1-1.45,1.1-2.54
			c0-1.07-0.37-1.91-1.12-2.54c-0.75-0.63-1.78-0.94-3.1-0.94h-4v6.92h4.05C93.18,136.12,94.21,135.82,94.94,135.21z"/>
		<path class="st5" d="M118.48,121.4h-9.35v6.52c0.45-0.6,1.09-1.08,1.92-1.45c0.83-0.37,1.73-0.55,2.7-0.55
			c1.88,0,3.29,0.54,4.21,1.62c0.92,1.08,1.39,2.44,1.39,4.07c0,1.78-0.5,3.25-1.5,4.4c-1,1.15-2.48,1.72-4.45,1.72
			c-1.72,0-3.12-0.46-4.21-1.4c-1.09-0.93-1.72-2.2-1.89-3.8h1.72c0.22,1.17,0.7,2.07,1.45,2.7c0.75,0.63,1.69,0.95,2.82,0.95
			c1.43,0,2.51-0.42,3.24-1.26s1.09-1.95,1.09-3.34c0-1.33-0.37-2.37-1.1-3.12c-0.73-0.75-1.78-1.13-3.15-1.13
			c-0.95,0-1.79,0.2-2.51,0.6s-1.28,0.95-1.66,1.65h-1.7v-9.74h10.97V121.4z"/>
		<path class="st5" d="M130.95,120.21c0.78,0.39,1.38,0.93,1.79,1.61c0.41,0.68,0.61,1.46,0.61,2.32c0,1.1-0.32,2.03-0.97,2.8
			c-0.65,0.77-1.64,1.22-2.97,1.35v0.15c1.33,0.33,2.38,0.85,3.14,1.56c0.76,0.71,1.14,1.69,1.14,2.94c0,1.43-0.47,2.6-1.41,3.5
			c-0.94,0.9-2.31,1.35-4.11,1.35c-1.78,0-3.22-0.46-4.32-1.39c-1.1-0.93-1.76-2.27-1.97-4.04h1.72c0.18,1.18,0.66,2.13,1.44,2.84
			c0.77,0.71,1.8,1.06,3.09,1.06c1.25,0,2.2-0.32,2.86-0.95c0.66-0.63,0.99-1.46,0.99-2.47c0-1.2-0.47-2.11-1.41-2.74
			c-0.94-0.63-2.27-0.94-3.99-0.94H126v-1.47h0.55c3.38,0,5.07-1.13,5.07-3.37c0-0.98-0.32-1.77-0.95-2.35
			c-0.63-0.58-1.51-0.87-2.62-0.87c-1.1,0-2.03,0.31-2.8,0.92c-0.77,0.62-1.22,1.54-1.37,2.77h-1.72c0.13-1.63,0.72-2.9,1.75-3.81
			c1.03-0.91,2.43-1.36,4.2-1.36C129.22,119.63,130.17,119.82,130.95,120.21z"/>
		<path class="st5" d="M154.81,121.4h-9.35v6.52c0.45-0.6,1.09-1.08,1.92-1.45c0.83-0.37,1.73-0.55,2.7-0.55
			c1.88,0,3.29,0.54,4.21,1.62c0.92,1.08,1.39,2.44,1.39,4.07c0,1.78-0.5,3.25-1.5,4.4c-1,1.15-2.48,1.72-4.45,1.72
			c-1.72,0-3.12-0.46-4.21-1.4c-1.09-0.93-1.72-2.2-1.89-3.8h1.72c0.22,1.17,0.7,2.07,1.45,2.7c0.75,0.63,1.69,0.95,2.82,0.95
			c1.43,0,2.51-0.42,3.24-1.26s1.09-1.95,1.09-3.34c0-1.33-0.37-2.37-1.1-3.12c-0.73-0.75-1.78-1.13-3.15-1.13
			c-0.95,0-1.79,0.2-2.51,0.6s-1.28,0.95-1.66,1.65h-1.7v-9.74h10.97V121.4z"/>
		<path class="st5" d="M167.28,120.21c0.78,0.39,1.38,0.93,1.79,1.61c0.41,0.68,0.61,1.46,0.61,2.32c0,1.1-0.32,2.03-0.97,2.8
			c-0.65,0.77-1.64,1.22-2.97,1.35v0.15c1.33,0.33,2.38,0.85,3.14,1.56c0.76,0.71,1.14,1.69,1.14,2.94c0,1.43-0.47,2.6-1.41,3.5
			c-0.94,0.9-2.31,1.35-4.11,1.35c-1.78,0-3.22-0.46-4.32-1.39c-1.1-0.93-1.76-2.27-1.97-4.04h1.72c0.18,1.18,0.66,2.13,1.44,2.84
			c0.77,0.71,1.8,1.06,3.09,1.06c1.25,0,2.2-0.32,2.86-0.95c0.66-0.63,0.99-1.46,0.99-2.47c0-1.2-0.47-2.11-1.41-2.74
			c-0.94-0.63-2.27-0.94-3.99-0.94h-0.55v-1.47h0.55c3.38,0,5.07-1.13,5.07-3.37c0-0.98-0.32-1.77-0.95-2.35
			c-0.63-0.58-1.51-0.87-2.62-0.87c-1.1,0-2.03,0.31-2.8,0.92c-0.77,0.62-1.22,1.54-1.37,2.77h-1.72c0.13-1.63,0.72-2.9,1.75-3.81
			c1.03-0.91,2.43-1.36,4.2-1.36C165.55,119.63,166.5,119.82,167.28,120.21z"/>
		<path class="st5" d="M191.14,121.4h-9.35v6.52c0.45-0.6,1.09-1.08,1.92-1.45c0.83-0.37,1.73-0.55,2.7-0.55
			c1.88,0,3.29,0.54,4.21,1.62c0.92,1.08,1.39,2.44,1.39,4.07c0,1.78-0.5,3.25-1.5,4.4c-1,1.15-2.48,1.72-4.45,1.72
			c-1.72,0-3.12-0.46-4.21-1.4c-1.09-0.93-1.72-2.2-1.89-3.8h1.72c0.22,1.17,0.7,2.07,1.45,2.7c0.75,0.63,1.69,0.95,2.82,0.95
			c1.43,0,2.51-0.42,3.24-1.26s1.09-1.95,1.09-3.34c0-1.33-0.37-2.37-1.1-3.12c-0.73-0.75-1.78-1.13-3.15-1.13
			c-0.95,0-1.79,0.2-2.51,0.6s-1.28,0.95-1.66,1.65h-1.7v-9.74h10.97V121.4z"/>
		<path class="st5" d="M203.61,120.21c0.78,0.39,1.38,0.93,1.79,1.61c0.41,0.68,0.61,1.46,0.61,2.32c0,1.1-0.32,2.03-0.97,2.8
			c-0.65,0.77-1.64,1.22-2.97,1.35v0.15c1.33,0.33,2.38,0.85,3.14,1.56c0.76,0.71,1.14,1.69,1.14,2.94c0,1.43-0.47,2.6-1.41,3.5
			c-0.94,0.9-2.31,1.35-4.11,1.35c-1.78,0-3.22-0.46-4.32-1.39c-1.1-0.93-1.76-2.27-1.97-4.04h1.72c0.18,1.18,0.66,2.13,1.44,2.84
			c0.77,0.71,1.8,1.06,3.09,1.06c1.25,0,2.2-0.32,2.86-0.95c0.66-0.63,0.99-1.46,0.99-2.47c0-1.2-0.47-2.11-1.41-2.74
			c-0.94-0.63-2.27-0.94-3.99-0.94h-0.55v-1.47h0.55c3.38,0,5.07-1.13,5.07-3.37c0-0.98-0.32-1.77-0.95-2.35
			c-0.63-0.58-1.51-0.87-2.62-0.87c-1.1,0-2.03,0.31-2.8,0.92c-0.77,0.62-1.22,1.54-1.37,2.77h-1.72c0.13-1.63,0.72-2.9,1.75-3.81
			c1.03-0.91,2.43-1.36,4.2-1.36C201.88,119.63,202.83,119.82,203.61,120.21z"/>
	</g>
	<g class="st4">
		<path class="st5" d="M65.36,149.98v17.62h-1.75v-8.35h-9.54v8.35h-1.77v-17.62h1.77v7.82h9.54v-7.82H65.36z"/>
		<path class="st5" d="M70.95,151.41v6.65h6.87v1.37h-6.87v6.72h7.62v1.45h-9.4v-17.62h9.4v1.42H70.95z"/>
		<path class="st5" d="M91.24,167.6l-4.6-7.42l-4.27,7.42h-2.02l5.32-8.97l-5.37-8.65h2.07l4.52,7.27l4.27-7.27h2.02l-5.35,8.82
			l5.47,8.8H91.24z"/>
		<path class="st5" d="M115.28,156.25l-0.92,4.32h3.6v1.6h-3.95l-1.15,5.42h-1.67l1.15-5.42h-5.57l-1.15,5.42h-1.65l1.15-5.42h-3.92
			v-1.6h4.27l0.92-4.32h-3.85v-1.6h4.2l1.17-5.55h1.65l-1.17,5.55h5.57l1.17-5.55h1.67l-1.17,5.55h3.67v1.6H115.28z M113.61,156.25
			h-5.57l-0.92,4.32h5.57L113.61,156.25z"/>
		<path class="st5" d="M130.45,150.2c0.78,0.39,1.38,0.93,1.79,1.61s0.61,1.46,0.61,2.32c0,1.1-0.32,2.03-0.97,2.8
			c-0.65,0.77-1.64,1.22-2.97,1.35v0.15c1.33,0.33,2.38,0.85,3.14,1.56c0.76,0.71,1.14,1.69,1.14,2.94c0,1.43-0.47,2.6-1.41,3.5
			c-0.94,0.9-2.31,1.35-4.11,1.35c-1.78,0-3.22-0.46-4.32-1.39c-1.1-0.92-1.76-2.27-1.97-4.04h1.72c0.18,1.18,0.66,2.13,1.44,2.84
			c0.77,0.71,1.8,1.06,3.09,1.06c1.25,0,2.2-0.32,2.86-0.95c0.66-0.63,0.99-1.46,0.99-2.47c0-1.2-0.47-2.11-1.41-2.74
			c-0.94-0.63-2.27-0.94-3.99-0.94h-0.55v-1.47h0.55c3.38,0,5.07-1.13,5.07-3.37c0-0.98-0.32-1.77-0.95-2.35
			c-0.63-0.58-1.51-0.87-2.62-0.87c-1.1,0-2.03,0.31-2.8,0.92c-0.77,0.62-1.22,1.54-1.37,2.77h-1.72c0.13-1.63,0.72-2.9,1.75-3.81
			c1.03-0.91,2.43-1.36,4.2-1.36C128.72,149.61,129.67,149.8,130.45,150.2z"/>
		<path class="st5" d="M147.81,151.38h-9.35v6.52c0.45-0.6,1.09-1.08,1.92-1.45c0.83-0.37,1.73-0.55,2.7-0.55
			c1.88,0,3.29,0.54,4.21,1.62c0.92,1.08,1.39,2.44,1.39,4.07c0,1.78-0.5,3.25-1.5,4.4s-2.48,1.72-4.45,1.72
			c-1.72,0-3.12-0.47-4.21-1.4c-1.09-0.93-1.72-2.2-1.89-3.8h1.72c0.22,1.17,0.7,2.07,1.45,2.7c0.75,0.63,1.69,0.95,2.82,0.95
			c1.43,0,2.51-0.42,3.24-1.26c0.72-0.84,1.09-1.95,1.09-3.34c0-1.33-0.37-2.37-1.1-3.12c-0.73-0.75-1.78-1.12-3.15-1.12
			c-0.95,0-1.79,0.2-2.51,0.6c-0.72,0.4-1.28,0.95-1.66,1.65h-1.7v-9.75h10.97V151.38z"/>
		<path class="st5" d="M160.28,150.2c0.78,0.39,1.38,0.93,1.79,1.61s0.61,1.46,0.61,2.32c0,1.1-0.32,2.03-0.97,2.8
			c-0.65,0.77-1.64,1.22-2.97,1.35v0.15c1.33,0.33,2.38,0.85,3.14,1.56c0.76,0.71,1.14,1.69,1.14,2.94c0,1.43-0.47,2.6-1.41,3.5
			c-0.94,0.9-2.31,1.35-4.11,1.35c-1.78,0-3.22-0.46-4.32-1.39c-1.1-0.92-1.76-2.27-1.97-4.04h1.72c0.18,1.18,0.66,2.13,1.44,2.84
			c0.77,0.71,1.8,1.06,3.09,1.06c1.25,0,2.2-0.32,2.86-0.95c0.66-0.63,0.99-1.46,0.99-2.47c0-1.2-0.47-2.11-1.41-2.74
			c-0.94-0.63-2.27-0.94-3.99-0.94h-0.55v-1.47h0.55c3.38,0,5.07-1.13,5.07-3.37c0-0.98-0.32-1.77-0.95-2.35
			c-0.63-0.58-1.51-0.87-2.62-0.87c-1.1,0-2.03,0.31-2.8,0.92c-0.77,0.62-1.22,1.54-1.37,2.77h-1.72c0.13-1.63,0.72-2.9,1.75-3.81
			c1.03-0.91,2.43-1.36,4.2-1.36C158.55,149.61,159.5,149.8,160.28,150.2z"/>
		<path class="st5" d="M177.65,151.38h-9.35v6.52c0.45-0.6,1.09-1.08,1.92-1.45c0.83-0.37,1.73-0.55,2.7-0.55
			c1.88,0,3.29,0.54,4.21,1.62c0.92,1.08,1.39,2.44,1.39,4.07c0,1.78-0.5,3.25-1.5,4.4s-2.48,1.72-4.45,1.72
			c-1.72,0-3.12-0.47-4.21-1.4c-1.09-0.93-1.72-2.2-1.89-3.8h1.72c0.22,1.17,0.7,2.07,1.45,2.7c0.75,0.63,1.69,0.95,2.82,0.95
			c1.43,0,2.51-0.42,3.24-1.26c0.72-0.84,1.09-1.95,1.09-3.34c0-1.33-0.37-2.37-1.1-3.12c-0.73-0.75-1.78-1.12-3.15-1.12
			c-0.95,0-1.79,0.2-2.51,0.6c-0.72,0.4-1.28,0.95-1.66,1.65h-1.7v-9.75h10.97V151.38z"/>
		<path class="st5" d="M190.12,150.2c0.78,0.39,1.38,0.93,1.79,1.61s0.61,1.46,0.61,2.32c0,1.1-0.32,2.03-0.97,2.8
			c-0.65,0.77-1.64,1.22-2.97,1.35v0.15c1.33,0.33,2.38,0.85,3.14,1.56c0.76,0.71,1.14,1.69,1.14,2.94c0,1.43-0.47,2.6-1.41,3.5
			c-0.94,0.9-2.31,1.35-4.11,1.35c-1.78,0-3.22-0.46-4.32-1.39c-1.1-0.92-1.76-2.27-1.97-4.04h1.72c0.18,1.18,0.66,2.13,1.44,2.84
			c0.77,0.71,1.8,1.06,3.09,1.06c1.25,0,2.2-0.32,2.86-0.95c0.66-0.63,0.99-1.46,0.99-2.47c0-1.2-0.47-2.11-1.41-2.74
			c-0.94-0.63-2.27-0.94-3.99-0.94h-0.55v-1.47h0.55c3.38,0,5.07-1.13,5.07-3.37c0-0.98-0.32-1.77-0.95-2.35
			c-0.63-0.58-1.51-0.87-2.62-0.87c-1.1,0-2.03,0.31-2.8,0.92c-0.77,0.62-1.22,1.54-1.37,2.77h-1.72c0.13-1.63,0.72-2.9,1.75-3.81
			c1.03-0.91,2.43-1.36,4.2-1.36C188.39,149.61,189.33,149.8,190.12,150.2z"/>
		<path class="st5" d="M207.48,151.38h-9.35v6.52c0.45-0.6,1.09-1.08,1.92-1.45c0.83-0.37,1.73-0.55,2.7-0.55
			c1.88,0,3.29,0.54,4.21,1.62c0.92,1.08,1.39,2.44,1.39,4.07c0,1.78-0.5,3.25-1.5,4.4s-2.48,1.72-4.45,1.72
			c-1.72,0-3.12-0.47-4.21-1.4c-1.09-0.93-1.72-2.2-1.89-3.8h1.72c0.22,1.17,0.7,2.07,1.45,2.7c0.75,0.63,1.69,0.95,2.82,0.95
			c1.43,0,2.51-0.42,3.24-1.26c0.72-0.84,1.09-1.95,1.09-3.34c0-1.33-0.37-2.37-1.1-3.12c-0.73-0.75-1.78-1.12-3.15-1.12
			c-0.95,0-1.79,0.2-2.51,0.6c-0.72,0.4-1.28,0.95-1.66,1.65h-1.7v-9.75h10.97V151.38z"/>
	</g>
</g>
</svg>
