<?xml version="1.0" encoding="utf-8"?>
<!-- Generator: Adobe Illustrator 24.0.1, SVG Export Plug-In . SVG Version: 6.00 Build 0)  -->
<svg version="1.1" id="Livello_1" xmlns="http://www.w3.org/2000/svg" xmlns:xlink="http://www.w3.org/1999/xlink" x="0px" y="0px"
	 viewBox="0 0 500.9 500.9" style="enable-background:new 0 0 500.9 500.9;" xml:space="preserve">
<style type="text/css">
	.st0{fill:#1A203B;}
	.st1{fill:#243A84;}
	.st2{fill:#FFFFFF;}
</style>
<rect x="-0.9" y="-0.4" class="st0" width="501.8" height="501.8"/>
<g>
	<g>
		
			<image style="overflow:visible;opacity:0.2;enable-background:new    ;" width="218" height="218" xlink:href="../cibio/22B367F.png"  transform="matrix(0.9977 0 0 0.9977 151.2497 148.6497)">
		</image>
		<g>
			<path class="st1" d="M291.1,325.7h-82.2c-20.6,0-37.3-16.7-37.3-37.3v-82.2c0-20.6,16.7-37.3,37.3-37.3h82.2
				c20.6,0,37.3,16.7,37.3,37.3v82.2C328.4,309,311.7,325.7,291.1,325.7z"/>
		</g>
	</g>
	<g>
		<rect x="236.9" y="276.4" class="st2" width="30.5" height="2.6"/>
		<rect x="215.2" y="246" class="st2" width="30.5" height="2.6"/>
		<rect x="209.1" y="209.9" class="st2" width="30.5" height="2.6"/>
		<polygon class="st2" points="270.5,272.4 273.6,277.7 270.5,283 264.4,283 261.3,277.7 264.4,272.4 		"/>
		<polygon class="st2" points="212.1,252.6 209.1,247.3 212.1,242 218.3,242 221.3,247.3 218.3,252.6 		"/>
		<polygon class="st2" points="206,216.5 202.9,211.2 206,205.8 212.1,205.8 215.2,211.2 212.1,216.5 		"/>
		<path class="st2" d="M229.1,263h19.5v25.7c0,1.1-0.3,2-1,2.7s-1.6,1-2.7,1h-12.1c-1.1,0-2-0.3-2.7-1s-1-1.6-1-2.7V263z"/>
		<path class="st2" d="M248.6,239.2h42.9v9.6h-0.1v3.6c0,1.1-0.3,2-1,2.7c-0.6,0.6-1.3,0.9-2.3,1H229v-29.6h19.5v12.7H248.6z"/>
		<path class="st2" d="M297.1,211.2c0,0.4,0,0.8-0.1,1.2h0.1v3.6c0,1.1-0.3,2-1,2.7s-1.6,1-2.7,1h-0.1l0,0h-64.2v-13.1
			c0-0.9,0.2-1.7,0.7-2.3c0.1-0.1,0.2-0.3,0.3-0.4c0.7-0.7,1.5-1,2.7-1h64.3L297.1,211.2L297.1,211.2z"/>
	</g>
</g>
</svg>
