<?xml version="1.0" encoding="utf-8"?>
<!-- Generator: Adobe Illustrator 24.0.1, SVG Export Plug-In . SVG Version: 6.00 Build 0)  -->
<svg version="1.1" id="Livello_1" xmlns="http://www.w3.org/2000/svg" xmlns:xlink="http://www.w3.org/1999/xlink" x="0px" y="0px"
	 viewBox="0 0 433.5 500.9" style="enable-background:new 0 0 433.5 500.9;" xml:space="preserve">
<style type="text/css">
	.st0{fill:#B1B1B1;}
	.st1{fill:#243A84;}
</style>
<rect x="-0.9" y="-0.4" class="st0" width="434.4" height="501.8"/>
<g>
	<g>
		<path class="st1" d="M84.7,58.4v14.4h-1.4V58.4H84.7z"/>
	</g>
	<g>
		<path class="st1" d="M95.2,62.7c0.8,0.4,1.5,1.1,1.9,1.9c0.5,0.8,0.7,1.8,0.7,2.9s-0.2,2.1-0.7,2.9s-1.1,1.5-1.9,1.9
			S93.5,73,92.5,73s-2-0.2-2.8-0.7s-1.5-1.1-1.9-1.9c-0.5-0.8-0.7-1.8-0.7-2.9s0.2-2.1,0.7-2.9c0.5-0.8,1.1-1.5,1.9-1.9
			s1.7-0.7,2.8-0.7C93.5,62.1,94.4,62.3,95.2,62.7z M90.5,63.8c-0.6,0.3-1.1,0.8-1.5,1.5c-0.3,0.7-0.6,1.5-0.6,2.4s0.2,1.7,0.6,2.4
			c0.3,0.7,0.8,1.1,1.5,1.4c0.6,0.3,1.2,0.5,2,0.5c0.7,0,1.3-0.2,2-0.5c0.6-0.3,1.1-0.8,1.5-1.4c0.3-0.7,0.6-1.4,0.6-2.4
			S96.4,66,96,65.3c-0.3-0.7-0.8-1.1-1.5-1.5c-0.6-0.3-1.2-0.5-2-0.5C91.8,63.3,91.2,63.5,90.5,63.8z"/>
	</g>
	<g>
		<path class="st1" d="M107.4,62.9c0.7,0.6,1.3,1.3,1.5,2.2v-2.9h1.4v10.9c0,1-0.2,1.9-0.7,2.6c-0.4,0.7-1,1.3-1.7,1.7
			s-1.5,0.7-2.5,0.7c-1.4,0-2.5-0.3-3.4-1s-1.5-1.5-1.7-2.7h1.4c0.2,0.8,0.7,1.4,1.3,1.9c0.7,0.5,1.5,0.7,2.4,0.7
			c0.7,0,1.3-0.2,1.9-0.4c0.6-0.3,1-0.7,1.3-1.3s0.5-1.2,0.5-2V70c-0.3,0.9-0.8,1.6-1.5,2.2s-1.7,0.8-2.8,0.8c-1,0-1.8-0.2-2.6-0.7
			c-0.7-0.4-1.4-1.1-1.8-1.9s-0.7-1.8-0.7-2.9s0.2-2.1,0.7-2.9c0.4-0.8,1-1.5,1.8-1.9c0.7-0.4,1.6-0.7,2.6-0.7
			C105.8,62.1,106.7,62.4,107.4,62.9z M102.1,64.4c-0.7,0.7-1.1,1.8-1.1,3.1s0.3,2.4,1.1,3.1c0.7,0.7,1.7,1.1,2.8,1.1
			c0.7,0,1.5-0.2,2-0.5c0.6-0.3,1.1-0.8,1.4-1.5s0.5-1.4,0.5-2.2s-0.2-1.6-0.5-2.2c-0.3-0.7-0.8-1.1-1.4-1.5c-0.6-0.3-1.3-0.5-2-0.5
			C103.9,63.3,102.9,63.7,102.1,64.4z"/>
	</g>
	<g>
		<path class="st1" d="M120.9,62.7c0.8,0.4,1.5,1.1,1.9,1.9c0.5,0.8,0.7,1.8,0.7,2.9s-0.2,2.1-0.7,2.9s-1.1,1.5-1.9,1.9
			s-1.7,0.7-2.7,0.7s-2-0.2-2.8-0.7c-0.8-0.4-1.5-1.1-1.9-1.9c-0.5-0.8-0.7-1.8-0.7-2.9s0.2-2.1,0.7-2.9c0.5-0.8,1.1-1.5,1.9-1.9
			s1.7-0.7,2.8-0.7C119.2,62.1,120.1,62.3,120.9,62.7z M116.2,63.8c-0.6,0.3-1.1,0.8-1.5,1.5c-0.3,0.7-0.6,1.5-0.6,2.4
			s0.2,1.7,0.6,2.4c0.3,0.7,0.8,1.1,1.5,1.4c0.6,0.3,1.2,0.5,2,0.5c0.7,0,1.3-0.2,2-0.5c0.6-0.3,1.1-0.8,1.5-1.4
			c0.3-0.7,0.6-1.4,0.6-2.4s-0.2-1.7-0.6-2.4c-0.3-0.7-0.8-1.1-1.5-1.5c-0.6-0.3-1.2-0.5-2-0.5C117.4,63.3,116.8,63.5,116.2,63.8z"
			/>
	</g>
	<g>
		<path class="st1" d="M130.7,71.7v1.2h-1.3c-1.1,0-1.8-0.2-2.3-0.7s-0.7-1.3-0.7-2.4v-6.3h-1.6v-1.2h1.6v-2.7h1.4v2.7h2.9v1.2h-2.9
			v6.3c0,0.7,0.2,1.3,0.4,1.5c0.2,0.2,0.7,0.4,1.5,0.4H130.7z"/>
	</g>
	<g>
		<path class="st1" d="M133,58.4c0.2-0.2,0.4-0.2,0.7-0.2s0.6,0.1,0.7,0.2s0.2,0.4,0.2,0.7s-0.1,0.5-0.2,0.7S134,60,133.7,60
			s-0.6-0.1-0.7-0.2c-0.2-0.2-0.2-0.4-0.2-0.7C132.7,58.8,132.8,58.6,133,58.4z M134.4,62.2v10.7H133V62.2H134.4z"/>
	</g>
	<g>
		<path class="st1" d="M145.6,62.7c0.7,0.4,1.3,1.1,1.8,1.9c0.4,0.8,0.7,1.8,0.7,2.9s-0.2,2-0.7,2.9c-0.4,0.8-1,1.5-1.8,1.9
			c-0.7,0.4-1.6,0.7-2.6,0.7c-1.1,0-2-0.2-2.8-0.8c-0.7-0.6-1.3-1.3-1.5-2.2v8h-1.4V62.2h1.4v2.9c0.3-0.9,0.8-1.6,1.5-2.2
			c0.7-0.6,1.7-0.8,2.8-0.8C144,62.1,144.9,62.3,145.6,62.7z M140.6,63.9c-0.6,0.3-1.1,0.8-1.4,1.5s-0.5,1.4-0.5,2.2
			c0,0.8,0.2,1.6,0.5,2.2c0.3,0.7,0.8,1.1,1.4,1.5s1.3,0.5,2,0.5c1.2,0,2.2-0.4,2.8-1.1c0.7-0.7,1.1-1.8,1.1-3.1
			c0-1.3-0.3-2.4-1.1-3.1c-0.7-0.7-1.7-1.1-2.8-1.1C142,63.3,141.2,63.5,140.6,63.9z"/>
	</g>
	<g>
		<path class="st1" d="M158,62.7c0.8,0.4,1.5,1.1,1.9,1.9c0.5,0.8,0.7,1.8,0.7,2.9s-0.2,2.1-0.7,2.9s-1.1,1.5-1.9,1.9
			c-0.8,0.4-1.7,0.7-2.7,0.7s-2-0.2-2.8-0.7c-0.8-0.4-1.5-1.1-1.9-1.9c-0.5-0.8-0.7-1.8-0.7-2.9s0.2-2.1,0.7-2.9
			c0.5-0.8,1.1-1.5,1.9-1.9c0.8-0.4,1.7-0.7,2.8-0.7C156.3,62.1,157.2,62.3,158,62.7z M153.3,63.8c-0.6,0.3-1.1,0.8-1.5,1.5
			c-0.3,0.7-0.6,1.5-0.6,2.4s0.2,1.7,0.6,2.4c0.3,0.7,0.8,1.1,1.5,1.4c0.6,0.3,1.2,0.5,2,0.5c0.7,0,1.3-0.2,2-0.5
			c0.6-0.3,1.1-0.8,1.5-1.4c0.3-0.7,0.6-1.4,0.6-2.4s-0.2-1.7-0.6-2.4c-0.3-0.7-0.8-1.1-1.5-1.5c-0.6-0.3-1.2-0.5-2-0.5
			S153.9,63.5,153.3,63.8z"/>
	</g>
</g>
<g>
	<rect x="81.8" y="47.6" class="st1" width="102.7" height="0.5"/>
</g>
<g>
	<g>
		<path class="st1" d="M91.6,256.2c0.7,0.4,1.3,1.1,1.8,1.9c0.4,0.8,0.7,1.8,0.7,2.9s-0.2,2-0.7,2.9c-0.4,0.8-1,1.5-1.8,1.9
			c-0.7,0.4-1.6,0.7-2.6,0.7c-1.1,0-2-0.2-2.8-0.8c-0.7-0.6-1.3-1.3-1.5-2.2v8h-1.3v-15.7h1.4v2.9c0.3-0.9,0.8-1.6,1.5-2.2
			s1.7-0.8,2.8-0.8C90,255.6,90.8,255.8,91.6,256.2z M86.6,257.4c-0.6,0.3-1.1,0.8-1.4,1.5s-0.5,1.4-0.5,2.2s0.2,1.6,0.5,2.2
			c0.3,0.7,0.8,1.1,1.4,1.5c0.6,0.3,1.3,0.5,2,0.5c1.2,0,2.2-0.4,2.8-1.1c0.7-0.7,1.1-1.8,1.1-3.1s-0.3-2.4-1.1-3.1
			c-0.7-0.7-1.7-1.1-2.8-1.1C87.9,256.8,87.2,257,86.6,257.4z"/>
	</g>
	<g>
		<path class="st1" d="M103.7,256.5c0.7,0.6,1.3,1.3,1.5,2.2v-2.9h1.4v10.7h-1.4v-2.9c-0.3,0.9-0.8,1.6-1.5,2.2s-1.7,0.8-2.8,0.8
			c-1,0-1.8-0.2-2.6-0.7c-0.7-0.4-1.4-1.1-1.8-1.9s-0.7-1.8-0.7-2.9s0.2-2.1,0.7-2.9s1-1.5,1.8-1.9c0.7-0.4,1.6-0.7,2.6-0.7
			C102,255.6,103,255.9,103.7,256.5z M98.4,257.9c-0.7,0.7-1.1,1.8-1.1,3.1c0,1.3,0.3,2.4,1.1,3.1c0.7,0.7,1.7,1.1,2.8,1.1
			c0.7,0,1.5-0.2,2-0.5c0.6-0.3,1.1-0.8,1.4-1.5s0.5-1.4,0.5-2.2s-0.2-1.6-0.5-2.2c-0.3-0.7-0.8-1.1-1.4-1.5c-0.6-0.3-1.3-0.5-2-0.5
			C100.1,256.8,99.1,257.2,98.4,257.9z"/>
	</g>
	<g>
		<path class="st1" d="M109.9,255.7l3.7,8.9l3.4-8.9h1.5l-6.3,15.7h-1.5l2.1-5.1l-4.6-10.6L109.9,255.7L109.9,255.7z"/>
	</g>
	<g>
		<path class="st1" d="M127.8,256.2c0.8,0.4,1.5,1.1,1.9,1.9c0.5,0.8,0.7,1.8,0.7,2.9s-0.2,2.1-0.7,2.9s-1.1,1.5-1.9,1.9
			c-0.8,0.4-1.7,0.7-2.7,0.7s-2-0.2-2.8-0.7c-0.8-0.4-1.5-1.1-1.9-1.9c-0.5-0.8-0.7-1.8-0.7-2.9s0.2-2.1,0.7-2.9s1.1-1.5,1.9-1.9
			s1.7-0.7,2.8-0.7C126.1,255.6,127,255.8,127.8,256.2z M123.1,257.3c-0.6,0.3-1.1,0.8-1.5,1.5c-0.3,0.7-0.6,1.5-0.6,2.4
			s0.2,1.7,0.6,2.4c0.3,0.7,0.8,1.1,1.5,1.4c0.6,0.3,1.2,0.5,2,0.5c0.7,0,1.3-0.2,2-0.5c0.6-0.3,1.1-0.8,1.5-1.4
			c0.3-0.7,0.6-1.4,0.6-2.4s-0.2-1.7-0.6-2.4c-0.3-0.7-0.8-1.1-1.5-1.5c-0.6-0.3-1.2-0.5-2-0.5C124.4,256.8,123.7,257,123.1,257.3z"
			/>
	</g>
	<g>
		<path class="st1" d="M135.2,253.5c-0.4,0.4-0.6,1-0.6,1.9v0.4h2.7v1.2h-2.7v9.4h-1.4V257h-1.5v-1.2h1.5v-0.5c0-1.2,0.3-2.1,1-2.7
			c0.7-0.6,1.7-0.9,3.1-0.8v1.2C136.3,252.9,135.6,253.1,135.2,253.5z"/>
	</g>
	<g>
		<path class="st1" d="M141.7,253.5c-0.4,0.4-0.6,1-0.6,1.9v0.4h2.7v1.2h-2.7v9.4h-1.4V257h-1.5v-1.2h1.5v-0.5c0-1.2,0.3-2.1,1-2.7
			c0.7-0.6,1.7-0.9,3.1-0.8v1.2C142.8,252.9,142.1,253.1,141.7,253.5z"/>
	</g>
</g>
<g>
	<rect x="81.8" y="241.1" class="st1" width="102.7" height="0.5"/>
</g>
<g>
	<g>
		<path class="st1" d="M112.1,352.3c-2.4,1.1-5.2,1.6-8.3,1.6c-2.8,0-5.5-0.5-7.7-1.5c-2.3-1-4.2-2.3-5.8-4
			c-1.6-1.7-2.8-3.7-3.7-5.9c-0.8-2.3-1.3-4.7-1.3-7.3c0-2.5,0.4-4.9,1.3-7.2c0.9-2.3,2.1-4.3,3.7-6s3.5-3.1,5.7-4.2
			s4.7-1.5,7.4-1.5c1.5,0,2.9,0.1,4.2,0.3c1.2,0.2,2.4,0.5,3.5,0.9s2.1,0.9,3.1,1.5s1.9,1.3,2.8,2l-2.6,3.1
			c-0.7-0.7-1.4-1.2-2.2-1.7c-0.7-0.5-1.5-0.9-2.4-1.3c-0.9-0.3-1.9-0.7-2.9-0.8c-1.1-0.2-2.2-0.3-3.5-0.3c-2,0-3.8,0.4-5.5,1.2
			s-3.2,1.9-4.3,3.2c-1.2,1.4-2.2,2.9-2.8,4.7c-0.7,1.8-1.1,3.7-1.1,5.8c0,2.2,0.3,4.2,1,6c0.7,1.9,1.6,3.4,2.8,4.8
			c1.2,1.4,2.8,2.4,4.5,3.2c1.8,0.7,3.7,1.1,5.9,1.1c2,0,4-0.3,5.9-1.1c1.8-0.7,3.3-1.5,4.6-2.6v-9h-10.9v-3.7h15V348
			C116.6,349.9,114.5,351.2,112.1,352.3z"/>
	</g>
	<g>
		<path class="st1" d="M152.3,345.3c-0.7,1.7-1.7,3.2-2.9,4.5s-2.7,2.3-4.5,3c-1.7,0.7-3.6,1.1-5.6,1.1s-3.8-0.4-5.5-1.1
			s-3.2-1.7-4.4-3c-1.2-1.2-2.2-2.8-2.9-4.4c-0.7-1.7-1.1-3.5-1.1-5.4s0.3-3.7,1.1-5.4c0.7-1.7,1.6-3.2,2.9-4.5
			c1.2-1.3,2.7-2.3,4.4-3s3.6-1.1,5.6-1.1s3.8,0.4,5.5,1.1s3.2,1.7,4.4,3c1.2,1.2,2.2,2.8,2.9,4.4c0.7,1.7,1.1,3.5,1.1,5.4
			S153,343.6,152.3,345.3z M148.5,335.8c-0.5-1.3-1.2-2.4-2.1-3.3c-0.9-1-2-1.7-3.2-2.3c-1.2-0.6-2.5-0.8-3.9-0.8
			c-1.5,0-2.8,0.2-4,0.8s-2.2,1.3-3.1,2.2c-0.8,1-1.5,2-2,3.3c-0.5,1.2-0.7,2.6-0.7,4.1s0.2,2.8,0.7,4.1c0.5,1.3,1.2,2.4,2,3.3
			c0.9,0.9,2,1.7,3.1,2.2c1.2,0.6,2.5,0.8,3.9,0.8c1.5,0,2.8-0.2,4-0.8c1.2-0.6,2.3-1.3,3.1-2.2c0.9-0.9,1.5-2,2-3.3
			s0.7-2.6,0.7-4.1C149.3,338.5,149,337.2,148.5,335.8z"/>
	</g>
	<g>
		<path class="st1" d="M166,345.7c0,1.6,0.4,2.8,1.2,3.5s2,1,3.3,1c0.7,0,1.3-0.1,2-0.2c0.6-0.2,1.2-0.4,2-0.7v3.4
			c-0.7,0.4-1.4,0.7-2.2,0.8c-0.8,0.2-1.6,0.2-2.6,0.2c-1.1,0-2-0.2-3-0.4c-0.9-0.2-1.7-0.7-2.4-1.3c-0.7-0.6-1.2-1.4-1.5-2.4
			c-0.4-1-0.6-2.1-0.6-3.5V330h-3.7v-3.5h3.7v-8.1h4v8.1h8.5v3.5H166V345.7L166,345.7z"/>
	</g>
	<g>
		<path class="st1" d="M185.4,353.3h-4v-37.8h4v15.7c0.9-1.5,2-2.7,3.5-3.7s3.3-1.5,5.6-1.5c1.6,0,3.1,0.2,4.3,0.8
			c1.2,0.5,2.4,1.2,3.2,2.2c0.9,1,1.5,2.1,2,3.4s0.7,2.8,0.7,4.3v16.6h-4v-15.6c0-2.5-0.7-4.5-2-5.9c-1.3-1.5-3.1-2.2-5.5-2.2
			c-1.1,0-2.2,0.2-3.2,0.6s-1.9,1-2.5,1.7c-0.7,0.7-1.3,1.6-1.7,2.7s-0.6,2.2-0.6,3.4v15.3H185.4z"/>
	</g>
	<g>
		<path class="st1" d="M218.7,330.2c-1.3,0.3-2.5,0.8-3.8,1.4l-1.2-3.3c1.5-0.7,3-1.2,4.5-1.6s3.3-0.6,5.2-0.6
			c3.7,0,6.4,0.9,8.5,2.7s2.9,4.5,2.9,8.1v16.4H231v-4.1c-0.9,1.2-2.2,2.3-3.7,3.2s-3.6,1.4-5.9,1.4c-1.2,0-2.4-0.2-3.7-0.5
			c-1.2-0.3-2.3-0.9-3.2-1.5c-1-0.7-1.7-1.5-2.3-2.6s-0.8-2.3-0.8-3.7s0.2-2.7,0.8-3.7c0.6-1.1,1.3-2,2.4-2.7
			c1.1-0.7,2.2-1.3,3.7-1.6c1.4-0.4,2.9-0.6,4.6-0.6c1.7,0,3.3,0.1,4.5,0.3c1.3,0.2,2.5,0.5,3.7,0.8v-0.9c0-2.4-0.7-4.2-2.1-5.5
			c-1.4-1.2-3.3-1.9-5.9-1.9C221.5,329.7,220,329.8,218.7,330.2z M217.4,341.2c-1.3,1-2,2.4-2,4.1c0,0.9,0.2,1.6,0.6,2.3
			c0.3,0.7,0.8,1.2,1.5,1.7s1.3,0.8,2.1,1.1c0.8,0.2,1.6,0.3,2.5,0.3c1.2,0,2.4-0.2,3.5-0.6c1.1-0.3,2-0.9,2.8-1.5
			c0.8-0.7,1.5-1.4,1.9-2.3c0.5-0.9,0.7-1.9,0.7-2.9v-2.6c-1-0.2-2.1-0.6-3.4-0.8c-1.3-0.2-2.8-0.3-4.4-0.3
			C220.8,339.8,218.8,340.2,217.4,341.2z"/>
	</g>
	<g>
		<path class="st1" d="M266.2,329.2c0.6-0.7,1.3-1.2,2-1.7s1.6-0.9,2.5-1.1c1-0.2,2-0.4,3.2-0.4c3.1,0,5.5,1,7.3,2.8
			c1.8,2,2.6,4.6,2.6,7.9v16.5h-4v-15.6c0-2.6-0.7-4.6-1.9-5.9c-1.2-1.4-2.9-2.1-5.1-2.1c-1,0-2,0.2-2.8,0.6
			c-0.9,0.3-1.7,0.9-2.4,1.6s-1.2,1.5-1.6,2.6s-0.6,2.2-0.6,3.5v15.5h-3.7v-15.7c0-2.5-0.7-4.5-1.9-5.9c-1.2-1.4-2.9-2.1-5-2.1
			c-1.1,0-2,0.2-2.9,0.7c-0.9,0.4-1.7,1-2.4,1.8c-0.7,0.7-1.2,1.6-1.5,2.7c-0.4,1.1-0.6,2.1-0.6,3.4v15.3h-4v-26.8h4v4.5
			c0.5-0.7,1-1.3,1.5-2c0.6-0.7,1.1-1.1,1.9-1.6c0.7-0.5,1.5-0.8,2.4-1.1c0.9-0.2,1.9-0.4,3-0.4c2.2,0,4,0.5,5.4,1.5
			c1.4,1.1,2.5,2.3,3.2,3.8C265,330.6,265.6,329.8,266.2,329.2z"/>
	</g>
</g>
<g>
	<g>
		<path class="st1" d="M83.9,391.6v-14.1H85v13.1h8.2v1H83.9L83.9,391.6z"/>
	</g>
	<g>
		<path class="st1" d="M96.3,378.7v-1.4h1.2v1.4H96.3z M96.4,391.6v-10.3h1v10.3H96.4z"/>
	</g>
	<g>
		<path class="st1" d="M110.5,392.1c-0.2,0.6-0.6,1.1-1.1,1.5s-1,0.7-1.6,0.9c-0.7,0.2-1.3,0.3-2,0.3c-1.7,0-3.3-0.6-4.7-1.6
			l0.6-0.8c1.2,1,2.6,1.5,4.2,1.5c0.6,0,1.1-0.1,1.6-0.2c0.5-0.2,0.9-0.4,1.3-0.7c0.3-0.3,0.7-0.7,0.8-1.2c0.2-0.5,0.3-1.1,0.3-1.7
			v-1.5c-0.2,0.3-0.5,0.7-0.7,0.9c-0.2,0.2-0.6,0.6-1,0.7c-0.3,0.2-0.7,0.4-1.1,0.5c-0.4,0.2-0.9,0.2-1.4,0.2
			c-0.7,0-1.2-0.1-1.8-0.3c-0.6-0.2-1.1-0.6-1.5-1s-0.8-0.9-1.1-1.5c-0.2-0.6-0.4-1.2-0.4-2l0,0c0-0.7,0.2-1.4,0.4-2
			c0.2-0.6,0.7-1.1,1.1-1.5c0.5-0.4,1-0.7,1.5-1c0.6-0.2,1.2-0.3,1.8-0.3c0.5,0,1,0.1,1.4,0.2c0.4,0.2,0.8,0.3,1.1,0.5
			c0.3,0.2,0.7,0.5,1,0.7c0.2,0.2,0.6,0.6,0.7,0.9v-2h1v8.7C110.9,390.8,110.8,391.5,110.5,392.1z M110,386c0-0.6-0.1-1.1-0.3-1.6
			s-0.6-0.9-1-1.2c-0.4-0.3-0.8-0.6-1.4-0.8c-0.5-0.2-1.1-0.2-1.5-0.2c-0.6,0-1.1,0.1-1.5,0.2c-0.5,0.2-0.9,0.4-1.3,0.8
			c-0.3,0.3-0.7,0.7-0.9,1.2c-0.2,0.5-0.3,1-0.3,1.6l0,0c0,0.6,0.1,1.1,0.3,1.6c0.2,0.5,0.5,0.9,0.9,1.2c0.3,0.3,0.8,0.6,1.3,0.8
			c0.5,0.2,1,0.3,1.5,0.3c0.6,0,1.1-0.1,1.5-0.2c0.5-0.2,1-0.5,1.4-0.8s0.7-0.7,1-1.2C109.8,387.1,110,386.6,110,386L110,386z"/>
	</g>
	<g>
		<path class="st1" d="M122.5,391.6v-6.1c0-1.1-0.2-1.9-0.8-2.5c-0.6-0.7-1.4-1-2.4-1c-0.5,0-1,0.1-1.4,0.2s-0.8,0.4-1.1,0.7
			s-0.6,0.7-0.7,1.1c-0.2,0.5-0.2,1-0.2,1.5v5.9h-1v-14.7h1v6.3c0.3-0.6,0.8-1.1,1.4-1.5s1.4-0.7,2.3-0.7c0.7,0,1.2,0.1,1.7,0.3
			s1,0.5,1.3,0.9s0.7,0.8,0.8,1.3c0.2,0.5,0.2,1.1,0.2,1.7v6.3L122.5,391.6L122.5,391.6z"/>
	</g>
	<g>
		<path class="st1" d="M131.4,391.7c-0.2,0.1-0.6,0.1-0.9,0.1c-0.4,0-0.8-0.1-1.1-0.2s-0.7-0.2-0.9-0.5c-0.2-0.2-0.5-0.6-0.7-0.9
			s-0.2-0.8-0.2-1.2v-6.7h-1.5v-0.9h1.5v-3.3h1v3.3h3.7v0.9h-3.6v6.6c0,0.7,0.2,1.2,0.6,1.5s0.9,0.4,1.5,0.4c0.2,0,0.5,0,0.7-0.1
			s0.5-0.2,0.8-0.2v0.9C131.9,391.6,131.7,391.7,131.4,391.7z"/>
	</g>
	<g>
		<path class="st1" d="M91.6,396.4c0.6,0.2,1.1,0.4,1.5,0.7c0.4,0.3,0.7,0.7,0.9,1.1c0.2,0.4,0.3,0.9,0.3,1.5c0,0.5-0.1,0.9-0.2,1.2
			c-0.2,0.3-0.3,0.7-0.5,0.9c-0.2,0.2-0.5,0.5-0.7,0.7s-0.6,0.3-0.8,0.5c0.4,0.1,0.8,0.2,1.1,0.5c0.4,0.2,0.7,0.4,1,0.7
			c0.3,0.3,0.5,0.6,0.7,1s0.2,0.8,0.2,1.3c0,0.6-0.1,1.1-0.3,1.6c-0.2,0.5-0.6,0.9-1.1,1.2c-0.5,0.3-1,0.6-1.6,0.7
			c-0.7,0.2-1.3,0.2-2.1,0.2h-6.2v-14.1h5.9C90.5,396.2,91.1,396.3,91.6,396.4z M91.9,401.8c0.6-0.4,0.9-1.1,0.9-1.9
			c0-0.7-0.2-1.3-0.8-1.7c-0.6-0.4-1.3-0.7-2.3-0.7h-4.3v4.9h4.2C90.5,402.4,91.2,402.2,91.9,401.8z M92.6,408.1
			c0.7-0.4,0.9-1.1,0.9-1.9s-0.3-1.4-1-1.8s-1.5-0.7-2.8-0.7h-4.4v5H90C91.2,408.8,92,408.5,92.6,408.1z"/>
	</g>
	<g>
		<path class="st1" d="M107.9,407.1c-0.2,0.7-0.7,1.2-1.1,1.7c-0.5,0.5-1.1,0.9-1.7,1.1c-0.7,0.3-1.4,0.4-2.2,0.4
			c-0.8,0-1.5-0.2-2.1-0.4c-0.7-0.3-1.2-0.7-1.7-1.1c-0.5-0.5-0.9-1.1-1.1-1.7c-0.2-0.7-0.4-1.4-0.4-2.1s0.2-1.5,0.4-2.1
			c0.2-0.7,0.7-1.2,1.1-1.7c0.5-0.5,1.1-0.9,1.7-1.1c0.7-0.3,1.4-0.4,2.2-0.4c0.8,0,1.5,0.2,2.2,0.4c0.7,0.3,1.2,0.7,1.7,1.1
			c0.5,0.5,0.9,1.1,1.1,1.7s0.4,1.4,0.4,2.1S108.2,406.4,107.9,407.1z M106.5,403.4c-0.2-0.5-0.5-0.9-0.8-1.3s-0.7-0.7-1.2-0.9
			c-0.5-0.2-1-0.3-1.5-0.3c-0.6,0-1.1,0.1-1.5,0.3c-0.5,0.2-0.9,0.5-1.2,0.9s-0.6,0.8-0.8,1.3c-0.2,0.5-0.2,1-0.2,1.5
			c0,0.6,0.1,1.1,0.3,1.5c0.2,0.5,0.5,0.9,0.8,1.3c0.3,0.3,0.7,0.7,1.2,0.9c0.5,0.2,1,0.3,1.5,0.3s1.1-0.1,1.5-0.3s0.9-0.5,1.2-0.8
			c0.3-0.3,0.6-0.8,0.8-1.3c0.2-0.5,0.2-1,0.2-1.5S106.7,404,106.5,403.4z"/>
	</g>
	<g>
		<path class="st1" d="M121,407.1c-0.2,0.7-0.7,1.2-1.1,1.7c-0.5,0.5-1.1,0.9-1.7,1.1c-0.7,0.3-1.4,0.4-2.2,0.4
			c-0.8,0-1.5-0.2-2.1-0.4c-0.7-0.3-1.2-0.7-1.7-1.1c-0.5-0.5-0.9-1.1-1.1-1.7c-0.2-0.7-0.4-1.4-0.4-2.1s0.2-1.5,0.4-2.1
			c0.2-0.7,0.7-1.2,1.1-1.7c0.5-0.5,1.1-0.9,1.7-1.1c0.7-0.3,1.4-0.4,2.2-0.4s1.5,0.2,2.2,0.4c0.7,0.3,1.2,0.7,1.7,1.1
			c0.5,0.5,0.9,1.1,1.1,1.7c0.2,0.7,0.4,1.4,0.4,2.1S121.3,406.4,121,407.1z M119.6,403.4c-0.2-0.5-0.5-0.9-0.8-1.3
			s-0.7-0.7-1.2-0.9c-0.5-0.2-1-0.3-1.5-0.3c-0.6,0-1.1,0.1-1.5,0.3c-0.5,0.2-0.9,0.5-1.2,0.9c-0.3,0.4-0.6,0.8-0.8,1.3
			c-0.2,0.5-0.2,1-0.2,1.5c0,0.6,0.1,1.1,0.3,1.5c0.2,0.5,0.5,0.9,0.8,1.3c0.3,0.3,0.7,0.7,1.2,0.9c0.5,0.2,1,0.3,1.5,0.3
			c0.6,0,1.1-0.1,1.5-0.3c0.5-0.2,0.9-0.5,1.2-0.8c0.3-0.3,0.6-0.8,0.8-1.3c0.2-0.5,0.2-1,0.2-1.5S119.7,404,119.6,403.4z"/>
	</g>
	<g>
		<path class="st1" d="M133.6,410.2h-1.9l-3.7-4.9l-2.1,2.1v2.7h-1.5v-14.7h1.5v10.1l5.6-5.9h2l-4.4,4.5L133.6,410.2z"/>
	</g>
	<g>
		<path class="st1" d="M90.6,425.3L90.6,425.3l-4.5-6.6v10h-2.4v-14.1h2.6l4.3,6.7l4.3-6.7h2.6v14.1h-2.4v-10.1L90.6,425.3z"/>
	</g>
	<g>
		<path class="st1" d="M103.8,426.4c0.6,0.5,1.2,0.7,2,0.7c0.6,0,1.1-0.1,1.5-0.3c0.4-0.2,0.9-0.5,1.3-1l1.5,1.3
			c-0.5,0.6-1.1,1.1-1.8,1.5c-0.7,0.3-1.5,0.6-2.5,0.6c-0.7,0-1.5-0.2-2.1-0.4c-0.7-0.2-1.2-0.7-1.7-1.1s-0.9-1.1-1.1-1.7
			s-0.4-1.5-0.4-2.3c0-0.7,0.2-1.5,0.4-2.1c0.2-0.7,0.7-1.2,1.1-1.8c0.5-0.5,1-0.9,1.6-1.2c0.7-0.3,1.3-0.4,2.1-0.4
			c0.8,0,1.5,0.2,2.2,0.5s1.1,0.7,1.6,1.2c0.4,0.5,0.7,1.1,1,1.8c0.2,0.7,0.3,1.5,0.3,2.2c0,0.1,0,0.2,0,0.3s0,0.2,0,0.3H103
			C102.9,425.2,103.2,425.9,103.8,426.4z M108.2,422.7c0-0.4-0.2-0.7-0.2-1.1c-0.2-0.3-0.3-0.7-0.6-0.9s-0.5-0.4-0.8-0.6
			s-0.7-0.2-1.1-0.2c-0.7,0-1.4,0.2-1.9,0.8c-0.5,0.5-0.8,1.2-0.9,2L108.2,422.7L108.2,422.7z"/>
	</g>
	<g>
		<path class="st1" d="M121.1,428.8V427c-0.4,0.6-0.9,1.1-1.5,1.4c-0.6,0.4-1.3,0.6-2.1,0.6c-0.7,0-1.2-0.1-1.8-0.3
			c-0.6-0.2-1.1-0.6-1.5-1.1c-0.5-0.5-0.8-1.1-1.1-1.7c-0.2-0.7-0.4-1.5-0.4-2.4s0.2-1.6,0.4-2.4c0.2-0.7,0.7-1.3,1.1-1.7
			c0.5-0.5,1-0.8,1.5-1.1c0.6-0.2,1.2-0.3,1.9-0.3c0.9,0,1.6,0.2,2.2,0.6s1.1,0.8,1.5,1.3v-5.7h2.4v14.7L121.1,428.8L121.1,428.8z
			 M120.9,422.1c-0.2-0.4-0.4-0.8-0.7-1.1c-0.2-0.3-0.6-0.6-1-0.7s-0.7-0.2-1.1-0.2s-0.8,0.1-1.1,0.2c-0.4,0.2-0.7,0.4-1,0.7
			c-0.2,0.3-0.5,0.7-0.7,1.1s-0.2,0.9-0.2,1.5c0,0.5,0.1,1,0.2,1.4c0.2,0.4,0.4,0.8,0.7,1.1c0.2,0.3,0.6,0.5,1,0.7s0.7,0.2,1.1,0.2
			s0.8-0.1,1.1-0.2c0.4-0.2,0.7-0.4,1-0.7s0.5-0.7,0.7-1.1s0.2-0.9,0.2-1.4C121.2,423,121.1,422.5,120.9,422.1z"/>
	</g>
	<g>
		<path class="st1" d="M126.7,416.5v-2.3h2.6v2.3H126.7z M126.8,428.8v-10.6h2.4v10.6H126.8z"/>
	</g>
	<g>
		<path class="st1" d="M139.5,418.2h2.4v10.6h-2.4v-1.6c-0.3,0.5-0.8,1-1.3,1.3c-0.5,0.4-1.2,0.6-2,0.6c-1.2,0-2.1-0.4-2.8-1.1
			s-1-1.7-1-3v-6.8h2.4v6c0,0.8,0.2,1.5,0.6,2c0.4,0.4,1,0.7,1.6,0.7c0.7,0,1.3-0.2,1.7-0.7s0.7-1.1,0.7-2L139.5,418.2L139.5,418.2z
			"/>
	</g>
	<g>
		<path class="st1" d="M155.5,418.5c0.6-0.3,1.3-0.5,2.1-0.5c1.1,0,2.1,0.3,2.8,1.1c0.7,0.7,1,1.7,1,3v6.8H159v-6
			c0-0.8-0.2-1.5-0.6-2c-0.4-0.4-0.9-0.7-1.5-0.7c-0.7,0-1.2,0.2-1.6,0.7c-0.4,0.4-0.7,1.1-0.7,2v5.9H152v-6c0-0.8-0.2-1.5-0.6-1.9
			c-0.4-0.4-0.9-0.7-1.5-0.7c-0.7,0-1.2,0.2-1.6,0.7s-0.7,1.1-0.7,2v5.9h-2.4v-10.6h2.4v1.6c0.2-0.2,0.3-0.5,0.6-0.7
			c0.2-0.2,0.4-0.4,0.7-0.6c0.2-0.2,0.6-0.3,0.9-0.4c0.3-0.1,0.7-0.2,1.1-0.2c0.7,0,1.4,0.2,2,0.5c0.5,0.3,0.9,0.8,1.2,1.4
			C154.4,419.3,154.9,418.8,155.5,418.5z"/>
	</g>
	<g>
		<path class="st1" d="M95.1,445.2c-0.2,0.5-0.6,0.9-1.1,1.2s-1,0.6-1.6,0.7c-0.7,0.2-1.4,0.2-2.1,0.2h-6.8v-14.1H90
			c1.5,0,2.6,0.3,3.4,1s1.2,1.5,1.2,2.7l0,0c0,0.4-0.1,0.7-0.2,1.1c-0.1,0.3-0.2,0.6-0.4,0.8c-0.2,0.2-0.3,0.5-0.6,0.7
			c-0.2,0.2-0.5,0.3-0.7,0.5c0.8,0.3,1.5,0.7,2,1.2c0.5,0.6,0.7,1.3,0.7,2.2l0,0C95.5,444.1,95.3,444.7,95.1,445.2z M91.6,437.4
			c0-0.5-0.2-0.8-0.5-1.1s-0.8-0.4-1.5-0.4h-3.1v3h2.8c0.7,0,1.2-0.1,1.6-0.3C91.4,438.3,91.6,438,91.6,437.4L91.6,437.4z
			 M92.4,443.1c0-0.5-0.2-0.8-0.6-1.1c-0.3-0.2-1-0.4-1.7-0.4h-3.6v3.1h3.7c0.7,0,1.2-0.2,1.6-0.4C92.2,444,92.4,443.6,92.4,443.1
			L92.4,443.1z"/>
	</g>
	<g>
		<path class="st1" d="M108.5,444.2c-0.3,0.7-0.7,1.3-1.2,1.8s-1.1,0.9-1.9,1.2c-0.7,0.3-1.5,0.4-2.4,0.4c-0.8,0-1.6-0.2-2.3-0.4
			c-0.7-0.3-1.3-0.7-1.9-1.2c-0.5-0.5-0.9-1.1-1.2-1.8c-0.3-0.7-0.4-1.4-0.4-2.2l0,0c0-0.8,0.2-1.5,0.4-2.2c0.3-0.7,0.7-1.3,1.2-1.8
			s1.1-0.9,1.9-1.2c0.7-0.3,1.5-0.4,2.4-0.4c0.8,0,1.6,0.2,2.3,0.4c0.7,0.3,1.3,0.7,1.9,1.2c0.5,0.5,0.9,1.1,1.2,1.8
			c0.3,0.7,0.4,1.4,0.4,2.2l0,0C108.9,442.7,108.8,443.5,108.5,444.2z M105.9,442c0-0.4-0.1-0.8-0.2-1.1c-0.2-0.3-0.3-0.7-0.6-1
			c-0.2-0.2-0.6-0.5-0.9-0.7s-0.7-0.2-1.1-0.2s-0.8,0.1-1.1,0.2c-0.3,0.2-0.7,0.3-0.9,0.7c-0.2,0.2-0.4,0.6-0.6,0.9
			s-0.2,0.7-0.2,1.1l0,0c0,0.4,0.1,0.8,0.2,1.1c0.2,0.3,0.3,0.7,0.6,1c0.2,0.2,0.6,0.5,0.9,0.7s0.7,0.2,1.1,0.2s0.8-0.1,1.1-0.2
			c0.3-0.2,0.7-0.3,0.9-0.7c0.2-0.2,0.4-0.6,0.6-0.9S105.9,442.4,105.9,442L105.9,442z"/>
	</g>
	<g>
		<path class="st1" d="M111.4,447.4v-14.7h3.1v14.7H111.4z"/>
	</g>
	<g>
		<path class="st1" d="M125.2,447.4v-1.5c-0.4,0.5-0.8,0.9-1.4,1.2c-0.6,0.3-1.2,0.5-2,0.5c-0.7,0-1.2-0.1-1.8-0.3
			c-0.6-0.2-1.1-0.6-1.5-1.1c-0.5-0.5-0.8-1.1-1.1-1.7c-0.2-0.7-0.4-1.5-0.4-2.4l0,0c0-0.9,0.2-1.7,0.4-2.4c0.2-0.7,0.7-1.3,1.1-1.7
			c0.5-0.5,1-0.8,1.5-1.1c0.6-0.2,1.2-0.3,1.9-0.3c0.8,0,1.5,0.2,2,0.5c0.6,0.3,1,0.7,1.3,1.1V433h3.1v14.7h-3.1
			C125.2,447.7,125.2,447.4,125.2,447.4z M125.3,441.9c0-0.4-0.1-0.8-0.2-1.2s-0.3-0.7-0.6-1c-0.2-0.2-0.5-0.5-0.8-0.6
			c-0.3-0.2-0.7-0.2-1-0.2s-0.7,0.1-1,0.2c-0.3,0.2-0.6,0.3-0.8,0.6c-0.2,0.2-0.4,0.6-0.6,1c-0.2,0.3-0.2,0.8-0.2,1.2l0,0
			c0,0.4,0.1,0.8,0.2,1.2c0.2,0.4,0.3,0.7,0.6,1c0.2,0.2,0.5,0.5,0.8,0.6c0.3,0.2,0.7,0.2,1,0.2s0.7-0.1,1-0.2
			c0.3-0.2,0.6-0.3,0.8-0.6c0.2-0.2,0.4-0.6,0.6-1C125.2,442.8,125.3,442.4,125.3,441.9L125.3,441.9z"/>
	</g>
</g>
<g>
	<g>
		<path class="st1" d="M88.3,157.1c-0.2,0.2-0.6,0.3-1,0.3h-4.2c-0.4,0-0.7-0.1-1-0.3c-0.2-0.2-0.3-0.6-0.3-1v-29.2
			c0-0.4,0.1-0.7,0.3-1c0.2-0.2,0.6-0.3,1-0.3H96c2.3,0,4.2,0.5,6,1.4c1.7,0.9,3.1,2.2,4.1,3.9s1.5,3.6,1.5,5.8
			c0,2.3-0.6,4.3-1.7,6.1s-2.8,3.1-4.7,4l1.2,1.5c0.6,0.7,1.3,1.6,2.2,2.8c0.9,1.2,2.1,2.8,3.5,4.6c0.2,0.2,0.3,0.6,0.3,0.8
			s-0.1,0.4-0.2,0.6c-0.2,0.2-0.5,0.2-0.8,0.2h-5.2c-0.7,0-1.2-0.2-1.6-0.7c-2.2-2.8-4.6-5.9-7-9.2h-4.7v8.6
			C88.6,156.6,88.5,156.8,88.3,157.1z M96,141.6c1.3,0,2.4-0.4,3.3-1.3c0.9-0.9,1.4-2,1.4-3.6c0-1.4-0.4-2.6-1.1-3.6s-2-1.5-3.6-1.5
			h-7.3v9.9C88.5,141.6,96,141.6,96,141.6z"/>
	</g>
	<g>
		<path class="st1" d="M120.3,138.7h13.9c0.4,0,0.7,0.1,1,0.3s0.3,0.6,0.3,1v3.4c0,0.4-0.1,0.7-0.3,1s-0.6,0.3-1,0.3h-13.9v6.8h16
			c0.4,0,0.7,0.1,1,0.3c0.2,0.2,0.3,0.6,0.3,1v3.3c0,0.4-0.1,0.7-0.3,1s-0.6,0.3-1,0.3h-21.5c-0.4,0-0.7-0.1-1-0.3s-0.3-0.6-0.3-1
			v-29.2c0-0.4,0.1-0.7,0.3-1s0.6-0.3,1-0.3h21.5c0.4,0,0.7,0.1,1,0.3c0.2,0.2,0.3,0.6,0.3,1v3.3c0,0.4-0.1,0.7-0.3,1
			s-0.6,0.3-1,0.3h-16L120.3,138.7L120.3,138.7z"/>
	</g>
	<g>
		<path class="st1" d="M150.7,156.2c0,0.4-0.1,0.7-0.3,1c-0.2,0.2-0.6,0.3-1,0.3h-4.2c-0.4,0-0.7-0.1-1-0.3c-0.2-0.2-0.3-0.6-0.3-1
			v-29.7c0-0.2,0.1-0.4,0.2-0.6c0.1-0.2,0.2-0.2,0.5-0.2s0.7,0.2,1,0.4l20.4,18v-17c0-0.4,0.1-0.7,0.3-1c0.2-0.2,0.6-0.3,1-0.3h4.2
			c0.4,0,0.7,0.1,1,0.3c0.2,0.2,0.3,0.6,0.3,1v29.3c0,0.3-0.1,0.7-0.2,0.8c-0.2,0.2-0.3,0.3-0.6,0.3c-0.2,0-0.5-0.1-0.7-0.3
			l-20.4-17.9v16.9H150.7z"/>
	</g>
	<g>
		<path class="st1" d="M186.9,155.9c-2.6-1.5-4.7-3.5-6.3-6c-1.5-2.5-2.3-5.3-2.3-8.3c0-2.9,0.7-5.7,2.3-8.2c1.5-2.5,3.6-4.6,6.3-6
			c2.6-1.5,5.5-2.2,8.5-2.2c3.1,0,5.9,0.7,8.6,2.2c2.6,1.5,4.7,3.5,6.3,6c1.5,2.6,2.3,5.4,2.3,8.3s-0.7,5.7-2.3,8.3
			c-1.5,2.5-3.7,4.6-6.3,6c-2.6,1.5-5.5,2.2-8.6,2.2C192.3,158.1,189.5,157.3,186.9,155.9z M190.3,132.7c-1.5,0.9-2.8,2.2-3.7,3.7
			c-0.9,1.6-1.4,3.3-1.4,5c0,1.8,0.5,3.5,1.4,5s2.2,2.8,3.7,3.8s3.3,1.5,5.1,1.5s3.5-0.5,5.1-1.5s2.8-2.2,3.7-3.8
			c0.9-1.5,1.4-3.3,1.4-5c0-1.8-0.5-3.5-1.4-5s-2.1-2.8-3.7-3.7c-1.6-0.9-3.3-1.4-5.2-1.4S191.9,131.8,190.3,132.7z"/>
	</g>
	<g>
		<path class="st1" d="M231.3,140.1c0.2-0.2,0.6-0.3,1-0.3H249c0.8,0,1.3,0.4,1.3,1.3c0,0.3,0.1,0.7,0.1,1.2l-0.1,1.8
			c-0.2,2.6-1.1,5-2.7,7.2s-3.5,3.7-6,5c-2.5,1.2-5.2,1.8-8,1.8c-3.1,0-5.9-0.7-8.5-2.2s-4.7-3.5-6.3-6s-2.3-5.3-2.3-8.3
			s0.7-5.7,2.3-8.2c1.5-2.5,3.7-4.6,6.3-6c2.6-1.4,5.5-2.2,8.5-2.2c2.7,0,5.2,0.6,7.6,1.7c2.4,1.1,4.4,2.8,6,4.8
			c0.2,0.3,0.3,0.6,0.3,0.8c0,0.4-0.2,0.7-0.7,1l-3.7,2.1c-0.3,0.2-0.6,0.2-0.7,0.2c-0.4,0-0.7-0.2-1.1-0.6
			c-1.1-1.2-2.2-2.1-3.6-2.8c-1.3-0.7-2.7-1.1-4.2-1.1c-1.8,0-3.5,0.5-5.1,1.4c-1.5,0.9-2.8,2.2-3.8,3.7c-0.9,1.6-1.4,3.3-1.4,5
			c0,1.8,0.5,3.5,1.4,5s2.2,2.8,3.7,3.7c1.5,1,3.3,1.5,5.1,1.5c1.3,0,2.7-0.2,4-0.8s2.4-1.3,3.4-2.2s1.6-2,2-3h-10.6
			c-0.4,0-0.7-0.1-1-0.3c-0.2-0.2-0.3-0.6-0.3-1v-3.4C230.9,140.6,231.1,140.3,231.3,140.1z"/>
	</g>
	<g>
		<path class="st1" d="M251.7,157.2c-0.2-0.2-0.3-0.4-0.3-0.7c0-0.2,0.1-0.4,0.2-0.7l15.7-29.6c0.2-0.5,0.6-0.7,0.9-0.7
			c0.4,0,0.7,0.2,0.9,0.7l15.7,29.6c0.2,0.3,0.2,0.5,0.2,0.7s-0.1,0.5-0.3,0.7c-0.2,0.2-0.5,0.2-0.8,0.2h-4.7c-0.7,0-1.1-0.3-1.5-1
			l-2-3.9h-14.8l-2,3.9c-0.3,0.7-0.8,1-1.5,1h-4.8C252.2,157.5,251.8,157.4,251.7,157.2z M272.3,146.7l-4.1-8.3l-4.1,8.3H272.3z"/>
	</g>
	<g>
		<path class="st1" d="M294,157.1c-0.2,0.2-0.6,0.3-1,0.3h-4.2c-0.4,0-0.7-0.1-1-0.3c-0.2-0.2-0.3-0.6-0.3-1v-29.2
			c0-0.4,0.1-0.7,0.3-1c0.2-0.2,0.6-0.3,1-0.3h12.9c2.3,0,4.2,0.5,6,1.4c1.7,0.9,3.1,2.2,4.1,3.9s1.5,3.6,1.5,5.8
			c0,2.3-0.6,4.3-1.7,6.1s-2.8,3.1-4.7,4l1.2,1.5c0.6,0.7,1.3,1.6,2.2,2.8c0.9,1.2,2.1,2.8,3.5,4.6c0.2,0.2,0.3,0.6,0.3,0.8
			s-0.1,0.4-0.2,0.6c-0.2,0.2-0.5,0.2-0.8,0.2h-5.2c-0.7,0-1.2-0.2-1.6-0.7c-2.2-2.8-4.6-5.9-7-9.2h-4.7v8.6
			C294.3,156.6,294.3,156.8,294,157.1z M301.7,141.6c1.3,0,2.4-0.4,3.3-1.3c0.9-0.9,1.4-2,1.4-3.6c0-1.4-0.4-2.6-1.1-3.6
			s-2-1.5-3.6-1.5h-7.3v9.9C294.3,141.6,301.7,141.6,301.7,141.6z"/>
	</g>
	<g>
		<path class="st1" d="M326.1,138.7H340c0.4,0,0.7,0.1,1,0.3c0.2,0.2,0.3,0.6,0.3,1v3.4c0,0.4-0.1,0.7-0.3,1s-0.6,0.3-1,0.3h-13.9
			v6.8h16c0.4,0,0.7,0.1,1,0.3c0.2,0.2,0.3,0.6,0.3,1v3.3c0,0.4-0.1,0.7-0.3,1s-0.6,0.3-1,0.3h-21.5c-0.4,0-0.7-0.1-1-0.3
			c-0.2-0.2-0.3-0.6-0.3-1v-29.2c0-0.4,0.1-0.7,0.3-1s0.6-0.3,1-0.3H342c0.4,0,0.7,0.1,1,0.3c0.2,0.2,0.3,0.6,0.3,1v3.3
			c0,0.4-0.1,0.7-0.3,1s-0.6,0.3-1,0.3h-16v7.2H326.1z"/>
	</g>
</g>
<g>
	<g>
		<path class="st1" d="M80.7,172.4c1-2,2.2-3.5,3.7-4.7h1.3v0.2c-1.7,1.4-3,3-3.8,5c-0.8,1.9-1.3,4-1.3,6.3c0,2.4,0.4,4.5,1.3,6.3
			c0.8,1.9,2.1,3.6,3.8,5v0.2h-1.3c-1.5-1.2-2.8-2.8-3.7-4.7c-1-2-1.4-4.2-1.4-6.7C79.3,176.6,79.8,174.3,80.7,172.4z"/>
	</g>
	<g>
		<path class="st1" d="M95.5,176.8c0.7,0.4,1.3,1.1,1.8,1.9c0.4,0.8,0.7,1.8,0.7,2.9c0,1.1-0.2,2-0.7,2.9c-0.4,0.8-1,1.5-1.8,1.9
			c-0.7,0.4-1.6,0.7-2.6,0.7c-1.1,0-2-0.2-2.8-0.8c-0.7-0.6-1.3-1.3-1.5-2.2v8h-1.4v-15.7h1.4v2.9c0.3-0.9,0.8-1.6,1.5-2.2
			c0.7-0.6,1.7-0.8,2.8-0.8C93.8,176.1,94.7,176.4,95.5,176.8z M90.5,177.9c-0.6,0.3-1.1,0.8-1.4,1.5s-0.5,1.4-0.5,2.2
			s0.2,1.6,0.5,2.2c0.3,0.7,0.8,1.1,1.4,1.5c0.6,0.3,1.3,0.5,2,0.5c1.2,0,2.2-0.4,2.8-1.1c0.7-0.7,1.1-1.8,1.1-3.1s-0.3-2.4-1.1-3.1
			c-0.7-0.7-1.7-1.1-2.8-1.1C91.7,177.4,91.1,177.5,90.5,177.9z"/>
	</g>
	<g>
		<path class="st1" d="M107.4,185.2c0.7-0.5,1.1-1.1,1.1-2h1.5c-0.2,1.1-0.7,2-1.6,2.8c-0.9,0.7-2,1.1-3.3,1.1c-1,0-2-0.2-2.7-0.7
			c-0.8-0.4-1.4-1.1-1.9-1.9c-0.4-0.8-0.7-1.8-0.7-2.9c0-1.1,0.2-2.1,0.7-2.9c0.4-0.8,1.1-1.5,1.9-1.9s1.7-0.7,2.7-0.7
			c1.1,0,2,0.2,2.7,0.7s1.3,1.1,1.7,1.7c0.4,0.7,0.6,1.5,0.6,2.4c0,0.3,0,0.7-0.1,1h-8.7c0,0.9,0.2,1.6,0.6,2.3
			c0.3,0.6,0.8,1.1,1.4,1.3c0.6,0.3,1.2,0.4,1.9,0.4C105.9,186,106.7,185.7,107.4,185.2z M103.1,177.7c-0.6,0.3-1.1,0.7-1.4,1.3
			s-0.6,1.3-0.6,2.2h7.5c0.1-0.9-0.1-1.6-0.4-2.2c-0.3-0.6-0.8-1.1-1.4-1.3c-0.6-0.3-1.2-0.4-1.9-0.4
			C104.3,177.3,103.7,177.4,103.1,177.7z"/>
	</g>
	<g>
		<path class="st1" d="M115.4,176.7c0.7-0.4,1.5-0.7,2.5-0.7v1.5h-0.5c-1.1,0-1.9,0.2-2.5,0.8s-1,1.5-1,2.7v5.9h-1.4v-10.7h1.4v2.2
			C114.2,177.8,114.7,177.1,115.4,176.7z"/>
	</g>
	<g>
		<path class="st1" d="M125.8,177.1c0.7,0.7,1.1,1.5,1.3,2.4h-1.3c-0.1-0.7-0.3-1.2-0.8-1.7s-1.1-0.7-2-0.7c-0.7,0-1.2,0.2-1.6,0.5
			s-0.6,0.8-0.6,1.4c0,0.4,0.2,0.8,0.4,1.1c0.2,0.2,0.6,0.5,1,0.6c0.4,0.2,0.9,0.2,1.5,0.4c0.8,0.2,1.4,0.4,1.9,0.6s0.9,0.5,1.2,0.9
			c0.3,0.4,0.5,1,0.5,1.6c0,0.8-0.3,1.5-1,2.1s-1.5,0.8-2.5,0.8c-1.2,0-2.2-0.3-3-0.9c-0.8-0.6-1.2-1.5-1.4-2.5h1.3
			c0.1,0.7,0.4,1.3,0.9,1.7c0.6,0.4,1.2,0.7,2.2,0.7c0.7,0,1.2-0.2,1.5-0.5c0.4-0.3,0.6-0.8,0.6-1.4c0-0.5-0.2-0.8-0.4-1.1
			s-0.6-0.5-1-0.7s-0.9-0.2-1.5-0.4c-0.7-0.2-1.4-0.3-1.9-0.6c-0.5-0.2-0.9-0.5-1.1-0.8c-0.3-0.4-0.5-0.9-0.5-1.5
			c0-0.9,0.3-1.5,1-2.1s1.5-0.8,2.6-0.8C124.1,176.1,125,176.5,125.8,177.1z"/>
	</g>
	<g>
		<path class="st1" d="M137.1,176.8c0.8,0.4,1.5,1.1,1.9,1.9c0.5,0.8,0.7,1.8,0.7,2.9c0,1.1-0.2,2.1-0.7,2.9
			c-0.5,0.8-1.1,1.5-1.9,1.9s-1.7,0.7-2.7,0.7s-2-0.2-2.8-0.7c-0.8-0.4-1.5-1.1-1.9-1.9c-0.5-0.8-0.7-1.8-0.7-2.9
			c0-1.1,0.2-2.1,0.7-2.9s1.1-1.5,1.9-1.9c0.8-0.4,1.7-0.7,2.8-0.7C135.4,176.1,136.3,176.4,137.1,176.8z M132.5,177.8
			c-0.6,0.3-1.1,0.8-1.5,1.5c-0.3,0.7-0.6,1.5-0.6,2.4c0,1,0.2,1.7,0.6,2.4c0.3,0.7,0.8,1.1,1.5,1.4c0.6,0.3,1.2,0.5,2,0.5
			c0.7,0,1.3-0.2,2-0.5c0.6-0.3,1.1-0.8,1.5-1.4c0.3-0.7,0.6-1.4,0.6-2.4s-0.2-1.7-0.6-2.4c-0.3-0.7-0.8-1.1-1.5-1.5
			c-0.6-0.3-1.2-0.5-2-0.5S133.1,177.5,132.5,177.8z"/>
	</g>
	<g>
		<path class="st1" d="M150.5,177.3c0.8,0.8,1.1,2,1.1,3.5v6.2h-1.4v-6.1c0-1.1-0.3-2-0.9-2.7c-0.6-0.7-1.4-0.9-2.4-0.9
			c-1.1,0-2,0.3-2.5,1.1c-0.7,0.7-1,1.7-1,3v5.6H142v-10.7h1.4v2.6c0.2-0.9,0.7-1.6,1.5-2.1c0.7-0.5,1.5-0.7,2.4-0.7
			C148.8,176.1,149.8,176.5,150.5,177.3z"/>
	</g>
	<g>
		<path class="st1" d="M161.8,177c0.7,0.6,1.3,1.3,1.5,2.2v-2.9h1.4V187h-1.4v-3c-0.3,0.9-0.8,1.6-1.5,2.2c-0.7,0.6-1.7,0.8-2.8,0.8
			c-1,0-1.8-0.2-2.6-0.7c-0.7-0.4-1.4-1.1-1.8-1.9c-0.4-0.8-0.7-1.8-0.7-2.9c0-1.1,0.2-2.1,0.7-2.9c0.4-0.8,1-1.5,1.8-1.9
			c0.7-0.4,1.6-0.7,2.6-0.7C160.1,176.1,161.1,176.5,161.8,177z M156.5,178.5c-0.7,0.7-1.1,1.8-1.1,3.1s0.3,2.4,1.1,3.1
			c0.7,0.7,1.7,1.1,2.8,1.1c0.7,0,1.5-0.2,2-0.5s1.1-0.8,1.4-1.5c0.3-0.7,0.5-1.4,0.5-2.2s-0.2-1.6-0.5-2.2
			c-0.3-0.7-0.8-1.1-1.4-1.5s-1.3-0.5-2-0.5C158.2,177.4,157.3,177.8,156.5,178.5z"/>
	</g>
	<g>
		<path class="st1" d="M169.1,172.5V187h-1.4v-14.4h1.4V172.5z"/>
	</g>
	<g>
		<path class="st1" d="M172,172.5c0.2-0.2,0.4-0.2,0.7-0.2s0.6,0.1,0.7,0.2c0.2,0.2,0.2,0.4,0.2,0.7s-0.1,0.5-0.2,0.7
			s-0.4,0.2-0.7,0.2s-0.6-0.1-0.7-0.2c-0.2-0.2-0.2-0.4-0.2-0.7S171.8,172.6,172,172.5z M173.5,176.3V187h-1.4v-10.7H173.5z"/>
	</g>
	<g>
		<path class="st1" d="M177,185.8h5.9v1.1h-7.4v-1.1l5.6-8.4h-5.5v-1.1h7.1v1.1L177,185.8z"/>
	</g>
	<g>
		<path class="st1" d="M185.4,185.8h5.9v1.1H184v-1.1l5.6-8.4H184v-1.1h7.1v1.1L185.4,185.8z"/>
	</g>
	<g>
		<path class="st1" d="M200.6,177c0.7,0.6,1.3,1.3,1.5,2.2v-2.9h1.4V187h-1.4v-3c-0.3,0.9-0.8,1.6-1.5,2.2s-1.7,0.8-2.8,0.8
			c-1,0-1.8-0.2-2.6-0.7c-0.7-0.4-1.4-1.1-1.8-1.9c-0.4-0.8-0.7-1.8-0.7-2.9c0-1.1,0.2-2.1,0.7-2.9c0.4-0.8,1-1.5,1.8-1.9
			c0.7-0.4,1.6-0.7,2.6-0.7C198.9,176.1,199.8,176.5,200.6,177z M195.4,178.5c-0.7,0.7-1.1,1.8-1.1,3.1s0.3,2.4,1.1,3.1
			c0.7,0.7,1.7,1.1,2.8,1.1c0.7,0,1.5-0.2,2-0.5s1.1-0.8,1.4-1.5c0.3-0.7,0.5-1.4,0.5-2.2s-0.2-1.6-0.5-2.2
			c-0.3-0.7-0.8-1.1-1.4-1.5s-1.3-0.5-2-0.5C197,177.4,196.1,177.8,195.4,178.5z"/>
	</g>
	<g>
		<path class="st1" d="M211.3,185.7v1.2H210c-1.1,0-1.8-0.2-2.3-0.7s-0.7-1.3-0.7-2.4v-6.3h-1.6v-1.2h1.6v-2.7h1.4v2.7h2.9v1.2h-2.9
			v6.3c0,0.7,0.2,1.3,0.4,1.5s0.7,0.4,1.5,0.4H211.3z"/>
	</g>
	<g>
		<path class="st1" d="M221.2,176.8c0.8,0.4,1.5,1.1,1.9,1.9c0.5,0.8,0.7,1.8,0.7,2.9c0,1.1-0.2,2.1-0.7,2.9
			c-0.5,0.8-1.1,1.5-1.9,1.9c-0.8,0.4-1.7,0.7-2.7,0.7s-2-0.2-2.8-0.7c-0.8-0.4-1.5-1.1-1.9-1.9c-0.5-0.8-0.7-1.8-0.7-2.9
			c0-1.1,0.2-2.1,0.7-2.9s1.1-1.5,1.9-1.9c0.8-0.4,1.7-0.7,2.8-0.7C219.4,176.1,220.3,176.4,221.2,176.8z M216.4,177.8
			c-0.6,0.3-1.1,0.8-1.5,1.5c-0.3,0.7-0.6,1.5-0.6,2.4c0,1,0.2,1.7,0.6,2.4c0.3,0.7,0.8,1.1,1.5,1.4c0.6,0.3,1.2,0.5,2,0.5
			c0.7,0,1.3-0.2,2-0.5c0.6-0.3,1.1-0.8,1.5-1.4c0.3-0.7,0.6-1.4,0.6-2.4s-0.2-1.7-0.6-2.4c-0.3-0.7-0.8-1.1-1.5-1.5
			c-0.6-0.3-1.2-0.5-2-0.5C217.7,177.4,217.1,177.5,216.4,177.8z"/>
	</g>
	<g>
		<path class="st1" d="M229.6,185.8c-1,2-2.2,3.5-3.7,4.7h-1.4v-0.2c1.7-1.4,3-3,3.8-5c0.8-1.9,1.3-4,1.3-6.3c0-2.4-0.4-4.5-1.3-6.3
			c-0.8-1.9-2.1-3.6-3.8-5v-0.2h1.4c1.5,1.2,2.8,2.8,3.7,4.7c1,2,1.4,4.2,1.4,6.7C231.1,181.6,230.6,183.9,229.6,185.8z"/>
	</g>
</g>
</svg>
