<?xml version="1.0" encoding="utf-8"?>
<!-- Generator: Adobe Illustrator 24.0.1, SVG Export Plug-In . SVG Version: 6.00 Build 0)  -->
<svg version="1.1" id="Livello_1" xmlns="http://www.w3.org/2000/svg" xmlns:xlink="http://www.w3.org/1999/xlink" x="0px" y="0px"
	 viewBox="0 0 890.8 500.9" style="enable-background:new 0 0 890.8 500.9;" xml:space="preserve">
<style type="text/css">
	.st0{fill:#1A203B;}
	.st1{fill:#243A84;}
</style>
<rect class="st0" width="890.8" height="500.9"/>
<g>
	<rect x="139.2" y="288.5" class="st1" width="1.3" height="11.9"/>
	<path class="st1" d="M159.9,292.3c0.1,0.2,0.3,0.4,0.5,0.6c0.2,0.2,0.6,0.4,1,0.5c0.4,0.2,1,0.3,1.6,0.4c1.3,0.3,2.3,0.7,2.9,1.2
		c0.6,0.5,0.9,1.2,0.9,2.2c0,0.5-0.1,1-0.3,1.4c-0.2,0.4-0.5,0.8-0.8,1.1c-0.4,0.3-0.8,0.5-1.3,0.7c-0.5,0.2-1,0.2-1.6,0.2
		c-1,0-1.8-0.2-2.6-0.5c-0.8-0.3-1.5-0.8-2.3-1.4l0.8-1c0.6,0.6,1.3,1,1.9,1.3c0.6,0.3,1.4,0.4,2.2,0.4c0.8,0,1.5-0.2,1.9-0.6
		c0.5-0.4,0.7-0.9,0.7-1.5c0-0.3,0-0.5-0.1-0.8c-0.1-0.2-0.2-0.4-0.5-0.6c-0.2-0.2-0.5-0.3-1-0.5c-0.4-0.1-0.9-0.3-1.5-0.4
		c-0.7-0.1-1.3-0.3-1.8-0.5c-0.5-0.2-0.9-0.4-1.3-0.7c-0.3-0.3-0.6-0.6-0.7-1c-0.2-0.4-0.2-0.8-0.2-1.3c0-0.5,0.1-0.9,0.3-1.3
		c0.2-0.4,0.5-0.7,0.8-1c0.4-0.3,0.8-0.5,1.2-0.7c0.5-0.2,1-0.2,1.6-0.2c0.9,0,1.6,0.1,2.3,0.4c0.7,0.2,1.3,0.6,1.9,1.1l-0.8,1
		c-0.6-0.5-1.1-0.8-1.7-1s-1.2-0.3-1.8-0.3c-0.4,0-0.7,0.1-1,0.2c-0.3,0.1-0.6,0.2-0.8,0.4c-0.2,0.2-0.4,0.4-0.5,0.6
		c-0.1,0.2-0.2,0.5-0.2,0.8C159.8,291.8,159.8,292,159.9,292.3"/>
	<polygon class="st1" points="188.6,300.5 187.2,300.5 187.2,289.8 183.2,289.8 183.2,288.5 192.6,288.5 192.6,289.8 188.6,289.8 	
		"/>
	<rect x="209.9" y="288.5" class="st1" width="1.3" height="11.9"/>
	<polygon class="st1" points="234,300.5 232.6,300.5 232.6,289.8 228.6,289.8 228.6,288.5 238,288.5 238,289.8 234,289.8 	"/>
	<path class="st1" d="M265,295.4c0,0.9-0.1,1.6-0.4,2.3c-0.2,0.7-0.6,1.2-1,1.7c-0.4,0.4-1,0.8-1.6,1c-0.6,0.2-1.3,0.3-2,0.3
		c-0.7,0-1.4-0.1-2-0.3c-0.6-0.2-1.1-0.6-1.6-1c-0.4-0.4-0.8-1-1-1.6c-0.2-0.6-0.4-1.4-0.4-2.2v-6.9h1.3v6.9c0,1.3,0.3,2.3,1,3
		c0.6,0.7,1.5,1,2.7,1c1.1,0,2-0.3,2.6-1c0.6-0.7,1-1.6,1-3v-6.9h1.3V295.4z"/>
	<polygon class="st1" points="287.4,300.5 286,300.5 286,289.8 282,289.8 282,288.5 291.4,288.5 291.4,289.8 287.4,289.8 	"/>
	<path class="st1" d="M319,296.8c-0.3,0.7-0.7,1.4-1.2,2c-0.5,0.6-1.2,1-1.9,1.4c-0.8,0.3-1.6,0.5-2.5,0.5c-0.9,0-1.7-0.2-2.5-0.5
		c-0.7-0.3-1.4-0.8-1.9-1.3s-0.9-1.2-1.2-2c-0.3-0.7-0.4-1.5-0.4-2.4c0-0.8,0.1-1.6,0.4-2.4c0.3-0.7,0.7-1.4,1.2-2
		c0.5-0.6,1.2-1,1.9-1.4c0.7-0.3,1.6-0.5,2.5-0.5c0.9,0,1.7,0.2,2.5,0.5c0.7,0.3,1.4,0.8,1.9,1.3c0.5,0.6,0.9,1.2,1.2,2
		c0.3,0.7,0.4,1.5,0.4,2.4C319.4,295.3,319.3,296.1,319,296.8 M317.7,292.6c-0.2-0.6-0.6-1.1-1-1.6c-0.4-0.4-0.9-0.8-1.5-1.1
		c-0.6-0.3-1.2-0.4-1.9-0.4c-0.7,0-1.3,0.1-1.9,0.4c-0.6,0.3-1.1,0.6-1.5,1c-0.4,0.4-0.7,1-1,1.6c-0.2,0.6-0.3,1.2-0.3,1.9
		c0,0.7,0.1,1.3,0.3,1.9c0.2,0.6,0.6,1.1,1,1.6c0.4,0.4,0.9,0.8,1.5,1.1c0.6,0.3,1.2,0.4,1.9,0.4c0.7,0,1.3-0.1,1.9-0.4
		c0.6-0.3,1.1-0.6,1.5-1c0.4-0.4,0.7-1,1-1.6c0.2-0.6,0.3-1.2,0.3-1.9C318,293.8,317.9,293.2,317.7,292.6"/>
	<path class="st1" d="M366.8,296.8c-0.3,0.7-0.7,1.4-1.3,1.9c-0.6,0.5-1.2,1-2,1.3c-0.8,0.3-1.6,0.5-2.6,0.5h-4.1v-11.9h4.1
		c0.9,0,1.8,0.2,2.6,0.5c0.8,0.3,1.4,0.7,2,1.3c0.6,0.5,1,1.2,1.3,1.9c0.3,0.7,0.5,1.5,0.5,2.4C367.3,295.3,367.1,296.1,366.8,296.8
		 M365.5,292.6c-0.2-0.6-0.6-1.1-1-1.5c-0.4-0.4-1-0.8-1.6-1c-0.6-0.2-1.3-0.4-2-0.4h-2.8v9.5h2.8c0.8,0,1.4-0.1,2-0.4
		c0.6-0.2,1.1-0.6,1.6-1c0.4-0.4,0.8-0.9,1-1.5c0.2-0.6,0.3-1.2,0.3-1.9C365.9,293.8,365.7,293.2,365.5,292.6"/>
	<rect x="384.9" y="288.5" class="st1" width="1.3" height="11.9"/>
	<polygon class="st1" points="432.8,289.8 425.6,289.8 425.6,294 432.1,294 432.1,295.3 425.6,295.3 425.6,300.5 424.3,300.5 
		424.3,288.5 432.8,288.5 	"/>
	<path class="st1" d="M461.1,296.8c-0.3,0.7-0.7,1.4-1.2,2c-0.5,0.6-1.2,1-1.9,1.4c-0.8,0.3-1.6,0.5-2.5,0.5c-0.9,0-1.7-0.2-2.5-0.5
		c-0.7-0.3-1.4-0.8-1.9-1.3c-0.5-0.6-0.9-1.2-1.2-2c-0.3-0.7-0.4-1.5-0.4-2.4c0-0.8,0.1-1.6,0.4-2.4c0.3-0.7,0.7-1.4,1.2-2
		c0.5-0.6,1.2-1,1.9-1.4c0.8-0.3,1.6-0.5,2.5-0.5c0.9,0,1.7,0.2,2.5,0.5c0.7,0.3,1.4,0.8,1.9,1.3c0.5,0.6,0.9,1.2,1.2,2
		c0.3,0.7,0.4,1.5,0.4,2.4C461.5,295.3,461.4,296.1,461.1,296.8 M459.8,292.6c-0.2-0.6-0.6-1.1-1-1.6c-0.4-0.4-0.9-0.8-1.5-1.1
		c-0.6-0.3-1.2-0.4-1.9-0.4c-0.7,0-1.3,0.1-1.9,0.4c-0.6,0.3-1.1,0.6-1.5,1c-0.4,0.4-0.7,1-1,1.6c-0.2,0.6-0.3,1.2-0.3,1.9
		c0,0.7,0.1,1.3,0.3,1.9c0.2,0.6,0.6,1.1,1,1.6c0.4,0.4,0.9,0.8,1.5,1.1c0.6,0.3,1.2,0.4,1.9,0.4c0.7,0,1.3-0.1,1.9-0.4
		c0.6-0.3,1.1-0.6,1.5-1c0.4-0.4,0.7-1,1-1.6c0.2-0.6,0.3-1.2,0.3-1.9C460.1,293.8,460,293.2,459.8,292.6"/>
	<path class="st1" d="M487.3,300.5l-3.5-4.6h-3.4v4.6h-1.4v-11.9h5.1c0.7,0,1.3,0.1,1.8,0.3c0.5,0.2,1,0.4,1.4,0.7
		c0.4,0.3,0.7,0.7,0.9,1.1c0.2,0.4,0.3,0.9,0.3,1.5c0,0.5-0.1,0.9-0.2,1.3c-0.2,0.4-0.4,0.7-0.7,1c-0.3,0.3-0.6,0.5-1,0.7
		c-0.4,0.2-0.8,0.3-1.3,0.4l3.7,4.9H487.3z M486.4,290.4c-0.5-0.4-1.3-0.6-2.3-0.6h-3.7v4.9h3.7c0.4,0,0.9-0.1,1.2-0.2
		c0.4-0.1,0.7-0.3,1-0.5c0.3-0.2,0.5-0.5,0.6-0.8c0.1-0.3,0.2-0.7,0.2-1C487.2,291.4,486.9,290.8,486.4,290.4"/>
	<polygon class="st1" points="511.8,297.2 511.8,297.2 507.4,290.8 507.4,300.5 506.1,300.5 506.1,288.5 507.5,288.5 511.8,295 
		516.2,288.5 517.5,288.5 517.5,300.5 516.2,300.5 516.2,290.8 	"/>
	<path class="st1" d="M546.7,300.5h-1.4l-1.4-3.2h-6.5l-1.4,3.2h-1.4l5.4-12h1.3L546.7,300.5z M540.6,290l-2.7,6.1h5.4L540.6,290z"
		/>
	<polygon class="st1" points="563.5,289.7 563.5,288.5 572.8,288.5 572.8,289.4 565,299.3 572.8,299.3 572.8,300.5 563.2,300.5 
		563.2,299.6 570.9,289.7 	"/>
	<rect x="590.4" y="288.5" class="st1" width="1.3" height="11.9"/>
	<path class="st1" d="M621.1,296.8c-0.3,0.7-0.7,1.4-1.2,2c-0.5,0.6-1.2,1-1.9,1.4c-0.7,0.3-1.6,0.5-2.5,0.5s-1.7-0.2-2.5-0.5
		c-0.7-0.3-1.4-0.8-1.9-1.3s-0.9-1.2-1.2-2c-0.3-0.7-0.4-1.5-0.4-2.4c0-0.8,0.1-1.6,0.4-2.4c0.3-0.7,0.7-1.4,1.2-2
		c0.5-0.6,1.2-1,1.9-1.4c0.8-0.3,1.6-0.5,2.5-0.5c0.9,0,1.7,0.2,2.5,0.5c0.7,0.3,1.4,0.8,1.9,1.3c0.5,0.6,0.9,1.2,1.2,2
		c0.3,0.7,0.4,1.5,0.4,2.4C621.6,295.3,621.4,296.1,621.1,296.8 M619.8,292.6c-0.2-0.6-0.6-1.1-1-1.6c-0.4-0.4-0.9-0.8-1.5-1.1
		c-0.6-0.3-1.2-0.4-1.9-0.4s-1.3,0.1-1.9,0.4c-0.6,0.3-1.1,0.6-1.5,1c-0.4,0.4-0.7,1-1,1.6c-0.2,0.6-0.3,1.2-0.3,1.9
		c0,0.7,0.1,1.3,0.3,1.9c0.2,0.6,0.6,1.1,1,1.6c0.4,0.4,0.9,0.8,1.5,1.1c0.6,0.3,1.2,0.4,1.9,0.4c0.7,0,1.3-0.1,1.9-0.4
		c0.6-0.3,1.1-0.6,1.5-1c0.4-0.4,0.7-1,1-1.6c0.2-0.6,0.3-1.2,0.3-1.9C620.2,293.8,620,293.2,619.8,292.6"/>
	<polygon class="st1" points="647.9,288.5 649.2,288.5 649.2,300.5 648.1,300.5 640.4,290.7 640.4,300.5 639.1,300.5 639.1,288.5 
		640.4,288.5 647.9,298.1 	"/>
	<polygon class="st1" points="675.9,289.7 668.6,289.7 668.6,293.8 675.1,293.8 675.1,295.1 668.6,295.1 668.6,299.2 676,299.2 
		676,300.5 667.3,300.5 667.3,288.5 675.9,288.5 	"/>
	<path class="st1" d="M720.2,288.4v8.1h1.9v1.1h-1.9v2.8h-1.3v-2.8h-6.3l-0.3-1l6.8-8.2H720.2z M718.9,290.3l-5,6.2h5V290.3z"/>
	<rect x="731.8" y="298.7" class="st1" width="1.6" height="1.8"/>
	<path class="st1" d="M752.6,296.9c-0.2,0.8-0.6,1.4-1,2c-0.4,0.6-1,1-1.6,1.3c-0.6,0.3-1.3,0.5-2.1,0.5c-0.8,0-1.5-0.2-2.1-0.5
		c-0.6-0.3-1.2-0.8-1.6-1.3c-0.4-0.6-0.8-1.2-1-2c-0.2-0.7-0.4-1.5-0.4-2.4c0-0.8,0.1-1.6,0.4-2.4c0.2-0.8,0.6-1.4,1-2
		c0.4-0.6,1-1,1.6-1.3c0.6-0.3,1.3-0.5,2.1-0.5c0.8,0,1.5,0.2,2.1,0.5c0.6,0.3,1.1,0.8,1.6,1.3c0.4,0.6,0.8,1.2,1,2
		c0.2,0.7,0.3,1.5,0.3,2.4C753,295.3,752.9,296.1,752.6,296.9 M751.3,292.6c-0.2-0.6-0.4-1.1-0.7-1.6c-0.3-0.5-0.7-0.8-1.2-1.1
		c-0.4-0.3-1-0.4-1.5-0.4c-0.6,0-1.1,0.1-1.5,0.4c-0.5,0.3-0.8,0.6-1.1,1.1c-0.3,0.5-0.6,1-0.7,1.6c-0.2,0.6-0.3,1.2-0.3,1.9
		s0.1,1.3,0.3,1.9c0.2,0.6,0.4,1.1,0.7,1.6c0.3,0.5,0.7,0.8,1.2,1.1c0.5,0.3,1,0.4,1.5,0.4c0.6,0,1.1-0.1,1.5-0.4
		c0.4-0.3,0.8-0.6,1.1-1.1c0.3-0.4,0.6-1,0.7-1.6c0.2-0.6,0.2-1.2,0.2-1.9C751.6,293.8,751.5,293.2,751.3,292.6"/>
	<path class="st1" d="M414.7,242.5c-2.3-3.2-5.2-5.3-8.5-6.5c2.7-1.1,4.9-3,6.6-5.6c1.7-2.6,2.5-5.6,2.5-8.8c0-13.3-7.8-20-23.5-20
		h-8.7v13.5h9.1c2,0,3.8,0.7,5.2,2.1c1.4,1.4,2.2,3.1,2.2,5c0,2.3-0.6,4.2-1.9,5.7c-1.3,1.5-3.1,2.3-5.6,2.3h-9v13.6h9.6
		c3.1,0,5.5,0.8,7.3,2.3c1.8,1.5,2.7,3.5,2.7,5.9c0,2.4-0.9,4.3-2.6,5.9c-1.7,1.5-4.1,2.3-7,2.3h-9.9v13.5h9.9
		c7.8,0,13.9-1.7,18.4-5.1c4.5-3.4,6.8-8.7,6.8-15.8C418.2,249.1,417.1,245.7,414.7,242.5 M362.6,202.4c-0.5,0.5-0.8,1.3-0.8,2.2
		v66.2c0,0.9,0.3,1.6,0.8,2.2c0.5,0.5,1.2,0.8,2.2,0.8h12.7v-72.1h-12.7C363.9,201.6,363.1,201.9,362.6,202.4"/>
	<path class="st1" d="M500.1,218.9c-3.6-5.8-8.3-10.3-14.2-13.7c-5.2-2.9-10.7-4.5-16.7-4.9v14.3c3.1,0.4,6.1,1.4,9,3
		c3.6,2.2,6.4,5,8.4,8.6c2.1,3.6,3.1,7.4,3.1,11.4c0,4.1-1,8-3.1,11.4c-2.1,3.6-5,6.5-8.6,8.7c-2.8,1.7-5.8,2.7-8.9,3.1V275
		c6-0.4,11.6-2,16.8-4.9c6-3.4,10.7-7.9,14.2-13.7c3.5-5.8,5.2-12,5.2-18.7C505.3,231,503.5,224.7,500.1,218.9 M432.8,219
		c-3.4,5.8-5.2,12-5.2,18.6c0,6.7,1.7,12.9,5.2,18.7c3.5,5.8,8.3,10.4,14.2,13.7c5.1,2.9,10.6,4.5,16.5,4.9v-14.2
		c-3.1-0.4-6.1-1.4-8.8-3.1c-3.5-2.2-6.4-5-8.5-8.6c-2.1-3.6-3.2-7.4-3.2-11.5c0-4,1.1-7.8,3.2-11.4c2.2-3.6,5-6.5,8.6-8.6
		c2.7-1.6,5.6-2.6,8.7-3v-14.3c-5.9,0.4-11.5,2-16.6,4.9C440.9,208.6,436.2,213.2,432.8,219"/>
	<path class="st1" d="M566,214.3c-0.5,0.5-1.3,0.8-2.2,0.8h-17.9v55.6c0,0.9-0.3,1.6-0.8,2.2c-0.5,0.5-1.2,0.8-2.2,0.8h-9.8
		c-0.9,0-1.6-0.3-2.2-0.8c-0.5-0.5-0.8-1.2-0.8-2.2v-55.6h-18c-0.9,0-1.6-0.3-2.2-0.8c-0.5-0.5-0.8-1.2-0.8-2.2v-7.6
		c0-0.9,0.3-1.6,0.8-2.2c0.5-0.5,1.3-0.8,2.2-0.8h51.7c0.9,0,1.6,0.3,2.2,0.8c0.5,0.5,0.8,1.2,0.8,2.2v7.6
		C566.8,213.1,566.5,213.8,566,214.3"/>
	<path class="st1" d="M592.9,272.9c-0.5,0.5-1.3,0.8-2.2,0.8h-9.7c-0.9,0-1.6-0.3-2.2-0.8c-0.5-0.5-0.8-1.2-0.8-2.2v-66.2
		c0-0.9,0.3-1.6,0.8-2.2c0.5-0.5,1.3-0.8,2.2-0.8h9.7c0.9,0,1.6,0.3,2.2,0.8c0.5,0.5,0.8,1.2,0.8,2.2v66.2
		C593.7,271.7,593.4,272.4,592.9,272.9"/>
	<path class="st1" d="M626,202.4c-0.5-0.5-1.2-0.8-2.2-0.8h-9.7c-0.9,0-1.6,0.3-2.2,0.8c-0.5,0.5-0.8,1.3-0.8,2.2v66.2
		c0,0.9,0.3,1.6,0.8,2.2c0.5,0.5,1.2,0.8,2.2,0.8h9.7c0.9,0,1.6-0.3,2.2-0.8c0.5-0.5,0.8-1.2,0.8-2.2v-66.2
		C626.8,203.7,626.6,202.9,626,202.4 M671.4,270.1l-28.3-37.9l26.1-26.9c0.7-0.7,1-1.3,1-2c0-0.5-0.2-0.9-0.6-1.2
		c-0.4-0.3-1-0.4-1.8-0.4h-12.1c-1.4,0-2.7,0.5-3.6,1.6l-19.6,21V243l21.2,28.9c0.8,1.2,2,1.8,3.6,1.8h12.3c0.9,0,1.5-0.2,1.9-0.5
		c0.4-0.3,0.6-0.8,0.6-1.3C672.1,271.3,671.9,270.7,671.4,270.1"/>
	<path class="st1" d="M677.2,273.2c-0.5-0.4-0.7-0.8-0.7-1.4c0-0.4,0.2-0.9,0.5-1.6l35.6-66.9c0.6-1.1,1.3-1.6,2.1-1.6
		c0.9,0,1.6,0.5,2.1,1.6l35.6,66.9c0.3,0.7,0.5,1.2,0.5,1.6c0,0.6-0.2,1.1-0.7,1.4c-0.5,0.4-1.1,0.5-1.9,0.5h-10.7
		c-1.5,0-2.7-0.7-3.5-2.2l-4.6-8.9h-33.6l-4.4,8.9c-0.7,1.4-1.8,2.2-3.5,2.2h-10.8C678.3,273.7,677.7,273.5,677.2,273.2
		 M723.9,249.4l-9.3-18.8l-9.2,18.8H723.9z"/>
	<path class="st1" d="M272.1,218.9c-3.5-5.8-8.3-10.3-14.2-13.7c-5.1-2.9-10.7-4.5-16.6-4.9v14.3c3.1,0.4,6,1.4,8.8,3
		c3.5,2.2,6.4,5,8.4,8.6c2.1,3.6,3.1,7.4,3.1,11.4c0,4.1-1,8-3.1,11.4c-2.1,3.6-5,6.5-8.6,8.7c-2.8,1.7-5.7,2.7-8.7,3.1V275
		c5.9-0.4,11.5-2,16.6-4.9c6-3.4,10.7-7.9,14.2-13.7c3.5-5.8,5.2-12,5.2-18.7C277.3,231,275.6,224.7,272.1,218.9 M204.8,219
		c-3.4,5.8-5.2,12-5.2,18.6c0,6.7,1.7,12.9,5.2,18.7c3.5,5.8,8.3,10.4,14.2,13.7c5.1,2.9,10.7,4.6,16.6,4.9v-14.2
		c-3.2-0.4-6.2-1.4-8.9-3.1c-3.5-2.2-6.4-5-8.5-8.6c-2.1-3.6-3.2-7.4-3.2-11.5c0-4,1.1-7.8,3.2-11.4c2.2-3.6,5-6.5,8.6-8.6
		c2.8-1.6,5.7-2.6,8.8-3v-14.3c-6,0.4-11.6,2-16.7,4.9C213,208.6,208.3,213.2,204.8,219"/>
	<path class="st1" d="M349.2,270.1c-3.2-4.3-5.9-7.8-8-10.5c-2.1-2.7-3.8-4.9-5-6.5l-2.8-3.6c4.5-1.9,8.1-4.9,10.7-9
		c2.6-4.1,3.9-8.7,3.9-13.9c0-4.9-1.1-9.2-3.3-13c-2.2-3.8-5.2-6.8-9.2-8.9c-3.9-2.1-8.5-3.2-13.6-3.2h-11v13.5h11
		c3.7,0,6.4,1.1,8,3.4c1.7,2.2,2.5,5,2.5,8.2c0,3.4-1,6-3.1,8c-2.1,2-4.6,3-7.4,3h-11v13.5h5.1c5.6,7.5,10.9,14.4,15.9,20.8
		c0.9,1.1,2.1,1.7,3.6,1.7h11.8c0.8,0,1.4-0.2,1.8-0.5c0.4-0.3,0.6-0.8,0.6-1.3C350,271.3,349.7,270.6,349.2,270.1 M290.8,202.4
		c-0.5,0.5-0.8,1.3-0.8,2.2v66.2c0,0.9,0.3,1.6,0.8,2.2c0.5,0.5,1.2,0.8,2.2,0.8h9.6c0.9,0,1.6-0.3,2.2-0.8c0.5-0.5,0.7-1.1,0.8-1.8
		v-69.4H293C292.1,201.6,291.4,201.9,290.8,202.4"/>
	<path class="st1" d="M137.3,250.1H153v20.7c0,0.9-0.3,1.6-0.8,2.2c-0.5,0.5-1.2,0.8-2.2,0.8h-9.8c-0.9,0-1.6-0.3-2.2-0.8
		c-0.5-0.5-0.8-1.3-0.8-2.2V250.1z"/>
	<path class="st1" d="M153,231h34.5v7.7h0v2.9c0,0.9-0.3,1.6-0.8,2.2c-0.5,0.5-1.1,0.7-1.8,0.8h-47.5v-23.8H153V231z"/>
	<path class="st1" d="M192,212.2c0,0.9-0.3,1.6-0.8,2.2c-0.5,0.5-1.2,0.8-2.2,0.8h0v0h-51.6v-10.5c0-0.7,0.2-1.4,0.5-1.9
		c0.1-0.1,0.2-0.2,0.3-0.3c0.5-0.5,1.2-0.8,2.2-0.8H192V212.2z"/>
</g>
</svg>
