<?xml version="1.0" encoding="utf-8"?>
<!-- Generator: Adobe Illustrator 24.0.1, SVG Export Plug-In . SVG Version: 6.00 Build 0)  -->
<svg version="1.1" id="Livello_1" xmlns="http://www.w3.org/2000/svg" xmlns:xlink="http://www.w3.org/1999/xlink" x="0px" y="0px"
	 viewBox="0 0 433.5 500.9" style="enable-background:new 0 0 433.5 500.9;" xml:space="preserve">
<style type="text/css">
	.st0{fill:#FFFFFF;}
	.st1{fill:#243A84;}
	.st2{fill:#1A203B;}
	.st3{fill:#B1B1B1;}
	.st4{opacity:0.8;}
	.st5{fill:#091C3D;}
	.st6{opacity:0.7;}
	.st7{opacity:0.5;}
</style>
<rect y="0.4" class="st0" width="433.5" height="500.9"/>
<g>
	<rect y="167.3" class="st1" width="239.3" height="167.2"/>
</g>
<g>
	<rect y="0.4" class="st2" width="239.3" height="167.2"/>
</g>
<g>
	<rect y="334.2" class="st3" width="239.3" height="167.2"/>
</g>
<g class="st4">
	<rect x="239.3" y="167.3" class="st1" width="64.8" height="167.2"/>
</g>
<g class="st4">
	<rect x="239.3" y="0.4" class="st5" width="64.8" height="167.2"/>
</g>
<g class="st4">
	<rect x="239.3" y="334.2" class="st3" width="64.8" height="167.2"/>
</g>
<g class="st6">
	<rect x="304" y="167.3" class="st1" width="64.8" height="167.2"/>
</g>
<g class="st6">
	<rect x="304" y="0.4" class="st5" width="64.8" height="167.2"/>
</g>
<g class="st6">
	<rect x="304" y="334.2" class="st3" width="64.8" height="167.2"/>
</g>
<g class="st7">
	<rect x="368.7" y="167.3" class="st1" width="64.8" height="167.2"/>
</g>
<g class="st7">
	<rect x="368.7" y="0.4" class="st5" width="64.8" height="167.2"/>
</g>
<g class="st7">
	<rect x="368.7" y="334.2" class="st3" width="64.8" height="167.2"/>
</g>
<g>
	<g>
		<path class="st0" d="M45.1,51.6c-0.4,0.8-1,1.4-1.9,1.8c-0.8,0.4-1.8,0.6-3,0.6h-3.1V43.6h3.1c1.7,0,3.1,0.5,4,1.4
			c0.9,0.9,1.4,2.2,1.4,3.8C45.7,49.9,45.5,50.8,45.1,51.6z M43.5,52c0.8-0.7,1.1-1.8,1.1-3.1s-0.4-2.4-1.1-3.1
			c-0.8-0.7-1.9-1.1-3.3-1.1h-2v8.5h2C41.6,53.1,42.7,52.7,43.5,52z"/>
	</g>
	<g>
		<path class="st0" d="M52.9,52.7c0.5-0.4,0.8-0.9,0.9-1.5H55c-0.1,0.9-0.6,1.5-1.2,2.1c-0.7,0.5-1.5,0.8-2.5,0.8
			c-0.8,0-1.4-0.2-2-0.5c-0.6-0.3-1.1-0.8-1.4-1.4c-0.3-0.6-0.5-1.4-0.5-2.2c0-0.8,0.2-1.6,0.5-2.2c0.3-0.6,0.8-1.1,1.4-1.4
			c0.6-0.3,1.3-0.5,2-0.5c0.8,0,1.5,0.2,2,0.5c0.6,0.3,1,0.8,1.3,1.3c0.3,0.5,0.4,1.1,0.4,1.8c0,0.3,0,0.5-0.1,0.7h-6.6
			c0,0.7,0.1,1.2,0.4,1.7c0.3,0.5,0.6,0.8,1.1,1c0.4,0.2,0.9,0.3,1.4,0.3C51.8,53.3,52.4,53.1,52.9,52.7z M49.7,47.1
			c-0.4,0.2-0.8,0.5-1.1,1c-0.3,0.4-0.4,1-0.4,1.7h5.7c0-0.7-0.1-1.2-0.3-1.7c-0.3-0.5-0.6-0.8-1-1s-0.9-0.3-1.4-0.3
			C50.6,46.7,50.1,46.8,49.7,47.1z"/>
	</g>
	<g>
		<path class="st0" d="M62.2,52.7c0.5-0.4,0.8-0.9,0.9-1.5h1.1c-0.1,0.9-0.6,1.5-1.2,2.1c-0.7,0.5-1.5,0.8-2.5,0.8
			c-0.8,0-1.4-0.2-2-0.5c-0.6-0.3-1.1-0.8-1.4-1.4c-0.3-0.6-0.5-1.4-0.5-2.2c0-0.8,0.2-1.6,0.5-2.2c0.3-0.6,0.8-1.1,1.4-1.4
			c0.6-0.3,1.3-0.5,2-0.5c0.8,0,1.5,0.2,2,0.5c0.6,0.3,1,0.8,1.3,1.3c0.3,0.5,0.4,1.1,0.4,1.8c0,0.3,0,0.5-0.1,0.7h-6.6
			c0,0.7,0.1,1.2,0.4,1.7c0.3,0.5,0.6,0.8,1.1,1c0.4,0.2,0.9,0.3,1.4,0.3C61.1,53.3,61.7,53.1,62.2,52.7z M59,47.1
			c-0.4,0.2-0.8,0.5-1.1,1c-0.3,0.4-0.4,1-0.4,1.7h5.7c0-0.7-0.1-1.2-0.3-1.7c-0.3-0.5-0.6-0.8-1-1c-0.4-0.2-0.9-0.3-1.4-0.3
			C59.9,46.7,59.4,46.8,59,47.1z"/>
	</g>
	<g>
		<path class="st0" d="M72.3,46.3c0.6,0.3,1,0.8,1.3,1.4c0.3,0.6,0.5,1.4,0.5,2.2c0,0.8-0.2,1.6-0.5,2.2c-0.3,0.6-0.8,1.1-1.3,1.4
			c-0.6,0.3-1.2,0.5-1.9,0.5c-0.8,0-1.5-0.2-2.1-0.6c-0.6-0.4-1-1-1.2-1.7v6h-1V45.9h1v2.2c0.2-0.7,0.6-1.3,1.2-1.7
			c0.6-0.4,1.3-0.6,2.1-0.6C71.1,45.8,71.7,46,72.3,46.3z M68.5,47.2c-0.5,0.3-0.8,0.6-1.1,1.1c-0.3,0.5-0.4,1-0.4,1.7
			c0,0.6,0.1,1.2,0.4,1.7c0.3,0.5,0.6,0.9,1.1,1.1c0.5,0.3,1,0.4,1.5,0.4c0.9,0,1.6-0.3,2.2-0.9c0.5-0.6,0.8-1.4,0.8-2.3
			c0-1-0.3-1.8-0.8-2.3c-0.5-0.6-1.3-0.9-2.2-0.9C69.5,46.7,69,46.9,68.5,47.2z"/>
	</g>
	<g>
		<path class="st0" d="M86.2,49.6c0.4,0.5,0.6,1,0.6,1.7c0,0.8-0.3,1.5-0.9,2c-0.6,0.5-1.4,0.8-2.5,0.8h-3.6V43.6h3.6
			c1,0,1.8,0.2,2.3,0.7s0.8,1.1,0.8,1.9c0,0.7-0.2,1.2-0.5,1.6c-0.4,0.4-0.8,0.7-1.4,0.8C85.2,48.8,85.8,49.1,86.2,49.6z M80.9,48.3
			h2.4c0.7,0,1.3-0.2,1.7-0.5c0.4-0.3,0.6-0.8,0.6-1.4c0-0.6-0.2-1-0.6-1.4c-0.4-0.3-0.9-0.5-1.7-0.5H81v3.8H80.9z M85.1,52.6
			c0.4-0.4,0.6-0.9,0.6-1.5S85.5,50,85,49.6c-0.4-0.4-1-0.6-1.8-0.6h-2.4v4.1h2.4C84.1,53.2,84.7,53,85.1,52.6z"/>
	</g>
	<g>
		<path class="st0" d="M89.6,43.1v11h-1v-11H89.6z"/>
	</g>
	<g>
		<path class="st0" d="M98.8,45.9v8h-1v-2c-0.2,0.7-0.6,1.2-1.1,1.6c-0.5,0.4-1.2,0.5-1.9,0.5c-0.9,0-1.7-0.3-2.3-0.9
			c-0.6-0.6-0.9-1.5-0.9-2.6v-4.7h1v4.6c0,0.9,0.2,1.6,0.7,2c0.4,0.5,1,0.7,1.8,0.7s1.4-0.3,1.9-0.8c0.5-0.5,0.7-1.3,0.7-2.3v-4.3
			h1.1V45.9z"/>
	</g>
	<g>
		<path class="st0" d="M106.4,52.7c0.5-0.4,0.8-0.9,0.9-1.5h1.1c-0.1,0.9-0.6,1.5-1.2,2.1c-0.7,0.5-1.5,0.8-2.5,0.8
			c-0.8,0-1.4-0.2-2-0.5s-1.1-0.8-1.4-1.4c-0.3-0.6-0.5-1.4-0.5-2.2c0-0.8,0.2-1.6,0.5-2.2c0.3-0.6,0.8-1.1,1.4-1.4
			c0.6-0.3,1.3-0.5,2-0.5c0.8,0,1.5,0.2,2,0.5c0.6,0.3,1,0.8,1.3,1.3c0.3,0.5,0.4,1.1,0.4,1.8c0,0.3,0,0.5-0.1,0.7h-6.6
			c0,0.7,0.1,1.2,0.4,1.7c0.3,0.5,0.6,0.8,1.1,1c0.4,0.2,0.9,0.3,1.4,0.3C105.3,53.3,105.9,53.1,106.4,52.7z M103.2,47.1
			c-0.4,0.2-0.8,0.5-1.1,1c-0.3,0.4-0.4,1-0.4,1.7h5.7c0-0.7-0.1-1.2-0.3-1.7c-0.3-0.5-0.6-0.8-1-1s-0.9-0.3-1.4-0.3
			C104.1,46.7,103.6,46.8,103.2,47.1z"/>
	</g>
	<g>
		<path class="st0" d="M44.8,79.8c0.8,0.6,1.4,1.4,1.7,2.5h-1.1c-0.3-0.7-0.7-1.3-1.4-1.8c-0.6-0.4-1.4-0.7-2.4-0.7
			c-0.7,0-1.4,0.2-1.9,0.5c-0.6,0.4-1,0.9-1.4,1.5c-0.3,0.7-0.5,1.4-0.5,2.3s0.2,1.6,0.5,2.3c0.3,0.7,0.8,1.2,1.4,1.5
			c0.6,0.4,1.2,0.5,1.9,0.5c0.9,0,1.7-0.2,2.4-0.7c0.6-0.4,1.1-1,1.4-1.8h1.1c-0.3,1.1-0.9,1.9-1.7,2.5C44,89,43,89.3,41.7,89.3
			c-1,0-1.8-0.2-2.5-0.7c-0.7-0.5-1.3-1.1-1.7-1.9c-0.4-0.8-0.6-1.7-0.6-2.7c0-1,0.2-1.9,0.6-2.7c0.4-0.8,1-1.4,1.7-1.9
			c0.7-0.4,1.6-0.7,2.5-0.7C42.9,78.9,43.9,79.2,44.8,79.8z"/>
	</g>
	<g>
		<path class="st0" d="M58.5,79.3v10.1h-1v-8.5l-3.5,8.5H53l-3.5-8.5v8.5h-1V79.3h1.2l3.8,8.9l3.8-8.9H58.5z"/>
	</g>
	<g>
		<path class="st0" d="M67.7,79l-3.3,6.3v4h-1v-4L60.1,79h1.2l2.7,5.2l2.7-5.2H67.7z"/>
	</g>
	<g>
		<path class="st0" d="M71.1,84.2l4.9,5.2h-1.3l-4.5-4.9v4.9h-1V79h1v4.9l4.5-4.9H76L71.1,84.2z"/>
	</g>
	<g>
		<path class="st0" d="M80.4,80v-1H83v10.4h-1.1V80H80.4z"/>
	</g>
	<g>
		<path class="st0" d="M85,84.2c0-1.7,0.3-3,0.8-3.9c0.5-0.9,1.5-1.4,2.8-1.4s2.2,0.5,2.8,1.4c0.5,0.9,0.8,2.2,0.8,3.9
			c0,1.7-0.3,3-0.8,3.9c-0.5,0.9-1.5,1.4-2.8,1.4s-2.3-0.5-2.8-1.4C85.3,87.1,85,85.8,85,84.2z M91.1,84.2c0-0.9-0.1-1.7-0.2-2.3
			c-0.1-0.6-0.4-1.1-0.8-1.5c-0.4-0.4-0.9-0.5-1.6-0.5s-1.2,0.2-1.6,0.5c-0.4,0.4-0.6,0.9-0.8,1.5c-0.1,0.6-0.2,1.4-0.2,2.3
			s0.1,1.7,0.2,2.3c0.1,0.6,0.4,1.1,0.8,1.5c0.4,0.4,0.9,0.5,1.6,0.5s1.2-0.2,1.6-0.5c0.4-0.4,0.6-0.9,0.8-1.5S91.1,85.1,91.1,84.2z
			"/>
	</g>
	<g>
		<path class="st0" d="M93.9,84.2c0-1.7,0.3-3,0.8-3.9c0.5-0.9,1.5-1.4,2.8-1.4s2.2,0.5,2.8,1.4c0.5,0.9,0.8,2.2,0.8,3.9
			c0,1.7-0.3,3-0.8,3.9c-0.5,0.9-1.5,1.4-2.8,1.4s-2.3-0.5-2.8-1.4C94.2,87.1,93.9,85.8,93.9,84.2z M100.1,84.2
			c0-0.9-0.1-1.7-0.2-2.3c-0.1-0.6-0.4-1.1-0.8-1.5c-0.4-0.4-0.9-0.5-1.6-0.5s-1.2,0.2-1.6,0.5c-0.4,0.4-0.6,0.9-0.8,1.5
			c-0.1,0.6-0.2,1.4-0.2,2.3s0.1,1.7,0.2,2.3c0.1,0.6,0.4,1.1,0.8,1.5c0.4,0.4,0.9,0.5,1.6,0.5s1.2-0.2,1.6-0.5
			c0.4-0.4,0.6-0.9,0.8-1.5S100.1,85.1,100.1,84.2z"/>
	</g>
	<g>
		<path class="st0" d="M108.7,88.1c0.4,0.4,0.9,0.6,1.5,0.6c0.9,0,1.6-0.3,2.1-1c0.5-0.7,0.7-1.8,0.7-3.3c0-0.3,0-0.5,0-0.6
			c-0.1,0.6-0.5,1.1-1.1,1.5c-0.6,0.4-1.2,0.6-2,0.6c-1,0-1.9-0.3-2.4-0.9c-0.6-0.6-0.9-1.5-0.9-2.6c0-0.6,0.1-1.2,0.4-1.7
			c0.2-0.5,0.6-0.9,1.1-1.2s1.2-0.5,1.9-0.5c1.5,0,2.5,0.5,3,1.4c0.5,0.9,0.8,2.2,0.8,3.7c0,1.8-0.3,3.2-0.9,4.1
			c-0.6,1-1.5,1.4-2.8,1.4c-1,0-1.7-0.3-2.3-0.8c-0.5-0.5-0.9-1.3-1-2.2h1C108.1,87.2,108.3,87.7,108.7,88.1z M112.2,80.5
			c-0.5-0.5-1.2-0.8-2.1-0.8c-0.8,0-1.4,0.2-1.8,0.7c-0.5,0.5-0.7,1.1-0.7,1.9c0,0.9,0.2,1.5,0.7,2c0.5,0.5,1.1,0.7,1.9,0.7
			c0.5,0,0.9-0.1,1.3-0.3s0.8-0.5,1-0.8c0.3-0.4,0.4-0.8,0.4-1.4C112.9,81.8,112.6,81.1,112.2,80.5z"/>
	</g>
	<g>
		<path class="st0" d="M115.7,84.2c0-1.7,0.3-3,0.8-3.9s1.5-1.4,2.8-1.4c1.3,0,2.2,0.5,2.8,1.4c0.5,0.9,0.8,2.2,0.8,3.9
			c0,1.7-0.3,3-0.8,3.9s-1.5,1.4-2.8,1.4s-2.3-0.5-2.8-1.4C116,87.1,115.7,85.8,115.7,84.2z M121.9,84.2c0-0.9-0.1-1.7-0.2-2.3
			c-0.1-0.6-0.4-1.1-0.8-1.5c-0.4-0.4-0.9-0.5-1.6-0.5c-0.7,0-1.2,0.2-1.6,0.5c-0.4,0.4-0.6,0.9-0.8,1.5c-0.1,0.6-0.2,1.4-0.2,2.3
			s0.1,1.7,0.2,2.3c0.1,0.6,0.4,1.1,0.8,1.5s0.9,0.5,1.6,0.5c0.7,0,1.2-0.2,1.6-0.5c0.4-0.4,0.6-0.9,0.8-1.5
			C121.9,85.8,121.9,85.1,121.9,84.2z"/>
	</g>
	<g>
		<path class="st0" d="M128.1,86.9V86l5.5-7.1h1.1v7h1.6v0.9h-1.6v2.5h-1v-2.5h-5.6V86.9z M133.7,80.3l-4.5,5.7h4.5V80.3z"/>
	</g>
	<g>
		<path class="st0" d="M144.4,79.9h-5.5v3.8c0.3-0.4,0.6-0.6,1.1-0.9c0.5-0.3,1-0.3,1.6-0.3c1.1,0,1.9,0.3,2.5,1
			c0.5,0.6,0.8,1.4,0.8,2.4s-0.3,1.9-0.9,2.6c-0.6,0.7-1.5,1-2.6,1c-1,0-1.8-0.3-2.5-0.8c-0.6-0.5-1-1.3-1.1-2.2h1
			c0.1,0.7,0.4,1.2,0.9,1.6c0.4,0.4,1,0.6,1.7,0.6c0.8,0,1.5-0.2,1.9-0.7s0.6-1.1,0.6-2c0-0.8-0.2-1.4-0.6-1.8
			c-0.4-0.4-1-0.7-1.9-0.7c-0.6,0-1.1,0.1-1.5,0.4c-0.4,0.2-0.8,0.6-1,1h-1v-5.7h6.5V79.9z"/>
	</g>
	<g>
		<path class="st0" d="M157.1,79.9h-5.5v3.8c0.3-0.4,0.6-0.6,1.1-0.9c0.5-0.2,1-0.3,1.6-0.3c1.1,0,1.9,0.3,2.5,1
			c0.5,0.6,0.8,1.4,0.8,2.4s-0.3,1.9-0.9,2.6c-0.6,0.7-1.5,1-2.6,1c-1,0-1.8-0.3-2.5-0.8c-0.6-0.5-1-1.3-1.1-2.2h1
			c0.1,0.7,0.4,1.2,0.9,1.6c0.4,0.4,1,0.6,1.7,0.6c0.8,0,1.5-0.2,1.9-0.7c0.4-0.5,0.6-1.1,0.6-2c0-0.8-0.2-1.4-0.6-1.8
			c-0.4-0.4-1-0.7-1.9-0.7c-0.6,0-1.1,0.1-1.5,0.4c-0.4,0.2-0.8,0.6-1,1h-1v-5.7h6.5V79.9z"/>
	</g>
	<g>
		<path class="st0" d="M163.2,85.2c1-1.2,1.6-2.2,1.6-3.2c0-0.6-0.2-1.2-0.5-1.6c-0.3-0.4-0.9-0.6-1.6-0.6c-0.8,0-1.3,0.2-1.7,0.7
			s-0.6,1.1-0.7,1.9h-1c0.1-1.1,0.4-2,1-2.6c0.6-0.6,1.4-0.9,2.5-0.9c0.9,0,1.7,0.2,2.2,0.7c0.6,0.5,0.9,1.2,0.9,2.2
			c0,0.8-0.3,1.6-0.8,2.5c-0.5,0.8-1.2,1.6-2,2.4c-0.8,0.7-1.6,1.3-2.5,1.8h5.6v0.9h-7v-0.7C160.8,87.5,162.2,86.3,163.2,85.2z"/>
	</g>
	<g>
		<path class="st0" d="M42.7,107.1l-2.8-4.3h-1.7v4.3h-1V96.8h3.2c1.2,0,2,0.3,2.6,0.8c0.6,0.5,0.9,1.3,0.9,2.2
			c0,0.9-0.2,1.5-0.7,2.1c-0.5,0.5-1.2,0.8-2.1,0.9l2.9,4.3C44,107.1,42.7,107.1,42.7,107.1z M38.2,102h2.1c1.7,0,2.5-0.7,2.5-2.2
			s-0.8-2.2-2.5-2.2h-2.1V102z"/>
	</g>
	<g>
		<path class="st0" d="M53.1,97.6c0.8,0.6,1.4,1.4,1.7,2.4h-1.1c-0.3-0.7-0.7-1.3-1.3-1.7c-0.6-0.4-1.4-0.6-2.2-0.6
			c-0.7,0-1.4,0.2-2,0.5c-0.6,0.4-1.1,0.9-1.4,1.5c-0.3,0.7-0.5,1.4-0.5,2.3s0.2,1.7,0.5,2.3c0.3,0.7,0.8,1.2,1.4,1.5
			c0.6,0.4,1.3,0.5,2.1,0.5c0.7,0,1.3-0.2,1.9-0.5c0.6-0.3,1-0.8,1.4-1.3c0.4-0.6,0.6-1.3,0.6-2.1h-4.3v-0.8h5.2v0.9
			c-0.1,0.9-0.3,1.7-0.7,2.4c-0.4,0.7-1,1.3-1.7,1.7c-0.7,0.4-1.5,0.6-2.5,0.6s-1.9-0.2-2.6-0.7c-0.8-0.4-1.4-1.1-1.8-1.9
			s-0.6-1.7-0.6-2.7c0-1,0.2-1.9,0.6-2.7s1-1.4,1.8-1.9c0.8-0.4,1.6-0.7,2.6-0.7C51.3,96.7,52.3,97,53.1,97.6z"/>
	</g>
	<g>
		<path class="st0" d="M63.4,102.7c0.4,0.5,0.6,1,0.6,1.7c0,0.8-0.3,1.5-0.9,2c-0.6,0.5-1.4,0.8-2.5,0.8h-3.5V96.8h3.6
			c1,0,1.8,0.2,2.3,0.7c0.5,0.5,0.8,1.1,0.8,1.9c0,0.7-0.2,1.2-0.5,1.6c-0.4,0.4-0.8,0.7-1.4,0.8C62.5,101.9,63,102.2,63.4,102.7z
			 M58.1,101.4h2.4c0.7,0,1.3-0.2,1.7-0.5c0.4-0.3,0.6-0.8,0.6-1.4c0-0.6-0.2-1-0.6-1.4c-0.4-0.3-0.9-0.5-1.7-0.5h-2.4V101.4z
			 M62.3,105.7c0.4-0.4,0.6-0.9,0.6-1.5c0-0.6-0.2-1.1-0.7-1.5c-0.4-0.4-1-0.6-1.8-0.6h-2.3v4.1h2.4
			C61.3,106.3,61.9,106.1,62.3,105.7z"/>
	</g>
	<g>
		<path class="st0" d="M73.3,102.9c1-1.2,1.6-2.2,1.6-3.2c0-0.6-0.2-1.2-0.5-1.6s-0.9-0.6-1.6-0.6c-0.8,0-1.3,0.2-1.7,0.7
			c-0.4,0.5-0.6,1.1-0.7,1.9h-1c0.1-1.1,0.4-2,1-2.6c0.6-0.6,1.4-0.9,2.5-0.9c0.9,0,1.7,0.2,2.2,0.7c0.6,0.5,0.9,1.2,0.9,2.2
			c0,0.8-0.3,1.6-0.8,2.5c-0.5,0.8-1.2,1.6-2,2.4c-0.8,0.7-1.6,1.3-2.5,1.8h5.6v0.9h-7v-0.7C70.9,105.2,72.2,104.1,73.3,102.9z"/>
	</g>
	<g>
		<path class="st0" d="M83.1,98c-0.4-0.4-0.9-0.6-1.5-0.6c-0.9,0-1.6,0.3-2.1,1c-0.5,0.7-0.7,1.8-0.7,3.3c0,0.3,0,0.5,0,0.6
			c0.1-0.6,0.5-1.2,1-1.5c0.6-0.4,1.2-0.6,2-0.6c1,0,1.9,0.3,2.5,0.9c0.6,0.6,0.9,1.5,0.9,2.6c0,0.6-0.1,1.2-0.4,1.7
			c-0.2,0.5-0.6,0.9-1.1,1.2c-0.5,0.3-1.2,0.5-1.9,0.5c-1.5,0-2.5-0.5-3-1.4s-0.8-2.2-0.8-3.8c0-1.8,0.3-3.2,0.9-4.1
			c0.6-0.9,1.5-1.4,2.9-1.4c0.9,0,1.7,0.3,2.2,0.8s0.8,1.3,0.9,2.1h-1C83.7,98.8,83.5,98.3,83.1,98z M79.2,104.9
			c0.2,0.4,0.5,0.8,0.9,1c0.4,0.3,0.9,0.4,1.6,0.4c0.8,0,1.4-0.2,1.8-0.7c0.5-0.5,0.7-1.1,0.7-1.9c0-0.9-0.2-1.5-0.7-2
			c-0.5-0.5-1.1-0.7-1.9-0.7c-0.5,0-0.9,0.1-1.3,0.3c-0.4,0.2-0.7,0.5-1,0.8c-0.3,0.4-0.4,0.8-0.4,1.4C78.9,104,79,104.5,79.2,104.9
			z"/>
	</g>
	<g>
		<path class="st0" d="M95.9,96.9c0.5,0.2,0.8,0.5,1.1,0.9c0.2,0.4,0.4,0.9,0.4,1.4c0,0.6-0.2,1.2-0.6,1.6c-0.4,0.5-1,0.7-1.7,0.8
			v0.1c0.8,0.2,1.4,0.5,1.8,0.9s0.7,1,0.7,1.7c0,0.8-0.3,1.5-0.8,2.1c-0.6,0.5-1.4,0.8-2.4,0.8s-1.9-0.3-2.5-0.8
			c-0.6-0.5-1-1.3-1.2-2.4h1c0.1,0.7,0.4,1.3,0.8,1.7c0.5,0.4,1.1,0.6,1.8,0.6c0.7,0,1.3-0.2,1.7-0.6c0.4-0.4,0.6-0.9,0.6-1.5
			c0-0.7-0.3-1.2-0.8-1.6c-0.6-0.4-1.3-0.6-2.3-0.6h-0.3v-0.9h0.3c2,0,3-0.7,3-2c0-0.6-0.2-1-0.6-1.4c-0.4-0.3-0.9-0.5-1.5-0.5
			s-1.2,0.2-1.6,0.5c-0.5,0.4-0.7,0.9-0.8,1.6h-1c0.1-1,0.4-1.7,1-2.2c0.6-0.5,1.4-0.8,2.5-0.8C94.9,96.6,95.4,96.7,95.9,96.9z"/>
	</g>
	<g>
		<path class="st0" d="M103.3,102.9c1-1.2,1.6-2.2,1.6-3.2c0-0.6-0.2-1.2-0.5-1.6s-0.9-0.6-1.6-0.6c-0.8,0-1.3,0.2-1.7,0.7
			c-0.4,0.5-0.6,1.1-0.7,1.9h-1c0.1-1.1,0.4-2,1-2.6c0.6-0.6,1.4-0.9,2.5-0.9c0.9,0,1.7,0.2,2.2,0.7c0.6,0.5,0.9,1.2,0.9,2.2
			c0,0.8-0.3,1.6-0.8,2.5c-0.5,0.8-1.2,1.6-2,2.4c-0.8,0.7-1.6,1.3-2.5,1.8h5.6v0.9h-7v-0.7C100.9,105.2,102.3,104.1,103.3,102.9z"
			/>
	</g>
	<g>
		<path class="st0" d="M118.3,97.6h-5.5v3.8c0.3-0.4,0.6-0.6,1.1-0.9c0.5-0.3,1-0.3,1.6-0.3c1.1,0,1.9,0.3,2.5,1
			c0.5,0.6,0.8,1.4,0.8,2.4c0,1-0.3,1.9-0.9,2.6c-0.6,0.7-1.5,1-2.6,1c-1,0-1.8-0.3-2.5-0.8c-0.7-0.5-1-1.3-1.1-2.2h1
			c0.1,0.7,0.4,1.2,0.9,1.6c0.4,0.4,1,0.6,1.7,0.6c0.8,0,1.5-0.2,1.9-0.7c0.4-0.5,0.6-1.1,0.6-2c0-0.8-0.2-1.4-0.6-1.8
			s-1-0.7-1.9-0.7c-0.6,0-1.1,0.1-1.5,0.4c-0.4,0.2-0.8,0.6-1,1h-1v-5.7h6.5V97.6z"/>
	</g>
	<g>
		<path class="st0" d="M122.5,105.8c0.4,0.4,0.9,0.6,1.5,0.6c0.9,0,1.6-0.3,2.1-1s0.7-1.8,0.7-3.3c0-0.3,0-0.5,0-0.6
			c-0.1,0.6-0.5,1.1-1.1,1.5s-1.2,0.6-2,0.6c-1,0-1.9-0.3-2.4-0.9c-0.6-0.6-0.9-1.5-0.9-2.6c0-0.6,0.1-1.2,0.4-1.7
			c0.2-0.5,0.6-0.9,1.1-1.2c0.5-0.3,1.2-0.5,1.9-0.5c1.5,0,2.5,0.5,3,1.4s0.8,2.2,0.8,3.7c0,1.8-0.3,3.2-0.9,4.1
			c-0.6,0.9-1.5,1.4-2.8,1.4c-1,0-1.7-0.3-2.3-0.8c-0.5-0.5-0.9-1.3-1-2.2h1C121.9,105,122.2,105.5,122.5,105.8z M126,98.3
			c-0.5-0.5-1.2-0.8-2.1-0.8c-0.8,0-1.4,0.2-1.8,0.7c-0.5,0.5-0.7,1.1-0.7,1.9c0,0.9,0.2,1.5,0.7,2c0.5,0.5,1.1,0.7,1.9,0.7
			c0.5,0,0.9-0.1,1.3-0.3c0.4-0.2,0.8-0.5,1-0.8c0.3-0.4,0.4-0.8,0.4-1.4C126.7,99.5,126.5,98.8,126,98.3z"/>
	</g>
	<g>
		<path class="st0" d="M44.8,114.5v10.4h-1V120h-5.6v4.9h-1v-10.4h1v4.6h5.6v-4.6H44.8z"/>
	</g>
	<g>
		<path class="st0" d="M48.1,115.3v3.9h4v0.8h-4v4h4.5v0.9h-5.5v-10.4h5.5v0.8C52.6,115.3,48.1,115.3,48.1,115.3z"/>
	</g>
	<g>
		<path class="st0" d="M60.1,124.9l-2.7-4.4l-2.5,4.4h-1.2l3.1-5.3l-3.2-5.1h1.2l2.7,4.3l2.5-4.3h1.2l-3.1,5.2l3.2,5.2
			C61.3,124.9,60.1,124.9,60.1,124.9z"/>
	</g>
	<g>
		<path class="st0" d="M74.3,118.2l-0.5,2.5h2.1v0.9h-2.3l-0.7,3.2h-1l0.7-3.2h-3.3l-0.7,3.2h-1l0.7-3.2H66v-0.9h2.5l0.5-2.5h-2.3
			v-0.9h2.5l0.7-3.3h1l-0.7,3.3h3.3l0.7-3.3h1l-0.7,3.3h2.2v0.9H74.3z M73.3,118.2H70l-0.5,2.5h3.3L73.3,118.2z"/>
	</g>
	<g>
		<path class="st0" d="M77.4,115.5v-1H80v10.4h-1.1v-9.4H77.4z"/>
	</g>
	<g>
		<path class="st0" d="M88.3,122.3h-4.7l-0.9,2.5h-1.1l3.8-10.1h1.2l3.8,10.1h-1.2L88.3,122.3z M88,121.5l-2-5.6l-2.1,5.6H88z"/>
	</g>
	<g>
		<path class="st0" d="M95.4,120.6c1-1.2,1.6-2.2,1.6-3.2c0-0.6-0.2-1.2-0.5-1.6c-0.3-0.4-0.9-0.6-1.6-0.6c-0.8,0-1.3,0.2-1.7,0.7
			c-0.4,0.5-0.6,1.1-0.7,1.9h-1c0.1-1.1,0.4-2,1-2.6c0.6-0.6,1.4-0.9,2.5-0.9c0.9,0,1.7,0.2,2.2,0.7c0.6,0.5,0.9,1.2,0.9,2.2
			c0,0.8-0.3,1.6-0.8,2.5c-0.5,0.8-1.2,1.6-2,2.4c-0.8,0.7-1.6,1.3-2.5,1.8h5.6v0.9h-7v-0.7C93,122.9,94.4,121.8,95.4,120.6z"/>
	</g>
	<g>
		<path class="st0" d="M100,119.6c0-1.7,0.3-3,0.8-3.9c0.5-0.9,1.5-1.4,2.8-1.4s2.2,0.5,2.8,1.4c0.5,0.9,0.8,2.2,0.8,3.9
			c0,1.7-0.3,3-0.8,3.9c-0.5,0.9-1.5,1.4-2.8,1.4s-2.3-0.5-2.8-1.4C100.3,122.6,100,121.3,100,119.6z M106.1,119.6
			c0-0.9-0.1-1.7-0.2-2.3c-0.1-0.6-0.4-1.1-0.8-1.5c-0.4-0.4-0.9-0.5-1.6-0.5s-1.2,0.2-1.6,0.5c-0.4,0.4-0.6,0.9-0.8,1.5
			c-0.1,0.6-0.2,1.4-0.2,2.3s0.1,1.7,0.2,2.3c0.1,0.6,0.4,1.1,0.8,1.5c0.4,0.4,0.9,0.5,1.6,0.5s1.2-0.2,1.6-0.5
			c0.4-0.4,0.6-0.9,0.8-1.5S106.1,120.5,106.1,119.6z"/>
	</g>
	<g>
		<path class="st0" d="M114,114.6c0.5,0.2,0.8,0.5,1.1,0.9c0.2,0.4,0.4,0.9,0.4,1.4c0,0.6-0.2,1.2-0.6,1.6c-0.4,0.5-1,0.7-1.7,0.8
			v0.1c0.8,0.2,1.4,0.5,1.8,0.9c0.4,0.4,0.7,1,0.7,1.7c0,0.8-0.3,1.5-0.8,2.1c-0.6,0.5-1.4,0.8-2.4,0.8c-1,0-1.9-0.3-2.5-0.8
			s-1-1.3-1.2-2.4h1c0.1,0.7,0.4,1.3,0.8,1.7c0.5,0.4,1.1,0.6,1.8,0.6c0.7,0,1.3-0.2,1.7-0.6c0.4-0.4,0.6-0.9,0.6-1.5
			c0-0.7-0.3-1.2-0.8-1.6c-0.6-0.4-1.3-0.6-2.3-0.6h-0.3V119h0.3c2,0,3-0.7,3-2c0-0.6-0.2-1-0.6-1.4c-0.4-0.3-0.9-0.5-1.5-0.5
			c-0.6,0-1.2,0.2-1.6,0.5c-0.5,0.4-0.7,0.9-0.8,1.6h-1c0.1-1,0.4-1.7,1-2.2c0.6-0.5,1.4-0.8,2.5-0.8
			C113,114.3,113.6,114.4,114,114.6z"/>
	</g>
	<g>
		<path class="st0" d="M124.1,120.4c0.4,0.5,0.6,1,0.6,1.7c0,0.8-0.3,1.5-0.9,2c-0.6,0.5-1.4,0.8-2.5,0.8h-3.6v-10.4h3.6
			c1,0,1.8,0.2,2.3,0.7c0.5,0.5,0.8,1.1,0.8,1.9c0,0.7-0.2,1.2-0.5,1.6c-0.4,0.4-0.8,0.7-1.4,0.8
			C123.2,119.6,123.7,119.9,124.1,120.4z M118.7,119.1h2.4c0.7,0,1.3-0.2,1.7-0.5c0.4-0.3,0.6-0.8,0.6-1.4s-0.2-1-0.6-1.4
			c-0.4-0.3-0.9-0.5-1.7-0.5h-2.3v3.8H118.7z M123,123.4c0.4-0.4,0.6-0.9,0.6-1.5s-0.2-1.1-0.7-1.5c-0.4-0.4-1-0.6-1.8-0.6h-2.4v4.1
			h2.4C122,124,122.6,123.8,123,123.4z"/>
	</g>
</g>
<g>
	<g>
		<path class="st0" d="M43.4,216.3c0.4,0.5,0.6,1,0.6,1.7c0,0.8-0.3,1.5-0.9,2c-0.6,0.5-1.4,0.8-2.5,0.8H37v-10.4h3.6
			c1,0,1.8,0.2,2.3,0.7c0.5,0.5,0.8,1.1,0.8,1.9c0,0.7-0.2,1.2-0.5,1.6c-0.4,0.4-0.8,0.7-1.4,0.8C42.5,215.5,43,215.8,43.4,216.3z
			 M38.2,215h2.4c0.7,0,1.3-0.2,1.7-0.5c0.4-0.3,0.6-0.8,0.6-1.4c0-0.6-0.2-1-0.6-1.4c-0.4-0.3-0.9-0.5-1.7-0.5h-2.3v3.8H38.2z
			 M42.4,219.4c0.4-0.4,0.6-0.9,0.6-1.5c0-0.6-0.2-1.1-0.7-1.5c-0.4-0.4-1-0.6-1.8-0.6h-2.4v4.1h2.4
			C41.3,219.9,41.9,219.7,42.4,219.4z"/>
	</g>
	<g>
		<path class="st0" d="M46.8,209.9v11h-1v-11H46.8z"/>
	</g>
	<g>
		<path class="st0" d="M56.1,212.8v8h-1v-2c-0.2,0.7-0.6,1.2-1.1,1.6c-0.5,0.4-1.2,0.5-1.9,0.5c-0.9,0-1.7-0.3-2.3-0.9
			c-0.6-0.6-0.9-1.5-0.9-2.6v-4.7h1v4.6c0,0.9,0.2,1.6,0.7,2c0.4,0.5,1,0.7,1.8,0.7c0.8,0,1.4-0.3,1.9-0.8s0.7-1.3,0.7-2.3v-4.3h1.1
			V212.8z"/>
	</g>
	<g>
		<path class="st0" d="M63.7,219.5c0.5-0.4,0.8-0.9,0.9-1.5h1.1c-0.1,0.9-0.6,1.5-1.2,2.1c-0.7,0.5-1.5,0.8-2.5,0.8
			c-0.8,0-1.4-0.2-2-0.5c-0.6-0.3-1.1-0.8-1.4-1.4c-0.3-0.6-0.5-1.4-0.5-2.2c0-0.8,0.2-1.6,0.5-2.2c0.3-0.6,0.8-1.1,1.4-1.4
			c0.6-0.3,1.3-0.5,2-0.5c0.8,0,1.5,0.2,2,0.5c0.6,0.3,1,0.8,1.3,1.3c0.3,0.5,0.4,1.1,0.4,1.8c0,0.3,0,0.5-0.1,0.7H59
			c0,0.7,0.1,1.2,0.4,1.7s0.6,0.8,1.1,1c0.4,0.2,0.9,0.3,1.4,0.3C62.6,220,63.2,219.8,63.7,219.5z M60.5,213.8
			c-0.4,0.2-0.8,0.5-1.1,1c-0.3,0.4-0.4,1-0.4,1.7h5.7c0-0.7-0.1-1.2-0.3-1.7c-0.3-0.5-0.6-0.8-1-1c-0.4-0.2-0.9-0.3-1.4-0.3
			C61.4,213.5,60.9,213.6,60.5,213.8z"/>
	</g>
	<g>
		<path class="st0" d="M44.8,246.7c0.8,0.6,1.4,1.4,1.7,2.5h-1.1c-0.3-0.7-0.7-1.3-1.4-1.8c-0.6-0.4-1.4-0.7-2.4-0.7
			c-0.7,0-1.4,0.2-1.9,0.5c-0.6,0.4-1,0.9-1.4,1.5c-0.3,0.7-0.5,1.4-0.5,2.3c0,0.9,0.2,1.6,0.5,2.3c0.3,0.7,0.8,1.2,1.4,1.5
			c0.6,0.4,1.2,0.5,1.9,0.5c0.9,0,1.7-0.2,2.4-0.7c0.6-0.4,1.1-1,1.4-1.8h1.1c-0.3,1.1-0.9,1.9-1.7,2.5c-0.8,0.6-1.8,0.9-3.1,0.9
			c-1,0-1.8-0.2-2.5-0.7c-0.7-0.5-1.3-1.1-1.7-1.9c-0.4-0.8-0.6-1.7-0.6-2.7s0.2-1.9,0.6-2.7c0.4-0.8,1-1.4,1.7-1.9
			c0.7-0.4,1.6-0.7,2.5-0.7C42.9,245.8,43.9,246.1,44.8,246.7z"/>
	</g>
	<g>
		<path class="st0" d="M58.5,246.1v10.1h-1v-8.5l-3.5,8.5H53l-3.5-8.5v8.5h-1v-10.1h1.2l3.8,8.9l3.8-8.9H58.5z"/>
	</g>
	<g>
		<path class="st0" d="M67.7,245.9l-3.3,6.3v4h-1v-4l-3.3-6.3h1.2l2.7,5.2l2.7-5.2H67.7z"/>
	</g>
	<g>
		<path class="st0" d="M71.1,251l4.9,5.2h-1.3l-4.5-4.9v4.9h-1v-10.3h1v4.9l4.5-4.9H76L71.1,251z"/>
	</g>
	<g>
		<path class="st0" d="M80.4,246.8v-1H83v10.4h-1.1v-9.4H80.4z"/>
	</g>
	<g>
		<path class="st0" d="M85,251c0-1.7,0.3-3,0.8-3.9c0.5-0.9,1.5-1.4,2.8-1.4s2.2,0.5,2.8,1.4c0.5,0.9,0.8,2.2,0.8,3.9
			s-0.3,3-0.8,3.9c-0.5,0.9-1.5,1.4-2.8,1.4s-2.3-0.5-2.8-1.4C85.3,254,85,252.7,85,251z M91.1,251c0-0.9-0.1-1.7-0.2-2.3
			c-0.1-0.6-0.4-1.1-0.8-1.5c-0.4-0.4-0.9-0.5-1.6-0.5s-1.2,0.2-1.6,0.5c-0.4,0.4-0.6,0.9-0.8,1.5c-0.1,0.6-0.2,1.4-0.2,2.3
			c0,0.9,0.1,1.7,0.2,2.3c0.1,0.6,0.4,1.1,0.8,1.5c0.4,0.4,0.9,0.5,1.6,0.5s1.2-0.2,1.6-0.5c0.4-0.4,0.6-0.9,0.8-1.5
			C91,252.7,91.1,251.9,91.1,251z"/>
	</g>
	<g>
		<path class="st0" d="M93.9,251c0-1.7,0.3-3,0.8-3.9c0.5-0.9,1.5-1.4,2.8-1.4s2.2,0.5,2.8,1.4c0.5,0.9,0.8,2.2,0.8,3.9
			s-0.3,3-0.8,3.9c-0.5,0.9-1.5,1.4-2.8,1.4s-2.3-0.5-2.8-1.4C94.2,254,93.9,252.7,93.9,251z M100.1,251c0-0.9-0.1-1.7-0.2-2.3
			c-0.1-0.6-0.4-1.1-0.8-1.5c-0.4-0.4-0.9-0.5-1.6-0.5s-1.2,0.2-1.6,0.5c-0.4,0.4-0.6,0.9-0.8,1.5c-0.1,0.6-0.2,1.4-0.2,2.3
			c0,0.9,0.1,1.7,0.2,2.3c0.1,0.6,0.4,1.1,0.8,1.5c0.4,0.4,0.9,0.5,1.6,0.5s1.2-0.2,1.6-0.5c0.4-0.4,0.6-0.9,0.8-1.5
			C100.1,252.7,100.1,251.9,100.1,251z"/>
	</g>
	<g>
		<path class="st0" d="M107.3,247c0.3-0.4,0.7-0.7,1.2-1c0.5-0.2,1.2-0.4,1.9-0.4c0.7,0,1.4,0.1,1.9,0.4c0.5,0.2,0.9,0.6,1.2,1
			c0.3,0.4,0.4,0.9,0.4,1.4c0,0.6-0.2,1.1-0.5,1.5c-0.3,0.4-0.8,0.7-1.5,0.9c0.7,0.2,1.3,0.5,1.7,0.9c0.4,0.4,0.6,1,0.6,1.7
			c0,1-0.3,1.7-1,2.3c-0.7,0.6-1.6,0.8-2.8,0.8c-1.1,0-2.1-0.3-2.7-0.8c-0.6-0.5-1-1.3-1-2.3c0-0.7,0.2-1.3,0.6-1.7
			c0.4-0.5,1-0.8,1.7-0.9c-0.7-0.2-1.2-0.5-1.5-0.9c-0.3-0.4-0.5-0.9-0.5-1.5C106.9,247.8,107.1,247.4,107.3,247z M108.4,255.1
			c0.5,0.4,1.2,0.6,2,0.6c0.8,0,1.5-0.2,2-0.6c0.5-0.4,0.7-1,0.7-1.7c0-0.7-0.3-1.3-0.8-1.7c-0.5-0.4-1.2-0.6-2-0.6
			c-0.8,0-1.5,0.2-2,0.6c-0.5,0.4-0.8,0.9-0.8,1.7C107.7,254.1,107.9,254.7,108.4,255.1z M108.6,250c0.4,0.3,1,0.5,1.8,0.5
			c0.8,0,1.4-0.2,1.8-0.5s0.7-0.8,0.7-1.5c0-0.6-0.2-1.1-0.7-1.5c-0.4-0.3-1-0.5-1.8-0.5c-0.7,0-1.3,0.2-1.8,0.5
			c-0.5,0.3-0.7,0.8-0.7,1.5C107.9,249.1,108.2,249.6,108.6,250z"/>
	</g>
	<g>
		<path class="st0" d="M122.8,246.7h-5.5v3.8c0.3-0.4,0.6-0.6,1.1-0.9c0.5-0.3,1-0.3,1.6-0.3c1.1,0,1.9,0.3,2.5,1
			c0.5,0.6,0.8,1.4,0.8,2.4c0,1-0.3,1.9-0.9,2.6c-0.6,0.7-1.5,1-2.6,1c-1,0-1.8-0.3-2.5-0.8c-0.6-0.5-1-1.3-1.1-2.2h1
			c0.1,0.7,0.4,1.2,0.9,1.6c0.4,0.4,1,0.6,1.7,0.6c0.8,0,1.5-0.2,1.9-0.7c0.4-0.5,0.6-1.1,0.6-2c0-0.8-0.2-1.4-0.6-1.8
			c-0.4-0.4-1-0.7-1.9-0.7c-0.6,0-1.1,0.1-1.5,0.4c-0.4,0.2-0.8,0.6-1,1h-1V246h6.5V246.7z"/>
	</g>
	<g>
		<path class="st0" d="M128,246.8v-1h2.6v10.4h-1.1v-9.4H128z"/>
	</g>
	<g>
		<path class="st0" d="M132.2,253.7v-0.8l5.5-7.1h1.1v7h1.6v0.9h-1.6v2.5h-1v-2.5L132.2,253.7L132.2,253.7z M137.8,247.1l-4.5,5.7
			h4.5V247.1z"/>
	</g>
	<g>
		<path class="st0" d="M149.4,252c1-1.2,1.6-2.2,1.6-3.2c0-0.6-0.2-1.2-0.5-1.6c-0.3-0.4-0.9-0.6-1.6-0.6c-0.8,0-1.3,0.2-1.7,0.7
			s-0.6,1.1-0.7,1.9h-1c0.1-1.1,0.4-2,1-2.6c0.6-0.6,1.4-0.9,2.5-0.9c0.9,0,1.7,0.2,2.2,0.7c0.6,0.5,0.9,1.2,0.9,2.2
			c0,0.8-0.3,1.6-0.8,2.5c-0.5,0.8-1.2,1.6-2,2.4c-0.8,0.7-1.6,1.3-2.5,1.8h5.6v0.9h-7v-0.7C147,254.3,148.4,253.2,149.4,252z"/>
	</g>
	<g>
		<path class="st0" d="M42.7,274l-2.8-4.3h-1.7v4.3h-1v-10.4h3.2c1.2,0,2,0.3,2.6,0.8c0.6,0.5,0.9,1.3,0.9,2.2
			c0,0.9-0.2,1.5-0.7,2.1c-0.5,0.5-1.2,0.8-2.1,0.9l2.9,4.3h-1.3V274z M38.2,268.9h2.1c1.7,0,2.5-0.7,2.5-2.2c0-1.5-0.8-2.2-2.5-2.2
			h-2.1V268.9z"/>
	</g>
	<g>
		<path class="st0" d="M53.1,264.4c0.8,0.6,1.4,1.4,1.7,2.4h-1.1c-0.3-0.7-0.7-1.3-1.3-1.7c-0.6-0.4-1.4-0.6-2.2-0.6
			c-0.7,0-1.4,0.2-2,0.5c-0.6,0.4-1.1,0.9-1.4,1.5c-0.3,0.7-0.5,1.4-0.5,2.3s0.2,1.7,0.5,2.3c0.3,0.7,0.8,1.2,1.4,1.5
			c0.6,0.4,1.3,0.5,2.1,0.5c0.7,0,1.3-0.2,1.9-0.5c0.6-0.3,1-0.8,1.4-1.3c0.4-0.6,0.6-1.3,0.6-2.1h-4.3v-0.8h5.2v0.9
			c-0.1,0.9-0.3,1.7-0.7,2.4c-0.4,0.7-1,1.3-1.7,1.7c-0.7,0.4-1.5,0.6-2.5,0.6s-1.9-0.2-2.6-0.7c-0.8-0.4-1.4-1.1-1.8-1.9
			s-0.6-1.7-0.6-2.7s0.2-1.9,0.6-2.7c0.4-0.8,1-1.4,1.8-1.9c0.8-0.4,1.6-0.7,2.6-0.7C51.3,263.4,52.3,263.7,53.1,264.4z"/>
	</g>
	<g>
		<path class="st0" d="M63.4,269.5c0.4,0.5,0.6,1,0.6,1.7c0,0.8-0.3,1.5-0.9,2c-0.6,0.5-1.4,0.8-2.5,0.8h-3.5v-10.4h3.6
			c1,0,1.8,0.2,2.3,0.7c0.5,0.5,0.8,1.1,0.8,1.9c0,0.7-0.2,1.2-0.5,1.6c-0.4,0.4-0.8,0.7-1.4,0.8C62.5,268.7,63,269,63.4,269.5z
			 M58.1,268.2h2.4c0.7,0,1.3-0.2,1.7-0.5c0.4-0.3,0.6-0.8,0.6-1.4c0-0.6-0.2-1-0.6-1.4c-0.4-0.3-0.9-0.5-1.7-0.5h-2.4V268.2z
			 M62.3,272.6c0.4-0.4,0.6-0.9,0.6-1.5c0-0.6-0.2-1.1-0.7-1.5c-0.4-0.4-1-0.6-1.8-0.6h-2.3v4.1h2.4
			C61.3,273.1,61.9,272.9,62.3,272.6z"/>
	</g>
	<g>
		<path class="st0" d="M74.5,263.6c0.5,0.2,0.8,0.5,1.1,0.9c0.2,0.4,0.4,0.9,0.4,1.4c0,0.6-0.2,1.2-0.6,1.6c-0.4,0.5-1,0.7-1.7,0.8
			v0.1c0.8,0.2,1.4,0.5,1.8,0.9c0.4,0.4,0.7,1,0.7,1.7c0,0.8-0.3,1.5-0.8,2.1c-0.6,0.5-1.4,0.8-2.4,0.8c-1,0-1.9-0.3-2.5-0.8
			c-0.6-0.5-1-1.3-1.2-2.4h1c0.1,0.7,0.4,1.3,0.8,1.7c0.5,0.4,1.1,0.6,1.8,0.6c0.7,0,1.3-0.2,1.7-0.6c0.4-0.4,0.6-0.9,0.6-1.5
			c0-0.7-0.3-1.2-0.8-1.6c-0.6-0.4-1.3-0.6-2.3-0.6h-0.3v-0.9h0.3c2,0,3-0.7,3-2c0-0.6-0.2-1-0.6-1.4c-0.4-0.3-0.9-0.5-1.5-0.5
			c-0.6,0-1.2,0.2-1.6,0.5c-0.5,0.4-0.7,0.9-0.8,1.6h-1c0.1-1,0.4-1.7,1-2.2c0.6-0.5,1.4-0.8,2.5-0.8
			C73.5,263.3,74.1,263.4,74.5,263.6z"/>
	</g>
	<g>
		<path class="st0" d="M83.4,264.8c-0.4-0.4-0.9-0.6-1.5-0.6c-0.9,0-1.6,0.3-2.1,1c-0.5,0.7-0.7,1.8-0.7,3.3c0,0.3,0,0.5,0,0.6
			c0.1-0.6,0.5-1.2,1-1.5c0.6-0.4,1.2-0.6,2-0.6c1,0,1.9,0.3,2.5,0.9s0.9,1.5,0.9,2.6c0,0.6-0.1,1.2-0.4,1.7
			c-0.2,0.5-0.6,0.9-1.1,1.2s-1.2,0.5-1.9,0.5c-1.5,0-2.5-0.5-3-1.4c-0.5-0.9-0.8-2.2-0.8-3.8c0-1.8,0.3-3.2,0.9-4.1
			s1.5-1.4,2.9-1.4c0.9,0,1.7,0.3,2.2,0.8c0.5,0.5,0.8,1.3,0.9,2.1h-1C84,265.7,83.7,265.2,83.4,264.8z M79.5,271.8
			c0.2,0.4,0.5,0.8,0.9,1c0.4,0.3,0.9,0.4,1.6,0.4c0.8,0,1.4-0.2,1.8-0.7c0.5-0.5,0.7-1.1,0.7-1.9c0-0.9-0.2-1.5-0.7-2
			c-0.5-0.5-1.1-0.7-1.9-0.7c-0.5,0-0.9,0.1-1.3,0.3c-0.4,0.2-0.7,0.5-1,0.8c-0.3,0.4-0.4,0.8-0.4,1.4
			C79.2,270.9,79.3,271.3,79.5,271.8z"/>
	</g>
	<g>
		<path class="st0" d="M97.8,264.4h-5.5v3.8c0.3-0.4,0.6-0.6,1.1-0.9c0.5-0.2,1-0.3,1.6-0.3c1.1,0,1.9,0.3,2.5,1
			c0.5,0.6,0.8,1.4,0.8,2.4s-0.3,1.9-0.9,2.6s-1.5,1-2.6,1c-1,0-1.8-0.3-2.5-0.8c-0.7-0.5-1-1.3-1.1-2.2h1c0.1,0.7,0.4,1.2,0.9,1.6
			c0.4,0.4,1,0.6,1.7,0.6c0.8,0,1.5-0.2,1.9-0.7c0.4-0.5,0.6-1.1,0.6-2c0-0.8-0.2-1.4-0.6-1.8s-1-0.7-1.9-0.7
			c-0.6,0-1.1,0.1-1.5,0.4c-0.4,0.2-0.8,0.6-1,1h-1v-5.7h6.5V264.4z"/>
	</g>
	<g>
		<path class="st0" d="M100.6,264.7c0.3-0.4,0.7-0.7,1.2-1c0.5-0.2,1.2-0.4,1.9-0.4c0.7,0,1.4,0.1,1.9,0.4c0.5,0.2,0.9,0.6,1.2,1
			c0.3,0.4,0.4,0.9,0.4,1.4c0,0.6-0.2,1.1-0.5,1.5c-0.3,0.4-0.8,0.7-1.5,0.9c0.7,0.2,1.3,0.5,1.7,0.9c0.4,0.5,0.6,1,0.6,1.7
			c0,1-0.3,1.7-1,2.3c-0.7,0.6-1.6,0.8-2.8,0.8c-1.1,0-2.1-0.3-2.7-0.8c-0.6-0.5-1-1.3-1-2.3c0-0.7,0.2-1.3,0.6-1.7
			c0.4-0.5,1-0.8,1.7-0.9c-0.7-0.2-1.2-0.5-1.5-0.9c-0.3-0.4-0.5-0.9-0.5-1.5C100.2,265.6,100.3,265.1,100.6,264.7z M101.7,272.8
			c0.5,0.4,1.2,0.6,2,0.6c0.8,0,1.5-0.2,2-0.6c0.5-0.4,0.7-1,0.7-1.7s-0.3-1.3-0.8-1.7c-0.5-0.4-1.2-0.6-2-0.6c-0.8,0-1.5,0.2-2,0.6
			c-0.5,0.4-0.8,0.9-0.8,1.7C100.9,271.9,101.2,272.4,101.7,272.8z M101.9,267.7c0.4,0.3,1,0.5,1.8,0.5c0.8,0,1.4-0.2,1.8-0.5
			s0.7-0.8,0.7-1.5c0-0.6-0.2-1.1-0.7-1.5c-0.4-0.3-1-0.5-1.8-0.5c-0.7,0-1.3,0.2-1.8,0.5c-0.5,0.3-0.7,0.8-0.7,1.5
			C101.2,266.8,101.4,267.3,101.9,267.7z"/>
	</g>
	<g>
		<path class="st0" d="M112.2,264.6v-1h2.6V274h-1.1v-9.4H112.2z"/>
	</g>
	<g>
		<path class="st0" d="M122.2,263.6c0.5,0.2,0.8,0.5,1.1,0.9c0.2,0.4,0.4,0.9,0.4,1.4c0,0.6-0.2,1.2-0.6,1.6c-0.4,0.5-1,0.7-1.7,0.8
			v0.1c0.8,0.2,1.4,0.5,1.8,0.9c0.4,0.4,0.7,1,0.7,1.7c0,0.8-0.3,1.5-0.8,2.1c-0.6,0.5-1.4,0.8-2.4,0.8s-1.9-0.3-2.5-0.8
			c-0.6-0.5-1-1.3-1.2-2.4h1c0.1,0.7,0.4,1.3,0.8,1.7c0.5,0.4,1.1,0.6,1.8,0.6c0.7,0,1.3-0.2,1.7-0.6c0.4-0.4,0.6-0.9,0.6-1.5
			c0-0.7-0.3-1.2-0.8-1.6c-0.6-0.4-1.3-0.6-2.3-0.6h-0.3v-0.9h0.3c2,0,3-0.7,3-2c0-0.6-0.2-1-0.6-1.4c-0.4-0.3-0.9-0.5-1.5-0.5
			c-0.6,0-1.2,0.2-1.6,0.5c-0.5,0.4-0.7,0.9-0.8,1.6h-1c0.1-1,0.4-1.7,1-2.2c0.6-0.5,1.4-0.8,2.5-0.8
			C121.1,263.3,121.7,263.4,122.2,263.6z"/>
	</g>
	<g>
		<path class="st0" d="M129.5,269.7c1-1.2,1.6-2.2,1.6-3.2c0-0.6-0.2-1.2-0.5-1.6c-0.3-0.4-0.9-0.6-1.6-0.6c-0.8,0-1.3,0.2-1.7,0.7
			c-0.4,0.5-0.6,1.1-0.7,1.9h-1c0.1-1.1,0.4-2,1-2.6s1.4-0.9,2.5-0.9c0.9,0,1.7,0.2,2.2,0.7c0.6,0.5,0.9,1.2,0.9,2.2
			c0,0.8-0.3,1.6-0.8,2.5c-0.5,0.8-1.2,1.6-2,2.4c-0.8,0.7-1.6,1.3-2.5,1.8h5.6v0.9h-7v-0.7C127.1,272,128.5,270.9,129.5,269.7z"/>
	</g>
	<g>
		<path class="st0" d="M44.8,281.2v10.4h-1v-4.9h-5.6v4.9h-1v-10.4h1v4.6h5.6v-4.6H44.8z"/>
	</g>
	<g>
		<path class="st0" d="M48.1,282.1v3.9h4v0.8h-4v4h4.5v0.9h-5.5v-10.4h5.5v0.8L48.1,282.1L48.1,282.1z"/>
	</g>
	<g>
		<path class="st0" d="M60.1,291.7l-2.7-4.4l-2.5,4.4h-1.2l3.1-5.3l-3.2-5.1h1.2l2.7,4.3l2.5-4.3h1.2l-3.1,5.2l3.2,5.2L60.1,291.7
			L60.1,291.7z"/>
	</g>
	<g>
		<path class="st0" d="M74.3,284.9l-0.5,2.5h2.1v0.9h-2.3l-0.7,3.2h-1l0.7-3.2h-3.3l-0.7,3.2h-1l0.7-3.2H66v-0.9h2.5l0.5-2.5h-2.3
			V284h2.5l0.7-3.3h1l-0.7,3.3h3.3l0.7-3.3h1l-0.7,3.3h2.2v0.9H74.3z M73.3,284.9H70l-0.5,2.5h3.3L73.3,284.9z"/>
	</g>
	<g>
		<path class="st0" d="M82,287.5c1-1.2,1.6-2.2,1.6-3.2c0-0.6-0.2-1.2-0.5-1.6c-0.3-0.4-0.9-0.6-1.6-0.6c-0.8,0-1.3,0.2-1.7,0.7
			c-0.4,0.5-0.6,1.1-0.7,1.9h-1c0.1-1.1,0.4-2,1-2.6c0.6-0.6,1.4-0.9,2.5-0.9c0.9,0,1.7,0.2,2.2,0.7c0.6,0.5,0.9,1.2,0.9,2.2
			c0,0.8-0.3,1.6-0.8,2.5c-0.5,0.8-1.2,1.6-2,2.4c-0.8,0.7-1.6,1.3-2.5,1.8H85v0.9h-7V291C79.6,289.8,81,288.6,82,287.5z"/>
	</g>
	<g>
		<path class="st0" d="M86,289.2v-0.9l5.5-7.1h1.1v7h1.6v0.9h-1.6v2.5h-1v-2.5H86V289.2z M91.6,282.5l-4.5,5.7h4.5V282.5z"/>
	</g>
	<g>
		<path class="st0" d="M100.6,281.4c0.5,0.2,0.8,0.5,1.1,0.9c0.2,0.4,0.4,0.9,0.4,1.4c0,0.6-0.2,1.2-0.6,1.6c-0.4,0.5-1,0.7-1.7,0.8
			v0.1c0.8,0.2,1.4,0.5,1.8,0.9c0.4,0.4,0.7,1,0.7,1.7c0,0.8-0.3,1.5-0.8,2.1c-0.6,0.5-1.4,0.8-2.4,0.8c-1,0-1.9-0.3-2.5-0.8
			c-0.6-0.5-1-1.3-1.2-2.4h1c0.1,0.7,0.4,1.3,0.8,1.7c0.5,0.4,1.1,0.6,1.8,0.6c0.7,0,1.3-0.2,1.7-0.6c0.4-0.4,0.6-0.9,0.6-1.5
			c0-0.7-0.3-1.2-0.8-1.6c-0.6-0.4-1.3-0.6-2.3-0.6h-0.3v-0.9h0.3c2,0,3-0.7,3-2c0-0.6-0.2-1-0.6-1.4c-0.4-0.3-0.9-0.5-1.5-0.5
			c-0.6,0-1.2,0.2-1.6,0.5c-0.5,0.4-0.7,0.9-0.8,1.6h-1c0.1-1,0.4-1.7,1-2.2c0.6-0.5,1.4-0.8,2.5-0.8
			C99.6,281,100.2,281.1,100.6,281.4z"/>
	</g>
	<g>
		<path class="st0" d="M110.3,289.2h-4.7l-0.9,2.5h-1.1l3.8-10.1h1.2l3.8,10.1h-1.1L110.3,289.2z M109.9,288.3l-2-5.6l-2.1,5.6
			H109.9z"/>
	</g>
	<g>
		<path class="st0" d="M114.1,282.3c0.3-0.4,0.7-0.7,1.2-1c0.5-0.2,1.2-0.4,1.9-0.4c0.7,0,1.4,0.1,1.9,0.4c0.5,0.2,0.9,0.6,1.2,1
			c0.3,0.4,0.4,0.9,0.4,1.4c0,0.6-0.2,1.1-0.5,1.5c-0.3,0.4-0.8,0.7-1.5,0.9c0.7,0.2,1.3,0.5,1.7,0.9c0.4,0.5,0.6,1,0.6,1.7
			c0,1-0.3,1.7-1,2.3s-1.6,0.8-2.8,0.8c-1.1,0-2.1-0.3-2.7-0.8c-0.6-0.5-1-1.3-1-2.3c0-0.7,0.2-1.3,0.6-1.7c0.4-0.4,1-0.8,1.7-0.9
			c-0.7-0.2-1.2-0.5-1.5-0.9c-0.3-0.4-0.5-0.9-0.5-1.5C113.7,283.2,113.8,282.7,114.1,282.3z M115.2,290.6c0.5,0.4,1.2,0.6,2,0.6
			s1.5-0.2,2-0.6c0.5-0.4,0.7-1,0.7-1.7s-0.3-1.3-0.8-1.7c-0.5-0.4-1.2-0.6-2-0.6c-0.8,0-1.5,0.2-2,0.6c-0.5,0.4-0.8,0.9-0.8,1.7
			C114.4,289.6,114.7,290.2,115.2,290.6z M115.4,285.3c0.4,0.3,1,0.5,1.8,0.5s1.4-0.2,1.8-0.5c0.4-0.3,0.7-0.8,0.7-1.5
			c0-0.6-0.2-1.1-0.7-1.5c-0.4-0.3-1-0.5-1.8-0.5c-0.7,0-1.3,0.2-1.8,0.5c-0.5,0.3-0.7,0.8-0.7,1.5
			C114.7,284.5,114.9,285,115.4,285.3z"/>
	</g>
	<g>
		<path class="st0" d="M122.2,289.2v-0.9l5.5-7.1h1.1v7h1.6v0.9h-1.6v2.5h-1v-2.5h-5.6V289.2z M127.8,282.5l-4.5,5.7h4.5V282.5z"/>
	</g>
</g>
<g>
	<g>
		<path class="st0" d="M44.8,378c0.8,0.6,1.4,1.4,1.7,2.4h-1.1c-0.3-0.7-0.7-1.3-1.3-1.7c-0.6-0.4-1.4-0.6-2.2-0.6
			c-0.7,0-1.4,0.2-2,0.5c-0.6,0.4-1.1,0.9-1.4,1.5c-0.3,0.7-0.5,1.4-0.5,2.3c0,0.9,0.2,1.7,0.5,2.3c0.3,0.7,0.8,1.2,1.4,1.5
			c0.6,0.4,1.3,0.5,2.1,0.5c0.7,0,1.3-0.2,1.9-0.5c0.6-0.3,1-0.8,1.4-1.3c0.4-0.6,0.6-1.3,0.6-2.1h-4.3V382h5.2v0.9
			c-0.1,0.9-0.3,1.7-0.7,2.4c-0.4,0.7-1,1.3-1.7,1.7c-0.7,0.4-1.5,0.6-2.5,0.6s-1.9-0.2-2.6-0.7c-0.8-0.4-1.4-1.1-1.8-1.9
			c-0.4-0.8-0.6-1.7-0.6-2.7c0-1,0.2-1.9,0.6-2.7c0.4-0.8,1-1.4,1.8-1.9c0.8-0.4,1.6-0.7,2.6-0.7C43,377.1,44,377.4,44.8,378z"/>
	</g>
	<g>
		<path class="st0" d="M50.8,379.9c0.5-0.3,1.2-0.5,1.9-0.5v1.1h-0.3c-0.8,0-1.4,0.2-1.9,0.6c-0.5,0.4-0.8,1.1-0.8,2v4.4h-1v-8h1
			v1.7C49.9,380.6,50.3,380.2,50.8,379.9z"/>
	</g>
	<g>
		<path class="st0" d="M59.5,386.3c0.5-0.4,0.8-0.9,0.9-1.5h1.1c-0.1,0.9-0.6,1.5-1.2,2.1c-0.7,0.5-1.5,0.8-2.5,0.8
			c-0.8,0-1.4-0.2-2-0.5c-0.6-0.3-1.1-0.8-1.4-1.4c-0.3-0.6-0.5-1.4-0.5-2.2c0-0.8,0.2-1.6,0.5-2.2c0.3-0.6,0.8-1.1,1.4-1.4
			c0.6-0.3,1.3-0.5,2-0.5c0.8,0,1.5,0.2,2,0.5c0.6,0.3,1,0.8,1.3,1.3c0.3,0.5,0.4,1.1,0.4,1.8c0,0.3,0,0.5-0.1,0.7h-6.6
			c0,0.7,0.1,1.2,0.4,1.7s0.6,0.8,1.1,1c0.4,0.2,0.9,0.3,1.4,0.3C58.4,386.8,59,386.6,59.5,386.3z M56.3,380.6
			c-0.4,0.2-0.8,0.5-1.1,1c-0.3,0.4-0.4,1-0.4,1.7h5.7c0-0.7-0.1-1.2-0.3-1.7c-0.3-0.5-0.6-0.8-1-1c-0.4-0.2-0.9-0.3-1.4-0.3
			C57.2,380.3,56.7,380.4,56.3,380.6z"/>
	</g>
	<g>
		<path class="st0" d="M63.6,379.5l2.8,6.7l2.6-6.7h1.1l-4.7,11.9h-1.2l1.6-3.9l-3.4-7.9H63.6z"/>
	</g>
	<g>
		<path class="st0" d="M44.8,413.4c0.8,0.6,1.4,1.4,1.7,2.5h-1.1c-0.3-0.7-0.7-1.3-1.4-1.8c-0.6-0.4-1.4-0.7-2.4-0.7
			c-0.7,0-1.4,0.2-1.9,0.5c-0.6,0.4-1,0.9-1.4,1.5c-0.3,0.7-0.5,1.4-0.5,2.3s0.2,1.6,0.5,2.3c0.3,0.7,0.8,1.2,1.4,1.5
			c0.6,0.4,1.2,0.5,1.9,0.5c0.9,0,1.7-0.2,2.4-0.7c0.6-0.4,1.1-1,1.4-1.8h1.1c-0.3,1.1-0.9,1.9-1.7,2.5c-0.8,0.6-1.8,0.9-3.1,0.9
			c-1,0-1.8-0.2-2.5-0.7c-0.7-0.5-1.3-1.1-1.7-1.9c-0.4-0.8-0.6-1.7-0.6-2.7s0.2-1.9,0.6-2.7c0.4-0.8,1-1.4,1.7-1.9
			c0.7-0.4,1.6-0.7,2.5-0.7C42.9,412.5,43.9,412.8,44.8,413.4z"/>
	</g>
	<g>
		<path class="st0" d="M58.5,412.8V423h-1v-8.5l-3.5,8.5H53l-3.5-8.5v8.5h-1v-10.1h1.2l3.8,8.9l3.8-8.9H58.5z"/>
	</g>
	<g>
		<path class="st0" d="M67.7,412.6l-3.3,6.3v4h-1v-4l-3.3-6.3h1.2l2.7,5.2l2.7-5.2H67.7z"/>
	</g>
	<g>
		<path class="st0" d="M71.1,417.8L76,423h-1.3l-4.5-4.9v4.9h-1v-10.4h1v4.9l4.5-4.9H76L71.1,417.8z"/>
	</g>
	<g>
		<path class="st0" d="M86.2,412.7c0.5,0.2,0.8,0.5,1.1,0.9c0.2,0.4,0.4,0.9,0.4,1.4c0,0.6-0.2,1.2-0.6,1.6c-0.4,0.5-1,0.7-1.7,0.8
			v0.1c0.8,0.2,1.4,0.5,1.8,0.9s0.7,1,0.7,1.7c0,0.8-0.3,1.5-0.8,2.1c-0.6,0.5-1.4,0.8-2.4,0.8c-1,0-1.9-0.3-2.5-0.8
			c-0.6-0.5-1-1.3-1.2-2.4h1c0.1,0.7,0.4,1.3,0.8,1.7c0.5,0.4,1.1,0.6,1.8,0.6c0.7,0,1.3-0.2,1.7-0.6c0.4-0.4,0.6-0.9,0.6-1.5
			c0-0.7-0.3-1.2-0.8-1.6c-0.6-0.4-1.3-0.6-2.3-0.6h-0.3v-0.7h0.3c2,0,3-0.7,3-2c0-0.6-0.2-1-0.6-1.4c-0.4-0.3-0.9-0.5-1.5-0.5
			s-1.2,0.2-1.6,0.5c-0.5,0.4-0.7,0.9-0.8,1.6h-1c0.1-1,0.4-1.7,1-2.2c0.6-0.5,1.4-0.8,2.5-0.8C85.2,412.3,85.8,412.5,86.2,412.7z"
			/>
	</g>
	<g>
		<path class="st0" d="M94.8,412.7c0.5,0.2,0.8,0.5,1.1,0.9c0.2,0.4,0.4,0.9,0.4,1.4c0,0.6-0.2,1.2-0.6,1.6c-0.4,0.5-1,0.7-1.7,0.8
			v0.1c0.8,0.2,1.4,0.5,1.8,0.9c0.4,0.4,0.7,1,0.7,1.7c0,0.8-0.3,1.5-0.8,2.1c-0.6,0.5-1.4,0.8-2.4,0.8s-1.9-0.3-2.5-0.8
			c-0.6-0.5-1-1.3-1.2-2.4h1c0.1,0.7,0.4,1.3,0.8,1.7c0.5,0.4,1.1,0.6,1.8,0.6c0.7,0,1.3-0.2,1.7-0.6c0.4-0.4,0.6-0.9,0.6-1.5
			c0-0.7-0.3-1.2-0.8-1.6c-0.6-0.4-1.3-0.6-2.3-0.6h-0.3v-0.7h0.3c2,0,3-0.7,3-2c0-0.6-0.2-1-0.6-1.4c-0.4-0.3-0.9-0.5-1.5-0.5
			s-1.2,0.2-1.6,0.5c-0.5,0.4-0.7,0.9-0.8,1.6h-1c0.1-1,0.4-1.7,1-2.2c0.6-0.5,1.4-0.8,2.5-0.8C93.8,412.3,94.4,412.5,94.8,412.7z"
			/>
	</g>
	<g>
		<path class="st0" d="M106.1,418.8c1-1.2,1.6-2.2,1.6-3.2c0-0.6-0.2-1.2-0.5-1.6c-0.3-0.4-0.9-0.6-1.6-0.6c-0.8,0-1.3,0.2-1.7,0.7
			c-0.4,0.5-0.6,1.1-0.7,1.9h-1c0.1-1.1,0.4-2,1-2.6c0.6-0.6,1.4-0.9,2.5-0.9c0.9,0,1.7,0.2,2.2,0.7c0.6,0.5,0.9,1.2,0.9,2.2
			c0,0.8-0.3,1.6-0.8,2.5c-0.5,0.8-1.2,1.6-2,2.4c-0.8,0.7-1.6,1.3-2.5,1.8h5.6v0.9h-7v-0.8C103.7,421.1,105,420,106.1,418.8z"/>
	</g>
	<g>
		<path class="st0" d="M117.3,413.4h-5.5v3.8c0.3-0.4,0.6-0.6,1.1-0.9c0.5-0.2,1-0.3,1.6-0.3c1.1,0,1.9,0.3,2.5,1
			c0.5,0.6,0.8,1.4,0.8,2.4s-0.3,1.9-0.9,2.6s-1.5,1-2.6,1c-1,0-1.8-0.3-2.5-0.8c-0.6-0.5-1-1.3-1.1-2.2h1c0.1,0.7,0.4,1.2,0.9,1.6
			c0.4,0.4,1,0.6,1.7,0.6c0.8,0,1.5-0.2,1.9-0.7c0.4-0.5,0.6-1.1,0.6-2c0-0.8-0.2-1.4-0.6-1.8c-0.4-0.4-1-0.7-1.9-0.7
			c-0.6,0-1.1,0.1-1.5,0.4c-0.4,0.2-0.8,0.6-1,1h-1v-5.7h6.5V413.4z"/>
	</g>
	<g>
		<path class="st0" d="M127.3,418.8c1-1.2,1.6-2.2,1.6-3.2c0-0.6-0.2-1.2-0.5-1.6c-0.3-0.4-0.9-0.6-1.6-0.6c-0.8,0-1.3,0.2-1.7,0.7
			s-0.6,1.1-0.7,1.9h-1c0.1-1.1,0.4-2,1-2.6s1.4-0.9,2.5-0.9c0.9,0,1.7,0.2,2.2,0.7c0.6,0.5,0.9,1.2,0.9,2.2c0,0.8-0.3,1.6-0.8,2.5
			c-0.5,0.8-1.2,1.6-2,2.4c-0.8,0.7-1.6,1.3-2.5,1.8h5.6v0.9h-7v-0.8C124.9,421.1,126.2,420,127.3,418.8z"/>
	</g>
	<g>
		<path class="st0" d="M137,413.8c-0.4-0.4-0.9-0.6-1.5-0.6c-0.9,0-1.6,0.3-2.1,1c-0.5,0.7-0.7,1.8-0.7,3.3c0,0.3,0,0.5,0,0.6
			c0.1-0.6,0.5-1.2,1-1.5c0.6-0.4,1.2-0.6,2-0.6c1,0,1.9,0.3,2.5,0.9c0.6,0.6,0.9,1.5,0.9,2.6c0,0.6-0.1,1.2-0.4,1.7
			c-0.2,0.5-0.6,0.9-1.1,1.2c-0.5,0.3-1.2,0.5-1.9,0.5c-1.5,0-2.5-0.5-3-1.4s-0.8-2.2-0.8-3.8c0-1.8,0.3-3.2,0.9-4.1
			c0.6-0.9,1.5-1.4,2.9-1.4c0.9,0,1.7,0.3,2.2,0.8c0.5,0.5,0.8,1.3,0.9,2.1h-1C137.6,414.6,137.4,414.1,137,413.8z M133.1,420.8
			c0.2,0.4,0.5,0.8,0.9,1c0.4,0.3,0.9,0.4,1.6,0.4c0.8,0,1.4-0.2,1.8-0.7c0.5-0.5,0.7-1.1,0.7-1.9c0-0.9-0.2-1.5-0.7-2
			c-0.5-0.5-1.1-0.7-1.9-0.7c-0.5,0-0.9,0.1-1.3,0.3c-0.4,0.2-0.7,0.5-1,0.8c-0.3,0.4-0.4,0.8-0.4,1.4
			C132.8,419.9,132.9,420.4,133.1,420.8z"/>
	</g>
	<g>
		<path class="st0" d="M151.5,413.4H146v3.8c0.3-0.4,0.6-0.6,1.1-0.9c0.5-0.2,1-0.3,1.6-0.3c1.1,0,1.9,0.3,2.5,1
			c0.5,0.6,0.8,1.4,0.8,2.4s-0.3,1.9-0.9,2.6c-0.6,0.7-1.5,1-2.6,1c-1,0-1.8-0.3-2.5-0.8c-0.6-0.5-1-1.3-1.1-2.2h1
			c0.1,0.7,0.4,1.2,0.9,1.6c0.4,0.4,1,0.6,1.7,0.6c0.8,0,1.5-0.2,1.9-0.7c0.4-0.5,0.6-1.1,0.6-2c0-0.8-0.2-1.4-0.6-1.8
			c-0.4-0.4-1-0.7-1.9-0.7c-0.6,0-1.1,0.1-1.5,0.4c-0.4,0.2-0.8,0.6-1,1h-1v-5.7h6.5V413.4z"/>
	</g>
	<g>
		<path class="st0" d="M42.7,440.8l-2.8-4.3h-1.7v4.3h-1v-10.4h3.2c1.2,0,2,0.3,2.6,0.8c0.6,0.5,0.9,1.3,0.9,2.2
			c0,0.9-0.2,1.5-0.7,2.1c-0.5,0.5-1.2,0.8-2.1,0.9l2.9,4.3h-1.3V440.8z M38.2,435.6h2.1c1.7,0,2.5-0.7,2.5-2.2
			c0-1.5-0.8-2.2-2.5-2.2h-2.1V435.6z"/>
	</g>
	<g>
		<path class="st0" d="M53.1,431.1c0.8,0.6,1.4,1.4,1.7,2.4h-1.1c-0.3-0.7-0.7-1.3-1.3-1.7c-0.6-0.4-1.4-0.6-2.2-0.6
			c-0.7,0-1.4,0.2-2,0.5c-0.6,0.4-1.1,0.9-1.4,1.5c-0.3,0.7-0.5,1.4-0.5,2.3s0.2,1.7,0.5,2.3c0.3,0.7,0.8,1.2,1.4,1.5
			c0.6,0.4,1.3,0.5,2.1,0.5c0.7,0,1.3-0.2,1.9-0.5c0.6-0.3,1-0.8,1.4-1.3c0.4-0.6,0.6-1.3,0.6-2.1h-4.3v-0.7h5.2v0.9
			c-0.1,0.9-0.3,1.7-0.7,2.4c-0.4,0.7-1,1.3-1.7,1.7c-0.7,0.4-1.5,0.6-2.5,0.6s-1.9-0.2-2.6-0.7c-0.8-0.4-1.4-1.1-1.8-1.9
			s-0.6-1.7-0.6-2.7s0.2-1.9,0.6-2.7c0.4-0.8,1-1.4,1.8-1.9c0.8-0.4,1.6-0.7,2.6-0.7C51.3,430.2,52.3,430.5,53.1,431.1z"/>
	</g>
	<g>
		<path class="st0" d="M63.4,436.2c0.4,0.5,0.6,1,0.6,1.7c0,0.8-0.3,1.5-0.9,2c-0.6,0.5-1.4,0.8-2.5,0.8h-3.5v-10.4h3.6
			c1,0,1.8,0.2,2.3,0.7c0.5,0.5,0.8,1.1,0.8,1.9c0,0.7-0.2,1.2-0.5,1.6c-0.4,0.4-0.8,0.7-1.4,0.8C62.5,435.4,63,435.7,63.4,436.2z
			 M58.1,434.9h2.4c0.7,0,1.3-0.2,1.7-0.5c0.4-0.3,0.6-0.8,0.6-1.4s-0.2-1-0.6-1.4c-0.4-0.3-0.9-0.5-1.7-0.5h-2.4V434.9z
			 M62.3,439.3c0.4-0.4,0.6-0.9,0.6-1.5c0-0.6-0.2-1.1-0.7-1.5c-0.4-0.4-1-0.6-1.8-0.6h-2.3v4.1h2.4
			C61.3,439.9,61.9,439.7,62.3,439.3z"/>
	</g>
	<g>
		<path class="st0" d="M68.7,431.3v-1h2.6v10.4h-1.1v-9.4H68.7z"/>
	</g>
	<g>
		<path class="st0" d="M79.4,431.1l-4,9.6h-1.1l4-9.5h-5.7v-0.9h6.7v0.8H79.4z"/>
	</g>
	<g>
		<path class="st0" d="M86.9,431.1l-4,9.6h-1.1l4-9.5h-5.7v-0.9h6.7v0.8H86.9z"/>
	</g>
	<g>
		<path class="st0" d="M91.4,431.3v-1H94v10.4h-1.1v-9.4H91.4z"/>
	</g>
	<g>
		<path class="st0" d="M102.2,431.1l-4,9.6H97l4-9.5h-5.7v-0.9h6.7v0.8H102.2z"/>
	</g>
	<g>
		<path class="st0" d="M109.6,431.1l-4,9.6h-1.1l4-9.5h-5.7v-0.9h6.7v0.8H109.6z"/>
	</g>
	<g>
		<path class="st0" d="M114.1,431.3v-1h2.6v10.4h-1.1v-9.4H114.1z"/>
	</g>
	<g>
		<path class="st0" d="M124.9,431.1l-4,9.6h-1.1l4-9.5H118v-0.9h6.7v0.8H124.9z"/>
	</g>
	<g>
		<path class="st0" d="M132.3,431.1l-4,9.6h-1.1l4-9.5h-5.7v-0.9h6.7v0.8H132.3z"/>
	</g>
	<g>
		<path class="st0" d="M44.8,448v10.4h-1v-4.9h-5.6v4.9h-1V448h1v4.6h5.6V448H44.8z"/>
	</g>
	<g>
		<path class="st0" d="M48.1,448.9v3.9h4v0.8h-4v4h4.5v0.9h-5.5v-10.4h5.5v0.8L48.1,448.9L48.1,448.9z"/>
	</g>
	<g>
		<path class="st0" d="M60.1,458.4l-2.7-4.4l-2.5,4.4h-1.2l3.1-5.3l-3.2-5.1h1.2l2.7,4.3L60,448h1.2l-3.1,5.2l3.2,5.2L60.1,458.4
			L60.1,458.4z"/>
	</g>
	<g>
		<path class="st0" d="M74.3,451.7l-0.5,2.5h2.1v0.9h-2.3l-0.7,3.2h-1l0.7-3.2h-3.3l-0.7,3.2h-1l0.7-3.2H66v-0.8h2.5l0.5-2.5h-2.3
			v-0.9h2.5l0.7-3.3h1l-0.7,3.3h3.3l0.7-3.3h1l-0.7,3.3h2.2v0.9h-2.4V451.7z M73.3,451.7H70l-0.5,2.5h3.3L73.3,451.7z"/>
	</g>
	<g>
		<path class="st0" d="M84.6,453.9c0.4,0.5,0.6,1,0.6,1.7c0,0.8-0.3,1.5-0.9,2c-0.6,0.5-1.4,0.8-2.5,0.8h-3.6V448h3.6
			c1,0,1.8,0.2,2.3,0.7c0.5,0.5,0.8,1.1,0.8,1.9c0,0.7-0.2,1.2-0.5,1.6c-0.4,0.4-0.8,0.7-1.4,0.8C83.7,453.2,84.2,453.5,84.6,453.9z
			 M79.4,452.7h2.4c0.7,0,1.3-0.2,1.7-0.5c0.4-0.3,0.6-0.8,0.6-1.4c0-0.6-0.2-1-0.6-1.4c-0.4-0.3-0.9-0.5-1.7-0.5h-2.3v3.8H79.4z
			 M83.6,457c0.4-0.4,0.6-0.9,0.6-1.5c0-0.6-0.2-1.1-0.7-1.5c-0.4-0.4-1-0.6-1.8-0.6h-2.4v4.1h2.4C82.5,457.5,83.1,457.3,83.6,457z"
			/>
	</g>
	<g>
		<path class="st0" d="M86.1,449v-1h2.6v10.4h-1.1V449H86.1z"/>
	</g>
	<g>
		<path class="st0" d="M97.3,453.9c0.4,0.5,0.6,1,0.6,1.7c0,0.8-0.3,1.5-0.9,2c-0.6,0.5-1.4,0.8-2.5,0.8h-3.6V448h3.6
			c1,0,1.8,0.2,2.3,0.7c0.5,0.5,0.8,1.1,0.8,1.9c0,0.7-0.2,1.2-0.5,1.6c-0.4,0.4-0.8,0.7-1.4,0.8C96.4,453.2,96.9,453.5,97.3,453.9z
			 M92,452.7h2.4c0.7,0,1.3-0.2,1.7-0.5c0.4-0.3,0.6-0.8,0.6-1.4c0-0.6-0.2-1-0.6-1.4c-0.4-0.3-0.9-0.5-1.7-0.5h-2.3v3.8H92z
			 M96.2,457c0.4-0.4,0.6-0.9,0.6-1.5c0-0.6-0.2-1.1-0.7-1.5c-0.4-0.4-1-0.6-1.8-0.6h-2.4v4.1h2.4C95.2,457.5,95.8,457.3,96.2,457z"
			/>
	</g>
	<g>
		<path class="st0" d="M98.8,449v-1h2.6v10.4h-1.1V449H98.8z"/>
	</g>
	<g>
		<path class="st0" d="M110,453.9c0.4,0.5,0.6,1,0.6,1.7c0,0.8-0.3,1.5-0.9,2c-0.6,0.5-1.4,0.8-2.5,0.8h-3.6V448h3.6
			c1,0,1.8,0.2,2.3,0.7c0.5,0.5,0.8,1.1,0.8,1.9c0,0.7-0.2,1.2-0.5,1.6c-0.4,0.4-0.8,0.7-1.4,0.8C109.1,453.2,109.6,453.5,110,453.9
			z M104.7,452.7h2.4c0.7,0,1.3-0.2,1.7-0.5c0.4-0.3,0.6-0.8,0.6-1.4c0-0.6-0.2-1-0.6-1.4c-0.4-0.3-0.9-0.5-1.7-0.5h-2.3v3.8H104.7z
			 M108.9,457c0.4-0.4,0.6-0.9,0.6-1.5c0-0.6-0.2-1.1-0.7-1.5c-0.4-0.4-1-0.6-1.8-0.6h-2.4v4.1h2.4
			C107.9,457.5,108.5,457.3,108.9,457z"/>
	</g>
	<g>
		<path class="st0" d="M111.5,449v-1h2.6v10.4H113V449H111.5z"/>
	</g>
</g>
</svg>
