<?xml version="1.0" encoding="utf-8"?>
<!-- Generator: Adobe Illustrator 24.0.1, SVG Export Plug-In . SVG Version: 6.00 Build 0)  -->
<svg version="1.1" id="Livello_1" xmlns="http://www.w3.org/2000/svg" xmlns:xlink="http://www.w3.org/1999/xlink" x="0px" y="0px"
	 viewBox="0 0 180 180" style="enable-background:new 0 0 180 180;" xml:space="preserve">
<style type="text/css">
	.st0{fill:#FF143F;}
</style>
<g>
	<path class="st0" d="M90.1,73c-9.5,0-17.2,7.7-17.2,17.2s7.7,17.2,17.2,17.2s17.2-7.7,17.2-17.2S99.6,73,90.1,73z"/>
	<path class="st0" d="M130.3,59.7c-0.8-2.2-2.1-4.3-3.9-5.9c-1.7-1.7-3.7-3-5.9-3.9c-1.8-0.7-4.5-1.5-9.6-1.8
		c-5.4-0.3-7.1-0.3-20.9-0.3c-13.8,0-15.4,0-20.8,0.3c-5,0.2-7.8,1.1-9.6,1.8c-2.2,0.8-4.3,2.1-5.9,3.9c-1.7,1.7-3,3.7-3.9,5.9
		c-0.7,1.8-1.5,4.5-1.8,9.6c-0.2,5.4-0.3,7.1-0.3,20.9c0,13.8,0.1,15.4,0.3,20.8c0.2,5,1.1,7.8,1.8,9.6c0.8,2.3,2.2,4.3,3.9,5.9
		c1.7,1.7,3.7,3,5.9,3.9c1.8,0.7,4.5,1.5,9.6,1.8c5.4,0.3,7.1,0.3,20.8,0.3c13.8,0,15.4,0,20.9-0.3c5-0.2,7.8-1.1,9.6-1.8
		c4.5-1.7,8.1-5.3,9.8-9.8c0.7-1.8,1.5-4.5,1.8-9.6c0.3-5.4,0.3-7.1,0.3-20.8c0-13.8,0-15.4-0.3-20.9
		C131.9,64.3,131,61.6,130.3,59.7z M90.1,116.7c-14.6,0-26.5-11.9-26.5-26.5c0-14.6,11.9-26.5,26.5-26.5c14.6,0,26.5,11.9,26.5,26.5
		C116.6,104.8,104.8,116.7,90.1,116.7z M117.7,68.8c-3.4,0-6.2-2.8-6.2-6.2c0-3.4,2.8-6.2,6.2-6.2c3.4,0,6.2,2.8,6.2,6.2
		C123.9,66,121.1,68.8,117.7,68.8z"/>
	<path class="st0" d="M0,0v180h180V0H0z M141.4,111.5c-0.3,5.5-1.1,9.3-2.4,12.5c-2.7,6.9-8.2,12.4-15.1,15.1
		c-3.3,1.3-7,2.1-12.5,2.4c-5.5,0.3-7.3,0.3-21.3,0.3c-14,0-15.8,0-21.3-0.3c-5.5-0.3-9.2-1.1-12.5-2.4c-3.5-1.3-6.6-3.3-9.1-6
		c-2.6-2.6-4.7-5.7-6-9.1c-1.3-3.3-2.1-7-2.4-12.5c-0.3-5.5-0.3-7.3-0.3-21.3c0-14,0.1-15.8,0.3-21.3c0.3-5.5,1.1-9.3,2.4-12.5
		c1.3-3.4,3.3-6.6,6-9.1c2.6-2.6,5.7-4.7,9.1-6c3.3-1.3,7-2.1,12.5-2.4c5.5-0.3,7.3-0.3,21.3-0.3c14,0,15.8,0.1,21.3,0.3
		c5.5,0.3,9.3,1.1,12.5,2.4c3.4,1.3,6.6,3.3,9.1,6c2.6,2.6,4.7,5.7,6,9.1c1.3,3.3,2.1,7,2.4,12.5c0.3,5.5,0.3,7.3,0.3,21.3
		C141.7,104.2,141.7,106,141.4,111.5z"/>
</g>
</svg>
