<?xml version="1.0" encoding="utf-8"?>
<!-- Generator: Adobe Illustrator 24.0.1, SVG Export Plug-In . SVG Version: 6.00 Build 0)  -->
<svg version="1.1" id="Livello_1" xmlns="http://www.w3.org/2000/svg" xmlns:xlink="http://www.w3.org/1999/xlink" x="0px" y="0px"
	 viewBox="0 0 180 180" style="enable-background:new 0 0 180 180;" xml:space="preserve">
<style type="text/css">
	.st0{fill:#FF143F;}
</style>
<g>
	<path class="st0" d="M0,0v180h180V0H0z M63.8,136H41.9V70.1h21.9V136z M52.9,61.1h-0.2c-7.3,0-12.1-5.1-12.1-11.4
		c0-6.5,4.9-11.4,12.4-11.4s12.1,4.9,12.3,11.4C65.3,56,60.5,61.1,52.9,61.1z M142.9,136H121v-35.3c0-8.9-3.2-14.9-11.1-14.9
		c-6,0-9.7,4.1-11.2,8c-0.6,1.4-0.7,3.4-0.7,5.3V136H76c0,0,0.3-59.8,0-65.9h21.9v9.3c2.9-4.5,8.1-10.9,19.8-10.9
		c14.4,0,25.2,9.4,25.2,29.7V136z"/>
</g>
</svg>
